<?xml version="1.0" encoding="UTF-8" standalone="no"?>
<!-- Generator: Adobe Illustrator 27.6.1, SVG Export Plug-In . SVG Version: 6.00 Build 0)  -->

<svg
   version="1.1"
   id="svg1347"
   sodipodi:docname="Coat_of_arms_of_Syria_(2024–present)_variation_media (2).svg"
   x="0px"
   y="0px"
   viewBox="0 0 301.98421 403.11976"
   xml:space="preserve"
   inkscape:version="1.4 (86a8ad7, 2024-10-11)"
   width="301.98419"
   height="403.11981"
   xmlns:inkscape="http://www.inkscape.org/namespaces/inkscape"
   xmlns:sodipodi="http://sodipodi.sourceforge.net/DTD/sodipodi-0.dtd"
   xmlns:xlink="http://www.w3.org/1999/xlink"
   xmlns="http://www.w3.org/2000/svg"
   xmlns:svg="http://www.w3.org/2000/svg"><defs
   id="defs22" />
<style
   type="text/css"
   id="style1">
	.st0{fill:#FFFFFF;stroke:#5D5D5D;stroke-width:4;}
	.st1{fill:#5D5D5D;}
	.st2{fill:#FFFFFF;}
	.st3{clip-path:url(#SVGID_00000181791214390875340330000012524222899147291581_);}
	.st4{fill:none;stroke:#5D5D5D;stroke-width:4;}
	.st5{fill:#5D5D5D;stroke:#5D5D5D;stroke-width:1.4724;}
	.st6{fill:#FFFFFF;stroke:#5D5D5D;stroke-width:10;}
	.st7{fill:#007A3D;}
	.st8{fill:#FFFFFF;stroke:#5D5D5D;stroke-width:1.4724;stroke-dasharray:0,3.1714;}
	.st9{fill:none;stroke:#5D5D5D;stroke-width:10;}
	.st10{fill:#FFFFFF;stroke:#5D5D5D;stroke-width:2;}
	.st11{fill:none;stroke:#5D5D5D;stroke-width:4;stroke-linecap:square;}
	.st12{fill-rule:evenodd;clip-rule:evenodd;fill:#FFFFFF;stroke:#5D5D5D;stroke-width:1.8505;}
	.st13{fill:#CE1126;}
</style>
<sodipodi:namedview
   bordercolor="#000000"
   borderopacity="0.25"
   id="namedview461"
   inkscape:current-layer="svg1347"
   inkscape:cx="117.01889"
   inkscape:cy="166.93979"
   inkscape:deskcolor="#d1d1d1"
   inkscape:pagecheckerboard="0"
   inkscape:pageopacity="0.0"
   inkscape:showpageshadow="2"
   inkscape:window-height="1017"
   inkscape:window-maximized="1"
   inkscape:window-width="1920"
   inkscape:window-x="-8"
   inkscape:window-y="-8"
   inkscape:zoom="0.93147353"
   pagecolor="#ffffff"
   showgrid="false">
	</sodipodi:namedview>



<g
   id="g1"
   transform="matrix(-1,0,0,1,440.67806,-176.75729)">
	<defs
   id="defs1">
		<path
   id="SVGID_1_"
   d="m 347,44 c 3.5,-3.9 5.3,-6.6 7.8,-11.1 3.6,-6.9 12.6,-2.1 19.8,-2.6 -1.2,-0.3 -2.1,0.3 -2.1,1.2 0,4.8 -2.7,10.6 -8.3,11.4 -5.1,0.7 -9.9,-1.2 -14.9,-0.8 -0.8,0 -1.5,1.1 -2.3,1.9 z" />
	</defs>
	<clipPath
   id="SVGID_00000060008400442946984200000010929530942442325127_">
		<use
   xlink:href="#SVGID_1_"
   style="overflow:visible"
   id="use1" />
	</clipPath>
	
		<g
   id="g937"
   transform="matrix(5.11255,0,0,5.11255,-270.832,-614.95)"
   clip-path="url(#SVGID_00000060008400442946984200000010929530942442325127_)">
	</g>
</g>






<g
   id="g985"
   transform="matrix(-1,0,0,1,440.67806,-176.75729)"
   style="fill:#efc55b;fill-opacity:1;stroke:#000000;stroke-width:3;stroke-dasharray:none;stroke-opacity:1">
	
</g>


<g
   id="g1039"
   transform="matrix(1.4307482,0,0,1.4281572,-328.68983,-252.26947)"
   style="stroke-width:3;stroke-dasharray:none">
	<path
   id="path1021"
   class="st0"
   d="m 387.6,178.5 48.6,64.2 c 4.85958,31.53326 3.20141,61.68005 -4.53606,89.6614 C 417.90658,382.11277 384.93043,425.01845 335.2,456.7 257.5,407.2 220.9,330.2 234.3,242.7 l 48.5,-64.2 z"
   style="fill:#efc55b;fill-opacity:1;stroke:#000000;stroke-width:3.72031;stroke-dasharray:none;stroke-opacity:1"
   sodipodi:nodetypes="ccscccc" />
	<g
   id="g1037"
   style="stroke-width:3;stroke-dasharray:none">
		<path
   id="path1025"
   d="m 335.7,195.4 v 238.8 c 66.8,-42.6 98.1,-108.4 86.7,-183.7 l -41.9,-55.1 v 0 z"
   style="fill:#007a3d;fill-opacity:1;stroke-width:3;stroke-dasharray:none" />
		<path
   id="path1027"
   class="st7"
   d="M 290.8,195.4 249,250.5 c -11.4,75.3 19.9,141.1 86.6,183.7 0,0 0.1,0 0.1,-0.1 V 195.4 Z"
   style="fill:#000000;fill-opacity:1;stroke-width:3;stroke-dasharray:none" />
		<path
   id="path1029"
   class="st8"
   d="m 306.5,195.4 v 216.8 c 8.8,7.9 18.5,15.3 29.2,22.1 10.7,-6.8 20.5,-14.3 29.4,-22.2 V 195.4 Z"
   style="stroke-width:0;stroke-dasharray:none"
   inkscape:label="centre line" />
		<g
   id="g1033"
   style="stroke-width:3;stroke-dasharray:none">
		</g>
		<path
   id="path1035"
   class="st9"
   d="m 380.5,195.4 42,55.1 c 11.4,75.3 -19.9,141.1 -86.8,183.7 -66.8,-42.6 -98.1,-108.5 -86.6,-183.7 l 41.8,-55.1 z"
   style="stroke:#000000;stroke-width:2.99739;stroke-dasharray:none;stroke-opacity:1" />
	</g>
</g>




<path
   id="path1031-2"
   class="st13"
   d="m 151.8745,49.498591 7.53505,23.44236 h 24.69819 l -19.95391,14.511925 7.67459,23.442364 -19.95392,-14.511929 -19.95392,14.511929 7.6746,-23.442364 -19.95392,-14.511925 h 24.6982 z m 0,96.141559 7.53505,23.44237 h 24.69819 l -19.95391,14.51194 7.67459,23.44237 v 0 0 l -19.95392,-14.51195 -19.95392,14.51195 v 0 0 l 7.6746,-23.44237 -19.95392,-14.51194 h 24.6982 z m 0,96.14159 7.53505,23.44236 h 24.69819 l -19.95391,14.51192 7.67459,23.44237 -19.95392,-14.51192 -19.95392,14.51192 7.6746,-23.44237 -19.95392,-14.51192 h 24.6982 z"
   style="stroke-width:1.39538" />
<g
   id="g22"
   transform="matrix(-1,0,0,1,440.67806,-176.75729)">
	<g
   id="g21">
		<g
   id="g20">
			
		</g>
	</g>
</g>
</svg>
