<?xml version="1.0" encoding="utf-8"?>
<!-- Generator: Adobe Illustrator 25.2.1, SVG Export Plug-In . SVG Version: 6.00 Build 0)  -->
<svg version="1.1" id="Layer_1" xmlns="http://www.w3.org/2000/svg" xmlns:xlink="http://www.w3.org/1999/xlink" x="0px" y="0px"
	 viewBox="0 0 186 186" style="enable-background:new 0 0 186 186;" xml:space="preserve">
<style type="text/css">
	.st0{fill:#0C3050;}
	.st1{fill:#FFFFFF;}
	.st2{fill-rule:evenodd;clip-rule:evenodd;fill:#FFFFFF;}
</style>
<g id="top_logo_" transform="translate(-867 -30)">
	<circle id="Ellipse_1" class="st0" cx="960" cy="123" r="93"/>
	<path class="st1" d="M960.9,51.6c-39.6,0-71.7,32.1-71.7,71.7c0,39.6,32.1,71.7,71.7,71.7c39.6,0,71.7-32.1,71.7-71.7l0,0l0,0
		C1032.5,83.7,1000.4,51.6,960.9,51.6 M960.9,194c-39.1,0-70.7-31.7-70.7-70.7s31.7-70.7,70.7-70.7s70.7,31.7,70.7,70.7l0,0
		C1031.6,162.3,999.9,194,960.9,194z"/>
	<path class="st1" d="M1022.9,108.1l-1.5,2.9c0.3,0.5,0.4,1,0.5,1.5l0.3,1.8c0.1,1.9,0.2,1.4-0.9,2.9c-0.8,1-1.6,1.9-2.3,3
		c-0.7,1-1,1.1-1,3.1v0.1l0,0c-0.2,17.7-8.5,34.4-22.6,45.1l0,0c-20.4,16.1-49.2,16.1-69.6,0l0,0c-13.6-10.4-21.8-26.3-22.5-43.4
		v-1.8c0.1-1.9,0.1-1.6-1-3.2l-0.5-0.6l-2.3,2.3c0.2,0.5,0.3,1,0.3,1.5v0.1l0,0v1.4l0,0c0.6,19.1,10.1,36.8,25.7,47.8v0.1
		c10.2,7.4,22.5,11.4,35.1,11.5l0,0c12.6-0.1,24.9-4.1,35.1-11.5l0,0c15.6-11,25.1-28.6,25.7-47.7l0,0c0-0.5,0-1.2,0.1-1.6
		c0-1.8,0.2-1.4,1.1-2.9c0.7-1,1.5-2,2.3-3c1.2-1.5,1.4-1.2,1-3.1c-0.4-2.2-0.2-1.5-0.6-3.4c-0.3-2-0.3-1.5-2-2.6l-0.6-0.4"/>
	<path class="st1" d="M934.5,179.4c-1-0.5-2.1-1-3.1-1.5l-0.9,1.6c-11.9-7.7-20-16.7-25.8-27.8c-4.4-8.1-6.8-17.2-7-26.4
		c0-3,0.1-2.5,2.2-4.6l2.7-2.6c1.4-1.4,1.2-2.1,1.5-4.1V114c0.3-1.9,0.7-2.1-0.2-3.9l-0.4-0.7l-2.7,1.8c0,0.3-0.1,0.7-0.2,1.6
		c-0.1,0.8-0.2,1-0.3,1.6c-0.3,1.8,0,1.4-1.3,2.7l-2.1,2c-1.4,1.4-2.4,1.8-2.6,3.8v1.2l0,0v1l0,0c0.2,9.7,2.2,18.2,7.4,28.2
		c6.2,11.8,18.4,24.4,30.8,30.2l1.5-3.1L934.5,179.4z"/>
	<polygon class="st1" points="933.7,184.6 935.7,185.4 936.5,183.5 934.6,182.7 	"/>
	<polygon class="st1" points="934.9,181.8 936.8,182.6 937.7,180.7 935.7,179.8 	"/>
	<path class="st1" d="M980.3,182.4l0.7,1.9c-4.4,1.3-8.9,2.2-13.5,2.7l-0.2-1.9c-1.1,0.1-2.3,0.2-3.4,0.3l0.3,4.5h0.3
		c5.7-0.3,11.3-1.3,16.8-3h0.1c1.1-0.3,2.1-0.7,3.2-1.1l0.3-0.1l-1.4-4.4C982.5,181.7,981.4,182.1,980.3,182.4"/>
	<path class="st1" d="M955.3,187.1c-4.5-0.5-9-1.4-13.4-2.7l0.4-1.9c-1.1-0.3-2.2-0.7-3.2-1.1l-0.3,1l-1.1,3.4
		c5.5,2,11.2,3.3,17,3.9h0.2c1.2,0.1,2.4,0.2,3.6,0.3v-0.1l0,0l0.3-4.3c-1.1-0.1-2.3-0.1-3.4-0.2L955.3,187.1z"/>
	<rect x="960.3" y="185.3" class="st1" width="2.1" height="2.1"/>
	<path class="st1" d="M987.5,179.4c1-0.5,2.1-1,3.1-1.5l0.6,1.6c11.9-7.7,20.3-16.4,26.1-27.5c4.4-8.2,6.8-17.4,7-26.7
		c0-1.4-0.1-2.6-1.2-3.7l1.9-2.4c1.3,1.2,2.6,2.1,2.7,3.9v1.2l0,0v1l0,0c-0.2,9.7-2.2,18.2-7.4,28.2c-6.2,11.8-18.4,24.4-30.8,30.2
		l-1.5-3.2L987.5,179.4z"/>
	<polygon class="st1" points="988.4,184.6 986.5,185.4 985.6,183.5 987.6,182.7 	"/>
	<polygon class="st1" points="987.3,181.8 985.3,182.6 984.5,180.7 986.4,179.8 	"/>
	<path class="st1" d="M960.9,53.1c-38.7,0-70.1,31.4-70.1,70.2c0,38.7,31.4,70.1,70.2,70.1c38.7,0,70.1-31.4,70.1-70.2v0
		C1031,84.5,999.6,53.1,960.9,53.1 M960.9,191.8c-37.9,0-68.6-30.7-68.6-68.5s30.7-68.6,68.5-68.6c37.9,0,68.5,30.7,68.6,68.5l0,0
		C1029.4,161,998.7,191.7,960.9,191.8C960.9,191.8,960.9,191.8,960.9,191.8L960.9,191.8z"/>
	<path class="st1" d="M960.9,86.4c-20.3,0-36.8,16.5-36.8,36.8s16.5,36.8,36.8,36.8s36.8-16.5,36.8-36.8v0
		C997.7,102.9,981.2,86.4,960.9,86.4 M960.9,158.5c-19.5,0-35.3-15.8-35.3-35.2s15.8-35.3,35.2-35.3s35.3,15.8,35.3,35.2
		c0,0,0,0,0,0l0,0C996.1,142.7,980.4,158.5,960.9,158.5L960.9,158.5z"/>
	<path class="st1" d="M902.6,96.5l2.9-1.3c0.1-0.5,0.2-1,0.5-1.5l0.9-1.6c1.1-1.5,0.7-1.3,2.5-1.7c1.2-0.3,2.4-0.5,3.6-0.9
		c1.2-0.4,1.4-0.3,2.6-2l0-0.1l0.1,0c1.5-1.5,2.4-2.2,2.6-4.4v-0.8l-3.2,0.2c-0.2,0.7-1.7,1.9-2.2,2.7c-1,1.5-1,1.1-2.6,1.6
		c-1.2,0.4-2.4,0.6-3.7,1c-1.9,0.5-1.8,0.1-2.7,1.8c-1.1,1.9-0.8,1.3-1.7,3s-0.6,1.3,0,3.2C902.4,96,902.5,96.3,902.6,96.5"/>
	<path class="st1" d="M908.1,86.7l3.1-0.7c0.1-0.8,1.6-2.3,2.2-2.9c1.3-1.3,0.9-1.1,2.8-1.3l3.7-0.3c2-0.1,2.2-0.8,3.7-2.1l0.1-0.1
		c1.5-1.3,1.9-1.2,2.3-3.1l0.2-0.7l-3.2-0.4c-0.2,0.2-0.5,0.4-1.2,1.1c-0.6,0.5-0.8,0.7-1.3,1.1c-1.4,1.2-0.9,1.1-2.8,1.2l-3.8,0.3
		c-1.9,0.2-1.4-0.4-2.8,1c-0.8,0.8-1.8,2.1-2.5,2.9c-1.3,1.6-0.9,1.3-0.7,3.2L908.1,86.7z"/>
	<path class="st1" d="M915.5,78l3.2-0.2c0.1-0.3,0.4-0.5,1-1.2l1.4-1.2c1.5-1.1,1.1-1,3-0.8c1.2,0.1,2.4,0.3,3.7,0.4
		c1.3,0,1.4,0.1,3-0.8l0,0c2-0.9,3-1.2,3.9-3.2l0.3-0.7l-3.1-0.9c-0.4,0.4-2.2,1.2-2.8,1.7c-1.5,1.1-1.3,0.7-3,0.6
		c-1.3-0.1-2.5-0.2-3.8-0.4c-1.9-0.2-1.7-0.5-3.2,0.7c-1.6,1.4-1.2,1-2.6,2.2c-1.4,1.2-1.1,1.1-1.1,3L915.5,78"/>
	<path class="st1" d="M1000.4,75.3l1.4,1.2c1.3,1.3,1.1,0.9,1.2,2.8c0.1,1.2,0,2.5,0.2,3.7s0.1,1.4,1.4,3c0.4,0.5,0.7,1,1.1,1.4l0,0
		c1.2,1.5,0.7,1.4,2.6,1.9l0.8,0.2l0.4-3.2c-0.8-0.8-1.5-1.6-2.2-2.4c-1.3-1.3-0.9-1.2-1.1-2.8c-0.1-1.3-0.1-2.5-0.2-3.8
		c-0.1-1.9,0.3-1.8-1.2-3c-1.6-1.4-1.2-1-2.6-2.2c-1.4-1.2-1.2-0.9-3.2-0.7l-0.7,0.1l0.7,3.2C999.6,74.6,1000,74.9,1000.4,75.3"/>
	<path class="st1" d="M991.3,69c0.6,0.3,1.2,0.6,1.7,1c1.5,1.1,1.3,0.7,1.6,2.6c0.3,1.2,0.5,2.4,0.8,3.6c0.4,1.9,1.2,2.1,2.7,3.4
		l0.1,0c1.5,1.3,1.5,1.7,3.4,1.9l0.7,0.1l-0.1-3.2c-0.3-0.2-0.5-0.4-1.2-1c-0.4-0.3-0.9-0.7-1.3-1.1c-1.4-1.2-1.2-0.8-1.6-2.6
		l-0.8-3.7c-0.4-1.9,0.2-1.5-1.4-2.6c-1-0.7-2.3-1.3-3.4-1.9c-1.8-1-1.4-0.7-3.3-0.1l-0.7,0.2l1.2,2.9
		C990.1,68.4,990.4,68.5,991.3,69"/>
	<path class="st1" d="M981.3,64.5l1.8,0.6c1.7,0.8,1.4,0.5,2.1,2.2c0.5,1.1,0.9,2.3,1.5,3.4s0.6,1.3,2.3,2.3c0.5,0.3,1.1,0.7,1.6,1
		c1.6,1.1,1.1,1.1,3.1,0.9l0.8-0.1l-0.7-3.2c-0.5-0.1-2.2-1.3-3-1.6c-1.6-0.8-1.2-0.8-2-2.3c-0.6-1.1-1-2.3-1.5-3.4
		c-0.8-1.8-0.4-1.8-2.2-2.4c-2.1-0.7-1.5-0.5-3.2-1.2c-1.9-0.7-1.4-0.4-3.2,0.5l-0.7,0.3l1.8,2.7C980.3,64.3,980.8,64.4,981.3,64.5"
		/>
	<path class="st1" d="M898.8,107.1l2.7-1.7c-0.1-0.3,0-0.6,0.3-1.6c0.1-0.6,0.3-1.2,0.6-1.7c0.8-1.7,0.5-1.4,2.2-2.1l3.4-1.5
		c1.8-0.8,1.8-1.5,2.8-3.3l0-0.1c1-1.7,1.4-1.8,1.1-3.7l-0.1-0.7l-3.2,0.7c-0.1,0.3-0.3,0.6-0.8,1.4c-0.3,0.7-0.5,0.9-0.8,1.5
		c-0.9,1.6-0.5,1.3-2.2,2.1l-3.5,1.6c-1.8,0.8-1.5,0.1-2.3,1.9c-0.5,1.1-0.7,2.3-1.1,3.4c-0.7,1.9-0.4,1.5,0.5,3.2L898.8,107.1z"/>
	<path class="st1" d="M1014.5,91.9l0.9,1.6c0.8,1.7,0.7,1.3,0.2,3c-0.4,1.2-0.8,2.4-1.1,3.6c-0.3,1.2-0.4,1.4,0.3,3.2v0.1h-0.1
		c0.5,2.1,0.6,3.2,2.4,4.5l0.7,0.4l1.5-2.9c-0.4-0.5-0.8-2.4-1.1-3.2c-0.8-1.7-0.4-1.4,0-3c0.3-1.2,0.7-2.4,1.1-3.6
		c0.6-1.9,0.9-1.6-0.1-3.2c-1.1-1.9-0.7-1.4-1.7-3c-1-1.7-0.8-1.3-2.7-1.7c-0.2-0.1-0.5-0.1-0.7-0.2l-0.4,3.2
		C1013.8,90.8,1014,91.1,1014.5,91.9"/>
	<path class="st1" d="M1018.4,100.3c0.7,0.5,1.1,2.6,1.4,3.4c0.5,1.8,0.5,1.4-0.4,3c-0.6,1.1-1.2,2.2-1.7,3.3
		c-0.9,1.8-0.4,2.3-0.1,4.3v0.1c0.3,1.9,0,2.3,1.4,3.6l0.5,0.5l2.1-2.6c-0.1-0.3-0.1-0.7-0.3-1.6c-0.1-0.8-0.2-1-0.3-1.6
		c-0.3-1.8-0.4-1.4,0.4-3l1.7-3.4c0.9-1.7,1.1-1,0.6-2.9c-0.3-1.1-0.8-2.6-1.2-3.6c-0.7-1.9-0.6-1.5-2.4-2.3l-0.7-0.3L1018.4,100.3z
		"/>
	<path class="st1" d="M1006.9,78.7l0.1,3.2c0.3,0.1,0.5,0.3,1.2,1.1c0.4,0.4,0.8,0.9,1.2,1.4c1.1,1.5,0.9,1.1,0.7,3
		c-0.2,1.2-0.3,2.4-0.5,3.7c-0.3,2,0.4,2.3,1.3,4.1v0.1c0.9,1.7,0.8,2.1,2.6,2.9l0.7,0.3l1-3.1c-0.2-0.2-0.3-0.6-0.8-1.4
		c-0.4-0.7-0.5-0.9-0.8-1.5c-0.9-1.6-0.9-1.1-0.6-3c0.2-1.3,0.3-2.5,0.5-3.7c0.2-1.9,0.7-1.3-0.4-2.9c-0.7-1-1.5-1.8-2.3-2.8
		c-1.3-1.6-1.1-1.2-3-1.3L1006.9,78.7z"/>
	<path class="st1" d="M897,118.2l2.3-2.3c-0.1-0.5-0.1-1.1,0-1.6l0.3-1.9c0.5-1.8,0.2-1.4,1.8-2.5c1-0.7,2.1-1.3,3.1-2.1
		c1-0.8,1.2-0.8,1.8-2.7c0.6-1.9,1.4-2.8,0.8-4.9l-0.2-0.8l-3,1.3c0,0.2-0.8,2.7-0.9,3.1c-0.4,1.8-0.5,1.4-1.9,2.4
		c-1,0.8-2.1,1.4-3.1,2.1c-1.6,1.1-1.7,0.7-2,2.6c-0.3,2.2-0.3,1.5-0.5,3.4c-0.3,2-0.1,1.5,1.1,3.1C896.7,117.8,896.9,118,897,118.2
		"/>
	<path class="st1" d="M960.9,68.9c-30,0-54.4,24.4-54.4,54.4s24.4,54.4,54.4,54.4s54.4-24.4,54.4-54.4l0,0v0
		C1015.2,93.2,990.9,68.9,960.9,68.9 M960.9,176.3c-29.3,0-53.1-23.8-53.1-53.1c0-29.3,23.8-53.1,53.1-53.1
		c29.3,0,53.1,23.8,53.1,53.1C1014,152.6,990.2,176.3,960.9,176.3L960.9,176.3z"/>
	<path class="st1" d="M1006,138.5l-1.1,2.7c-0.1,0.3-0.3,0.5-0.5,0.7c-0.4,0.4-0.9,0.6-1.4,0.7c-0.3,0-0.5-0.1-0.8-0.2l-3.1-1.2
		c2.4-6.1,4.3-10.6,4.2-17.5h-0.3c-0.3,0-0.6-0.1-0.8-0.2c-0.5-0.2-1-0.6-1.2-1.1c-0.1-0.3-0.2-0.5-0.2-0.8v-1.3l1.6,0v1.3
		c0,0.1,0,0.2,0.1,0.3c0.1,0.1,0.2,0.1,0.3,0.1h0.3l-0.1-3.7l3.3-0.1c0.3,0,0.5,0.1,0.8,0.2c0.3,0.1,0.5,0.3,0.7,0.5
		c0.4,0.4,0.6,0.9,0.7,1.5v1.1c0,0.3-0.1,0.6-0.2,0.8c-0.1,0.3-0.2,0.5-0.4,0.7c-0.2,0.2-0.4,0.4-0.7,0.5c-0.3,0.1-0.5,0.2-0.8,0.2
		l-1.7,0c0.1,3.1-0.4,4.9-1,8.2l1.2,0.2c0.1,0,0.2,0,0.2,0c0.1-0.1,0.2-0.2,0.3-0.3l0.8-4.7l2.6,0.5c0.3,0.1,0.6,0.2,0.8,0.3
		c0.2,0.1,0.4,0.3,0.6,0.5c0.2,0.3,0.3,0.5,0.3,0.8c0.1,0.3,0.1,0.5,0,0.8l-1.3,6.1l-1.6-0.3l1.3-6.1c0-0.1,0-0.2,0-0.2
		c0-0.1-0.1-0.1-0.1-0.2c-0.1-0.1-0.1-0.1-0.2-0.1l-0.9-0.2l-0.5,3.1c-0.1,0.5-0.4,1-0.9,1.3c-0.3,0.1-0.5,0.3-0.8,0.3
		c-0.3,0.1-0.5,0.1-0.8,0l-1.2-0.2c-0.7,2.3-1.5,4.5-2.4,6.7l1.5,0.6c0.1,0,0.1,0,0.2,0l0.2-0.1c0.1-0.1,0.1-0.1,0.1-0.2l1.3-3.3
		L1006,138.5z M1006.4,115l-0.3-1.5c0-0.2-0.1-0.3-0.3-0.4c-0.1,0-0.2,0-0.2,0l-1.6,0.3l0.3,2L1006.4,115z M993.7,90l-1.1-1.1
		c-0.1,0-0.1-0.1-0.2-0.1c-0.2-0.1-0.3,0-0.4,0.1l-1.1,1.2l1.5,1.4L993.7,90z M994.8,97.1c-1.9-2.5-4-4.8-6.4-6.9l2.3-2.4
		c0.2-0.2,0.4-0.4,0.7-0.5c0.3-0.1,0.5-0.2,0.8-0.2c0.3,0,0.6,0,0.8,0.1c0.3,0.1,0.5,0.2,0.7,0.4l2.3,2.3l-2.6,2.8
		c0.9,1,1.8,2.1,2.5,3.2l0,0l0.2,0.2l0.1,0.1l0,0l1.5,2.2l0,0l1.3,2l0,0l0.1,0.2v0.1l0,0l1.1,2.1l0,0l1.1,2.4l0,0l0.1,0.3v0.1l0,0
		c0.7,1.9,1.8,4.6,2.2,6.4l1.6-0.3c0.3-0.1,0.5-0.1,0.8,0c0.3,0.1,0.6,0.2,0.8,0.3c0.2,0.1,0.4,0.3,0.5,0.6c0.2,0.2,0.3,0.5,0.3,0.8
		l0.6,3.2l-5.4,1c-0.5-3.2-1.2-6.3-2.3-9.3l0,0l-0.8-2.1l-1-2.3l0,0l-1.2-2.4L996,99l0,0L994.8,97.1z M996.5,88.8l-1.1-1l1.1-1.1
		l1.1,1L996.5,88.8z M995,87.5l-1.1-1l1.1-1.1l1.1,1L995,87.5z M985.6,88.1l-1.4-1l4.7-6.6l1.4,1L985.6,88.1z M979.3,80.1l-1-0.5
		c-0.1,0-0.2-0.1-0.2-0.1c-0.1,0-0.3,0.1-0.3,0.3l-0.7,1.5l1.8,0.8l0.7-1.5c0.1-0.1,0.1-0.3,0-0.4C979.4,80.2,979.4,80.1,979.3,80.1
		L979.3,80.1z M983.5,86.6c-1.3-0.8-2.5-1.6-3.8-2.2l-0.1,0.3c-0.1,0.3-0.3,0.5-0.5,0.7c-0.4,0.4-1,0.6-1.5,0.6
		c-0.3,0-0.6-0.1-0.8-0.2l-1.2-0.5l0.7-1.5l1.2,0.5c0.1,0,0.2,0,0.3,0c0.1,0,0.2-0.1,0.2-0.2l0.1-0.3l-3.4-1.5l1.4-3
		c0.1-0.2,0.3-0.5,0.5-0.7c0.2-0.2,0.5-0.3,0.7-0.5c0.3-0.1,0.5-0.1,0.8-0.1c0.3,0,0.6,0,0.8,0.2l1,0.5c0.3,0.1,0.5,0.3,0.7,0.5
		c0.2,0.2,0.3,0.4,0.4,0.7c0.1,0.3,0.1,0.5,0.1,0.8c0,0.3,0,0.6-0.2,0.8l-0.7,1.5c0.9,0.4,1.7,0.8,2.5,1.3l3.2-5.5l1.5,0.9
		L983.5,86.6z M941.4,78.5l2.3-0.9c0.3-0.1,0.6-0.2,0.9-0.1c0.5,0,1.1,0.2,1.5,0.6c0.2,0.2,0.3,0.4,0.4,0.7l0.6,1.5
		c7.5-2.9,17.8-2.1,25.5-0.3l0.4-1.6c0-0.1,0-0.1,0-0.2c0-0.1-0.1-0.2-0.1-0.2c-0.1-0.1-0.1-0.1-0.2-0.1l-3.5-0.8l1-1.5l2.8,0.7
		c0.3,0.1,0.6,0.2,0.8,0.4c0.5,0.3,0.8,0.8,0.9,1.3c0,0.3,0,0.5-0.1,0.8l-0.8,3.2c-12.4-2.8-19-2.9-30.8,1.8l-0.6-1.5l3.2-1.3
		l-0.6-1.5c-0.1-0.1-0.2-0.2-0.4-0.3c-0.1,0-0.2,0-0.2,0L942,80L941.4,78.5z M942.1,84l-4.7,2.6l-1.7-2.9c-0.4-0.8-0.3-1.7,0.2-2.4
		c0.2-0.2,0.4-0.4,0.6-0.6l2.8-1.6L942.1,84z M938.8,81.6l-1.4,0.8c-0.1,0.1-0.2,0.2-0.2,0.4c0,0.1,0,0.2,0,0.3l0.8,1.5l1.8-1
		L938.8,81.6z M938.3,78.7l-1.3,0.7l-0.8-1.3l1.3-0.7L938.3,78.7z M936.6,79.7l-1.3,0.7l-0.8-1.3l1.3-0.7L936.6,79.7z M934.6,88.7
		l-1.3,1l-5-6.4l1.3-1L934.6,88.7z M932.6,90.4c-1.4,1.4-3.9,3.5-4.9,4.9l0.2,0.2c0.2,0.2,0.4,0.4,0.6,0.6c0.3,0.5,0.4,1.1,0.3,1.6
		c-0.1,0.3-0.2,0.5-0.3,0.7l-0.8,1l-1.4-1l0.7-1c0.1-0.1,0.1-0.2,0.1-0.3c0-0.1-0.1-0.2-0.2-0.3l-0.2-0.2l-2.1,2.9l-2.7-1.9
		c-0.2-0.2-0.4-0.4-0.5-0.6c-0.1-0.3-0.2-0.5-0.3-0.8c-0.1-0.3-0.1-0.5,0-0.8c0-0.3,0.1-0.5,0.3-0.8l0.7-0.9
		c0.2-0.2,0.4-0.4,0.6-0.5c0.2-0.2,0.5-0.3,0.8-0.3c0.3-0.1,0.5-0.1,0.8,0c0.3,0,0.5,0.1,0.8,0.3l1.4,1c1.2-1.5,2.5-2.8,3.9-4.1
		l-4.4-4.6l1.2-1.2L932.6,90.4z M923.3,94.8l-0.7,0.9c0,0.1-0.1,0.1-0.1,0.2c0,0.2,0.1,0.3,0.2,0.4l1.4,1l1.2-1.6l-1.4-1
		c-0.1-0.1-0.3-0.1-0.4-0.1C923.4,94.7,923.3,94.7,923.3,94.8z M919.4,100.7l-1,2.3c0,0.1,0,0.1,0,0.2c0,0.1,0.1,0.2,0.1,0.3
		l1.5,1.3l1.6-3.5l-1.5-0.7c-0.1,0-0.2,0-0.3,0C919.6,100.5,919.5,100.6,919.4,100.7L919.4,100.7z M912.9,109.8l-0.3,1.4l-1.5-0.3
		l0.3-1.4L912.9,109.8z M920.6,117l-0.1,1.4l-1.5-0.1l0.1-1.5L920.6,117z M920.5,118.9l-0.1,1.5l-1.5-0.1l0.1-1.5L920.5,118.9z
		 M921.9,141.1l-3.1,1.2c-0.3,0.1-0.5,0.2-0.8,0.2c-0.3,0-0.6-0.1-0.8-0.2c-0.2-0.1-0.5-0.3-0.7-0.5c-0.2-0.2-0.4-0.4-0.5-0.7
		l-1.2-3l3.5-1.4c-1.7-4.1-2.7-13.3-2.4-17.6l-3.5-0.3l0.1-1.7l3.5,0.3c0.6-2.1,0.7-3,1.1-4.9l-3.7-0.8l0.4-1.7l3.7,0.8
		c0.3-1.5,0.8-3,1.4-4.3l-5.8-2.6l0.7-1.5l2.7,1.3c0-0.1,0-0.2,0-0.3c0-0.3,0-0.6,0.2-0.9l1-2.3c0.1-0.3,0.3-0.5,0.5-0.7
		c0.4-0.4,0.9-0.5,1.5-0.5c0.3,0,0.6,0,0.8,0.2l3,1.4C916.7,116,915.7,125.3,921.9,141.1L921.9,141.1z M917,139.1l0.6,1.5
		c0,0.1,0.1,0.1,0.1,0.2c0.1,0.1,0.3,0.2,0.4,0.1l1.5-0.6l-0.7-1.9L917,139.1z M914,139l0.5,1.4l-1.4,0.6l-0.5-1.4L914,139z
		 M914.8,140.8l0.5,1.4l-1.4,0.6l-0.5-1.4L914.8,140.8z M1006.9,121.4v-1.1c0-0.1,0-0.2,0-0.2c-0.1-0.1-0.2-0.2-0.4-0.2l-1.6,0
		l0.1,2l1.7,0c0.2,0,0.3-0.1,0.4-0.2C1007,121.6,1007,121.5,1006.9,121.4L1006.9,121.4z"/>
	<path class="st1" d="M981.8,160l0.9-0.6c0.2-0.2,0.5-0.3,0.8-0.3c0.3-0.1,0.5-0.1,0.8,0c0.3,0.1,0.6,0.2,0.8,0.3
		c0.2,0.2,0.4,0.4,0.6,0.6l1.9,3c0.2,0.2,0.3,0.5,0.3,0.7c0.1,0.5,0,1.1-0.3,1.5c-0.2,0.2-0.4,0.4-0.6,0.6l-1.1,0.7l-0.9-1.4
		l1.1-0.7c0.1-0.1,0.1-0.2,0.2-0.3c0.1-0.1,0.1-0.2,0-0.3l-0.1-0.2l-3.1,2l-1.8-2.7c-0.2-0.2-0.2-0.5-0.3-0.8
		c-0.1-0.3-0.1-0.5,0-0.8c0-0.3,0.1-0.5,0.3-0.7c0.2-0.2,0.4-0.4,0.6-0.6 M983.7,160.8l-0.9,0.6c-0.1,0.1-0.2,0.2-0.2,0.4
		c0,0.1,0,0.2,0.1,0.2l0.9,1.4l1.7-1.1l-0.9-1.4c0-0.1-0.1-0.1-0.2-0.2c-0.2-0.1-0.4-0.1-0.6,0.1L983.7,160.8z M985.2,157.9l1.9-1.6
		c0.2-0.2,0.5-0.3,0.8-0.4c0.5-0.2,1.1-0.1,1.5,0.1c0.3,0.1,0.5,0.3,0.7,0.5l2.1,2.5l-3.8,3.2l-1.1-1.2l2.6-2.2l-1.1-1.3
		c-0.1-0.1-0.3-0.1-0.4-0.1c-0.1,0-0.2,0.1-0.2,0.1l-1.9,1.6L985.2,157.9z"/>
	<path class="st1" d="M966.4,167.2l-1.5,0.2c-0.1,0-0.1,0-0.2,0.1c-0.1,0.1-0.2,0.2-0.2,0.4l0.2,1.6l2-0.2L966.4,167.2z M968.3,169
		c3.2-0.4,8.8-2.4,11.6-3.8l-2.8-5.6l1.5-0.8l3.6,7.1c-7.2,3.6-11.1,4.4-18.8,5.3l-0.4-3.2c-0.1-0.3-0.1-0.5,0-0.8
		c0.1-0.3,0.2-0.5,0.4-0.8c0.2-0.2,0.4-0.4,0.6-0.5c0.2-0.1,0.5-0.2,0.8-0.3l3.2-0.4L968.3,169z"/>
	
		<rect x="965.7" y="162.9" transform="matrix(0.9925 -0.1219 0.1219 0.9925 -12.7402 119.002)" class="st1" width="1.4" height="1.5"/>
	
		<rect x="963.8" y="163.2" transform="matrix(0.9925 -0.1219 0.1219 0.9925 -12.788 118.7656)" class="st1" width="1.4" height="1.5"/>
	<path class="st1" d="M950.8,172.7l-1.4-0.3l0.3-1.5l1.4,0.3L950.8,172.7z M949,172.3l-1.4-0.3l0.3-1.5l1.4,0.3L949,172.3z
		 M942.9,170.7l-1.3-0.5l0.6-1.4l1.3,0.5L942.9,170.7z M937.2,167.8l-1.3-0.7l0.8-1.3l1.2,0.7L937.2,167.8z M935.7,166.9l-1.2-0.7
		l0.8-1.3l1.3,0.7L935.7,166.9z M959.8,171.3c-12.9-0.4-21.8-4.5-30.9-12.4l5.2-6l1.2,1.1l-4.1,4.7c1.9,1.6,3.9,3.1,6,4.4l1.9-3.2
		l1.5,0.8l-1.9,3.2c1.4,0.8,2.9,1.6,4.4,2.2l1.4-3.4l1.5,0.6l-1.4,3.4c1.5,0.6,3.1,1.1,4.7,1.5l0.8-3.6l1.6,0.4l-0.8,3.6
		c2.4,0.6,4.8,0.9,7.2,0.9l0.2-6.2l1.7,0.1L959.8,171.3z"/>
	<path class="st2" d="M921.9,148.5l2-1.5c0.2-0.1,0.5-0.1,0.7,0.1l1.5,2c0.1,0.2,0.1,0.5-0.1,0.7l0,0l-2,1.5
		c-0.2,0.1-0.5,0.1-0.7-0.1l-1.5-2.1C921.7,149,921.7,148.7,921.9,148.5C921.9,148.5,921.9,148.5,921.9,148.5L921.9,148.5"/>
	<path class="st2" d="M999.4,148.5l-2-1.5c-0.2-0.1-0.5-0.1-0.7,0.1l-1.5,2c-0.1,0.2-0.1,0.5,0.1,0.7l2,1.5c0.2,0.1,0.5,0.1,0.7-0.1
		l1.5-2C999.6,149,999.6,148.7,999.4,148.5L999.4,148.5"/>
	<polygon class="st1" points="974.8,114.2 978.7,119.9 985.5,117.7 981.2,123.2 985.4,128.9 978.9,126.6 974.7,132.3 974.9,125.4 
		968.2,123.2 974.8,121.3 	"/>
	<path class="st1" d="M960.3,140.1c-9.3,0-16.8-7.5-16.9-16.8s7.5-16.8,16.8-16.9c5,0,9.7,2.2,12.9,6c-6-9.3-18.4-11.9-27.7-5.9
		s-11.9,18.4-5.9,27.7s18.4,11.9,27.7,5.9c2.4-1.5,4.4-3.6,5.9-5.9C969.9,137.9,965.2,140.1,960.3,140.1"/>
</g>
</svg>
