<?xml version="1.0" encoding="UTF-8" standalone="no"?>
<!-- Created with Inkscape (http://www.inkscape.org/) -->

<svg
   xmlns:dc="http://purl.org/dc/elements/1.1/"
   xmlns:cc="http://creativecommons.org/ns#"
   xmlns:rdf="http://www.w3.org/1999/02/22-rdf-syntax-ns#"
   xmlns:svg="http://www.w3.org/2000/svg"
   xmlns="http://www.w3.org/2000/svg"
   xmlns:xlink="http://www.w3.org/1999/xlink"
   xmlns:sodipodi="http://sodipodi.sourceforge.net/DTD/sodipodi-0.dtd"
   xmlns:inkscape="http://www.inkscape.org/namespaces/inkscape"
   version="1.1"
   width="220.58942"
   height="249.80356"
   viewBox="0 0 220.58943 249.80357"
   id="svg2"
   xml:space="preserve"
   style="overflow:visible"
   inkscape:version="0.47pre4 r22446"
   sodipodi:docname="Coat_of_arms_of_Saint_Kitts_and_Nevis_1983_variant.svg"><metadata
   id="metadata148"><rdf:RDF><cc:Work
       rdf:about=""><dc:format>image/svg+xml</dc:format><dc:type
         rdf:resource="http://purl.org/dc/dcmitype/StillImage" /></cc:Work></rdf:RDF></metadata><sodipodi:namedview
   pagecolor="#ffffff"
   bordercolor="#666666"
   borderopacity="1"
   objecttolerance="10"
   gridtolerance="10"
   guidetolerance="10"
   inkscape:pageopacity="0"
   inkscape:pageshadow="2"
   inkscape:window-width="1280"
   inkscape:window-height="970"
   id="namedview146"
   showgrid="false"
   inkscape:zoom="1.8894847"
   inkscape:cx="184.57852"
   inkscape:cy="73.746648"
   inkscape:window-x="0"
   inkscape:window-y="0"
   inkscape:window-maximized="1"
   inkscape:current-layer="svg2" /><defs
   id="defs542"><inkscape:perspective
   sodipodi:type="inkscape:persp3d"
   inkscape:vp_x="0 : 124.90178 : 1"
   inkscape:vp_y="0 : 1000 : 0"
   inkscape:vp_z="220.58942 : 124.90178 : 1"
   inkscape:persp3d-origin="110.29471 : 83.267853 : 1"
   id="perspective150" />
		
		
		
		
		
		
		
		
		
		
		
		
		
		
		
		
		
		
		
		
		
		
		
		
		
		
		
		
		
		
		
		
		
		
		
		
		
		
		
		
		
		
		
		
		
		
		
		
		
		
		
		
		
		
		
		
		
		
		
		
	
		
		
		
		
		
		
		
		
		
		
		
		
		
		
		
		
		
		
		
		
		
		
		
		
		
		
		
		
		
		
		
		
		
		
		
		
		
		
		
		
		
		
		
		
		
		
		
		
		
		
		
		
		
		
		
		
		
		
		
		
		
		
		
		
		
		
		
		
		
		
		
		
		
		
	<inkscape:perspective
   id="perspective3021"
   inkscape:persp3d-origin="0.5 : 0.33333333 : 1"
   inkscape:vp_z="1 : 0.5 : 1"
   inkscape:vp_y="0 : 1000 : 0"
   inkscape:vp_x="0 : 0.5 : 1"
   sodipodi:type="inkscape:persp3d" /></defs>
<g
   transform="translate(-4.2864537,2.9358868)"
   id="Layer_1">
</g>
<g
   transform="matrix(1.12519,0,0,1.12519,-18.696154,-11.981943)"
   id="Layer_2">
	<g
   id="g6">
		<path
   d="m 72.65625,145.4375 c -0.159053,7.16356 -0.324501,14.45624 -0.40625,16.71875 -0.239666,6.62177 3.197143,24.23959 11.78125,38.1875 8.584107,13.94791 27.90625,23.34375 27.90625,23.34375 0,0 11.53039,-6.44757 17.96875,-11.8125 6.43836,-5.36493 16.09332,-18.52562 19.3125,-28.71875 3.21918,-10.19201 2.15625,-25.46762 2.15625,-25.46875 l 0.15625,-12.0625 -78.875,-0.1875 z"
   transform="matrix(0.888735,0,0,0.888735,15.1163,8.71435)"
   id="path3080"
   style="fill:#dededd;fill-opacity:1;stroke:#000000;stroke-width:1px;stroke-linecap:butt;stroke-linejoin:miter;stroke-opacity:1" /><rect
   width="71.759003"
   height="25.271"
   x="79.306999"
   y="113.333"
   id="rect8"
   style="fill:#007cc3;fill-opacity:1" />
		<rect
   width="71.518997"
   height="1.908"
   x="79.306999"
   y="138.604"
   id="rect10"
   style="fill:none" />
		<path
   d="m 84.313,128.829 c 0,0 0,-3.336 1.431,-3.336 1.431,0 3.099,1.191 3.099,1.906 0,0.715 1.67,2.146 0.954,3.576 -0.716,1.43 -3.337,2.621 -4.053,1.668 -0.716,-0.953 -0.478,0.24 -0.478,0.24 0,0 1.192,1.906 2.861,1.906 1.669,0 1.669,0 1.669,0 0,0 0.477,-0.238 1.192,1.43 0.715,1.67 0.715,0.717 0.715,0.717 l 1.191,-2.146 v -0.477 c 0,0 0.716,0.477 1.908,0.477 1.191,0 3.099,-1.193 3.099,-2.385 0,0 -1.669,0.715 -2.622,0.238 -0.953,-0.477 -1.43,-2.859 -0.715,-4.529 0.715,-1.668 1.191,-2.621 2.383,-2.383 1.192,0.238 2.385,1.668 1.908,2.859 0,0 2.622,-1.43 2.622,-3.098 0,-1.67 -0.478,-3.577 -2.622,-3.577 -2.146,0 -4.768,0.477 -5.245,2.622 0,0 0.477,-2.384 0.477,-4.052 0,-1.668 -1.431,-4.768 -2.146,-4.768 -0.715,0 -2.146,2.385 -2.146,3.815 0,1.43 0,5.005 0,5.005 0,0 -3.337,-3.813 -4.769,-3.098 -1.43,0.715 -3.963,2.089 -3.412,4.143 0.553,2.055 1.984,3.247 2.699,3.247 z"
   id="path12"
   style="fill:#f0a238;fill-opacity:1;stroke:#000000;stroke-width:0.44436799999999999;stroke-miterlimit:4;stroke-dasharray:none" />
		<rect
   width="6.6750002"
   height="1.4859999"
   x="88.650002"
   y="129.159"
   id="rect14"
   style="fill:#f0a238;fill-opacity:1;stroke:#000000;stroke-width:0.44436799999999999;stroke-miterlimit:4;stroke-dasharray:none" />
		<path
   d="m 102.909,119.771 c 0,0 0.715,0.953 1.668,0.953 0.954,0 3.338,0 3.338,0 0,0 -4.291,3.099 -4.291,4.291 0,1.193 1.669,1.432 1.669,1.432 0,0 -0.238,3.338 -0.238,4.529 0,1.191 0.238,1.668 1.192,1.668 0.953,0 -1.192,1.67 -1.192,1.67 l 0.238,0.953 0.954,1.432 2.383,-1.432 h 9.537 l 0.477,-1.43 0.55,0.367 0.165,0.109 0.716,-0.238 0.715,1.668 0.953,1.193 0.954,-2.861 0.715,0.953 c 0,0 1.193,-10.252 0.478,-12.397 -0.716,-2.146 -2.861,-5.483 -5.007,-5.96 -2.146,-0.477 -5.961,-1.669 -8.344,-0.954 -2.385,0.715 -4.769,0.239 -5.007,1.431 -0.238,1.192 0.954,1.43 0.954,1.43 0,0 -2.386,1.431 -3.577,1.193 z"
   id="path16"
   style="fill:#f0a238;stroke:#000000;stroke-width:1;fill-opacity:1" />
		<path
   d="m 111.967,118.102 c 0,0 0.953,3.813 2.623,4.768 1.669,0.954 2.622,2.385 2.622,4.292 0,1.908 0.238,4.291 0.238,4.291 l 1.192,2.385"
   id="path18"
   style="fill:none;stroke:#000000;stroke-width:1" />
		<path
   d="m 119.358,125.731 c 0,0 -1.046,8.602 -0.165,8.473"
   id="path20"
   style="fill:none;stroke:#000000;stroke-width:1" />
		<path
   d="m 105.292,126.446 c 0,0 2.384,0 3.337,-0.953"
   id="path22"
   style="fill:none;stroke:#000000;stroke-width:1" />
		<polyline
   points="109.345,121.439 111.491,123.108 109.583,122.869"
   id="polyline24"
   style="fill:none;stroke:#000000;stroke-width:1" />
		<path
   d="m 115.305,128.352 c 0,0 -1.906,-0.715 -2.622,0.477 -0.716,1.193 -1.431,1.67 -1.431,1.67 l 5.245,-0.477 c 0,0 1.191,-3.1 0.477,-4.053 -0.715,-0.955 -1.669,2.383 -1.669,2.383 z"
   id="path26"
   style="fill:#926529;fill-opacity:1" />
		<polyline
   points="106.247,132.643 108.869,132.405 109.107,134.551"
   id="polyline28"
   style="fill:none;stroke:#000000;stroke-width:1" />
		<path
   d="m 118.881,116.671 c 0,0 -1.67,1.908 -3.1,2.146 -1.43,0.238 -1.669,1.193 -0.238,2.384 1.431,1.191 3.338,3.098 3.576,3.813 0.238,0.717 0.403,7.502 0.238,8.346 -0.165,0.844 1.431,1.43 1.431,1.43 l 0.953,2.146 0.954,-2.861 0.715,0.953 c 0,0 1.432,-8.582 0.716,-10.967 -0.715,-2.383 -1.192,-6.675 -5.245,-7.39 z"
   id="path30"
   style="fill:#926529;fill-opacity:1" />
		<path
   d="m 128.656,123.585 c 0,0 -0.954,-2.146 0.238,-3.814 1.192,-1.668 1.908,-1.669 2.623,-2.146 0.715,-0.477 1.907,-1.43 2.86,-1.192 0.953,0.238 2.146,0.477 2.146,0.477 0,0 1.906,-0.954 2.622,-0.715 0.716,0.239 1.67,0 2.385,1.192 0.715,1.192 2.146,2.384 2.146,2.384 0,0 1.191,1.668 0.953,2.622 -0.238,0.954 -0.238,0.954 -0.238,0.954 0,0 0.953,0.476 1.191,1.429 0.238,0.955 0.717,2.861 -0.238,4.053 -0.953,1.193 -0.953,0.955 -1.191,2.385 -0.238,1.43 -2.861,1.67 -2.861,1.67 0,0 -0.001,1.906 -0.716,1.906 -0.715,0 -3.1,0.477 -4.053,0.477 -0.953,0 -2.384,0.238 -3.1,-0.238 -0.716,-0.476 -1.43,-1.906 -1.43,-1.906 0,0 -2.385,-0.002 -3.1,-0.955 -0.715,-0.953 -1.192,-1.906 -1.431,-3.576 -0.238,-1.668 -0.477,-2.861 -0.477,-3.576 0,-0.715 0.956,-1.193 1.671,-1.431 z"
   id="path32"
   style="fill:#faf2ec;stroke:#000000;stroke-width:1" />
		<line
   x1="136.761"
   y1="129.30701"
   x2="137.23801"
   y2="132.64301"
   id="line34"
   style="fill:none;stroke:#000000;stroke-width:0.444368;stroke-miterlimit:4;stroke-dasharray:none" />
		<line
   x1="140.41621"
   y1="127.40952"
   x2="143.42749"
   y2="127.86449"
   id="line36"
   style="fill:none;stroke:#000000;stroke-width:0.465397;stroke-miterlimit:4;stroke-dasharray:none" />
		<path
   d="m 139.384,123.108 c 0,0 1.429,-1.908 1.668,-2.623"
   id="path38"
   style="fill:none;stroke:#000000;stroke-width:0.444368;stroke-miterlimit:4;stroke-dasharray:none" />
		<line
   x1="134.377"
   y1="122.631"
   x2="132.23199"
   y2="120.962"
   id="line40"
   style="fill:none;stroke:#000000;stroke-width:0.444368;stroke-miterlimit:4;stroke-dasharray:none" />
		<line
   x1="133.901"
   y1="126.446"
   x2="131.03999"
   y2="128.114"
   id="line42"
   style="fill:none;stroke:#000000;stroke-width:0.444368;stroke-miterlimit:4;stroke-dasharray:none" />
		<path
   d="m 115.305,146.709 -30.941287,27.84229 c 0,0 4.002287,9.82571 4.717287,11.01771 0.716,1.191 26.225,-23.363 26.225,-23.363 l 24.794,23.363 c 0,0 6.436,-9.059 6.436,-10.25 l -31.231,-28.61 z"
   id="path44"
   style="fill:#da251d;fill-opacity:1;stroke:none" />
		<path
   d="m 92.418,143.848 0.238,4.291 c 0,0 1.908,0.24 1.908,-0.953 0,-1.191 -1.193,-2.859 -0.716,-4.053 0.478,-1.191 3.814,-1.906 5.007,-0.477 1.191,1.43 1.906,2.383 1.668,3.338 -0.238,0.953 -1.669,1.668 -2.384,1.668 -0.715,0 -1.431,-0.953 -2.146,0.238 -0.715,1.193 3.814,1.432 3.814,1.432 0,0 -2.861,-0.238 -3.576,0.238 -0.715,0.476 -1.192,1.906 0,1.668 1.192,-0.238 0,1.668 1.669,0.477 1.669,-1.191 3.099,-2.145 3.814,-1.191 0.715,0.954 0.954,3.338 -1.192,5.484 -2.145,2.145 -3.338,-0.479 -3.338,-0.479 0,0 0.478,-2.145 -0.477,-2.383 -0.953,-0.238 -2.859,-0.955 -2.383,0 0.477,0.953 1.906,3.814 1.906,3.814 0,0 -2.385,-2.861 -3.1,-2.385 -0.715,0.476 -0.953,1.193 -0.477,2.146 0.476,0.953 1.908,1.668 1.908,1.668 0,0 1.43,1.432 0.238,2.146 -1.192,0.715 -2.385,0.715 -4.053,0.715 -1.67,0 -3.338,-1.432 -2.861,-2.146 0.477,-0.714 1.906,-0.238 2.384,-2.145 0.478,-1.908 0,-2.385 0,-2.385 l -2.86,2.146 2.384,-3.814 c 0,0 -0.239,-1.668 -1.431,-0.715 -1.192,0.953 -1.431,1.43 -1.907,3.098 -0.477,1.67 -2.384,1.193 -3.575,-0.238 -1.193,-1.43 -2.385,-4.527 -1.193,-4.768 1.193,-0.238 3.338,-0.715 3.814,0.477 0.478,1.191 2.623,-0.238 2.623,-0.238 l -2.384,-2.145 2.146,0.238 c 0,0 0.953,-0.953 0,-1.67 -0.953,-0.715 -3.1,0.953 -3.814,0.238 -0.714,-0.715 -0.477,-3.574 1.43,-4.529 1.908,-0.953 4.054,-1.432 4.054,-0.715 0,0.715 0.954,1.191 0.238,3.1 -0.716,1.906 -0.238,2.621 0.716,2.621 0.955,0.003 1.908,-3.812 1.908,-3.812 z"
   id="path46"
   style="fill:#da251d;fill-opacity:1;stroke:#000000;stroke-width:0.44436799999999999;stroke-miterlimit:4;stroke-dasharray:none" />
		<ellipse
   cx="91.941002"
   cy="150.881"
   rx="1.4299999"
   ry="1.313"
   id="ellipse48"
   style="fill:#f8341d;fill-opacity:1;stroke:#000000;stroke-width:0.444368;stroke-miterlimit:4;stroke-dasharray:none"
   d="m 93.371002,150.881 c 0,0.72515 -0.640233,1.313 -1.43,1.313 -0.789767,0 -1.43,-0.58785 -1.43,-1.313 0,-0.72515 0.640233,-1.313 1.43,-1.313 0.789767,0 1.43,0.58785 1.43,1.313 z" />
		<path
   d="m 137.715,144.088 0.238,4.291 c 0,0 1.907,0.238 1.907,-0.953 0,-1.193 -1.192,-2.861 -0.716,-4.053 0.478,-1.193 3.814,-1.906 5.007,-0.477 1.191,1.43 1.906,2.383 1.668,3.336 -0.238,0.955 -1.67,1.67 -2.385,1.67 -0.714,0 -1.429,-0.955 -2.144,0.238 -0.716,1.191 3.814,1.43 3.814,1.43 0,0 -2.861,-0.238 -3.576,0.238 -0.715,0.476 -1.193,1.908 0,1.67 1.191,-0.238 0,1.668 1.667,0.477 1.67,-1.191 3.1,-2.145 3.814,-1.191 0.717,0.953 0.955,3.338 -1.191,5.482 -2.145,2.146 -3.337,-0.477 -3.337,-0.477 0,0 0.477,-2.146 -0.477,-2.385 -0.954,-0.239 -2.86,-0.953 -2.384,0 0.477,0.955 1.907,3.814 1.907,3.814 0,0 -2.385,-2.859 -3.1,-2.383 -0.715,0.476 -0.953,1.191 -0.477,2.145 0.476,0.954 1.907,1.67 1.907,1.67 0,0 1.431,1.43 0.238,2.145 -1.193,0.715 -2.384,0.715 -4.053,0.715 -1.669,0 -3.337,-1.43 -2.86,-2.145 0.477,-0.715 1.906,-0.238 2.383,-2.146 0.478,-1.906 0,-2.383 0,-2.383 l -2.86,2.145 2.384,-3.814 c 0,0 -0.238,-1.668 -1.43,-0.715 -1.192,0.953 -1.432,1.43 -1.908,3.1 -0.477,1.668 -2.383,1.191 -3.575,-0.238 -1.192,-1.432 -2.385,-4.529 -1.192,-4.768 1.192,-0.24 3.338,-0.715 3.814,0.477 0.476,1.192 2.623,-0.238 2.623,-0.238 l -2.385,-2.146 2.146,0.238 c 0,0 0.953,-0.953 0,-1.668 -0.954,-0.717 -3.1,0.953 -3.814,0.238 -0.716,-0.715 -0.478,-3.576 1.43,-4.529 1.907,-0.955 4.053,-1.432 4.053,-0.717 0,0.717 0.954,1.193 0.238,3.1 -0.715,1.908 -0.238,2.623 0.716,2.623 0.954,0 1.91,-3.816 1.91,-3.816 z"
   id="path50"
   style="fill:#da251d;fill-opacity:1;stroke:#000000;stroke-width:0.44436799999999999;stroke-miterlimit:4;stroke-dasharray:none" />
		<ellipse
   cx="137.23801"
   cy="151.12199"
   rx="1.431"
   ry="1.311"
   id="ellipse52"
   style="fill:#f8341d;fill-opacity:1;stroke:#000000;stroke-width:0.444368;stroke-miterlimit:4;stroke-dasharray:none"
   d="m 138.66901,151.12199 c 0,0.72405 -0.64068,1.311 -1.431,1.311 -0.79032,0 -1.431,-0.58695 -1.431,-1.311 0,-0.72404 0.64068,-1.311 1.431,-1.311 0.79032,0 1.431,0.58696 1.431,1.311 z" />
		<path
   d="m 98.379,190.577 c 0,0 4.291,1.191 4.768,2.859 0.477,1.67 1.191,4.531 1.191,4.531 0,0 20.504,0.715 21.695,0.477 1.191,-0.238 2.622,-2.861 2.86,-3.814 0.238,-0.955 1.907,-2.385 1.907,-3.1 0,-0.715 -2.146,-0.717 -4.053,0 -1.907,0.715 -3.576,1.43 -7.867,1.43 -4.291,0 -10.252,0.477 -12.396,0 -2.146,-0.477 -2.86,-2.145 -8.105,-2.383 z"
   id="path54"
   style="fill:#766556;fill-opacity:1;stroke:#000000;stroke-width:1" />
		<line
   x1="108.391"
   y1="171.26601"
   x2="107.2"
   y2="193.436"
   id="line56"
   style="fill:#fee591;fill-opacity:1;stroke:#000000;stroke-width:1" />
		<line
   x1="121.503"
   y1="171.028"
   x2="120.55"
   y2="193.198"
   id="line58"
   style="fill:none;stroke:#000000;stroke-width:1" />
		<path
   d="m 108.391,174.364 c 0,0 -12.396,11.922 -12.396,13.828 0,1.908 4.529,0.477 5.722,0.953"
   id="path60"
   style="fill:#f0a238;fill-opacity:1;stroke:#000000;stroke-width:1" />
		<path
   d="m 121.503,177.225 3.195,-2.236 1.573,-1.102 c 0,0 0,0.717 0,2.623 0,1.908 0.238,7.629 1.431,9.535 1.193,1.906 2.86,3.338 1.907,3.576 -0.953,0.238 -4.054,0.955 -5.483,0.955 -1.429,0 -3.338,-0.717 -3.338,-0.717 l -1.192,0.24 c 0,0 -0.715,-0.717 -3.099,-0.717 -2.384,0 -3.576,0.717 -6.437,0.717 -2.861,0 -6.199,0.715 -7.629,-0.24 -1.431,-0.953 0,-3.098 0.953,-5.482 0.953,-2.383 5.96,-4.768 9.059,-8.105 3.1,-3.338 8.821,-4.529 8.821,-4.529 l 3.434,3.246"
   id="path62"
   style="fill:#f0a238;fill-opacity:1;stroke:#000000;stroke-width:1" />
		<line
   x1="108.391"
   y1="174.842"
   x2="112.444"
   y2="176.272"
   id="line64"
   style="fill:#fee591;fill-opacity:1;stroke:#000000;stroke-width:1" />
		<path
   d="m 115.305,176.034 c 0,0 0.953,10.727 3.814,13.35"
   id="path66"
   style="fill:none;stroke:#000000;stroke-width:1" />
		<path
   d="m 112.444,179.372 c 0,0 0.477,6.436 5.245,8.582"
   id="path68"
   style="fill:none;stroke:#000000;stroke-width:1" />
		<path
   d="m 122.696,183.186 c 0,0 0.715,6.199 0.715,6.914"
   id="path70"
   style="fill:none;stroke:#000000;stroke-width:1" />
		<path
   d="m 124.365,182.471 c 0,0 1.191,3.813 2.86,5.244"
   id="path72"
   style="fill:none;stroke:#000000;stroke-width:1" />
		<path
   d="m 134.377,122.631 c 0,0 10e-4,-1.43 1.192,-1.43 1.191,0 2.383,-0.477 3.099,0 0.716,0.477 0.238,1.668 0.238,1.668 l 1.907,0.478 c 0,0 0.478,2.146 0.478,2.861 0,0.715 -1.192,0.953 -1.192,0.953 l 0.238,1.43 -2.146,1.193 -1.431,-0.477 -1.431,0.715 -2.146,-2.146 0.716,-1.43 -1.431,-0.238 c 0,0 -0.477,-1.43 0.238,-2.385 0.717,-0.954 1.671,-1.192 1.671,-1.192 z"
   id="path74"
   style="fill:#d8552d;fill-opacity:1;stroke:#000000;stroke-width:0.44436799999999999;stroke-miterlimit:4;stroke-dasharray:none" />
		<circle
   cx="136.88"
   cy="125.612"
   r="1.55"
   id="circle76"
   style="fill:#b97e2f;fill-opacity:1;stroke:#000000;stroke-width:0.44436799999999999;stroke-miterlimit:4;stroke-dasharray:none"
   d="m 138.43,125.612 c 0,0.85604 -0.69395,1.55 -1.55,1.55 -0.85604,0 -1.55,-0.69396 -1.55,-1.55 0,-0.85604 0.69396,-1.55 1.55,-1.55 0.85605,0 1.55,0.69396 1.55,1.55 z" />
		<path
   d="m 147.729,171.504 c -2.861,9.059 -11.444,20.74 -17.166,25.508 -5.722,4.768 -15.973,10.49 -15.973,10.49 0,0 -17.165,-8.346 -24.794,-20.742 -7.629,-12.396 -10.677,-28.043 -10.464,-33.928 0.176,-4.871 0.696,-30.203 0.87,-38.784 h 69.874 l -0.441,34.807 c 0,0.001 0.955,13.591 -1.906,22.649 z m 5.244,-57.455 v -2.861 H 78.591 c 0,0 -1.192,38.143 -1.192,44.58 0,6.437 3.1,19.787 8.105,28.371 5.008,8.582 18.835,20.025 21.457,21.693 2.622,1.67 7.867,4.053 7.867,4.053 0,0 12.159,-5.959 14.781,-8.82 2.622,-2.861 9.298,-7.389 13.828,-15.734 4.529,-8.344 6.912,-11.443 8.582,-20.264 1.668,-8.82 0.477,-26.463 0.477,-26.463 l 0.428,-24.555 h 0.049 z"
   id="path78"
   style="fill:#333333;fill-opacity:1;stroke:#333333;stroke-width:0.71098799;stroke-miterlimit:4;stroke-opacity:1;stroke-dasharray:none" />
	</g>
	<g
   id="g80">
		<path
   d="m 111.618,31.117 c 0,0 -0.888,-0.237 -1.243,1.243 0,0 -0.888,0.177 -1.185,1.599 0,0 -0.711,-0.059 -1.006,1.185 0,0 -1.125,0.118 -0.889,1.717 0,0 1.008,1.125 1.658,1.717 l 3.849,0.249 -0.355,-7.58 -0.829,-0.13 z"
   id="path82"
   style="fill:#fee591;fill-opacity:1;stroke:#000000;stroke-width:1" />
		<polygon
   points="111.915,66.765 112.92,47.876 114.637,44.027 119.67,44.264 119.316,66.469 "
   id="polygon84"
   style="fill:#a86b49;fill-opacity:1;stroke:#000000;stroke-width:1" />
		<path
   d="m 108.644,16.378 c 0,0 -0.532,9.06 0,9.711 0.532,0.651 1.896,1.717 2.665,1.717 0.769,0 4.974,-0.947 4.974,-0.947 0,0 -2.843,-3.435 -4.323,-5.27 -1.48,-1.835 -2.545,-3.612 -3.316,-5.211 z"
   id="path86"
   style="fill:#e1572f;fill-opacity:1;stroke:#000000;stroke-width:0.44436799999999999;stroke-miterlimit:4;stroke-dasharray:none" />
		<path
   d="m 110.834,12.174 c 0,0 -0.355,2.606 -0.118,3.849 0.237,1.243 1.302,3.967 0.474,6.04 -0.828,2.073 0.771,5.685 2.014,5.744 1.243,0.059 3.907,-0.059 4.145,-0.71 0.238,-0.651 -0.06,-8.645 -2.013,-9.889 -1.955,-1.245 -4.086,-2.429 -4.502,-5.034 z"
   id="path88"
   style="fill:#e1572f;fill-opacity:1;stroke:#000000;stroke-width:0.44436799999999999;stroke-miterlimit:4;stroke-dasharray:none" />
		<path
   d="m 117.052,10.871 c 0,0 -2.664,4.56 -2.486,5.981 0.177,1.421 -0.297,6.276 0.177,7.816 0.474,1.54 1.421,2.369 2.605,2.428 1.184,0.059 1.065,-0.237 1.776,-0.533 0.711,-0.296 0.474,-9.474 -0.651,-10.895 -1.125,-1.421 -1.776,-4.027 -1.421,-4.797 z"
   id="path90"
   style="fill:#e1572f;fill-opacity:1;stroke:#000000;stroke-width:0.44436799999999999;stroke-miterlimit:4;stroke-dasharray:none" />
		<path
   d="m 122.322,13.95 c 0,0 -4.264,1.599 -4.382,5.389 -0.118,3.79 -0.65,7.224 -0.354,7.816 0.296,0.592 2.309,1.184 3.315,0.474 1.006,-0.71 2.073,-3.79 1.718,-6.691 -0.355,-2.901 -0.61,-3.074 -1.066,-4.441 -0.178,-0.534 -0.298,-1.422 0.769,-2.547 z"
   id="path92"
   style="fill:#e1572f;fill-opacity:1;stroke:#000000;stroke-width:0.44436799999999999;stroke-miterlimit:4;stroke-dasharray:none" />
		<path
   d="m 110.848,28.15 c 0,0 2.428,-0.533 4.026,-0.533 1.598,0 4.797,0 6.04,0.533 l -0.237,1.717 -0.77,-0.118 c 0,0 -2.843,-0.474 -7.521,0 l -0.947,0.118 -0.591,-1.717 z"
   id="path94"
   style="fill:#5e746c;fill-opacity:1;stroke:#000000;stroke-width:1" />
		<path
   d="m 112.032,30.223 c 0,0 1.385,18.188 1.54,19.899 0.237,2.608 1.896,15.808 1.896,15.808 l 3.493,-26.288 1.065,-9.476 c 0,-0.001 -4.027,-0.656 -7.994,0.057 z"
   id="path96"
   style="fill:#5e746c;fill-opacity:1;stroke:#000000;stroke-width:1" />
		<path
   d="m 111.855,33.602 c 0,0 -0.593,1.954 -1.007,2.428 -0.414,0.474 -2.072,2.073 -2.072,3.967 0,1.894 -1.244,5.27 -2.191,6.987 -0.947,1.717 -7.46,14.331 -7.993,17.114 -0.533,2.783 4.263,5.684 5.447,5.684 1.184,0 2.842,-1.895 3.553,-3.79 0.711,-1.895 3.316,-11.665 3.612,-13.678 0.296,-2.013 1.539,-4.677 2.368,-5.388 0.829,-0.711 2.25,0.177 4.204,-2.546 0,0 4.205,-3.849 4.146,-4.737 -0.059,-0.888 -0.237,-2.31 -0.237,-2.31 0,0 0.474,-1.48 0,-2.013 -0.474,-0.533 0.474,-2.072 -0.296,-2.368 -0.77,-0.296 0.06,-0.71 -0.829,-0.651 -0.889,0.059 -0.77,0 -0.77,0 0,0 0.414,1.302 -2.014,3.079 -2.428,1.777 -4.086,2.901 -4.974,2.428 -0.888,-0.473 -0.947,-4.206 -0.947,-4.206 z"
   id="path98"
   style="fill:#64564c;fill-opacity:1;stroke:#000000;stroke-width:1" />
		<path
   d="m 115.585,33.011 c 0,0 2.428,1.007 2.428,1.658 0,0.651 -1.066,1.006 -1.066,1.006 0,0 -1.776,-1.124 -1.362,-2.664 z"
   id="path100"
   style="fill:#fee591;fill-opacity:1;stroke:#000000;stroke-width:1" />
		<path
   d="m 121.98,40.532 c 0,0 -0.474,1.894 -0.178,3.02 0.296,1.126 9.355,17.705 10.007,19.126 0.652,1.421 0.711,2.013 0.533,2.724 -0.178,0.711 -4.975,2.783 -7.461,1.895 -2.486,-0.888 -1.362,-0.888 -1.599,-2.901 -0.237,-2.013 -3.079,-15.159 -4.026,-16.047 -0.947,-0.888 -1.125,-0.355 -1.125,-0.355 l 0.296,-4.381 3.316,-3.375 0.237,0.294 z"
   id="path102"
   style="fill:#f5c491;fill-opacity:1;stroke:#000000;stroke-width:1" />
	</g>
	
	<g
   transform="translate(53.324331,0)"
   id="g3294"><path
     d="m 19.258669,102.583 c 0,0 2.75,-5.25 6.5,-7.25 3.75,-2 8.25,-2.25 9.75,-0.75 1.5,1.5 1.75,4.25 1.75,4.25 0,0 -1.199,-0.063 -2.487,-0.157 -1.276,-0.094 -2.64,-0.218 -3.013,-0.343 -0.75,-0.25 4.5,2 2,2 -2.5,0 -4.25,-0.75 -4.25,-0.75 l 2,2 c 0,0 -2.25,0 -3.25,-0.25 -1,-0.25 -3.75,1 -3.75,1 l 1.75,0.75 c 0,0 -2,1 -2.75,1 -0.75,0 -0.25,1.75 -0.25,1.75 0,0 1,-0.25 3.75,-0.25 2.75,0 7.25,-0.25 9,1.25 1.75,1.5 4,5 4,5 0,0 -3,-0.5 -4.25,-1.5 -1.25,-1 -2.5,-1.5 -2.5,-1.5 0,0 1.5,2 1,3 -0.5,1 -2.75,-1 -2.75,-1 l -2.75,-3.25 c 0,0 -0.5,1 -0.25,2.5 0.25,1.5 -3,-1.5 -3,-1.5 l 0.75,3.25 -1.5,2.5 c 0,0 -1,0.75 -1.75,0 -0.75,-0.75 -2,-3 -2,-3 l -1,1.75 -1.25,-1.25 v 1.25 l -1.5,-0.75 -1,1 -1.5,-1.75 -0.25,-2.25 -0.75,0.75 -2.25,-0.75 -1.25,1.25 -0.9999996,-1.25 -1,1 -2.9999998,0.5 c 0,0 -1.5,1.25 -2.75,0.5 -1.25,-0.75 -1.74999999,-1.5 -1.74999999,-1.5 l -1.5,-1.25 c 0,0 2.99999999,-2 5.49999999,-2.25 2.5,-0.25 6.4999994,-0.25 7.7499994,-0.25 1.25,0 2.25,0 2.25,0 l -4.75,-2.5 2,-0.5 h 2 c 0,0 -2,-1.75 -3.5,-1.75 -1.4999996,0 2.5,-1.75 2.5,-1.75 l -5.4999994,0.75 2.2499998,-2 -4.4999998,1.25 2.7499998,-3.5 -6.7499998,2.5 c 0,0 0.5,-2.25 2,-2.5 1.5,-0.25 -5.75,0.75 -6.75,1.25 -1,0.5 -0.5,-2.5 3.75000001,-3.75 4.24999999,-1.25 6.99999999,-1.75 9.99999939,-1 1.955,0.489 6.5,3 9,10 z"
     id="path262"
     style="fill:#00923f;fill-opacity:1;stroke:#000000;stroke-width:1" /><path
     d="m 17.258669,112.333 c 0,0 1.75,14.25 1,19.5 -0.75,5.25 -2,22.5 -2,27 0,4.5 -2.25,37.25 -2.25,37.25 0,0 4.75,1.25 6,0.25 1.25,-1 0,-0.75 0,-0.75 0,0 0.5,-32 0.75,-35 0.25,-3 1.25,-24.25 1,-27 -0.25,-2.75 0.5,-8 -0.25,-23 0,0 -1.25,-2.5 -4.25,1.75 z"
     id="path264"
     style="fill:#f0a238;fill-opacity:1;stroke:#000000;stroke-width:1" /><path
     d="m 20.041669,166.333 m 0.217,25.25 c 0,0 -1.5,4.25 -4.75,4.5 0,0 2.5,1 4.5,0.25 l 0.25,-4.75 z m 0,-6.25 c 0,0 -1.75,4.5 -4,4.5 h 4.25 l -0.25,-4.5 z m -0.25,-8 c 0,0 -1,6.5 -2.5,7 0,0 2.75,0.25 3,-0.5 0.25,-0.75 -0.5,-6.5 -0.5,-6.5 z m 0.5,-5.25 c 0,0 -1,3.75 -4,4.5 0,0 3,0.25 4,-0.25 v -4.25 z m 0.25,-5.5 c 0,0 -0.5,4 -2.5,4.25 l 2,-0.25 0.5,-4 z m 0,-6 c 0,0 -1,4.5 -2.75,4.5 0,0 1.25,0.5 2.5,-0.75 1.25,-1.25 0.25,-3.75 0.25,-3.75 z m 0.5,-5.75 c 0,0 -1.75,5 -3.75,5.25 -2,0.25 2.75,-0.75 2.75,-0.75 l 0.75,-0.25 0.25,-4.25 z m -0.25,-4.5 c 0,0 -0.75,2 -2.5,2.75 -1.75,0.75 2.75,0.25 2.75,0.25 l -0.25,-3 z m 0.5,-5.5 c 0,0 -1,4.25 -3,4.25 0,0 1.75,0.75 2.75,0 1,-0.75 0.25,-4.25 0.25,-4.25 z m 0.5,-3.75 c 0,0 -2.25,2.25 -4,2.75 0,0 2.5,1 3.5,0 1,-1 0.5,-2.75 0.5,-2.75 z m -0.25,-5 c 0,0 -1.75,3.75 -3.25,3.5 0,0 3,1.25 3.25,0 0.25,-1.25 0,-3.5 0,-3.5 z m 0,-6.25 c 0,0 -1.5,3.75 -2.75,4.75 -1.25,1 2.25,0.5 2.75,-1 0.5,-1.5 0,-3.75 0,-3.75 z"
     id="path296"
     style="color:#000000;fill:#221c17;fill-opacity:1;fill-rule:nonzero;stroke:none;stroke-width:0.99999994;marker:none;visibility:visible;display:inline;overflow:visible;enable-background:accumulate" /></g><g
   transform="translate(106.64866,0)"
   id="g3138"><path
     d="m -57.532661,178.583 c 0,0 1.5,3.75 1.25,7.5 -0.25,3.75 -1.75,5 -0.5,6 1.25,1 3.5,4 5.75,4.25 2.25,0.25 3.75,2.25 3.25,3.5 -0.5,1.25 0.25,1.75 0.25,1.75 0,0 2.871,-1.914 2.752,-3.396 -0.018,-0.213 -0.096,-0.416 -0.252,-0.604 -1.25,-1.5 3.5,-0.25 4.5,1.75 0,0 0,-4 -1.5,-4.5 0,0 1.25,-0.75 2.25,0.5 1,1.25 0,-3 -2.25,-3.5 -2.25,-0.5 -3,-0.75 -5,-1 -2,-0.25 -3.5,0.75 -5,-1 -1.5,-1.75 -1.5,-8.5 -1.5,-12.25 l -4,1 z"
     id="path256"
     style="fill:#f0a238;stroke:#000000;stroke-width:1;fill-opacity:1" /><path
     d="m -49.032661,134.333 c 0,0 -2.5,0.75 -3.5,-2 -1,-2.75 -0.75,-5 -0.25,-6.5 0.5,-1.5 1,-3 1,-3 0,0 4.75,-14.25 5,-19.5 0.25,-5.25 -0.5,-4.5 -0.5,-9 0,-4.5 1.5,-10.75 2.75,-11.25 0,0 -3.75,-0.25 -4.25,1.25 -0.5,1.5 -0.5,13 -2,18.5 -1.5,5.5 -1.5,1.25 -1.5,1.25 0,0 -2.25,-12 -1,-17.5 l 0.75,-2.5 c 0,0 -4.25,1 -4.5,4.25 -0.25,3.25 -0.25,17 -0.25,19.75 0,2.75 -1.25,1.5 -1.25,-0.5 0,-2 -0.5,-14.5 -0.75,-16 -0.25,-1.5 -2.5,-1.5 -2.5,-1.5 0,0 -1.75,5.75 -1,9.75 0.75,4 0.75,5 0.75,5 0,0 -2,-4.5 -3,-3.75 -1,0.75 -0.5,9 -0.5,9 l 1.75,2.5 c 0,0 2.75,13 3.75,16.5 1,3.5 3.75,11.25 11,5.25 z"
     id="path258"
     style="fill:#dededd;fill-opacity:1;stroke:#000000;stroke-width:1" /><path
     d="m -60.782661,120.583 c 0,0 -3,-8.75 -6,-11.75 -3,-3 -7.5,-7.25 -10.75,-12.5 0,0 -2.25,-4.75 -2.5,-6.75 -0.25,-2 -3.000002,-2 -3.000002,-2 0,0 -1.25,4 -1,5.75 0.25,1.75 -0.25,2.75 1.25,5.5 1.500002,2.75 -3.75,-4.5 -3.75,-4.5 0,0 -2.5,4.5 -0.75,9 1.75,4.5 3.25,5.75 3.25,5.75 0,0 -4,-2.75 -4.75,-2 -0.75,0.75 -1.5,4 0.75,6.75 2.25,2.75 4,4 4,4 0,0 -4.75,0 -5,0.75 -0.25,0.75 1.25,3 2,4.5 0.75,1.5 2.25,4 3.5,4.25 1.25,0.25 1.25,0.25 1.25,0.25 0,0 -3.75,1.25 -3.75,2.5 0,1.25 2,2.25 2,2.25 0,0 3.250002,1 4.000002,1 0.75,0 -1,1.5 -1,1.5 0,0 -2.000002,3.25 -1,3.75 1,0.5 4.75,0.75 4.75,0.75 0,0 -4.75,2.5 -4.5,4.5 0.25,2 1,2.25 1,2.25 0,0 4.5,-0.25 5.25,-1 0.75,-0.75 -1.5,6 -0.25,6.5 1.25,0.5 5.25,-1 5.25,-1 0,0 0.25,3.25 0.25,4.5 0,1.25 2.75,1.5 4.25,-1.75 1.5,-3.25 1.75,5.75 1.75,5.75 0,0 -9.5,27.25 -9.75,32.75 0,0 5.5,-3.75 8.25,-6.5 2.75,-2.75 7.5,-6.5 9.25,-6.25 1.75,0.25 3.75,-0.5 3.75,-0.5 0,0 0.5,-2 2.75,-4.25 2.25,-2.25 4.75,-4.75 4.75,-4.75 l 0.25,-17.25 2,-10 -2,-7.75 -11.5,2.75 -4.5,-7 0.25,-9.75 z"
     id="path260"
     style="fill:#dededd;fill-opacity:1;stroke:#000000;stroke-width:1" /><path
     d="m -44.032661,109.583 c 0,0 -1,-5 -2.75,-6.25 -1.75,-1.25 -5.75,-2 -7.5,-1.25 -1.75,0.75 -4.75,4.5 -4.75,7.25 0,2.75 0.25,5.5 2.5,8.25 2.25,2.75 10.75,9.25 9.25,15 0,0 -1.25,3 -5.5,3 -4.25,0 -4.75,-2.5 -5.25,-4.25 -0.5,-1.75 -0.5,-8 -0.75,-10.75 -0.25,-2.75 -2.25,-5.75 -5,-8 0,0 0.75,3 0.75,7 0,4 -1.5,7.75 0,10.75 1.5,3 3.75,6.5 6.5,7 2.75,0.5 5.75,0 8.5,-0.25 2.75,-0.25 2,-1.75 2.75,0.75 0.75,2.5 1.25,6.75 -0.25,10.75 -1.5,4 -2.5,8.75 -5.25,11.75 -2.75,3 -4.5,5.5 -3.25,6.25 1.25,0.75 3.25,-0.75 4.5,-0.75 1.25,0 2.5,-1.25 2.75,0.5 0.25,1.75 0.25,3.5 2.5,4 2.25,0.5 5.5,-0.25 6,-1 0.5,-0.75 0.5,-5.25 0.5,-5.25 l -2.75,-1.75 c 0,0 3.25,-4.25 3.25,-5.5 0,-1.25 1.967,-27.75 1.967,-27.75 0,0 -5.217,-5.25 -6.967,-7.25 -1.75,-2 -3,-2.5 -4.5,-5.5 -1.5,-3 2.75,-6.75 2.75,-6.75 z"
     id="path298"
     style="fill:#c9c8c7;fill-opacity:1;stroke:#000000;stroke-width:1" /><path
     d="m -46.532661,109.833 c 0,0 0,-3.25 -2.25,-4 -2.25,-0.75 -6.25,-0.75 -7,2.25 -0.75,3 -0.75,3.5 0.75,6 1.5,2.5 3.75,5.5 6.25,8.25 2.5,2.75 2.25,6 3.5,8 1.25,2 4.75,3.25 4.5,1 -0.25,-2.25 -1.25,-5.25 -2.5,-6.25 -1.25,-1 -4,-4 -7,-7 -3,-3 -4,-5 -3.5,-6 0.5,-1 0.75,-0.75 2,-0.25 1.25,0.5 2.25,1 2.25,1 l 3,-3 z"
     id="path300"
     style="fill:#ffffff" /><path
     d="m -51.782661,122.833 c 0,0 -1.75,3 -1.75,5.75 0,2.75 1,3.75 1,3.75 0,0 -2,1.75 -3,0.75 -1,-1 -2.75,-3.5 -0.25,-6.75 2.5,-3.25 2.5,-3.25 2.5,-3.25 l 0.25,-2 1.25,1.75 z"
     id="path302"
     style="fill:#c2c1c0;fill-opacity:1" /><path
     d="m -74.782661,150.583 c 1.75,-0.5 8,-7.75 8,-7.75"
     id="path304"
     style="fill:none;stroke:#000000;stroke-width:1" /><path
     d="m -49.782661,145.333 c 0,0 -0.25,5.25 -1.25,7.75 -1,2.5 -3.25,4.75 -3.25,4.75 l -1,-2 c 0,0 -3,4 -4.5,4.5 0,0 -1.5,-2.75 -1,-5.25 0,0 -2.25,4 -3.5,4 l -0.25,-4"
     id="path306"
     style="fill:none;stroke:#000000;stroke-width:1" /><path
     d="M -73.032661,107.583"
     id="path308"
     style="fill:none;stroke:#000000;stroke-width:1" /><path
     d="m -50.226777,145.49632 c -0.43,-0.102 -1.035,-0.006 -1.461,0.039 -0.121,2.281 0.700625,3.66022 -0.209375,5.69122 -0.729,1.621 -3.131,3.398 -2.969,5.205 3.32,-0.082 4.891375,-7.92322 4.639375,-10.68522 m -2.555884,0.58668 c -0.52,2.252 -0.404,5.123 -1.307,7.238 -1.197,2.813 -3.389,3.715 -5.398,5.486 0.227,-1.373 1.434,-2.369 2.018,-3.656 0.605,-1.33 0.719,-2.693 0.951,-4.123 0.371,-2.279 0.256,-7.063 3.236,-4.945 m -5.884514,0.0768 c 0.482,-0.012 1.113,0.346 1.719,0.275 -0.215,1.303 -1.206984,2.03701 -1.656,3.281 -0.314866,0.87233 -0.233102,1.75147 -0.3822,2.60877 -0.04883,0.28075 -0.122108,0.5593 -0.2428,0.83423 -0.610695,1.39113 -2.811,3.553 -4.137,4.227 -0.42,-2.293 1.004,-4.238 2.199,-6.121 1.136,-1.787 1.648,-3.16 2.5,-5.105 m -4.115486,-2.11548 c 0.611,1.695 1.404,1.715 0.938,3.438 -0.229,0.842 -1.594,2.822 -2.125,3.58 -1.113,1.588 -3.207,3.848 -5.08,4.332 -0.229,-2.051 2.916,-3.793 3.719,-5.594 0.879,-1.975 1.344,-4.133 2.299,-6.256 m -12.251,7.69226 c 0.84,-3.799 5.852,-6.447 8.752,-8.779 2.141,1.316 0.938,3.508 -0.752,4.779 -1,0.75 -3,3.75 -5,3.25 0,0 -1,1 -3,0.5 m 5,-11.07678 c 0,0 -0.5,2.25 -2,3.25 -1.5,1 -5,2 -6.5,2.25 l -0.5,-2.5 c 0,0 6.25,-1.25 9,-3 z m -1.25,-3.07678 c 0,0 -0.5,1.25 -2.25,1.25 -1.75,0 -6.5,-0.75 -6.5,-0.75 0,0 7,-2.75 8.75,-0.5 z m -0.75,-5.5 c 0,0 -2,0.75 -3.75,0.75 -1.75,0 -6.500002,-0.5 -7.500002,-1.75 -1,-1.25 1.5,-0.75 4.250002,-0.75 2.75,0 6.75,0.75 6.75,0.75 -7.25,-0.25 -9.500002,-0.5 -9.500002,-0.5 m -5.25,-10.5 c 0,0 1.25,2.25 3.75,4.25 2.500002,2 5.250002,2.5 7.000002,2.5 1.75,0 3.75,0.75 3.75,0.75 l 0.75,-1.75 c 0,0 -1.25,-0.5 -3.25,-0.5 -2,0 -6.25,-1 -7.500002,-2.25 -1.25,-1.25 -2.75,-3 -4.5,-3 z m -1,-12.5 c 0,0 1.5,0.75 3,2.75 1.5,2 3.750002,6 8.500002,9.25 0,0 -5.000002,-1.5 -7.500002,-4 -2.5,-2.5 -4,-5.5 -4,-6.25 0,-0.75 0,-1.75 0,-1.75 z m 3,-10.75 c 0,0 1.75,2.75 2.5,5.25 0.75,2.5 6.250002,9.5 7.000002,10.5 0.75,1 -4.5,-0.5 -6.250002,-3 -1.75,-2.5 -4.25,-7.5 -4.25,-9.5 0,-2 0.25,-3 1,-3.25 z m 13.500002,11.75 c 0,0 -8.5,-10.25 -8.75,-14 0,0 -2.250002,1.75 -0.25,5.25 2,3.5 6.75,8 9,8.75 z"
     id="path332"
     style="fill:#c2c1c0;fill-opacity:1" /><path
     d="m -48.032661,165.833 c 0,0 -3.5,5 -4.75,6.75 -1.25,1.75 -3,4.25 -2.5,5 0.5,0.75 5.25,-4 7,-6 1.75,-2 0.25,-5.75 0.25,-5.75 z m -12.75,-7.5 c 0,0 -5.25,23.25 -10.75,30 0,0 3.5,-13.5 5.5,-20.5 2,-7 3,-9.5 3,-9.5 l 2.25,-3.25 v 3.25 z"
     id="path336"
     style="fill:#c9c8c7;fill-opacity:1" /><path
     d="m -39.032661,154.583 c 0,0 -8.5,5.75 -8.5,7.75 0,2 3.5,-1 4.75,-2.75 1.25,-1.75 5.5,-4.5 3.75,-5 z"
     id="path338"
     style="fill:#dededd;fill-opacity:1" /><path
     d="m -27.315661,152.833 c 0,0 2.25,2.25 2,5.25 -0.25,3 -0.25,3.5 -0.5,5.75 -0.25,2.25 1.75,4.25 -0.5,4.5 0,0 -2,-1.25 -3,-0.75 -1,0.5 -2.75,1 -2.75,1 l -0.5,-2 c 0,0 2.157,-0.984 2.25,-2.75 0.25,-4.75 3,-11 3,-11 z"
     id="path340"
     style="fill:#f0a238;stroke:#000000;stroke-width:1;fill-opacity:1" /><path
     d="m -48.032661,110.083 c 0,0 -0.75,-2.25 -2.75,-2 -2,0.25 -2.25,1.5 -2.25,1.5 0,0 0.75,1 1.75,1 1,0 1,-0.25 3.25,-0.5 z"
     id="path342"
     style="fill:#74716e;stroke:#000000;stroke-width:1;fill-opacity:1" /><path
     d="M -81.411661,130.184"
     id="path364"
     style="fill:#ffffff;stroke:#000000;stroke-width:1" /><path
     d="m -66.972661,142.497 c 0,0 -4.56,5.32 -6.688,6.688 m -7.751,-19.001 c 0,0 6.079,1.217 8.359,0.912 m 21.77,14.487 c 0,0 -1,9 -2.5,10.25 m -1.75,-9.5 c 0,0 -2,8.25 -3.75,12.25 m -0.5,-12 c 0,0 -3,8 -4,8.75 m 0.5,-11 c 0,0 -5.5,10.75 -6.25,10.75 m -10,-11 c 2.25,0.25 9.25,-4.75 9.25,-4.75 m -1.75,-3.5 c 0,0 -6.25,1.25 -8,1.25 m 7.5,-11.75 c 0,0 -3.25,-0.75 -6.25,-1.25 -3,-0.5 -7.500002,-4.5 -7.500002,-4.5 m 13.000002,1 c 0,0 -9.25,-4 -10.5,-7 -1.25,-3 -3.25,-4.25 -3.25,-4.25 m 12.75,5 c 0,0 -8.25,-9 -9.75,-13.5 m 2.75,-8 c 1,6.75 10.5,17.25 10.5,17.25"
     id="path368"
     style="fill:#ffffff;stroke:#000000;stroke-width:1" /><path
     d="m -47.782661,142.583 c 0,0 0.25,4.25 -3.5,3 0,0 -1.75,2 -4.5,-0.25 0,0 -2,3.75 -4.25,0.5 0,0 -2,2.25 -3.25,-1.5 0,0 -3.75,1.75 -3.75,-2.25 0,0 -4.25,-1.5 -2.75,-4.25 0,0 -4,0.25 -1.75,-4.75 0,0 -3.5,-3.5 0,-4 0,0 -3.5,-2 -1,-3.75 0,0 -4.25,-3.5 -0.75,-4.75 0,0 -2.25,-4 0,-4.5 0,0 -2.25,-3.5 0.25,-3.5 0,0 0,-3.25 2.25,-2.5 0,0 -0.5,-4.5 2.25,-3"
     id="path370"
     style="fill:none;stroke:#000000;stroke-width:1" /><path
     d="m -44.782661,108.083 c 0,0 1.75,4 3,4.75 1.25,0.75 12,7 13.5,7.75 1.5,0.75 4,4.25 3.25,5 -0.75,0.75 -1.25,-2 -3.75,-1.75 -2.5,0.25 -6.5,-1.75 -7.75,-2 -1.25,-0.25 -5.5,-2.25 -7.5,-4 -2,-1.75 -5.5,-2.75 -5.5,-5 0,-2.25 0,-2.25 0,-2.25 0,0 0.25,-1.25 1.5,-0.5 1.25,0.75 1.5,-1.75 1.5,-1.75 0,0 0.75,-1.75 1.75,-0.25 z"
     id="path372"
     style="fill:#f0a238;stroke:#000000;stroke-width:1;fill-opacity:1" /><path
     d="m -47.532661,112.833 c 0,0 4.25,2.25 8,4 3.75,1.75 10.25,5.75 11.5,6.5"
     id="path374"
     style="fill:none;stroke:#000000;stroke-width:1" /></g>
	
	<g
   id="g460">
		<path
   d="m 48.083,71.583 c 0,0 -2,4.5 -0.25,6.75 1.75,2.25 5,2 5,2 0,0 -3.25,-3.75 -1.5,-5 1.75,-1.25 2.75,-3.5 7.75,0 5,3.5 9,10 14,13.75 5,3.75 10.5,6.5 14.25,6.75 3.75,0.25 6.75,0.5 11.25,0.25 4.5,-0.25 7.5,-1.75 7.5,-1.75 l -13.25,-7.5 -3.25,-5.25 c 0,0 -4.75,1.5 -5.5,-2.25 -0.75,-3.75 -0.5,-8.75 -0.5,-8.75 l -7.25,-0.25 -1.75,4 -6.25,1 -2.75,-8.75 -5.25,3.5 -6.75,-2.25 -5.5,3.75 z"
   id="path462"
   style="fill:#1f1a17;fill-opacity:1;stroke:#000000;stroke-width:1" />
		<path
   d="m 70.833,57.833 c 0,0 4.25,-7.5 7.25,-7.75 3,-0.25 4.75,-0.75 4.75,-0.75 0,0 0.75,-1.75 3.75,-3.25 3,-1.5 4.25,-0.5 4.25,-0.5 0,0 -0.75,4.75 0.75,5.75 1.5,1 4.5,1.75 4.5,0.75 0,-1 0,3.5 -1,4.25 -1,0.75 -1,3.5 -7.75,3 0,0 -0.25,0.75 -3.25,2.75 -3,2 -4,0 -7.5,-1.25 l -5.75,-3 z"
   id="path464"
   style="fill:#1f1a17;fill-opacity:1;stroke:#000000;stroke-width:1" />
		<path
   d="m 132.083,84.083 c 0,0 0.75,2 2.5,2 1.75,0 4,-0.5 3.5,-2 -0.5,-1.5 -1,-2.5 -1,-2.5 0,0 3.25,-0.5 3.75,1 0.5,1.5 1.5,2.5 2.5,1.25 1,-1.25 3.75,-4.75 3,-8 -0.75,-3.25 0.75,-5.75 -6.5,-4.75 0,0 3.25,-3.75 6.25,-3.25 3,0.5 3,4 5,4 2,0 2,-2 2,-4.25 0,-2.25 -1,-7.75 -3.75,-8.5 -2.75,-0.75 -5.25,-2.75 -5.25,-2.75 l 4,-3 c 0,0 10.25,0.25 11.25,3 1,2.75 2.75,8 1.25,11.5 -1.5,3.5 -2,5 -0.5,5.25 1.5,0.25 3.75,-1.5 4,-5.25 0.25,-3.75 2.5,-3.25 3.25,-5 0.75,-1.75 2,-4.25 1.25,-5 -0.75,-0.75 2.25,1 2.25,4 0,3 1.5,4 2,2.5 0.5,-1.5 0.75,-2.75 2.5,-2.75 1.75,0 1.5,1.25 3.25,0.25 1.75,-1 3.75,-2.25 4,-3 0.25,-0.75 1,2.5 0.75,4.25 -0.25,1.75 -1.75,2.5 -1.5,3.25 0.25,0.75 4.75,3 4.25,6.5 -0.5,3.5 -0.25,6.5 -9.75,7.5 0,0 2.25,-1.75 1.75,-4 -0.5,-2.25 1.5,-1.75 -0.5,-2.25 -2,-0.5 -8.25,3.5 -12.25,8.25 -4,4.75 -7.25,7.25 -11.75,9.25 -4.5,2 -16.5,4.75 -19.75,4.5 -3.25,-0.25 -2.5,-2.75 -2.5,-2.75 l 0.75,-9.25 z"
   id="path466"
   style="fill:#1f1a17;fill-opacity:1;stroke:#000000;stroke-width:1" />
		<path
   d="m 142.833,43.583 c 0,0 -0.5,2.25 1.25,3.25 1.75,1 5,1.75 5,3.5 0,1.75 0.5,2.75 0.5,2.75 0,0 3.5,-1.25 4.75,-0.25 1.25,1 4.25,3 4.25,3 0,0 -3.25,-0.5 -5.25,0.25 -2,0.75 -5.25,0.75 -5.25,3 0,2.25 0.25,4.5 0.25,4.5 0,0 -3.75,-0.25 -4.25,-4.5 0,0 -2.25,1.75 -4.5,1.25 -2.25,-0.5 -4.5,-2.75 -4.75,-6.5 0,0 2.5,0 4,-1.5 1.5,-1.5 3.75,-1.75 3.75,-1.75 0,0 -2.25,-2 0.25,-7 z"
   id="path468"
   style="fill:#f0a238;fill-opacity:1;stroke:#000000;stroke-width:1" />
		<path
   d="m 88.833,82.083 c 0,0 -4,0 -4,-1.75 0,-1.75 0,-4.25 0.25,-6 0.25,-1.75 3,-4 3,-4 0,0 1.5,-1.5 0,-2.75 -1.5,-1.25 -3.75,-2.75 -6.25,-1.75 -2.5,1 -2.25,3.25 -2.25,3.25 0,0 -2.25,-1.75 -1.25,-3.25 1,-1.5 1.75,-3.25 1.75,-3.25 0,0 -1.5,-0.25 -2.25,-1 -0.75,-0.75 -0.75,-1.75 -0.75,-1.75 0,0 2.5,1.5 3.25,0.5 0.75,-1 2.25,-1.25 2,-2 -0.25,-0.75 -0.25,-2.75 -2.25,-4 -2,-1.25 -4.5,-1.5 -5.75,-0.75 -1.25,0.75 -3.5,2.5 -3.75,5 -0.25,2.5 1.25,7.75 1.25,10 0,2.25 0.25,6.5 0.25,6.5 l 2.75,3 c 0,0 0.25,-2.5 2.25,-4.25 2,-1.75 3,-1.75 4,-1.75 1,0 0,4 0.75,6 0.75,2 1.75,4 7,4 z"
   id="path470"
   style="fill:#f0a238;fill-opacity:1;stroke:#000000;stroke-width:1" />
		<path
   d="m 73.333,74.583 c 0,0 -2.5,1.25 -3.5,0.25 -1,-1 -2.5,-1.25 -2.75,-4.75 -0.25,-3.5 -0.25,-5.25 -2,-6.75 -1.75,-1.5 -3.5,-3.25 -3,-4.25 0.5,-1 2.5,-2.75 2.5,-2.75 0,0 -2.5,-1.5 -3.75,-0.5 -1.25,1 -2,4 -2,4 0,0 -2.25,0.25 -5.5,0.25 -3.25,0 -3.5,-1.5 -3.5,-2.5 0,-1 -0.25,-1.75 -0.25,-1.75 0,0 -4.5,1.5 -4.5,3.25 0,1.75 2.25,5.5 2.25,5.5 0,0 1,1.75 -0.25,2.5 -1.25,0.75 -3.5,3.5 -2.5,7.25 1,3.75 4.75,6 8.25,6 0,0 -5.5,-2.75 -4,-5.5 1.5,-2.75 1.5,-4.75 4.5,-4.75 3,0 7.5,2.75 7.5,2.75 0,0 1,-0.75 2.25,-2.25 1.25,-1.5 2.25,-2.5 2.25,-0.5 0,2 0.25,5.5 1.5,5.75 1.25,0.25 4.25,1.25 6.5,-1.25 z"
   id="path472"
   style="fill:#f0a238;fill-opacity:1;stroke:#000000;stroke-width:1" />
		<path
   d="m 63.833,63.833 c 0,0 0.75,1.75 -0.75,2.75 -1.5,1 -4.25,1 -4.75,1.75 -0.5,0.75 -1,-0.75 -1,-0.75 0,0 2.75,-0.5 4,-2.25 1.25,-1.75 2.5,-1.5 2.5,-1.5 z"
   id="path474"
   style="fill:#b37a2e;fill-opacity:1" />
		<path
   d="m 47.333,64.583 c 0,0 6,0.75 8.5,0 0,0 -2.25,1.25 -4.25,1.25 -2,0 -4.5,1.25 -4.5,1.25 l 0.75,-1.5 -0.5,-1 z"
   id="path476"
   style="fill:#b37a2e;fill-opacity:1" />
		<path
   d="m 96.833,95.583 c 0,0 -1.75,2.25 -3.25,3.75 -1.5,1.5 1.75,1.25 1.75,1.25 0,0 0.5,1 0.25,3.25 -0.25,2.25 -3.75,2.5 -3.75,2.5 0,0 1,2.75 3.5,2.75 2.5,0 5.25,-2 5.75,-3 0.5,-1 1,2.25 0.25,2.75 -0.75,0.5 2.75,-1 3,-2.25 0.25,-1.25 0.75,-7.5 0.75,-7.5 0,0 -3.75,-6.5 -8.25,-3.5 z"
   id="path478"
   style="fill:#f0a238;fill-opacity:1;stroke:#000000;stroke-width:1" />
		<path
   d="m 131.083,86.583 c 0,0 2,3.5 3.75,4.5 1.75,1 4.25,1.75 8,0.75 3.75,-1 4.25,-1.5 5.25,-4 1,-2.5 -1.5,-5.75 0,-9 1.5,-3.25 2,-2.25 2.25,-3.75 0.25,-1.5 0,-2.75 1.25,-2.5 1.25,0.25 4,2 4,4.5 0,2.5 3.25,-1.25 3.25,-1.25 0,0 1.5,3 1,4.5 -0.5,1.5 -2.75,4.25 -3.75,5.75 -1,1.5 -2.5,2.5 -0.75,2.5 1.75,0 1.5,1.75 3.75,-2.75 2.25,-4.5 3.75,-7.75 5.75,-9.25 2,-1.5 1.75,-3.75 2.5,-5 0.75,-1.25 2.5,0.25 1.75,2.25 -0.75,2 2.25,-1.5 3.5,-1.5 1.25,0 4.75,0.25 5,1.75 0,0 -1.75,-0.5 -4.5,1.25 -2.75,1.75 -10,9.75 -13.5,12.75 -3.5,3 -10.5,6 -13.25,7.5 -2.75,1.5 -1.5,3.25 -3,3.25 -1.5,0 -0.25,2.75 0.25,4 0.5,1.25 0.25,1.25 -1,1.5 -1.25,0.25 -3,0.75 -3,0.75 0,0 1.25,1.5 0,2.75 -1.25,1.25 -2.75,0.75 -2.75,0.75 l -8,-5 c 0,0 -0.25,-15.25 2.25,-17 z"
   id="path480"
   style="fill:#f0a238;fill-opacity:1;stroke:#000000;stroke-width:1" />
		<path
   d="m 98.583,87.583 c 0,0 -4.5,-0.25 -5.5,-3 -1,-2.75 -1.75,-4.25 0,-5.5 0,0 -3,-3.25 -4.75,-0.75 -1.75,2.5 -1.5,4.25 -0.5,5.75 1,1.5 2.5,3 2.5,3 0,0 -4.5,-4 -5.75,-4 -1.25,0 -1,3.75 -0.25,5.25 0.75,1.5 4.25,5.25 5.75,5.5 1.5,0.25 4.25,0.5 5.75,0.5 1.5,0 5,-2.75 5,-2.75 l -2.25,-4 z"
   id="path482"
   style="fill:#f0a238;fill-opacity:1;stroke:#000000;stroke-width:1" />
		<path
   d="m 138.17972,95.669679 c 0,0 5.5,-0.75 6.5,-0.5 1,0.25 1,0.25 1,0.25 l -1.75,1.75 c 0,0 -3,-0.25 -4.25,-0.25 -1.25,0 -4.75,-0.75 -4.75,-0.75 l 3.25,-0.5 z"
   id="path484"
   style="fill:#b37a2e;fill-opacity:1" />
		<path
   d="m 134.833,99.419679 c 0,0 4,4.250001 5.25,4.500001 1.25,0.25 -0.5,1 -0.5,1 0,0 -1.25,0.75 -4.75,-5.500001 z"
   id="path486"
   style="fill:#b37a2e;fill-opacity:1" />
		<path
   d="m 154.582,75.333 c 0,0 -1,6.75 -2.75,9.75 0,0 3.5,-3.25 4.75,-6.75 0,0 0,0.5 -1,-1.25 -1,-1.75 -1,-1.75 -1,-1.75 z"
   id="path488"
   style="fill:#b37a2e;fill-opacity:1" />
		<path
   d="m 142.583,50.583 c 0,0 3.25,0.5 3.75,1.75 0.5,1.25 0.5,2.25 0.5,2.25 0,0 -0.25,-1.5 -2,-0.5 -1.75,1 -5.5,3 -6.75,2 0,0 3,-1 4.25,-2.25 1.25,-1.25 2.5,-1 2.5,-1 0,0 -2.75,-1.75 -5,-0.75 l 2.75,-1.5 z"
   id="path490"
   style="fill:#b37a2e;fill-opacity:1" />
	</g><g
   transform="translate(-53.324331,0)"
   id="g3264"><path
     style="fill:#f0a238;fill-opacity:1;stroke:#000000;stroke-width:1"
     d="m 214.38816,118.01958 -6.0823,2.77731 c -0.0397,0.59363 -0.13887,1.47248 -0.13887,3.52718 0,5 -0.49996,31.77144 -0.24996,37.52144 0.25,5.75 -2.99949,35.49401 -2.99949,35.49401 8.25,0.25 11.74802,-1.7497 11.74802,-1.7497 0,0 -2.74954,-29.24397 -2.74954,-35.74397 0,-6.5 -1.24983,-26.27233 -0.99983,-32.27233 0.13757,-3.30153 0.71763,-6.79788 1.47197,-9.55394 z"
     id="path112" /><path
     d="m 210.15633,112.583 c 0,0 0,23.75 0,27.75 0,4 -0.25,57 -0.25,57"
     id="path114"
     style="fill:#fee591;fill-opacity:1;stroke:#000000;stroke-width:1" /><path
     d="m 210.40633,122.833 2.5,0.25 m -4.75,3.5 1.5,-0.25 m 0.5,2.24999 2,0.25 m -4.25,2.25 2,-1 m 0.5,3 2.5,0 m -4.75,1.75 2,0 m 0.5,3 2.5,-0.25 m -5.5,2.5 2.5,0.25 m 0.25,1.25 2.5,0.25 m -5,3.25 2,-0.5 m 0.75,2 3.25,0 m -6,3.25 2.25,0.25 m 0,1.5 3,0 m -5.5,2.5 2,0 m 0.75,3 3,0 m -5.5,1.5 2,0 m 0.5,3.25 3.5,-0.5 m -5.75,2.25 1.5,0.25 m 0.5,2.75 4,0.5 m -4,-0.49999 m -0.25,6.74999 4.5,0.25 m -6.75,-3.5 2.25,0 m 0.25,7.5 5,0 m -7.75,-1.75 2.5,0.25 m 0,7.75001 c 0,0 5.25,-0.75 5.75,0 m -8.5,-2.75001 3.25,0.25 m -0.75,8.50001 4,-0.25 2.75,0 m -10.25,-1.25001 4.25,0 m -0.25,6.50001 4,-0.75 2.5,0 m -11.5,-0.25001 5,-0.5 m 3.5,-42.49999 c 0,0 0.25,44.5 0.5,45.25"
     id="line176"
     style="fill:none;stroke:#000000;stroke-width:1" /><path
     d="m 223.40633,110.083 c 0,0 0,-3.25 2.25,-4 2.25,-0.75 6.25,-0.75 7,2.25 0.75,3 0.75,3.5 -0.75,6 -1.5,2.5 -3.75,5.5 -6.25,8.25 -2.5,2.75 -2.25,6 -3.5,8 -1.25,2 -4.75,3.25 -4.5,1 0.25,-2.25 1.25,-5.25 2.5,-6.25 1.25,-1 4,-4 7,-7 3,-3 4,-5 3.5,-6 -0.5,-1 -0.75,-0.75 -2,-0.25 -1.25,0.5 -2.25,1 -2.25,1 l -3,-3 z"
     id="path180"
     style="fill:#ffffff" /><path
     style="fill:#00923f;fill-opacity:1;stroke:#000000;stroke-width:1.12518990000000008"
     d="M 167.03125 89.84375 C 165.37863 89.878912 163.68764 90.218655 162.84375 90.78125 C 161.15597 91.90644 160.31255 98.655918 160.03125 100.625 C 159.91423 101.44189 159.46046 104.1099 158.96875 106.9375 C 158.38815 103.49892 156.72072 98.324604 154.6875 96.96875 C 152.15582 95.280965 150.18764 95.562073 149.34375 98.09375 C 148.49986 100.62543 145.6875 106.25 145.6875 106.25 C 145.6875 106.25 149.34347 102.03134 151.03125 101.46875 C 152.71903 100.90616 153.28125 102.87481 153.28125 104 C 153.28125 104.24642 153.40247 105.07781 153.59375 106.21875 C 152.64409 105.54026 151.47697 105.216 150.1875 105.96875 C 146.81193 107.93783 139.21875 112.15625 139.21875 112.15625 L 140.0625 112.15625 L 146.8125 109.90625 C 148.50028 109.34366 151.03106 110.74972 152.15625 112.4375 C 152.32728 112.69292 152.54583 113.0758 152.8125 113.5 C 153.0938 114.04122 154.40625 114.96842 154.40625 116.9375 C 154.76181 117.5316 154.99683 121.29455 155.25 121.71875 C 155.70003 122.8563 155.73743 123.19134 155.6875 123.9375 L 162.53125 120.8125 C 163.22499 118.27785 164.05343 116.29032 164.8125 115.53125 C 166.50028 113.84347 167.34342 114.40653 169.3125 112.71875 C 171.28158 111.03097 174.93731 112.71875 176.0625 112.71875 C 177.18769 112.71875 180.00047 111.87514 177.1875 111.03125 C 174.37453 110.18736 172.40691 109.34375 168.46875 109.34375 C 167.54609 109.34375 166.75961 109.57432 166.125 109.90625 C 166.5447 108.71692 166.97464 107.42132 167.625 106.25 C 169.03149 103.71832 171.56217 99.781297 173.53125 99.5 C 175.50033 99.218703 183.9375 98.65625 183.9375 98.65625 C 181.88965 98.65625 177.06057 96.827119 174.40625 96.125 C 176.04115 96.44793 177.44864 96.385014 176.625 95.5625 C 175.21851 94.156013 172.40649 92.187737 171 90.78125 C 170.29676 90.078006 168.68387 89.808588 167.03125 89.84375 z M 167.71875 93.0625 C 168.90547 93.154801 170.01541 94.156108 171.28125 95 C 171.81797 95.356685 172.69472 95.700085 173.59375 95.9375 C 173.35183 95.891367 173.12965 95.84375 172.96875 95.84375 C 171.28097 95.84375 169.03158 97.812168 167.0625 99.78125 C 165.09342 101.75033 162.28125 110.75 162.28125 110.75 L 161.75 112.21875 C 162.31935 110.23279 162.91792 107.95457 163.40625 106.8125 C 164.25014 104.84342 164.81222 94.156392 166.5 93.3125 C 166.92195 93.101527 167.32318 93.031733 167.71875 93.0625 z "
     id="path3029"
     transform="matrix(0.88873885,0,0,0.88873885,69.940328,10.648816)" /></g>
	<g
   id="g492">
		<path
   d="m 98.354,66.769 c 0,0 1.244,-2.428 4.56,-2.901 l 0.829,3.553 3.73,-0.77 -0.178,-4.027 5.625,-0.177 0.119,4.381 6.099,-0.177 0.178,-4.145 h 5.803 l -0.355,4.5 3.671,0.474 1.007,-3.908 4.382,1.54 c 0,0 -1.361,4.085 -2.724,5.151 -1.363,1.066 -2.191,1.362 -2.191,1.362 l -0.013,4.547 c 0,0 -4.428,-1.29 -12.244,-1.29 -7.816,0 -14.862,1.717 -14.862,1.717 l -0.178,-5.506 c 0,0 -1.125,-0.71 -1.599,-1.303 -0.474,-0.593 -1.659,-3.021 -1.659,-3.021 z"
   id="path494"
   style="fill:#f0a238;stroke:#000000;stroke-width:1;fill-opacity:1" />
		<path
   d="m 99.598,69.434 c 0,0 4.439,-3.256 16.046,-2.96 11.607,0.296 15.929,2.842 15.929,2.842"
   id="path496"
   style="fill:none;stroke:#000000;stroke-width:1" />
		<path
   d="m 101.789,71.388 c 0,0 2.428,-1.185 7.105,-1.48 4.677,-0.295 7.579,-0.532 13.382,0.296 5.803,0.828 6.81,1.599 6.81,1.599"
   id="path498"
   style="fill:none;stroke:#000000;stroke-width:1" />
		<line
   x1="104.157"
   y1="70.795998"
   x2="104.098"
   y2="75.888"
   id="line500"
   style="fill:none;stroke:#000000;stroke-width:1" />
		<line
   x1="111.144"
   y1="69.790001"
   x2="111.073"
   y2="75"
   id="line502"
   style="fill:none;stroke:#000000;stroke-width:1" />
		<line
   x1="119.138"
   y1="69.907997"
   x2="119.019"
   y2="74.941002"
   id="line504"
   style="fill:none;stroke:#000000;stroke-width:1" />
		<line
   x1="126.895"
   y1="71.151001"
   x2="127.013"
   y2="75.829002"
   id="line506"
   style="fill:none;stroke:#000000;stroke-width:1" />
		<path
   d="m 111.5,79.975 -3.917,2.858 c 0,0 2.5,-1.5 6,-1.25 3.5,0.25 4,1.25 2.75,2 -1.25,0.75 2.25,1.75 2.25,1.75 0,0 -2,6.25 -1.25,9.75 0.75,3.5 6.25,14.75 6.25,14.75 0,0 4.25,-4.75 7.25,-4.75 3,0 6,4 2.75,6 l 2.25,-0.25 c 0,0 2.5,-3.25 0.25,-6 -2.25,-2.75 -4.75,-5 -4.75,-10 0,-5 0,-9.25 1,-11.5 1,-2.25 2,-1.75 -0.25,-3.25 -2.25,-1.5 -18.038,-1.115 -20.583,-0.108 z"
   id="path508"
   style="fill:#898d97" />
		<path
   d="m 119.083,90.333 c 0,0 1.5,12.25 5.75,17 l 0.25,0.75 0.75,-0.75 c 0,0 -1,0 -3,-8 -2,-8 -1.75,-10 -1.75,-10 l -2,1 z"
   id="path510"
   style="fill:#f9f6f3" />
		<path
   d="m 117.583,88.833 c 0,0 -0.5,4 -0.75,5.25 -0.25,1.25 2,7.25 -0.75,11.5 -2.75,4.25 -8.75,11 -10.25,10.5 -1.5,-0.5 0,-2.75 0.25,-7.25 0.25,-4.5 1.5,-5.5 -0.75,-8 -2.25,-2.5 -4.75,-4.75 -4.75,-4.75 l -5,-0.5 c 0,0 -2.75,-4.5 -1.75,-6.25 1,-1.75 1.25,-4.25 3,-5.5 1.75,-1.25 2.25,-2.25 2.25,-2.25 l 2.75,-0.25 c 0,0 -2.75,2.25 -3.5,3.75 -0.75,1.5 -0.75,8.25 -0.75,8.25 0,0 3.25,0.5 4.5,0.5 1.25,0 7,-1.25 7,-1.25 0,0 -1.25,1.75 0.75,1.75 2,0 3.25,-1 4.75,-2.25 1.5,-1.25 3,-3.25 3,-3.25 z"
   id="path512"
   style="fill:#898d97;stroke:#000000;stroke-width:1" />
		<path
   d="m 100.583,96.083 c 0,0 3.25,2.75 4,4.25 0.75,1.5 2.5,3.75 1.75,6.75 0,0 0,-4.5 1.5,-4.25 1.5,0.25 2.5,6 2.5,6 0,0 -0.75,-7 0.5,-7.25 1.25,-0.25 1.25,3.5 1.25,3.5 0,0 1.25,-6.25 1.75,-7.75 0.5,-1.5 1,-4.25 2,-3.75 1,0.5 1.5,-0.25 1.5,-0.25 l 0.75,-5.5 c 0,0 -1.75,2.75 -3.5,4.25 -1.75,1.5 -8,3.25 -9.75,3.5 -1.75,0.25 -4.25,0.5 -4.25,0.5 z"
   id="path514"
   style="fill:#1f1a17" />
		<path
   d="m 133.583,111.083 c 0,0 1.25,0 1.25,-2 0,-2 -1.5,-3.75 -4,-4 -2.5,-0.25 -6.25,4 -7.25,4.75 -1,0.75 -3,1.75 -3,1.75 l 13,-0.5 z"
   id="path516"
   style="fill:#1f1a17;stroke:#000000;stroke-width:1" />
		<path
   d="m 105.833,116.083 c 0,0 2.5,1.5 5.25,0.25 2.75,-1.25 8.25,-3.5 9.5,-4.75 1.25,-1.25 3,-1.75 3,-1.75 l -1.25,-3.5 -5,-10.5 c 0,0 0.75,4.5 0.25,6 -0.5,1.5 -4,7.5 -5.75,9.25 -1.75,1.75 -4,4.75 -6,5 z"
   id="path518"
   style="fill:#f9f6f3" />
		<path
   d="m 99.083,81.583 c 0,0 -5.25,5 -5,8.75 0.25,3.75 1.5,5.25 1.5,5.25 0,0 5,0.75 7.5,0.25 2.5,-0.5 8.75,-1.5 9.75,-2.25 1,-0.75 5,-2.25 5,-8.25 0,0 3.75,-0.75 6.5,-0.75 2.75,0 7.25,-0.5 8,-1.25 l -0.25,-3.25 c 0,0 -30.5,-1.75 -33,1.5 z"
   id="path520"
   style="fill:#faf2ec;stroke:#000000;stroke-width:1" />
		<path
   d="m 101.583,82.083 -2,2 c 0,0 -2.25,2 -2.25,5.25 0,3.25 0.25,4 0.25,4 0,0 5,0.25 7.25,0.25 2.25,0 4.5,-0.75 7.75,-3.75 3.25,-3 2.5,-5.5 2.5,-5.5 0,0 7,-1.25 9,-1.5 2,-0.25 7.24,-1.166 7.24,-1.166"
   id="path522"
   style="fill:none;stroke:#000000;stroke-width:1" />
		<path
   d="m 106.833,82.333 c 0,0 -6.25,5 -8.25,9.75 0,0 6.229,-8.757 12.864,-10.753 0,0 1.136,-2.247 -4.614,1.003 z"
   id="path524"
   style="fill:#898d97" />
		<path
   d="m 125.468,108.077 c 0,0 -12.916,10.378 -19.54,8.28"
   id="path526"
   style="fill:none;stroke:#000000;stroke-width:1" />
		<path
   d="m 102.381,76.896 c 0,0 -3.08,-0.592 -3.968,0 -0.888,0.592 -1.895,3.849 -0.947,4.5 0.948,0.651 3.493,0.533 5.329,0.237 1.836,-0.296 2.546,-0.355 3.197,-0.355 0.651,0 -1.952,-3.79 -3.611,-4.382 z"
   id="path528"
   style="fill:#007cc3;fill-opacity:1;stroke:#000000;stroke-width:1" />
		<path
   d="m 131.869,82.816 c 0,0 1.539,0.177 2.072,-0.651 0.533,-0.828 0.889,-3.02 -0.77,-3.849 -1.659,-0.829 -3.671,-1.006 -3.671,-1.006 0,0 0.059,1.125 0.77,2.131 0.711,1.006 1.895,2.783 1.599,3.375 z"
   id="path530"
   style="fill:#1f1a17;stroke:#000000;stroke-width:1;fill-opacity:1" />
		<path
   d="m 131.323,81.667 c 0,0 -1.645,-3.232 -1.822,-3.587 -0.177,-0.355 -0.178,-1.777 -1.007,-1.895 -0.829,-0.118 -1.481,-0.651 -2.191,-0.651 -0.71,0 -3.729,-0.77 -4.736,-0.415 -1.007,0.355 1.303,4.56 2.546,5.507 1.243,0.947 2.605,0.947 3.435,0.947 0.83,0 3.36,0.094 3.775,0.094 z"
   id="path532"
   style="fill:#007cc3;fill-opacity:1;stroke:#000000;stroke-width:1" />
		<path
   d="m 124.052,80.448 c 0,0 -0.177,-1.066 -0.71,-2.132 -0.533,-1.066 -1.362,-3.02 -2.132,-3.257 C 120.44,74.822 117.598,75 117.598,75 c 0,0 -0.473,1.243 0.237,2.487 0.71,1.244 1.243,2.131 2.072,2.665 0.829,0.534 1.185,0.415 2.428,0.651 1.243,0.236 1.717,-0.355 1.717,-0.355 z"
   id="path534"
   style="fill:#1f1a17;stroke:#000000;stroke-width:1;fill-opacity:1" />
		<path
   d="m 117.243,75.889 c 0,0 -0.592,-1.006 -1.539,-1.006 -0.947,0 -1.006,-0.533 -2.309,-0.533 -1.303,0 -3.139,0.118 -3.672,0.651 -0.533,0.533 -0.711,2.31 -0.296,2.783 0.415,0.473 2.071,2.427 3.02,2.546 0.949,0.119 2.429,-0.178 4.619,0.237 2.19,0.415 2.428,-0.296 2.428,-0.296 0,0 -1.065,-1.48 -1.48,-2.013 -0.415,-0.533 -0.771,-2.369 -0.771,-2.369 z"
   id="path536"
   style="fill:#007cc3;stroke:#000000;stroke-width:1;fill-opacity:1" />
		<path
   d="m 111.026,79.619 c 0,0 -1.066,-1.658 -1.48,-2.309 -0.414,-0.651 -0.592,-1.717 -1.303,-1.717 -0.711,0 -3.553,0 -4.5,0.71 -0.947,0.71 -1.243,1.066 -0.947,1.776 0.296,0.71 1.895,2.191 2.901,2.605 1.006,0.414 1.421,0.296 3.257,0.296 1.836,0 2.546,-1.006 2.546,-1.006 l -0.474,-0.355 z"
   id="path538"
   style="fill:#1f1a17;stroke:#000000;stroke-width:1;fill-opacity:1" />
	</g>
<use
   transform="matrix(-1,0,0,1,229.27838,0)"
   id="use3233"
   x="0"
   y="0"
   width="225.00002"
   height="248.53996"
   xlink:href="#g3138" /><g
   transform="translate(-1.7774777,3.5549554)"
   id="g5458"><path
     d="m 91.904913,220.04729 c -0.32665,5.63459 0.57163,6.20622 3.26643,7.67611 2.6948,1.4699 16.332137,-1.71487 21.231777,-1.71487 4.89964,0 15.92384,3.02144 19.92521,2.61314 4.00137,-0.40831 6.36953,-4.73632 5.87957,-7.83943 -0.48996,-3.10311 -6.94116,-8.73769 -24.90651,-8.49271 -17.965357,0.24498 -25.559797,7.67611 -25.396477,7.75776 z"
     id="path4345"
     style="color:#000000;fill:#dededd;fill-opacity:1;fill-rule:nonzero;stroke:#000000;stroke-width:0.88873880999999999;stroke-linecap:butt;stroke-linejoin:miter;stroke-miterlimit:4;stroke-opacity:1;stroke-dasharray:none;stroke-dashoffset:0;marker:none;visibility:visible;display:inline;overflow:visible;enable-background:accumulate" /><g
     transform="translate(-177.74778,-88.873885)"
     id="g4500"
     style="fill:#dededd;fill-opacity:1"><path
       d="m 210.73451,287.93439 c -0.0408,-2.93978 13.55567,-8.49271 13.88232,-1.55155 0.32664,6.94116 -4.90814,12.86857 -4.90814,12.86857 l -5.70775,-1.02777 -3.26643,-10.28925 z"
       id="path4339"
       style="color:#000000;fill:#5e746c;fill-opacity:1;fill-rule:nonzero;stroke:#000000;stroke-width:0.88873880999999999;stroke-linecap:butt;stroke-linejoin:miter;stroke-miterlimit:4;stroke-opacity:1;stroke-dasharray:none;stroke-dashoffset:0;marker:none;visibility:visible;display:inline;overflow:visible;enable-background:accumulate" /><path
       d="m 224.57929,286.05396 c -0.28872,2.07874 -7.44882,4.79266 -7.44882,4.79266 l 1.96325,5.94751 5.2546,-0.4042 0.23097,-10.33597 z"
       id="path4341"
       style="color:#000000;fill:#dededd;fill-opacity:1;fill-rule:nonzero;stroke:#000000;stroke-width:0.88873880999999999;stroke-linecap:butt;stroke-linejoin:miter;stroke-miterlimit:4;stroke-opacity:1;stroke-dasharray:none;stroke-dashoffset:0;marker:none;visibility:visible;display:inline;overflow:visible;enable-background:accumulate" /><path
       d="m 286.22983,302.26585 c 0,2.88524 -16.25048,3.59307 -16.57712,7.30863 0.16332,-3.71556 2.77646,-11.39167 2.77646,-11.39167 l 11.26918,2.00068 2.53148,2.08236 z"
       id="path4343"
       style="color:#000000;fill:#5e746c;fill-opacity:1;fill-rule:nonzero;stroke:#000000;stroke-width:0.88873880999999999;stroke-linecap:butt;stroke-linejoin:miter;stroke-miterlimit:4;stroke-opacity:1;stroke-dasharray:none;stroke-dashoffset:0;marker:none;visibility:visible;display:inline;overflow:visible;enable-background:accumulate" /><path
       d="m 286.3284,302.38919 c -1.88687,-3.83708 -4.72195,-8.86905 -4.83489,-12.90324 -18.4248,-2.21986 -33.49465,6.90904 -63.04207,5.87957 -5.08311,-0.1771 -7.72922,-5.80611 -7.6761,-8.00275 -0.62341,2.7726 2.11897,5.97202 2.61314,10.12593 0.50497,4.2446 0.16333,6.61452 2.44982,9.30931 1.90492,2.24507 24.23519,2.99144 35.60407,-0.48996 10.66685,-3.26642 33.526,-7.26915 34.88603,-3.91886 z"
       id="path4337"
       style="color:#000000;fill:#dededd;fill-opacity:1;stroke:#000000;stroke-width:0.88873880999999999;stroke-linecap:butt;stroke-linejoin:miter;stroke-miterlimit:4;stroke-opacity:1;stroke-dasharray:none;stroke-dashoffset:0;marker:none;visibility:visible;display:inline;overflow:visible;enable-background:accumulate" /></g><use
     transform="matrix(-1,0,0,1,233.94533,-3.9436989e-7)"
     id="use4514"
     x="0"
     y="0"
     width="225.00002"
     height="248.53996"
     xlink:href="#g4500"
     style="fill:#dededd;fill-opacity:1" /></g><path
   d="m 40.258472,252.46515 c 31.743304,2.8744 31.831874,-6.52995 62.899468,-7.50657"
   id="path3561"
   style="color:#000000;fill:none;stroke:#00ff00;stroke-width:0.44436944;stroke-miterlimit:4;stroke-dasharray:none;marker:none;visibility:visible;display:inline;overflow:visible;enable-background:accumulate" /><path
   d="m 141.07227,245.30223 c 19.70759,2.64354 24.19043,8.88288 51.70797,6.47001"
   id="use4516"
   style="color:#000000;fill:none;stroke:#00ff00;stroke-width:0.43522143;stroke-miterlimit:4;stroke-dasharray:none;marker:none;visibility:visible;display:inline;overflow:visible;enable-background:accumulate" /><path
   d="m 95.579643,261.40724 c 13.936757,-3.8394 27.873517,-2.15399 41.810277,0 l 0,0.32664"
   id="path4518"
   style="color:#000000;fill:none;stroke:#00ff00;stroke-width:0.44436947;stroke-linecap:butt;stroke-linejoin:miter;stroke-miterlimit:4;stroke-opacity:1;stroke-dasharray:none;stroke-dashoffset:0;marker:none;visibility:visible;display:inline;overflow:visible;enable-background:accumulate" /><text
   x="50.670795"
   y="265.40387"
   id="text4738">64 px</text>


<text
   x="100.80936"
   y="275.72308"
   id="text4742">42 px</text>


<text
   x="71.164772"
   y="280.38507"
   id="text5323"
   xml:space="preserve"
   style="font-size:9.86788177px;font-style:normal;font-variant:normal;font-weight:bold;font-stretch:normal;text-align:center;line-height:125%;writing-mode:lr-tb;text-anchor:middle;fill:#d35226;fill-opacity:1;stroke:none;font-family:Liberation Sans;-inkscape-font-specification:Liberation Sans Bold"><tspan
     x="71.164772"
     y="280.38507"
     id="tspan5325">COUNTRY</tspan></text>

<text
   x="119.15671"
   y="287.49493"
   id="text5341"
   xml:space="preserve"
   style="font-size:9.86788177px;font-style:normal;font-variant:normal;font-weight:bold;font-stretch:normal;text-align:center;line-height:125%;writing-mode:lr-tb;text-anchor:middle;fill:#d35226;fill-opacity:1;stroke:none;font-family:Liberation Sans;-inkscape-font-specification:Liberation Sans Bold"><tspan
     x="119.15671"
     y="287.49493"
     id="tspan5343">ABOVE</tspan></text>

<text
   x="177.81345"
   y="280.38507"
   id="text5352"
   xml:space="preserve"
   style="font-size:9.86788177px;font-style:normal;font-variant:normal;font-weight:bold;font-stretch:normal;text-align:center;line-height:125%;writing-mode:lr-tb;text-anchor:middle;fill:#d35226;fill-opacity:1;stroke:none;font-family:Liberation Sans;-inkscape-font-specification:Liberation Sans Bold"><tspan
     x="177.81345"
     y="280.38507"
     id="tspan5354">SELF</tspan></text>

<path
   d="m 175.81694,214.55495 -0.0699,2.09962 3.47208,0.11553 -0.0365,1.09797 -3.47207,-0.11553 -0.0828,2.48968 -1.42062,-0.0473 0.22578,-6.78523 5.00345,0.16649 -0.0365,1.09796 -3.58283,-0.11922 m -9.74741,4.69971 0.94818,-6.72245 1.40746,0.19852 -0.79474,5.63465 3.60693,0.50874 -0.15343,1.08781 -5.0144,-0.70727 m -8.53454,-1.94656 1.61317,-6.59454 5.18578,1.26855 -0.26104,1.06711 -3.80509,-0.93081 -0.40529,1.65683 3.51959,0.86097 -0.26104,1.06711 -3.51959,-0.86097 -0.42476,1.73639 3.99698,0.97775 -0.26104,1.06711 -5.37767,-1.3155 m -2.61678,-2.7759 c -0.0749,0.29914 -0.19771,0.55813 -0.36841,0.77698 -0.16993,0.21574 -0.39203,0.38199 -0.6663,0.49874 -0.27117,0.11754 -0.59801,0.17974 -0.98053,0.1866 -0.37864,0.005 -0.81412,-0.0548 -1.30644,-0.17813 -0.43624,-0.10924 -0.81131,-0.24455 -1.12522,-0.40594 -0.3139,-0.16139 -0.5717,-0.34847 -0.7734,-0.56123 -0.19858,-0.21199 -0.34457,-0.44888 -0.43796,-0.71068 -0.0895,-0.26414 -0.13028,-0.55086 -0.12237,-0.86015 l 1.3871,0.11389 c 7.2e-4,0.15582 0.0217,0.30346 0.0629,0.44293 0.0412,0.13947 0.11286,0.26999 0.21488,0.39157 0.1059,0.11923 0.24609,0.22719 0.42057,0.32386 0.17837,0.0943 0.40154,0.17506 0.66952,0.24216 0.4674,0.11704 0.84173,0.13628 1.12301,0.0577 0.28517,-0.0809 0.4656,-0.2725 0.54129,-0.57475 0.0453,-0.18073 0.0325,-0.34122 -0.0384,-0.48148 -0.0708,-0.14026 -0.17948,-0.26846 -0.32589,-0.3846 -0.14643,-0.11614 -0.3209,-0.22605 -0.52341,-0.32975 -0.20253,-0.10369 -0.41478,-0.20817 -0.63677,-0.31343 -0.17604,-0.0904 -0.35169,-0.18244 -0.52694,-0.276 -0.17526,-0.0935 -0.34038,-0.19451 -0.49537,-0.30286 -0.15188,-0.10757 -0.28973,-0.22487 -0.41356,-0.35191 -0.12382,-0.12703 -0.22388,-0.26964 -0.30016,-0.42783 -0.0724,-0.16051 -0.11752,-0.33738 -0.13536,-0.5306 -0.0147,-0.19243 0.008,-0.40861 0.068,-0.64855 0.0819,-0.32717 0.21759,-0.59123 0.40698,-0.79216 0.18939,-0.20092 0.41772,-0.34574 0.68498,-0.43446 0.27114,-0.091 0.57578,-0.13066 0.91389,-0.11885 0.33811,0.0118 0.69725,0.0653 1.0774,0.16052 0.43,0.10768 0.78911,0.23403 1.07731,0.37904 0.29209,0.14269 0.5238,0.30833 0.69513,0.49693 0.17444,0.18939 0.29472,0.40329 0.36086,0.64171 0.07,0.23609 0.0984,0.49981 0.085,0.79118 l -1.38241,-0.15245 c 0.002,-0.30072 -0.0843,-0.54928 -0.26031,-0.74568 -0.17288,-0.19561 -0.45563,-0.34257 -0.84824,-0.44089 -0.24305,-0.0609 -0.45105,-0.0898 -0.624,-0.0867 -0.16907,7.2e-4 -0.31087,0.0248 -0.42541,0.0723 -0.11142,0.0483 -0.19949,0.11562 -0.26418,0.20207 -0.0639,0.0833 -0.10914,0.17798 -0.13567,0.28392 -0.0406,0.16204 -0.0352,0.30578 0.0162,0.43122 0.0521,0.12234 0.13936,0.2369 0.26163,0.34368 0.12305,0.10366 0.27493,0.20461 0.45564,0.30284 0.1846,0.0959 0.38751,0.19804 0.60873,0.30641 0.19473,0.0951 0.38712,0.19297 0.57718,0.29355 0.19083,0.0975 0.36998,0.20192 0.53744,0.31339 0.16745,0.11147 0.31894,0.23385 0.45445,0.36712 0.1355,0.13327 0.24373,0.2829 0.3247,0.44887 0.0849,0.16364 0.13659,0.34713 0.15521,0.55047 0.0217,0.20413 6.1e-4,0.43395 -0.0634,0.68946 m -27.52261,13.69048 0.92985,-6.725 5.28837,0.7312 -0.15047,1.08822 -3.88036,-0.53652 -0.23362,1.6896 3.58922,0.49627 -0.15047,1.08822 -3.58921,-0.49627 -0.24484,1.77074 4.07605,0.56359 -0.15046,1.08822 -5.48406,-0.75827 m -3.8616,-0.43992 -1.43363,-0.14224 -1.82781,-7.00365 1.47678,0.14651 0.95998,4.47721 c 0.0305,0.14829 0.059,0.29961 0.0857,0.45396 0.0267,0.15436 0.0514,0.29562 0.0742,0.42377 0.0238,0.15085 0.0466,0.29514 0.0684,0.43288 0.045,-0.12788 0.0922,-0.262 0.1416,-0.40236 0.044,-0.11829 0.0942,-0.2505 0.15071,-0.39661 0.06,-0.14899 0.11978,-0.29639 0.17944,-0.44219 l 1.8162,-4.20178 1.4624,0.14509 -3.15395,6.50941 m -4.94783,-3.9187 c -0.0173,0.52973 -0.11173,1.00873 -0.28321,1.437 -0.17149,0.42828 -0.40995,0.79169 -0.71539,1.09024 -0.30545,0.29855 -0.67439,0.52431 -1.10684,0.6773 -0.42925,0.15309 -0.91194,0.22087 -1.44809,0.20334 -0.56826,-0.0186 -1.06305,-0.12154 -1.48437,-0.30886 -0.41802,-0.19044 -0.7648,-0.44603 -1.04035,-0.76679 -0.27544,-0.32397 -0.47837,-0.70342 -0.60877,-1.13835 -0.1272,-0.43482 -0.18245,-0.90747 -0.16576,-1.41794 0.0173,-0.52972 0.1068,-1.00567 0.26844,-1.42784 0.16486,-0.42206 0.39663,-0.77765 0.69534,-1.06678 0.30202,-0.29223 0.66755,-0.51168 1.09658,-0.65836 0.43235,-0.14976 0.92462,-0.21562 1.47683,-0.19758 0.5522,0.0181 1.03752,0.11589 1.45595,0.29347 0.42164,0.1777 0.77199,0.42217 1.05108,0.7334 0.28228,0.31134 0.49189,0.68297 0.62883,1.11489 0.13703,0.42873 0.19694,0.90634 0.17973,1.43286 m -1.44954,-0.0474 c 0.0117,-0.35636 -0.0212,-0.67883 -0.0985,-0.9674 -0.074,-0.29167 -0.19116,-0.54297 -0.35138,-0.7539 -0.16023,-0.21093 -0.36216,-0.37501 -0.6058,-0.49226 -0.24032,-0.12034 -0.52261,-0.18581 -0.84687,-0.19642 -0.33068,-0.0108 -0.62307,0.0359 -0.87716,0.14005 -0.25078,0.10108 -0.463,0.25163 -0.63666,0.45163 -0.17366,0.20002 -0.30695,0.44313 -0.39987,0.72934 -0.0928,0.28301 -0.14505,0.6027 -0.1567,0.95906 -0.0115,0.35315 0.0196,0.67878 0.0934,0.97687 0.0771,0.29499 0.1957,0.55116 0.35572,0.76851 0.16002,0.21735 0.36169,0.38946 0.60501,0.51633 0.24333,0.12687 0.52712,0.19561 0.85138,0.20621 0.34673,0.0113 0.64724,-0.0383 0.90155,-0.1489 0.2544,-0.11381 0.46533,-0.27404 0.63279,-0.48068 0.17076,-0.20975 0.29945,-0.45944 0.38606,-0.74908 0.0867,-0.29284 0.13572,-0.61263 0.14706,-0.95936 m -7.15058,1.32627 c 0.0213,0.34304 -0.0293,0.64228 -0.15177,0.89771 -0.12271,0.25223 -0.29941,0.46437 -0.53008,0.63641 -0.22769,0.16864 -0.49793,0.2997 -0.81073,0.39317 -0.31302,0.0903 -0.64746,0.14646 -1.00332,0.16859 l -3.39035,0.2108 -0.42131,-6.7759 3.10181,-0.19286 c 0.40075,-0.0249 0.75881,-0.0118 1.07418,0.0394 0.31837,0.0478 0.58935,0.13555 0.81293,0.26325 0.22357,0.12771 0.39653,0.29558 0.5189,0.5036 0.12536,0.20462 0.19701,0.4512 0.21496,0.73974 0.0239,0.38473 -0.0632,0.71681 -0.26151,0.99626 -0.19525,0.27606 -0.508,0.47412 -0.93823,0.5942 0.55221,0.03 0.97976,0.17725 1.28264,0.44163 0.30588,0.26099 0.47317,0.62231 0.50188,1.08398 m -2.0011,-2.8349 c -0.0189,-0.30457 -0.13018,-0.5149 -0.33371,-0.63098 -0.20034,-0.11628 -0.49127,-0.16255 -0.87278,-0.13884 l -1.61583,0.10047 0.10436,1.67834 1.62544,-0.10106 c 0.40075,-0.0249 0.68661,-0.11188 0.85758,-0.26091 0.17397,-0.15242 0.25228,-0.3681 0.23494,-0.64702 m 0.57076,2.8128 c -0.0112,-0.17954 -0.0558,-0.32803 -0.13391,-0.44547 -0.0781,-0.11744 -0.18197,-0.20915 -0.31159,-0.27511 -0.12641,-0.0662 -0.27397,-0.11009 -0.44268,-0.13179 -0.1655,-0.0219 -0.34443,-0.0269 -0.53679,-0.0149 l -1.79857,0.11183 0.1208,1.94284 1.85147,-0.11512 c 0.18595,-0.0116 0.35817,-0.0367 0.51669,-0.0756 0.1583,-0.042 0.29287,-0.1035 0.4037,-0.18441 0.11384,-0.0843 0.20043,-0.1927 0.25979,-0.32512 0.0593,-0.13243 0.083,-0.29482 0.0711,-0.48718 m -7.41871,2.72443 -0.89775,-1.60175 -2.547156,0.4547 -0.288085,1.81344 -1.399278,0.24979 1.244995,-7.11856 1.650676,-0.29467 3.621648,6.2498 -1.38505,0.24725 m -2.401038,-4.40223 c -0.0577,-0.1039 -0.11541,-0.2078 -0.17311,-0.31171 -0.0551,-0.10762 -0.10508,-0.20475 -0.14991,-0.29138 -0.0422,-0.0903 -0.0782,-0.16387 -0.10789,-0.22057 -0.0265,-0.0573 -0.042,-0.0888 -0.0462,-0.0945 -0.001,0.0101 -0.005,0.0465 -0.01,0.10944 -0.005,0.0629 -0.0137,0.14275 -0.0258,0.23953 -0.0089,0.0962 -0.0222,0.20464 -0.03983,0.32525 -0.01503,0.11689 -0.03164,0.23406 -0.04982,0.35151 l -0.316387,2.03874 1.921047,-0.34293 -1.00226,-1.80335 m -4.309984,-12.88518 0.243274,2.77434 -1.411166,0.12374 -0.243273,-2.77434 -2.7593,-3.77741 1.483164,-0.13006 1.87321,2.71847 1.390711,-3.00467 1.483164,-0.13006 -2.059784,4.19999 m -6.558,3.51972 -1.97735,-2.2842 -1.644519,0.27365 0.423136,2.54283 -1.402119,0.23332 -1.114391,-6.6969 3.346073,-0.5568 c 0.418256,-0.0696 0.790557,-0.0827 1.116905,-0.0393 0.328981,0.0397 0.612538,0.12928 0.850673,0.26875 0.237597,0.13631 0.42766,0.31961 0.570188,0.54988 0.14516,0.22659 0.243315,0.49356 0.294466,0.80091 0.04165,0.25033 0.04185,0.48638 6.11e-4,0.70816 -0.03861,0.2181 -0.11101,0.41901 -0.217196,0.60275 -0.103028,0.18323 -0.235618,0.34531 -0.39777,0.48627 -0.16269,0.13779 -0.345963,0.24969 -0.54982,0.33572 l 2.279091,2.5124 -1.577978,0.26259 m -0.939072,-4.61595 c -0.05431,-0.32636 -0.202383,-0.55084 -0.44421,-0.67342 -0.238665,-0.1231 -0.556035,-0.15169 -0.952111,-0.0858 l -1.796613,0.29896 0.329018,1.97723 1.834637,-0.30529 c 0.209126,-0.0348 0.384199,-0.0884 0.52522,-0.16067 0.143654,-0.076 0.25563,-0.16628 0.335929,-0.27082 0.08293,-0.10823 0.137884,-0.22809 0.164854,-0.35958 0.02696,-0.13148 0.02805,-0.27169 0.0033,-0.42062 m -9.279532,0.82628 1.358037,5.52599 -1.380328,0.33922 -1.358036,-5.52599 -2.12898,0.52321 -0.262178,-1.06683 5.642966,-1.38678 0.262178,1.06683 -2.133659,0.52435 m -5.851633,7.44231 -4.204491,-4.29012 c 0.0519,0.13245 0.102253,0.2653 0.151052,0.39856 0.04384,0.11465 0.08705,0.23943 0.129643,0.37434 0.04569,0.1341 0.08508,0.26323 0.118155,0.38738 l 1.030711,3.86907 -1.219852,0.32497 -1.74762,-6.5602 1.569046,-0.41799 4.257558,4.32086 c -0.05025,-0.12623 -0.100605,-0.25908 -0.151052,-0.39856 -0.04467,-0.11774 -0.09192,-0.25142 -0.141741,-0.40104 -0.04673,-0.15043 -0.09076,-0.30325 -0.132104,-0.45845 l -1.015827,-3.8132 1.219852,-0.32497 1.74762,6.5602 -1.61095,0.42915 m -9.558623,2.34391 c -0.417662,0.0731 -0.809102,0.0911 -1.174319,0.0539 -0.365776,-0.0403 -0.693505,-0.14274 -0.983188,-0.30726 -0.287074,-0.16824 -0.530606,-0.40442 -0.730594,-0.70856 -0.196826,-0.3047 -0.335119,-0.68486 -0.414881,-1.14049 l -0.731978,-4.18133 1.400108,-0.2451 0.712868,4.07217 c 0.0493,0.28161 0.126751,0.51915 0.232366,0.71263 0.105057,0.19032 0.234083,0.34056 0.387076,0.45074 0.152435,0.10702 0.325951,0.17611 0.520548,0.20726 0.194038,0.028 0.403384,0.0223 0.628037,-0.017 0.22781,-0.0399 0.431101,-0.10808 0.609871,-0.20459 0.181374,-0.10024 0.328181,-0.23029 0.440423,-0.39017 0.115398,-0.16042 0.192789,-0.3517 0.232174,-0.57382 0.03938,-0.22212 0.03386,-0.47715 -0.01654,-0.76508 l -0.70456,-4.02472 1.400107,-0.2451 0.719516,4.11015 c 0.08031,0.45879 0.07547,0.8689 -0.01452,1.23032 -0.09001,0.36143 -0.248509,0.67615 -0.475513,0.94416 -0.227569,0.26485 -0.515452,0.48319 -0.863648,0.65502 -0.345595,0.16812 -0.736712,0.29039 -1.173352,0.36683 m -5.422777,-2.7402 c 0.02572,0.5294 -0.02951,1.01448 -0.165664,1.45525 -0.136173,0.44078 -0.344359,0.82234 -0.62456,1.14469 -0.280214,0.32235 -0.629624,0.57731 -1.048231,0.76488 -0.415409,0.18742 -0.891013,0.29415 -1.426814,0.32018 -0.567893,0.0276 -1.069406,-0.0349 -1.504541,-0.18739 -0.432088,-0.15588 -0.798466,-0.38249 -1.099135,-0.67984 -0.300828,-0.30054 -0.533876,-0.66227 -0.699145,-1.08519 -0.162061,-0.42306 -0.255486,-0.88967 -0.280274,-1.39981 -0.02572,-0.52938 0.02484,-1.01102 0.151694,-1.44492 0.13006,-0.43404 0.33222,-0.80727 0.606479,-1.11969 0.27731,-0.31577 0.623823,-0.56416 1.039541,-0.74516 0.418766,-0.18436 0.904073,-0.28995 1.455924,-0.31677 0.551843,-0.0268 1.043497,0.0313 1.474963,0.17435 0.434665,0.1429 0.803706,0.35813 1.107124,0.64568 0.306614,0.28741 0.545689,0.64081 0.717226,1.0602 0.171367,0.41619 0.269838,0.88737 0.295413,1.41354 m -1.4486,0.0704 c -0.01731,-0.35613 -0.07621,-0.67486 -0.176711,-0.95621 -0.09745,-0.2847 -0.234587,-0.52566 -0.411397,-0.7229 -0.17682,-0.19723 -0.391402,-0.34438 -0.643746,-0.44147 -0.2493,-0.10044 -0.535973,-0.14279 -0.860019,-0.12705 -0.33047,0.0161 -0.618103,0.0863 -0.8629,0.21077 -0.24175,0.12109 -0.441054,0.28836 -0.597911,0.5018 -0.156862,0.21345 -0.269986,0.46658 -0.339372,0.75938 -0.06955,0.28961 -0.09566,0.61248 -0.07836,0.96861 0.01715,0.35293 0.0746,0.67495 0.172366,0.96607 0.100812,0.28776 0.239782,0.53346 0.416911,0.73711 0.177125,0.20365 0.392096,0.35882 0.644915,0.46553 0.252813,0.10671 0.541246,0.15219 0.8653,0.13644 0.346504,-0.0168 0.642003,-0.0907 0.886495,-0.22156 0.244328,-0.13408 0.441559,-0.31089 0.591696,-0.53045 0.153178,-0.22291 0.261177,-0.48222 0.323998,-0.77793 0.06265,-0.29891 0.08557,-0.62163 0.06873,-0.96814 m -10.29156,2.49055 c 0.26635,0.0118 0.497426,-0.015 0.69323,-0.0804 0.199146,-0.0684 0.37201,-0.16044 0.518592,-0.27616 0.149781,-0.11557 0.274603,-0.24833 0.374464,-0.39826 0.10306,-0.14979 0.188547,-0.30196 0.256459,-0.45652 l 1.21651,0.52148 c -0.110244,0.2395 -0.250755,0.47285 -0.421533,0.70003 -0.170791,0.22719 -0.380487,0.42533 -0.629087,0.59442 -0.248612,0.1691 -0.542264,0.30245 -0.880956,0.40005 -0.335352,0.0945 -0.727661,0.13189 -1.176928,0.11208 -0.587265,-0.0259 -1.092083,-0.13498 -1.514456,-0.32723 -0.422235,-0.19547 -0.767687,-0.45506 -1.036357,-0.7788 -0.265322,-0.3268 -0.457496,-0.70825 -0.576522,-1.14436 -0.115819,-0.43596 -0.162477,-0.90906 -0.139974,-1.4193 0.02335,-0.5295 0.111827,-1.00468 0.265431,-1.42555 0.156812,-0.42072 0.37979,-0.77421 0.668933,-1.06049 0.289282,-0.28948 0.647657,-0.50518 1.075125,-0.6471 0.430813,-0.14498 0.931829,-0.20487 1.503049,-0.17969 0.442849,0.0195 0.827491,0.0831 1.153927,0.19076 0.329635,0.10778 0.611045,0.25202 0.844232,0.43271 0.236525,0.17764 0.428318,0.38544 0.57538,0.62343 0.150399,0.23492 0.264444,0.49235 0.342135,0.77229 l -1.266614,0.28658 c -0.03856,-0.14639 -0.101475,-0.28742 -0.18873,-0.4231 -0.08713,-0.13888 -0.200625,-0.26286 -0.340499,-0.37192 -0.136676,-0.10891 -0.29994,-0.1981 -0.489791,-0.26757 -0.189719,-0.0727 -0.406521,-0.11438 -0.650407,-0.12514 -0.343376,-0.0151 -0.641087,0.028 -0.893137,0.12941 -0.251913,0.0982 -0.462624,0.24648 -0.632133,0.44478 -0.166305,0.19845 -0.294333,0.44038 -0.384086,0.7258 -0.08641,0.28236 -0.137462,0.60164 -0.153169,0.95784 -0.01557,0.353 0.007,0.67875 0.06783,0.97724 0.06414,0.29542 0.171764,0.55257 0.32288,0.77144 0.151111,0.21888 0.349204,0.39321 0.594278,0.52298 0.248279,0.12992 0.548918,0.20266 0.901921,0.21822"
   id="path5500"
   style="font-size:9.86788177000000033px;font-style:normal;font-variant:normal;font-weight:bold;font-stretch:normal;text-align:center;line-height:125%;letter-spacing:2.16103601000000012;writing-mode:lr-tb;text-anchor:middle;fill:#231d1a;fill-opacity:1;stroke:none;font-family:Liberation Sans;-inkscape-font-specification:Liberation Sans Bold" /></g>
</svg>