<?xml version="1.0" encoding="UTF-8"?><svg xmlns="http://www.w3.org/2000/svg" xmlns:xlink="http://www.w3.org/1999/xlink" width="500" height="492.4735" viewBox="-1 -0.968 2 1.968"><g id="A"><path d="m 1,6.5298e-4 c 0,0.2832 -0.1568,0.5432 -0.4072,0.6756 0.3408,-0.4264 0.2712,-1.0484 -0.1552,-1.3896 v 0 c -0.0144,-0.0116 -0.0292,-0.0228 -0.0444,-0.0336 0.3536,0.074 0.6068,0.386 0.6068,0.7476 z" /><path d="m 0.6456,-0.03014702 c -4e-4,0.504 -0.4092,0.9124 -0.9132,0.912 -0.0956,0 -0.1904,-0.0152 -0.2812,-0.0444 0.016,8e-4 0.0324,0.0012 0.0484,0.0012 0.5524,0 1,-0.448 1,-1.0004 0,-0.1992 -0.0596,-0.394 -0.1712,-0.5592 0.202,0.1728 0.3176,0.4252 0.3172,0.6908 z" /><path d="m 0.2576,-0.91334702 c 0,0.0768 -0.0624,0.1392 -0.1392,0.1392 -0.048,0 -0.0928,-0.0248 -0.118,-0.0656 l -0.0168,-0.0168 0.0164,-0.082 c 0.03,0.0652 0.1076,0.0936 0.1728,0.0636 0.038,-0.0176 0.0656,-0.0528 0.0732,-0.094 0.0076,0.0176 0.0116,0.0364 0.0116,0.0556 z" /><path d="m 0.118,-0.68774702 c -0.0464,-0.0212 -0.0872,-0.0536 -0.118,-0.094 l -0.05,0.7816 L 0,1.000653 0.0776,0.89385298 l 0.0104,-0.2464 0.0108,-0.2564 0.0012,-0.0328 4e-4,-0.0124 0.0024,-0.0532 0.0068,-0.1616 0.0056,-0.1304 0.0016,-0.0376 0.002,-0.048 z m -0.118,0.1624 z m 0,0.8512 z" /></g><use xlink:href="#A" transform="scale(-1 1)"/></svg>