<?xml version="1.0" encoding="UTF-8" standalone="no"?>
<svg
   id="svg2051"
   width="670"
   height="389.512"
   version="1.1"
   sodipodi:docname="Emblem_of_Yemen.svg"
   inkscape:version="1.2.1 (9c6d41e410, 2022-07-14)"
   xmlns:inkscape="http://www.inkscape.org/namespaces/inkscape"
   xmlns:sodipodi="http://sodipodi.sourceforge.net/DTD/sodipodi-0.dtd"
   xmlns="http://www.w3.org/2000/svg"
   xmlns:svg="http://www.w3.org/2000/svg">
  <defs
     id="defs1" />
  <sodipodi:namedview
     id="namedview1"
     pagecolor="#ffffff"
     bordercolor="#000000"
     borderopacity="0.25"
     inkscape:showpageshadow="2"
     inkscape:pageopacity="0.0"
     inkscape:pagecheckerboard="0"
     inkscape:deskcolor="#d1d1d1"
     showgrid="false"
     inkscape:zoom="2.2864905"
     inkscape:cx="392.0856"
     inkscape:cy="205.99255"
     inkscape:window-width="1920"
     inkscape:window-height="1009"
     inkscape:window-x="-8"
     inkscape:window-y="-8"
     inkscape:window-maximized="1"
     inkscape:current-layer="g12671" />
  <style
     id="style4811">.st0{fill:#fff}.st1{fill:#231f20}.st2{fill:#c49c5b}.st3{fill:#00a650}.st4{fill:#00adef}.st5{fill:#ea282c}.st6{fill:#ed1c24}</style>
  <g
     id="layer1"
     transform="translate(0 51.157)">
    <g
       id="g12671"
       transform="translate(10 -41.133) scale(1.09201)">
      <g
         id="g833">
        <path
           d="M178 142.6l-6.7-2.2-14-6.4-25.3-27.2-4.8-8.5L77 127.1s-46.5 162.8 93.5 157.1c5-.2 10.5-1.6 16-2.2 6.1-.7 11.9-3.9 18.6-5.2l-10.6-2-26.8-8.2-22.3-37.4 5-36.5 12.1-29.1z"
           class="st0"
           id="path835"
           fill="#fff" />
      </g>
      <g
         id="g837">
        <path
           d="M413.6 142.1l35-15.7L467.4 99l52.3 28.1s44.9 158.9-90.5 156.3c-5.5-.1-11.8-.7-17.9-1.3-6.4-.7-12.7-3.5-19.8-4.8-.5-.1 3.6-.5 3.1-.6l-3.5-.5 1.5-.1 11-1.9 20.1-8.2 11.9-13.3 8.2-14.8 4.5-30.5-10.4-38.5z"
           class="st0"
           id="path839"
           fill="#fff" />
      </g>
      <path
         id="path4819"
         d="M122.1 178.6v-.1c-.1.1 0-.1 0 .1z"
         class="st1"
         fill="#231f20" />
      <path
         id="path4821"
         d="M26.8 27.9c-.1 0 0 0 0 0z"
         class="st1"
         fill="#231f20" />
      <path
         id="path4825"
         d="m 161.3,269.6 c 5.7,2.2 11.5,4 17.5,5.4 5.453,1.244 10.956,2.493 16.1,2.9 3,0.5 5.6,0.2 8.5,0.3 0.4,0 1.9,-0.2 1.9,-0.2 l 3.7,-0.3 c 16.3,7.3 32.3,13.1 50.2,16.4 0,0 13.8,2.3 20.7,2.9 1.1,0.1 2.2,0.2 3.3,0.5 -0.9,1.6 -24.3,31.6 -25.2,33.5 -0.9,1.4 -0.5,3.5 0.3,4.9 1.4,1.9 4.2,2.5 6.5,1.9 0.2,-0.2 0.4,-0.3 0.6,-0.3 l 7.7,-9.9 c 2.3,-3.2 4.8,-6.3 7.4,-9.3 5,-7.1 10.2,-13.6 15.5,-20.4 1.50651,-0.0732 2.62909,0.10721 4.2,-0.2 0.2,0.2 0.4,0.5 0.5,0.8 3.7,5 23.7,31.3 30.6,39.6 0.8,0 1.5,0.5 2.2,0.1 1.7,0 3.3,-0.8 4.5,-2 0.8,-1.2 1.2,-2.7 0.9,-4.2 -0.6,-1.9 -2.2,-3.4 -3.2,-4.9 -0.5,-0.6 -15.5,-20.4 -22.6,-29.4 -0.2,-0.2 -0.2,-0.4 0,-0.6 3.7,-0.5 7.4,-0.8 11.1,-1.3 17.8,-2.2 35.2,-6.7 51.8,-13.6 0.5,-0.2 10.7,-4.5 10.7,-4.5 4.1,-0.2 8.3,0.1 11.6,0.3 0.8,-0.1 1.8,0 2.7,-0.1 9.8,-1.4 19.2,-3.3 28.3,-6.7 5.4,-1.7 11.1,-3.7 16.1,-6.8 3.6,-2.5 7.4,-4.6 10.8,-7.6 4.8,-4.6 9.3,-9.1 12.7,-14.7 0,-0.2 0.3,-0.6 0.3,-0.8 v -0.1 c 1.3,-2.2 2.5,-4.5 3.6,-6.8 l -0.3,-0.1 0.5,-0.2 h -0.3 c 0.1,-0.1 0.1,-0.3 0.3,-0.3 2.9,-6.3 4.7,-13.2 5.1,-20.1 0.8,-10.4 -2.2,-19.8 -3.9,-29.7 -1.1,-6.2 -3.6,-11.3 -5.9,-16.9 -0.8,-1.7 -1.2,-3.4 -2.3,-4.8 -1.5,-3.6 -3.7,-7.1 -5.3,-10.8 -3,-5 -5.7,-10.1 -8.2,-15.3 -1.4,-2 -2.97,-5.763 -4.27,-7.463 3.768,-4.313 8.37,-8.456 11,-12.3 7.195,-8.665 11.075,-13.806 15.27,-23.237 1.515,-4.626 2.6,-8.4 3.9,-12.1 0.1,-0.7 0.3,-1.5 0.5,-2.2 0.6,-3.9 1.346,-9 1.7,-12.7 0.2,-0.9 0.5,-1.4 0.3,-2.2 l 0.3,-0.2 h -0.1 c 0.3,-1.5 0.5,-2.5 0.9,-4.2 2.6,1.8 3.4,5 5.6,6.8 0.5,0.6 1.1,-0.3 1.2,0.2 v -0.2 l 1.7,-0.3 c 6,-0.7 11.4,-4.1 14.6,-9.3 5.7,-1.4 10.5,-5.2 13,-10.5 7.3,-0.6 13.9,-0.3 21.4,-1.1 4.6,-1.2 8.5,-4.1 11,-8.1 0.6,-0.8 0.9,-2 1.9,-2.8 3.1,-0.3 6.3,0.5 9.4,-0.9 4.3,-2.5 8.7,-6 10.5,-10.8 4.4,-0.4 8.7,-1.7 12.5,-4 2,-1.1 6.8,-5.9 7.6,-7 1.2,-1.5 3.1,-7.6 2.8,-7.4 0,0 -209.1,7.4 -215.7,10.2 -7.9,2.3 -15,7.4 -20.4,13.9 -1.1,0.8 -26.6,45.8 -26.6,45.8 -2.9,-4 -4.2,-8.2 -5.9,-12.7 C 324.9,56.9 316.4,15 315.4,13.1 314.5,11 313.2,9 311.7,7.4 308.8,4.1 305,3.2 300.7,1.8 295.8,0.3 285,-0.6 281.8,0.4 c -4.2,1.4 -8.2,4 -9.3,8.8 0,0 -5.6,-1.1 -8.4,-0.8 -8,0.6 -12.4,7.3 -15,13.9 -0.1,2.2 -1.5,5.1 -0.1,7.3 0.5,-2.6 2.8,-4.3 5.4,-5 3.2,-0.1 6.7,-0.9 10.1,-0.1 5.9,1.9 8.4,8.2 9.9,13.6 1.6,8 -1.2,16.3 -4.2,23.4 -2.2,4.5 -2.9,9.6 -6.3,13.5 -6,-10.5 -12.2,-21.4 -18.3,-32.2 -1.9,-3.6 -4,-7.3 -6,-10.7 V 32 C 233.2,23.5 224.4,16.8 213.7,14.4 204.4,12.4 0.2,4.8 0,5.2 c 0.6,0.6 1.4,3.3 2,4.2 1,2.2 4.2,5.9 4.2,5.9 4.6,4.7 10.8,7.6 17.3,8 0.6,-0.1 0.8,0.8 0.8,0.8 0.8,1.7 1.8,3.2 3,4.6 3,2.3 6.2,4.3 9.5,6 2.4,0.2 4.9,0.3 7.3,0.3 1.4,2.6 2.9,5.3 5.3,7 1.1,0.8 2,1.5 3.1,2.2 2.6,1.8 6.2,1.8 9.4,2 4.8,0.3 16.4,0.8 16.4,0.8 0.4,1.2 1.1,2.3 1.9,3.3 2.1,2.5 4.8,4.5 7.7,5.9 1.1,0.4 2.1,0.7 3.2,0.9 2.6,3.5 5.1,6.3 9.3,8.3 0.5,0.3 5.9,1.7 8,1.4 2,-2.2 3.9,-4.7 5.9,-6.5 l 0.2,0.3 c 0.2,1.2 0.4,2.4 0.5,3.6 h 0.2 c 0.4,1.4 0.6,2.9 0.6,4.3 0.1,1.8 0.4,3.1 0.6,4.6 0.2,1.6 0.758,2.92 1.158,4.42 0.581,4.417 2.401,9.528 3.129,12.122 0.8,1.7 0.85,2.352 1.65,3.852 0.453,1.586 1.476,3.43 1.635,3.89 0.72,1.838 3.178,5.507 4.634,7.836 2.576,4.447 17.322,20.644 20.878,23.005 -0.5,0.9 -8.384,13.275 -8.384,13.275 -1.2,1.7 -6.7,13.3 -8.7,16.7 l -5.3,10.6 c -1.5,2.6 -5.6,17 -5.7,17.5 -0.6,3.2 -1.5,6.6 -1.9,9.9 -0.6,2.2 -0.8,4.5 -1.2,6.7 0,2.8 -0.3,5.4 -0.2,8.4 0,7.1 1.9,13.8 3.9,20.1 1.9,3.9 3.4,7.7 5.7,11.6 1.9,2.3 3.3,5.1 5.6,7.1 3.5,4.1 7.5,7.8 11.9,10.8 1.1,0.9 0.1,0.3 3.6,2.3 3.7,2.7 12.5,6.4 12.5,6.4 z M 140.774,115.845 C 135.26,109.152 131.36,103.7 127.8,96.4 c -1.4,-3.3 -2.7,-6.2 -3.8,-9.6 -0.847,-3.114 -1.723,-6.168 -2.4,-8.9 0,0 -0.477,-2.008 -0.638,-3.098 C 120.321,71.302 119.8,68.3 119.5,64.7 l -0.1,-4.3 c 0.3,-0.2 54.8,71.7 60.8,80 -4.5,-1.426 -8.483,-2.89 -12.8,-4.728 -1.928,-1.027 -4.545,-2.329 -6.6,-3.472 -0.2,-0.6 0.1,0.4 0,0 -7.319,-4.672 -13.157,-9.662 -20.026,-16.355 z M 220.9,219.3 c -1.1,1.2 -0.8,3.2 -1.2,5 -0.6,0.3 -0.8,1.4 -1.1,2 -0.8,-0.5 -2.5,-0.8 -2.2,-1.9 2.3,-4.8 4.3,-9 6.5,-13.6 0.2,-0.2 0.2,-1.4 -0.3,-1.6 -9.8,-11.7 -23.4,-19.5 -38.4,-22.1 -0.3,0.3 -0.9,0 -1.2,0.3 -1.6,0.8 -3.1,1.7 -4.5,2.6 0,0.2 -16.7,25.2 -22.3,34.2 -1.6,0.6 -1.4,2.9 -1.1,4.6 0.6,3.1 2.5,6.2 5.4,7.4 2.3,1.1 5.3,0.8 7.8,0.1 l 0.8,0.2 c 1.8,1.1 3.4,2.3 5,3.7 v 0.5 c -2.6,2.9 -5.1,6.4 -7.8,9.4 0.3,1.7 26.8,19.4 39.3,26 -1,0 -0.3,0 -2.2,-0.1 -7.891,-1.557 -16.277,-3.694 -22.7,-7.7 -7.056,-3.712 -17.72,-13.497 -21,-19.1 -0.9,-1.2 -1.6,-2.6 -2.2,-4 -6.687,-13.854 -5.948,-27.937 -4.6,-42 0.6,-4.5 1.5,-9 2.8,-13.3 1.35,-3.73 2.206,-6.27 3.9,-9.8 1.3,-3.7 3,-7.4 4.9,-10.8 0.8,-1.9 1.8,-3.6 2.9,-5.3 4.5,-6.5 8.5,-13 14.3,-18.6 0.9,-0.2 1.4,-1.4 2.2,-0.9 12.4,16.4 52,68.1 53.1,70.1 -3.9,0.5 -7.9,-0.5 -11.9,0.3 -1.9,1.1 -3.4,2.6 -4.2,4.4 z m 15.1,15.8 c -3.9,-1.4 -7.6,-3.1 -11.1,-5.3 0.6,-0.9 1.2,-1.8 1.7,-2.8 3.2,0.7 6.5,0.8 9.8,0.3 l 0.9,0.2 c -0.3,2.7 -0.7,5 -1.3,7.6 z m 7.9,-49.7 c -0.9,2.2 -0.5,4.6 -0.8,7.1 -1.2,1.9 -2.1,4 -2.5,6.2 0.1,2.3 2,3.6 3.9,4.5 0.5,0.5 -0.1,3.3 -0.5,3.7 -0.3,0 -29.3,-38.6 -43.8,-57 -0.6,-1.4 -42.7,-56.2 -62.1,-81.9 l 36.5,0.6 c 2.6,0.1 4.6,0.1 7.1,0.3 0,0.3 -10.8,7.4 -16.3,10.5 0.8,2.2 2.2,3.7 3.4,5.7 0,0 3.7,4.6 6.5,6.5 0,0 2.9,1.9 4.2,2.6 0,0 -5.1,3.9 -7.4,5.7 -0.2,0.6 2.8,4 2.8,4 2.2,2.7 4.9,4.9 8,6.5 1.8,1.1 3.7,2 5.7,2.6 -2.2,1.7 -3.7,3.7 -6,5.4 1.1,1.5 2.3,3 3.6,4.3 2,2 4.3,3.7 6.8,5 0,0 5.4,1.9 7.4,2.6 -1.7,2 -3.2,4 -4.8,6.1 1.1,1.2 2.3,2.4 3.6,3.4 1.7,1.3 3.6,2.4 5.6,3.4 0.5,0.1 6.4,2.2 8.8,2.6 -0.6,1.6 -4,6 -3.7,7 5.4,3.1 11.3,5.4 17.9,5.1 -0.8,2.6 -2.3,4.6 -2.9,7.4 0.1,0.1 15.2,6.4 23.1,4.5 0.1,0 0.3,3 -0.5,3.7 -1.1,1.8 -1.6,3.8 -1.4,5.9 0.1,0.7 0.2,1.3 0.1,2 -0.8,0.9 -1.9,3.7 -2.3,4 z m 3.5,54.2 c 0.4,-1.2 1,-2.3 1.6,-3.4 0.6,-1.1 0.6,-2.6 1.9,-3.3 2.7,3.2 5.1,6.5 7.4,9.9 -3.8,-0.8 -7.4,-1.8 -10.9,-3.2 z m 24.4,3.6 -0.3,0.3 c -2.6,-3.6 -5.3,-7 -7.9,-10.7 1.8,1.3 3.3,2.9 4.5,4.8 1.7,-2.2 2.5,-5 3.4,-7.6 0.5,-2.4 -0.5,-4.8 -2.5,-6.2 0.1,-0.9 0.5,-2.3 -0.5,-2.9 h -0.2 c -2.5,-2.5 -6,-3.8 -9.6,-3.6 -0.6,-0.2 -1.9,0.6 -2.2,-0.5 -0.4,-2.4 -0.4,-4.8 0.1,-7.1 1.5,0.1 2.8,1.1 4.2,1.4 1.4,0.3 2.6,1.1 4,0.3 2.8,-0.5 2.9,-3.7 3.4,-6 l -0.1,-2.2 c 0.3,-0.1 0.5,0.5 0.9,0.3 0.8,-1.7 0.6,-3.9 0.8,-5.7 -0.2,-0.4 -0.3,-0.8 -0.3,-1.2 0.5,0.2 0.6,0.8 0.9,0.3 0.3,-2.8 2.2,-5.1 2,-8.2 2.6,3.1 4.9,5.7 7.7,8.7 0.2,0.6 1.1,1.2 1.4,1.9 -3.1,14.6 -6.2,29.2 -9.7,43.9 z m 55.4,-19.5 c -1.7,0.9 -2,2.8 -2.5,4.3 0.5,3.4 1.2,7 3.4,9.4 0.6,-0.7 1.1,-1.4 1.5,-2.2 0.9,-1 2,-2 3.1,-2.8 -1.9,2.9 -4,5.7 -6.2,8.4 -0.7,0.8 -1.3,1.6 -1.9,2.5 h -0.3 c -3.4,-14.9 -6.7,-29.6 -9.9,-44.4 3.1,-3.3 6,-6.8 9,-10.4 0.2,0 0.4,0.1 0.4,0.3 0,0.1 0,0.2 -0.1,0.3 -0.3,2.8 1.7,4.9 1.9,7.6 l 0.9,-0.3 c -0.3,2.2 -0.5,5 0.6,6.8 0.3,0 0.6,-0.1 0.8,-0.3 -0.4,2.5 0.1,5 1.4,7.1 1.1,1.2 2.7,1.8 4.3,1.4 1.7,-0.5 3.3,-1.1 4.8,-1.9 h 0.9 c 0.6,2.4 0.7,5 0.2,7.4 l -0.6,0.1 c -4.3,-0.6 -9.3,1.1 -11.9,4.6 0.1,0.8 0.1,1.5 0.2,2.1 z m 21.7,15.8 c -0.9,0.6 -2.2,0.3 -3.1,1.1 -2.5,0.8 -5.1,1.5 -7.8,2 v -0.3 c 2.5,-3.1 4.8,-6.5 7.4,-9.3 1.7,1.6 2,4.3 3.4,6.2 v 0.3 z m 2.4,-35.5 c 0.8,-2 3.6,-2 4,-4.2 0.6,-2.8 -0.9,-5.3 -2.2,-7.3 -0.3,-3 0.1,-5.7 -1.1,-8.4 -0.8,0 -0.6,-0.9 -1.1,-1.4 -0.2,-0.6 -0.9,-1.1 -1.2,-1.7 1.1,-3.1 -0.2,-6 -1.5,-8.5 -0.3,-1 -0.3,-2 0,-2.9 4.2,1 8.6,1 12.8,0.1 2.5,-0.5 4.9,-1.4 7.1,-2.6 0.8,-0.6 1.7,-1.1 2.6,-1.6 0.1,-0.1 0.5,-0.1 0.5,-0.3 -0.9,-2.5 -2,-4.8 -2.9,-7.3 h 0.6 c 0.1,0.2 0.6,-0.2 0.8,-0.2 4.9,0 9.7,-1.3 14,-3.7 h -0.2 0.2 v 0.2 c 0.9,-0.6 1.9,-1.1 2.8,-1.7 -1.2,-2 -2.5,-4.3 -3.9,-6.5 2.6,-0.5 5.1,-1.3 7.6,-2.2 4,-1.6 7.6,-4 10.5,-7.1 -1.4,-2.2 -3.1,-4 -4.6,-6.1 0.2,-0.3 0.6,-0.3 0.9,-0.5 0.5,0 1,-0.1 1.4,-0.3 6.2,-1.7 10.8,-5.4 14.7,-10.2 0,-0.5 0.8,-0.6 0.6,-1.1 -2.1,-1.8 -4,-3.7 -5.9,-5.7 6.8,-2.1 12.6,-6.6 16.4,-12.7 v -0.5 c -2.5,-2 -4.8,-3.7 -7.1,-5.6 0,-0.5 0.5,-0.3 0.6,-0.5 5.7,-3.3 10.3,-8.3 13,-14.3 V 78.9 C 425.5,75.5 420,72.4 414.9,68.8 v -0.2 c 13.3,-0.8 25.5,-0.6 38.5,-1.4 h 4.2 c -0.6,1.6 -2,2.8 -2.8,4.2 -4,5.6 -8.7,11.1 -12.1,16.3 -0.5,0.2 -0.6,1.1 -1.2,1.4 -15,19.3 -30,40.2 -45.2,59.8 -7.9,10.5 -15.8,20.3 -23.2,30.6 -7.1,9.1 -13.8,18.4 -20.8,27.3 -0.5,-0.7 -0.9,-1.7 -1,-2.8 z m 18,27.1 -0.3,0.3 0.3,-0.3 c -0.3,-0.1 -0.5,0.1 -0.6,0.1 v 0.1 c -2.5,1 -5.7,2.6 -8.5,3.6 -0.5,-2.5 -1,-5 -1.2,-7.6 1.5,-0.3 2.9,0.3 4.6,0.2 2,0 4,-0.2 6,-0.6 0.5,1.1 1.2,2.2 1.5,3.1 -0.6,0.3 -1.2,0.7 -1.8,1.1 z m 71,11.4 c -0.9,1.6 -4.2,7.9 -5.4,9 -2.3,3.6 -5.9,6.7 -9,9.5 -6.163,4.863 -13.298,9.128 -20.3,11.5 -3.7,1.9 -7.6,2.2 -11.6,3.1 l -2.8,0.5 v -0.2 c 10.1,-5.1 19.8,-11.1 29,-17.9 2.4,-1.6 4.7,-3.4 6.8,-5.3 0.8,-0.5 1.9,-0.8 2.2,-1.7 0.5,-0.3 0.8,-0.4 0.9,-0.9 -2.3,-3.6 -5.3,-6.5 -7.7,-9.8 1.4,-1.7 3.1,-2.5 5,-3.9 1.1,-0.6 2,0.3 3.1,0.3 5.4,0.7 10.3,-3 11.1,-8.4 0.1,-1 0.1,-2.1 -0.1,-3.1 -7.9,-11.9 -15.6,-23.5 -23.5,-35.8 -1.2,-1 -2.7,-1.8 -4.2,-2.3 -3.3,-0.8 -6.5,0.9 -9.6,1.5 -5.9,2 -11.6,4.2 -16.4,7.9 -5.1,3.6 -14.2,13.8 -13.9,14.2 0.9,2.2 2,4.7 3.1,6.8 0.9,2.3 2.3,4.6 3.1,7.1 -0.6,0.6 -1.4,1 -2.2,1.2 -0.3,-0.8 -1.7,-6.7 -2.9,-8.4 -1.7,-1.9 -3.7,-3.3 -6.3,-3.1 -2.6,0.2 -6,0.1 -9,0.1 0.8,-2 2.6,-3.9 3.9,-5.7 10.4,-13.6 20.6,-27.3 31.1,-40.9 6.2,-7.7 11.9,-15.9 18.4,-24 2.9,1.4 14.3,16.4 17.5,21.8 0.3,1.1 6.2,13 7.4,16.4 0,0.6 0.6,0.6 0.5,1.2 0.3,0.8 0.6,1.5 0.9,2.2 0.6,1.7 5,21.8 5,23.9 0.4,3.3 0.6,6.7 0.5,10.1 -0.8,8.2 -1.8,16.4 -4.6,23.1 z M 474.5,76.3 c -2.2,9.9 -5.666,19.8 -10.5,27.7 -3.692,5.113 -7.704,10.57 -11.6,14.2 -2.6,3.1 -5.5,6 -8.7,8.5 -9.281,5.617 -17.614,10.84 -27.4,13.4 0.9,-1.7 2.5,-3 3.3,-4.8 v 0.1 c 0.5,0 0.3,-0.4 0.6,-0.6 5.9,-7 10.7,-15 16.4,-22.1 0.1,-0.3 0,-0.5 0.3,-0.5 13,-16.9 24.9,-33 38.1,-50 0.6,-0.6 1.1,-1.9 1.9,-2 0.216,6.02 -1.519,11.145 -2.4,16.1 z"
         class="st1"
         fill="#231f20"
         sodipodi:nodetypes="ccccccccccccccccccccccccccccccccccscccccccccccccccccccccccccccccccccccccccscccccccccccccccccccccccccccscccccccccccccccccccccccccccccccccccccccccccccccccccccccccccccccccccccccccccccccccccccccccccccccccccscccccccccccccccsccccccccccccccscccccccccccccccccccccscccccccccccccccccccccccccccccccccccscccccccccccccccccccccccccccccccccccccccccccccccccccccccccccccccccccscccccccccccccccccccccccc" />
      <g
         id="g861">
        <path
           d="M354.2 99.3c-.1 2.9-.6 5.9-1.1 9-2.3 16-14.2 46.1-14.6 46.4-9.9 20.3-24 38.3-41.3 52.8-1.8-1.5-11.7-10.9-11.8-11.1-12.5-12.7-22.5-27.6-30.5-44-.1-.5-.3-1.1-.6-1.6-6.8-15.2-11.4-31.4-13.5-48 0 0-.3-2.3-.3-3.3 5.4-4 9.6-7.6 14.7-11.3 2.8-2 5.9-4.3 8.4-6.5 1.4.2 6.2 4.3 8.2 5.3.3.4 2.8 1.2 3.3 1.7 4.9 2 10.1 3.5 15.3 4.5 1.3 0 2.6.1 3.9.3 1.9.5 17.3-1.9 17.8-2.3.8.2 12.7-5.6 13.2-5.9 2-1.2 3.8-2.5 5.6-4-.1.2 16.2 12.4 23.3 18z"
           class="st2"
           id="path863"
           fill="#c49c5b"
           style="fill:#fbc565;fill-opacity:1" />
      </g>
      <g
         id="g869">
        <path
           d="M351.1 100.4s-.8 8-1.5 11.6c-2.3 12.7-10.5 35.1-10.5 35.1s-8.5 16.6-10.4 19.5c-6.2 10.2-13.5 18.9-21.2 27.4-2.2 2-9 8.2-10.1 9.4-1.1-.6-18.6-18.3-24.8-27.2v.1c-4.1-5.8-7.9-11.9-11.3-18.1-.8-1.7-3.2-6.7-3.5-7.3-2.2-4.5-6.4-15.9-6.8-16.7-2.5-7.4-5.9-22.3-5.9-22.3-.5-3.6-1.1-7.3-1.5-10.8.5-.6 13.9-11 19.5-15.3 0 0 0-.5.3-.3 11.7 9.1 26.5 13.1 41.2 11 9.9-1.4 19.2-5.2 27.1-11.3 6.3 5 13.2 10.2 19.4 15.2"
           class="st1"
           id="path871"
           fill="#231f20" />
      </g>
      <g
         id="g877">
        <path
           d="m 332.8,91.3 c 4.2,3.3 8.8,7 13.2,10.1 0.3,0.3 0.9,0.8 0.8,1.4 -0.7,5.8 -1.8,11.5 -3.1,17.2 -1.4,4.5 -2.3,9 -4,13.2 -1,3.3 -2.2,6.5 -3.6,9.6 -0.8,-0.9 -1.2,-2.5 -2.6,-2.8 -1.7,-0.3 -6.3,0.3 -6.8,0.3 -1.7,0.8 0.12784,3.92784 -1.77216,4.22784 C 323.99241,144.82405 322.5,144.5 322.2,144 c -0.3,-1.2 -0.6,-2.8 0,-3.9 2.1,-1.2 3.9,-2.9 4.2,-5.7 0.3,-0.8 0.3,-4.2 0.5,-4.8 4.6,-4 7.4,-8.7 10.2,-14.1 1.00516,-1.77339 1.72681,-3.6947 2.1,-5.3 -4,2.5 -8.4,3.6 -13,4.6 -0.6,0.1 -1.2,0.1 -1.7,-0.2 -0.6,-0.5 -0.5,-1.2 -0.3,-1.9 0.96567,-5.05348 2.43157,-9.58191 2.8,-14.1 -3,0.5 -5.3,1.9 -8,2.8 -5.9,3.5 -10.2,9 -12.3,15.5 -0.4,0.6 -1.1,0.9 -1.9,0.9 -2.3,-0.2 -2.9,-2.8 -4.5,-4.3 -1.4,-1.6 -6,-4.5 -6.2,-4.7 -3.2,-1.4 -6.4,-2.5 -9.8,-3.4 -1.3,-0.6 -2.4,-1.4 -3.4,-2.3 -0.3,-0.5 -0.7,-1 -1.1,-1.4 0,2.8 0.1,5.7 0.5,8.5 0.1,0.6 -0.6,1.2 -1.1,1.4 -4.6,-0.4 -8.6,-2.6 -12.8,-4.3 -0.3,4 1.2,7.3 2.9,10.5 0.8,1.9 2.8,3.1 2.6,5.4 -1.2,1.2 -3.1,0.9 -4.8,1.1 -2,-0.2 -3.9,-1.1 -5.6,-1.3 0.2,1.1 2.3,4.8 2.5,5.1 l 1.5,1.9 1.7,1.7 1.7,1.2 c 1.4,1.4 3.1,2.6 5,3.4 0.9,0.5 4.5,2.3 4.8,2.3 1.5,1.6 -1.1,5.9 -1.7,6 -2.9,-0.3 -0.9,-3.3 -3.1,-4.5 -2.8,-0.3 -6.7,-0.8 -9.1,0.3 -1.2,1.3 -0.5,3.6 -2.3,4.5 -1.2,0 -2.8,0.8 -3.1,-0.9 -2.2,-4.6 -3.9,-9.8 -5.6,-14.6 -0.2,-0.8 -0.4,-1.6 -0.8,-2.3 -1.4,-5.3 -2.8,-10.7 -3.7,-16.1 l -1.4,-8.5 c 0.8,-1.1 2.5,-1.8 3.6,-2.9 3.7,-2.9 7.9,-6 11.6,-9 0.5,-0.2 0.3,0.3 0.6,0.3 8,5.1 16.9,8.4 26.3,9.8 h 12.7 c 4.2,-0.5 8.4,-1.3 12.5,-2.5 0.6,-0.2 11.9,-4.8 16.4,-8 0.4,0.4 0.8,0.7 1.2,1.1"
           class="st0"
           id="path879"
           fill="#fff"
           sodipodi:nodetypes="ccccccccccccccccccccccccccccccccccccccccccccccccccccccccc" />
      </g>
      <g
         id="g881">
        <path
           d="M318.1 106.3c-1.1 2.1-2.4 4.1-3.9 6-1.3 1.2-2.2 2.8-3.7 3.6-.1 0-.5 0-.5-.3.8-3.6 3-6.8 6.2-8.7.7-.2 1.3-1.3 1.9-.6"
           class="st3"
           id="path883"
           fill="#00a650" />
      </g>
      <g
         id="g889">
        <path
           d="m 321.4,111.1 c -0.6,1.7 -1.4,2.9 -2,4.6 -0.6,1.1 -1.4,2 -2,2.9 -1.35928,1.0253 -1.82014,1.64343 -3.6,1.5 0.2,-2.2 2,-3.1 2.8,-5 1.43345,-3.55457 3.11557,-6.28982 4.8558,-9.12872 0.84638,1.63734 -0.0265,3.65693 -0.0558,5.12872"
           class="st3"
           id="path891"
           fill="#00a650"
           sodipodi:nodetypes="ccccccc" />
      </g>
      <g
         id="g897">
        <path
           d="M289.1 109.5c1.5.3 9.6 4.9 10.4 7.9-.2.6-.8 1-1.4 1.1-1.1-.6-2.2-1.2-3.3-2-1.2-.6-5.1-2.8-5.1-1.7 1.6 2.6 3.7 5 5.1 7.4.1.8-.6.3-.9.5-1.9-1-3.6-2.3-5.1-3.7 0 0-2.6-2.8-3.4-3.9-.8-1.9-2.6-3.6-2-5.9 1.3-.9 5.7.3 5.7.3z"
           class="st3"
           id="path899"
           fill="#00a650" />
      </g>
      <g
         id="g905">
        <path
           d="m 276,113.2 c 2.9,1.4 5.7,3.1 8.2,5.1 1.1,1.5 2.6,2.6 3.6,4.2 l -0.6,0.3 c -0.5,0.2 -3,-1.2 -3.6,-1.5 -1.4,-0.5 -1.9,-1.1 -3.3,-1.9 -0.8,-0.3 -1.3,-0.6 -2,-0.9 -0.2,0 -0.3,0.1 -0.3,0.3 1.5,2.3 3.2,4.4 5.1,6.3 v 0.3 c -0.6,0.5 -1.1,-0.2 -1.9,-0.3 -1.63263,-0.53462 -3.35377,-1.2369 -4.6,-2.5 -0.9,-0.5 -1.8,-1.2 -2.5,-2 -0.7,-0.9 -1.5,-1.7 -2.3,-2.5 -0.8,-1.7 -3.1,-3.9 -1.9,-5.9 2.2,-0.6 4,0.7 6.1,1"
           class="st3"
           id="path907"
           fill="#00a650"
           sodipodi:nodetypes="cccccccccccccccc" />
      </g>
      <g
         id="g913">
        <path
           d="m 330.70693,121.01335 c 0,0 -4.40693,6.28665 -6.20693,6.48665 -0.5,0 -2.8,-0.8 -2.3,-1.6 0.5,-0.8 1.5,-1.4 1.9,-2.2 -1.62816,-0.0251 -4.11561,0.34821 -4.3,1.7 -0.3,0.3 -0.9,-0.2 -0.9,-0.2 -1.2,0.5 -2.4,1.2 -3.4,2 -0.6,0.6 -6.4,6 -6.5,6 -0.5,0 -1,-0.2 -1.2,-0.6 -0.3,-0.6 -0.4,-1.3 -0.2,-2 1.4,-2.3 3.4,-3.4 5.4,-5.1 1.5,-0.9 3.3,-2.5 5,-3.7 4.10409,-2.76479 8.87351,-5.57616 13.9,-6.2 0.4,0.1 1.66682,-0.12843 1.66682,-0.12843"
           class="st3"
           id="path915"
           fill="#00a650"
           sodipodi:nodetypes="ccsccccssccccc" />
      </g>
      <g
         id="g929">
        <path
           d="m 284.4,130.4 c -0.36289,0.87969 -1.56642,0.669 -2.3,0.8 -1.7,-0.2 -3.4,-0.4 -5.1,-0.5 -0.4,0.3 -0.5,0.8 -0.2,1.2 1.18621,1.04037 2.59932,2.23003 3.5,3.3 -0.3,0.6 -2.6,0.3 -2.9,0.3 -4.2,-1.4 -10.2,-6.8 -10.2,-6.8 0,-0.6 -0.3,-1.6 0.6,-1.9 0.5,-0.3 1.3,-0.2 1.5,-0.3 4.1,0.1 14.1,3.2 15.1,3.9"
           class="st3"
           id="path931"
           fill="#00a650"
           sodipodi:nodetypes="cccccccccc" />
      </g>
      <g
         id="g961">
        <path
           d="m 287.6,4 c 3.9,0.3 7.4,1.4 11.1,2.2 2.2,0.8 4.3,1.8 6.3,3.1 -0.6,1.7 -2.3,2.5 -3.9,3.4 -1.5,0.8 -3.1,1.2 -4.3,2 -0.6,0.2 -1.2,0.3 -1.8,0.4 -3.9,-0.5 -8.8,-2 -12.2,0.6 -1.2,0.5 -2.6,0.9 -3.7,-0.1 -1.4,-1.1 -4.2,-2 -3.9,-4.5 0.1,-1.7 1.2,-3.1 2.3,-4.5 2.4131,-2.0276963 6.07098,-3.0319844 10.1,-2.6"
           class="st2"
           id="path963"
           fill="#c49c5b"
           style="fill:#fbc565;fill-opacity:1"
           sodipodi:nodetypes="ccccccccccc" />
      </g>
      <g
         id="g969">
        <path
           d="M182.2 16c3.6.6 7 1.6 10.4 3 .6.2 1.4.6 2.2.8l.9.6c1.4.8 2.8.9 3.9 1.9.5.3 1.2.5 1.6.9 10.5 6 19.4 15.8 25.2 26.2.1.2.3.8.6.9.3 1.1 1.1 1.7 1.5 2.8.6.6.9 2 1.7 2.6 1.4 2.2 2.6 4.6 4 6.8.1.2.5 1.1.8 1.3 1.6 2.5 3.1 5.4 4.6 7.9.8.8 7.6 13.2 9.4 15.8-4.2 3.7-8.8 7-13.2 10.5 1 11.1 3.1 22.1 6.2 32.8-4.1.2-8-1.8-10.2-5.3-.6-.9-.1-2.5-.5-3.6-2-.1-4.6-.3-6-2-2.9-2.6-4.6-6.2-4.6-10.1-.1-.5.9-.9 0-1.2-.8.5-1.9-.5-2.5-.8-2.6-1.9-3.9-5-5.1-7.9-.3-1.8-1.5-4.5 0-5.9 0-.3.5-.8 0-.9-.3-.2-.8 0-.9 0h-.6c-.6-.5-1.4-.3-2.2-.8-2.3-1.2-3.4-4-4.6-6.2-.8-1.7-1.3-3.5-1.6-5.4.6-.8 1-1.8 1.2-2.8-.1-.2-2.2.2-2.9-.3-3.4-.9-4.5-4.7-6-7.3-.6-2.3-1.9-5-1.2-7.4-1.1-.3-2.1-.6-3.1-1.1-3.4-4.7-8.6-7.9-13.6-10.9-4.2-2-13.5-7.3-14-7.4-3.9-2.9-7.1-6.6-9.6-10.8-2-3.4-3.2-7.9-6.3-10.2-7.1-.8-20.9-1.1-20.9-.9 0 0-60.4-3.1-90.8-4.5-5-.5-10.1-.6-15.2-.8-3.3-.5-5.7-2.3-8.5-4.2-1.1-1-2.2-2.1-3.1-3.3z"
           class="st2"
           id="path971"
           fill="#c49c5b"
           style="fill:#fbc565;fill-opacity:1" />
      </g>
      <g
         id="g977">
        <path
           d="m 586.1,9.1 c -1.7,2.1 -3.7,3.9 -6,5.3 -2,1.1 -4.2,2.5 -6.7,2 -7,0.3 -122.6,5.9 -126,6.2 -4.8,4.3 -5.4,11.2 -10.2,15.8 -2.9,3.3 -7,6.8 -11.3,8.7 -8.2,3.9 -17.2,7.9 -22.6,15.6 0.2,0.6 -0.5,0.6 -0.9,0.8 -0.5,0 -1.1,-0.5 -1.6,-0.6 0.5,2 -0.2,4.3 -0.8,6.3 -1.7,3.3 -3.1,7.6 -7.1,8.5 l -2.5,-0.2 c -0.3,0.6 0.8,0.6 0.8,1.2 0.6,2.5 0.3,5.1 -0.9,7.3 -1.4,3.3 -4,6.8 -8.1,7 -0.1,-0.1 -0.3,-0.2 -0.5,-0.2 -0.3,0.9 0.6,1.6 0.8,2.5 -0.2,4.7 -2.2,9.1 -5.6,12.4 -0.9,0.6 -2,0.9 -3.1,0.9 -0.2,0.5 0.3,0.8 0.3,1.4 -0.1,2.8 -1.1,5.5 -2.9,7.7 -1.9,2.2 -4,4.2 -7.1,4 -0.3,-0.2 -0.5,-0.2 -0.6,0 -0.5,0.8 0,1.5 -0.2,2.3 -0.8,3.1 -3.2,4.7 -6,5.9 -1.4,0.6 -2.9,0.5 -4.3,0.8 l -0.3,-0.3 c 1.81226,-6.78447 3.48539,-13.66852 4.5,-19.6 0.5,-4.5 1.5,-8.8 1.7,-13.3 -4.3,-3.3 -8.7,-7 -13.1,-10.4 2.3,-3.6 12.2,-20.4 13.6,-22.8 3.3,-5.4 10.5,-17 10.5,-17.3 5.8,-9.9 14.2,-18.1 24.1,-23.8 5.4,-3.3 11.2,-5.6 17.3,-7 1,0.1 170.8,-7.3 174.8,-7.1"
           class="st2"
           id="path979"
           fill="#c49c5b"
           style="fill:#fbc565;fill-opacity:1"
           sodipodi:nodetypes="ccccccccccccccccccccccccscccccccccc" />
      </g>
      <g
         id="g985">
        <path
           d="m 309.6,13.4 c 0.6,0.8 4.5,10.8 4.5,15.6 0.5,3.6 0.9,6.8 1.5,10.2 0.8,2.8 1.1,5.6 1.7,8 0,0.7 0.1,1.5 0.3,2.2 0.8,4.4 1.9,8.7 3.2,13 -5.4,2 -10.4,3.6 -15.5,5.6 -2.4732,5.743211 -5.80415,10.664553 -7.91466,15.903904 C 294.41492,78.493859 291.65099,72.791462 289.4,68.2 c -4.8,-1.7 -9.9,-3.2 -14.5,-5 4.2,-11.1 5.6,-26.9 -2.2,-36.7 v -0.3 c 2.5,0.5 4.8,1.6 6.8,3.1 1.5,0.5 3,1.3 4.3,2.3 -2.5,-3.3 -6.5,-5.1 -9.9,-7.3 -3.3,-2 -13.8,-4 -15.2,-4.2 3.90081,-0.579382 8.01985,-0.3 12,-0.3 -4.6,-2.6 -11.4,-1.9 -16.4,-0.5 -0.6,0.4 -1.3,0.7 -2,0.9 0.2,-0.6 4.7,-5 7,-6 2.3,-0.6 3.9,-1.1 6.4,-0.6 1.5,0.2 6.3,0.6 7.4,1.1 3.6475,0.810237 7.4345,2.3253 10.7,3.5 2.68681,0.363874 5.11707,3.855062 6.6,3.4 1.4,-0.8 2.7,-1.7 3.9,-2.8 0.9,-0.6 4,-3.2 5,-3.7 1.9,-0.9 3.6,-2 5.6,-2.9 0.5,-0.3 2.3,-1.4 2.8,-0.8 0.8,0.7 1.3,1.4 1.9,2"
           class="st2"
           id="path987"
           fill="#c49c5b"
           style="fill:#fbc565;fill-opacity:1"
           sodipodi:nodetypes="ccccccccccccccccccccccccccccc" />
      </g>
      <g
         id="g993">
        <path
           d="M216.9 20.4h.3c7.7 3.7 14.4 8.8 19 16.4 1.6 1.5 2.3 3.5 3.6 5.4 2.8 4.7 5.4 9.6 7.7 14.5 3.3 4.8 6 10.1 8.8 15 1.2 2.5 2.8 4.3 3.6 7-2.2 2.2-4.7 4.2-7.3 5.9-1.6-1.7-2.6-4.2-4-6-7.3-12.7-15.5-25.5-22.9-38.4-.6-.3-.8-1.3-1.2-1.9-6.4-9.3-15.1-16.6-25.3-21.4 2.2-.5 4.2 0 6 .2 4 .6 7.9 1.7 11.7 3.3"
           class="st2"
           id="path995"
           fill="#c49c5b"
           style="fill:#fbc565;fill-opacity:1" />
      </g>
      <g
         id="g1001">
        <path
           d="M395.8 16.8c-12.4 6.2-22.9 15.6-29.4 27.9-8 12.8-24.6 39.5-24.6 39.5l-7-5.6c.6-2 27.1-47.7 30.2-49.8 3.3-3.3 6.8-5.1 10.8-7.6.5-.2 8-3.3 11.5-3.7 2.8-.6 5.6-.8 8.5-.7"
           class="st2"
           id="path1003"
           fill="#c49c5b"
           style="fill:#fbc565;fill-opacity:1" />
      </g>
      <g
         id="g1009">
        <path
           d="M145.3 27.2c1.2 2.2 2.3 4.5 3.7 6.5l-111.5-5c-3.4-.9-6.2-3.7-7.9-6.7.4-.4 115.7 5.2 115.7 5.2z"
           class="st2"
           id="path1011"
           fill="#c49c5b"
           style="fill:#fbc565;fill-opacity:1" />
      </g>
      <g
         id="g1017">
        <path
           d="M565.5 22.2c-1.3 2.6-4 5-6.7 6.5-5.6.6-107 5.1-112.9 5.1 0-.6 3-5.1 3.7-6.7 6.1-.2 101.7-4.4 115.9-4.9"
           class="st2"
           id="path1019"
           fill="#c49c5b"
           style="fill:#fbc565;fill-opacity:1" />
      </g>
      <g
         id="g1025">
        <path
           d="M51.8 34c1.6.2 52.6 2.3 55.3 2.6-.5.8-1.8 5-1.8 5-.5.3-50.9-1.2-52.2-3.6-1.4-1.1-2.6-2.4-3.5-3.9.7-.1 1.5-.1 2.2-.1"
           class="st2"
           id="path1027"
           fill="#c49c5b"
           style="fill:#fbc565;fill-opacity:1" />
      </g>
      <g
         id="g1033">
        <path
           d="M545.4 34.1h.2s-3.5 5.3-6.7 5.4c-2.2.8-34.1 2.3-48.1 2.8-.2-1-.5-2-1-2.9-.6-1-1.2-1.9-2-2.7.7-.1 56.7-2.6 57.6-2.6"
           class="st2"
           id="path1035"
           fill="#c49c5b"
           style="fill:#fbc565;fill-opacity:1" />
      </g>
      <g
         id="g1041">
        <path
           d="M126.3 37.4c1.1 0 21.7.9 25.2 1.2 1.5 1.9 3.1 3.7 4.6 5.4-7-.3-32.7-1.4-34.2-1.5-.2-1.8-.7-3.5-1.5-5 .3-.8 4.5-.1 5.9-.1"
           class="st2"
           id="path1043"
           fill="#c49c5b"
           style="fill:#fbc565;fill-opacity:1" />
      </g>
      <g
         id="g1049">
        <path
           d="M474.5 37.4c-.7 1.1-1.1 2.4-1.3 3.7-.1.5-.2.9-.1 1.4-4 .5-8 .3-12.2.5-2.6.3-5.4.3-8.2.6-4.6.2-9.3.3-13.8.6.8-1.3 2-2 2.6-3.3.8-.6 1.1-1.7 2-2.3 8-.3 16.1-.6 24.8-.9 1.8-.2 4.1-.2 6.2-.3"
           class="st2"
           id="path1051"
           fill="#c49c5b"
           style="fill:#fbc565;fill-opacity:1" />
      </g>
      <circle
         id="circle4869"
         r="3.6"
         cy="42"
         cx="113.7"
         class="st2"
         fill="#c49c5b"
         style="fill:#fbc565;fill-opacity:1" />
      <circle
         id="circle4871"
         r="3.6"
         cy="42"
         cx="481.2"
         class="st2"
         fill="#c49c5b"
         style="fill:#fbc565;fill-opacity:1" />
      <g
         id="g1073">
        <path
           d="M89.9 45.8c.3.2 16.6.8 16.7.9.9 1.1 1.7 2.2 2.8 2.5 0 .2 3.4 1.6 4 2.2-.2.6-20.3-.5-23.7-.6-2.3-.9-4-3-5.6-4.8.7-.4 4.6.2 5.8-.2"
           class="st2"
           id="path1075"
           fill="#c49c5b"
           style="fill:#fbc565;fill-opacity:1" />
      </g>
      <g
         id="g1081">
        <path
           d="M511 46.1c-1.2 2.1-3 3.8-5.1 5-5.4.3-23.4.9-24.3.8.6-.5 2-1.4 2-1.4 2-.4 3.8-1.5 5.1-3.1 1.1-.2 2.1-.4 3.2-.5 6.7-.5 12.5-.6 19.1-.8"
           class="st2"
           id="path1083"
           fill="#c49c5b"
           style="fill:#fbc565;fill-opacity:1" />
      </g>
      <g
         id="g1089">
        <path
           d="M162.5 49.5c2 1.5 6.6 3.9 6.6 4.2-5.9-.2-35.1-1.1-42.4-1.5-1.3-1.4-2.4-2.9-3.4-4.5 0-.1 38.6 1.5 39.2 1.8z"
           class="st2"
           id="path1091"
           fill="#c49c5b"
           style="fill:#fbc565;fill-opacity:1" />
      </g>
      <g
         id="g1097">
        <path
           d="M471.5 47.8c-1 1.6-2.1 3.1-3.3 4.5-8 .2-36.5 1.4-42.4 1.4 1.2-.9 6.6-4.7 7.9-4.3 5-.4 34.1-1.6 37.8-1.6"
           class="st2"
           id="path1099"
           fill="#c49c5b"
           style="fill:#fbc565;fill-opacity:1" />
      </g>
      <g
         id="g1105">
        <path
           d="M241 209.4c-.2.5-1.1 2.5-1.6 2.5-19-24.5-113.2-149.7-122.3-162.1.6-.7 1.2-1.2 2-1.5z"
           class="st2"
           id="path1107"
           fill="#c49c5b"
           style="fill:#fbc565;fill-opacity:1" />
      </g>
      <g
         id="g1113">
        <path
           d="M476.5 48.9c.3.8 1.5.3 1.1 1.4C468 63.1 356 210.8 355.1 211.9c-.8-.5-1.4-1.4-1.4-2.3 7.4-10.4 121.1-159.9 122-161.1.5-.1.3.4.8.4"
           class="st2"
           id="path1115"
           fill="#c49c5b"
           style="fill:#fbc565;fill-opacity:1" />
      </g>
      <g
         id="g1121">
        <path
           d="M100.1 56s13.5.5 14.6.8c-.5.2-2.5 2.9-3.1 3.9-1.4.2-7.3-.2-9-.3-2.1-1-3.9-2.4-5.6-4V56c1.3-.2 2.2.1 3.1 0"
           class="st2"
           id="path1123"
           fill="#c49c5b"
           style="fill:#fbc565;fill-opacity:1" />
      </g>
      <g
         id="g1129">
        <path
           d="M495.2 56.3c.9 0 1.9 0 2.8.2-1.2 1.4-2.7 2.5-4.3 3.3-1.4 1.2-8.7 1.1-9.8 1.2-1.1-1.1-2.2-2.3-3.1-3.6 0-.3 13.2-1.3 14.4-1.1"
           class="st2"
           id="path1131"
           fill="#c49c5b"
           style="fill:#fbc565;fill-opacity:1" />
      </g>
      <g
         id="g1137">
        <path
           d="M133.9 57.4c.8-.2 43.8 1.1 44.8 1.7 1.2.2 2 1.4 3.3 2 .7.5 1.3 1 1.7 1.7-13.2-.2-45.4-1.3-50.2-1.6-.9-1.1-1.7-2.8-2.6-3.9v-.2c.9.1 2 .1 3 .3"
           class="st2"
           id="path1139"
           fill="#c49c5b"
           style="fill:#fbc565;fill-opacity:1" />
      </g>
      <g
         id="g1145">
        <path
           d="M464.3 57.4c-.8 1.4-1.8 2.8-3 4-16.3.5-33.4 1.1-50 1.5.9-1.5 2.6-2.3 4-3.4.9-.2 1.9-.9 3-.8 3.8 0 44.7-1.5 46-1.3"
           class="st2"
           id="path1147"
           fill="#c49c5b"
           style="fill:#fbc565;fill-opacity:1" />
      </g>
      <g
         id="g1153">
        <path
           d="M323.1 68.4c1.5 3.4 3.1 6.7 5 9.9 0 0-4.3 3.6-6.2 4.3-4.8 2.9-16.1 6-16.1 6-1.8.3-3.7.5-5.6.5L309 71c.9-.2 13-4.5 13.5-4.3.1.6.3 1.1.6 1.7"
           class="st2"
           id="path1155"
           fill="#c49c5b"
           style="fill:#fbc565;fill-opacity:1" />
      </g>
      <g
         id="g1161">
        <path
           d="M274.1 67.1s10.5 3.7 12.4 4.3c3 6.3 5.4 11.9 8.2 17.8-2.7.1-5.4-.3-8.1-.9-4.5-1.2-17.8-8-19.8-9.6 1.5-2.3 5.6-11.8 5.7-11.9.7 0 1 .3 1.6.3"
           class="st2"
           id="path1163"
           fill="#c49c5b"
           style="fill:#fbc565;fill-opacity:1" />
      </g>
      <g
         id="g1169">
        <path
           d="M423.7 80.3c-3 4.4-7.2 7.7-12.1 9.7-3.3-2.3-6.4-4.8-9.6-7-1.3-.9-2.6-2-3.7-2.9 3.2-2.5 5.6-5.9 6.8-9.8.3-.3.1-1.1.6-1.5z"
           class="st2"
           id="path1171"
           fill="#c49c5b"
           style="fill:#fbc565;fill-opacity:1" />
      </g>
      <g
         id="g1177">
        <path
           d="M189.5 69.4c.1.8 4.5 8.2 4.5 8.2.8.8 2.6 2.3 2.6 2.5-.8 1.3-3.7 2.9-3.7 2.9-3.3 2.3-6.2 4.8-9.4 7-4.6-2-9.1-5-12.1-9.6 0-.6.9-.9 1.3-1.1 2-1.4 3.7-2.3 5.9-3.9 1.1-.5 2.1-1.2 2.9-2 .8-.5 3.1-1.9 3.3-1.9.6-.3 4.2-2.3 4.7-2.1"
           class="st2"
           id="path1179"
           fill="#c49c5b"
           style="fill:#fbc565;fill-opacity:1" />
      </g>
      <g
         id="g1185">
        <path
           d="M396.6 84.3c.2-.3.2.3.3.3 6.8 4.8 13.1 9.9 20 15.2-.8 1.1-1.7 2.1-2.8 2.9-3.3 2.9-7.2 5-11.5 6.2-4.8-4.2-9.5-8.2-14.4-12.7 4-2.9 6.4-7.6 7.6-12.6.2.4.7.5.8.7"
           class="st2"
           id="path1187"
           fill="#c49c5b"
           style="fill:#fbc565;fill-opacity:1" />
      </g>
      <g
         id="g1193">
        <path
           d="M201.4 90.3c1.3 2.3 3.1 4.4 5.3 5.9 0 0-9.3 8.4-14.1 12.5-4.2-.8-13.5-7.8-14.5-8.8 4.5-3.6 16.1-12.4 16.9-12.8 1.4-1.1 4-3.3 4.3-3.1.5 2.2 1.2 4.3 2.1 6.3z"
           class="st2"
           id="path1195"
           fill="#c49c5b"
           style="fill:#fbc565;fill-opacity:1" />
      </g>
      <g
         id="g1201">
        <path
           d="M398.6 111.4s6.2 5.4 7.7 6.8c-1.2 1.4-10.8 7.1-14.9 7.4-3.7-5-7.6-9.6-11.5-14.6.8-.8 1.5-1.6 2.2-2.5 1.3-.9 3.3-5.4 3.4-6.5.5-.6.2-1.2.3-1.8 4.6 3.8 8.5 7.3 12.8 11.2"
           class="st2"
           id="path1203"
           fill="#c49c5b"
           style="fill:#fbc565;fill-opacity:1" />
      </g>
      <g
         id="g1209">
        <path
           d="M209.1 102.4c1.1 2.3 4.5 8.2 5.6 8.7 0 0-7.9 9.8-11.4 14.5-2.5-.3-5-1.1-7.3-2.3 0 0-5.9-3.7-7.4-5.1.3-.3 7.4-6.8 7.4-6.8.6 0 10.5-8.8 12.9-11 .1.6.1 1.4.2 2"
           class="st2"
           id="path1211"
           fill="#c49c5b"
           style="fill:#fbc565;fill-opacity:1" />
      </g>
      <g
         id="g1217">
        <path
           d="m 384.1,123 c 2.8,3.6 6.2,7.9 9.1,11.6 -4,3.3 -9,5.4 -14.2,5.9 -2.9,-4.6 -6.57974,-10.58353 -9.37974,-15.28353 0.92633,-0.15919 2.18461,-0.94719 2.97974,-1.91647 2.1,-2.5 3.7,-5.2 5,-8.2"
           class="st2"
           id="path1219"
           fill="#c49c5b"
           style="fill:#fbc565;fill-opacity:1"
           sodipodi:nodetypes="cccccc" />
      </g>
      <g
         id="g1225">
        <path
           d="M217.8 116.8c1.7 3.1 2.9 5.7 5.6 7.9.3.6 1.1.5 1.6 1.1-2.8 4.5-6.2 10.1-9 14.7-5.4-.3-10.2-2.8-14.4-5.7 3.7-5 8.4-10.5 12.1-15.3.5-.5 1-1 1.4-1.5.7-.9 1.4-1.8 2.2-2.6.2.3.4.9.5 1.4"
           class="st2"
           id="path1227"
           fill="#c49c5b"
           style="fill:#fbc565;fill-opacity:1" />
      </g>
      <g
         id="g1233">
        <path
           d="M378.8 149.2c-.1.2-.8 1.2-.8 1.2s-7.9 2.2-12.5 2.2c-2.6-5.7-4.6-11-7.1-16.7 0-.2-.6-.8 0-.8 3.3-1.6 6.4-3.3 8-6.8 4.3 7 8.5 13.8 12.4 20.9"
           class="st2"
           id="path1235"
           fill="#c49c5b"
           style="fill:#fbc565;fill-opacity:1" />
      </g>
      <g
         id="g1241">
        <path
           d="M236.7 135.2c-2.3 5.9-5 11.8-7.4 17.3-4.5.2-8.9-.6-13-2.5-.3-.3-.4-.7-.3-1.1 4.2-7.1 8-13.6 12.2-20.8 1.6 3.6 5.1 5.9 8.5 7.1"
           class="st2"
           id="path1243"
           fill="#c49c5b"
           style="fill:#fbc565;fill-opacity:1" />
      </g>
      <g
         id="g1249">
        <path
           d="M355.4 138.6c3.1 8.2 6.5 15.8 9.5 23.5-4.6 2.2-18.4 2-18.4 2-1-2.7-2.3-5.2-3.9-7.6 1.4-3.2 6.5-15.6 7.4-17.8.5.2 3.4-1.1 4.5-1.1.4.1.8.7.9 1"
           class="st2"
           id="path1251"
           fill="#c49c5b"
           style="fill:#fbc565;fill-opacity:1" />
      </g>
      <g
         id="g1257">
        <path
           d="M244.7 139c2.3 6.2 4.5 11.8 7.3 17.5-1.4 2.5-2.7 5.2-3.9 7.9-6.1 1.4-12.6.7-18.3-2 1.9-4.8 3.7-9.3 5.7-14.1 1.4-3.6 2.6-6.7 4.2-10.2 1.7-.5 2.8.6 4.3.9z"
           class="st2"
           id="path1259"
           fill="#c49c5b"
           style="fill:#fbc565;fill-opacity:1" />
      </g>
      <g
         id="g1273">
        <path
           d="M319.5 143.3c.6 1.3.5 3.1 1.7 3.7 1.4.5 5.7.3 6.3-.4.8-1.7.5-4 2.6-4.2.9-.1 1.8.4 2.2 1.2.3 1.7.8 3.4 1.1 5.3-.6 1.1-.8 2.5-1.9 3.2-3 .3-64.1-.3-67.3-.3-1.1-.4-1.8-1.4-2-2.5 0-.3.3-.8.3-1.1.3-.5 1.3-.3 1.9-.9 1.9-.5 1.1-3.6 2.8-4.3.9-.8 2.3-.5 3.6-.5.7.2 1.3.7 1.5 1.4.3 1.2.8 3.1 2.2 3.6 1.5.3 3.1.2 4.6-.2 2.6-.5 1.6-4.5 4.3-4.8 1.7-.2 2.8-.2 3.9 1.1.5 1.4.6 3.6 2.6 3.7l.8.2c.5.1 4-.2 4.2-.8.8-1.2.4-3.6 2.2-4 1.7-.3 4.2-.8 5.3.8.6 1.4.6 3.6 2.5 3.9 1.5 0 6.6.2 7.1-.9.6-1.3.3-2.8 1.5-3.7l.9-.3c1.9-.2 3.7-.6 5.1.8"
           class="st2"
           id="path1275"
           fill="#c49c5b"
           style="fill:#fbc565;fill-opacity:1" />
      </g>
      <path
         id="polygon4923"
         class="st0"
         fill="#fff"
         d="M289.5 190.2l-6.4-6.8-4-5-2.8-3.8-5.2-7.3-3.4-6-3.9-7.1h66.9l-3.7 6.9-3.8 6.4-4.9 7.1-3.9 5.1-4.9 5.7-6 6.4-6.3 5.6z" />
      <g
         id="g1301">
        <path
           d="M200 219.1l.9.8c1.1.9 2.6 1.9 3.9 2.8 1.4 1.1 2.5 1.4 3.7 2.5 2.3 1.6 4.8 2.9 7.1 4.3.8.9 4.8 2 5.4 2.9 1.5 1 3 1.8 4.6 2.5 0 .1.1.1.1.1 2.6 1.1 10.1 4.3 10.2 4.5.2 2.3.5 4.3 2 6.2 1.4-.8 2.6-1.9 3.7-3.1.4-.5 1-.6 1.6-.3 1.1.5 20.1 5.6 21.1 5.9 3.5.6 20.6 3.1 24 3.1 2.2.3 26.9-.6 30.4-1.2.5-.2 7.9-1.1 10.7-1.9 2-.3 20.4-5.4 22.8-6.3 1.1 1.9 2.5 2.5 4 3.9 1.7-1.4 2.3-3.9 2.3-6.2.8-.3 15-7 15-7 .5.3 20.1-12.2 23.4-14.9.1 0 25.7 30 25.9 31.1-19.9 15.8-42.7 27.6-67.2 34.7l-.2.1c-10.3 3.3-21 5.5-31.7 6.7-3 .6-6.8.8-10.1 1.2-5.4.1-19.5.6-19.7.8-3.1 0-26.6-2.2-35.6-3.7-20.9-4-39.9-11.3-58.2-20.9-9.8-5.7-19.7-11.6-28.5-19 .8-1.9 24.9-31.6 25.2-31.7 1 .4 2.1 1.5 3.2 2.1"
           class="st2"
           id="path1303"
           fill="#c49c5b"
           style="fill:#fbc565;fill-opacity:1" />
      </g>
      <g
         id="g1309">
        <path
           d="M399.4 234.6c3.9 6.6 6 15.2 3.6 22.9-.7 1.7-1.7 3.2-3.1 4.3-1.2.7-2.5 1.3-3.9 1.7-4 .8-7.3 2.6-11.6 2.6 5.7-1.2 10.9-4 14.9-8.2 4-4.3 4.3-11.3 1.9-16.4-1.5-3.4-3.4-7.1-7-9.4-.3.6.5 1.5.5 2.5 1.9 4.2 2.9 8.7 2.9 13.3-.9-1.7-.6-4-1.2-6.2-1.6-4.3-3.4-8.6-5.4-12.7-.5-1.2-1.1-2.8-.6-3.9 2.9 2.5 7.1 5.5 9 9.5"
           class="st1"
           id="path1311"
           fill="#231f20" />
      </g>
      <g
         id="g1325">
        <path
           d="m 208.4,231.5 2.2,-0.1 c -0.16701,0.29287 -0.27795,0.3706 -0.3,0.4 -0.7,0.7 -1.5,1.3 -2.3,1.9 -0.6,0.2 -2.2,0 -2.6,0.2 -1.4,-0.3 -2.8,-0.4 -4.2,-0.3 0.3,-1.2 1.6,-1.7 2.5,-2.5 1.4,0 3.1,0.4 4.7,0.4"
           class="st1"
           id="path1327"
           fill="#231f20"
           sodipodi:nodetypes="cccccccc" />
      </g>
      <g
         id="g1341">
        <path
           d="M 387.09442,234.82651 C 388.76698,237.35767 389.3,240.1 389,243.4 c 0.8,0.3 1.4,-0.6 2.2,-0.8 0.6,-0.4 1.3,-0.6 2,-0.6 1.5,2 -0.3,4.6 -0.9,6.8 -0.6,2.2 -2.8,3.3 -4.3,4.8 -1.8,1 -3.4,2.1 -5,3.4 -0.3,0.5 -1.2,0.8 -0.8,1.4 1.5,0.6 3.1,-0.5 4.3,-0.6 -0.6,1.4 0,3.4 -1.5,4 -3.6,1.7 -4.6,5.3 -7.4,7.9 -1.2,0.7 -2.7,0.8 -4,0.3 -2.5,-1.5 -2.6,-4.8 -2.2,-7.4 -0.3,-0.6 -1.1,0.1 -1.4,0.1 -0.5,0.1 -1,0.3 -1.4,0.6 -1.1,0.8 -2.5,2.2 -4,2.6 -0.9,3.3 -0.8,6.8 -3.1,9.5 -1.4,2 -3.6,3.3 -6,3.7 -1.5,0.1 -2.9,-0.6 -3.9,-1.7 -0.5,-0.9 -0.9,-1.9 -1.1,-2.9 H 350 c -2.35758,5.16201 -7.24518,7.08167 -12,7.5 -0.6,-0.1 -1.1,-0.1 -1.7,0 -1.9,0 -3.7,-0.2 -5.6,-0.6 -0.3,-0.1 0,-0.1 -0.1,-0.3 4.9,0.5 10.4,-0.8 14.1,-3.7 6,-4 5.4,-11.9 7.5,-18.1 0.6,-0.9 0.9,-2.5 2.3,-2.2 1.1,1.1 0.5,2.8 0.3,4.2 -0.3,0 -0.9,-0.3 -1.2,0.1 -2.2,2.5 -1.1,5.7 -2.3,8.4 -0.5,1.6 -0.1,3.4 1.1,4.6 1.5,1.2 3.5,1.3 5.1,0.5 2.8,-1.4 4.9,-3.8 5.7,-6.8 -0.0494,-0.55011 0,-1.1 -0.6,-1.2 -0.68402,-0.0183 -0.94519,0.0986 -2,0.2 -0.8,-0.2 -1.6,-0.7 -2,-1.4 -0.2,-1.7 0.1,-3.5 0.9,-5 1.4,-0.6 3,0.8 4,2 0.8,-0.1 1.5,-0.3 2.2,-0.8 -0.1,-2.8 0.4,-5.5 1.6,-8.1 0.5,-0.3 0.9,-1.6 1.7,-0.9 1.5,0.5 2,2 2.2,3.6 0,0.6 -0.6,1.5 0,2.2 2.3,-1.6 4,-4.2 3.7,-7 -0.5,-1.6 -0.6,-3.7 -1.5,-5 -0.78436,-2.0054 -3.44882,-4.25269 -4.3,-4.7 -1.1,-0.5 -1.5,0.8 -2,1.4 -0.5,1.7 -0.78653,3.65189 -0.72549,5.3 0.0422,1.13939 0.32549,2.5 -0.37451,3.3 -1.5,-1.6 -0.3,-4.2 -0.3,-6.2 0.6,-2.6 0.3,-6.2 3,-7.7 2.8,0.2 4.5,2.3 5.9,4.2 0.9,2.1 1.5,4.4 1.7,6.7 0,4.3 -0.9,9.3 -3.7,12.2 -0.6,1.5 -0.3,3.2 0.6,4.5 0.9,1.2 2.8,1.2 4.3,0.8 1.5,-0.9 2.7,-2.2 3.4,-3.7 -1.1,-2.2 0,-5 1.4,-6.7 2.5,-3.7 7.1,-5.4 10.1,-8.7 0.1,-0.4 0,-0.9 -0.3,-1.2 -2.5,0.3 -3.4,2 -5.6,3.1 -1,0.9 -2.1,1.7 -3.4,2.2 -0.33286,-0.8849 0.2609,-2.93463 0.9,-3.9 1.5,-1.4 5.1,-2.6 3.7,-5.6 -0.3,-1 -0.8,-2 -1.5,-2.8 -0.6,0 -0.3,1.2 -0.6,1.9 0.1,1.1 -0.2,2.2 -0.8,3.1 -0.3,-1.1 0.3,-1.9 0.2,-3.1 -0.3,-2.8 -0.5,-5.6 0.8,-8.1 l 0.6,-0.6"
           class="st1"
           id="path1343"
           fill="#231f20"
           sodipodi:nodetypes="ccccscccccccccccccccccccccccccccscccccccccccccccscccccccccccccccccccccc" />
      </g>
      <g
         id="g1349">
        <path
           d="m 196,240.1 c -0.76255,0.6984 -1.07011,0.77809 -2.02032,1.61872 -0.99156,0.87511 -2.94215,2.64285 -3.87968,3.88128 -0.9,1.7 -2.5,3.9 -0.9,5.9 1.7,0.9 2.6,-0.9 3.9,-1.9 1.6,-1.4 3.1,-3.4 4.8,-4.8 0.2,-0.11788 0.3,-0.2 0.5,-0.3 1.7,-1.4 3.3,-3.4 5.9,-2.9 0.3,0.7 0.3,1.5 0,2.2 -2,2.9 -3.4,7.1 -1.2,10.7 6.8,8.7 18,12.7 28.6,13.3 5,0.5 9.9,-1.7 14.7,-1.9 0.3,0.3 1.1,0.5 0.8,1.2 0,0.8 -1.5,1.5 -0.3,2.5 2,0.9 3.6,-1.4 5.1,-1.9 0.1,0.3 -0.3,0.8 -0.6,1.1 l -1.6,1.7 c 0.9,0.9 2.5,0.3 3.6,0.3 0.8,-0.1 0.6,-1.4 0.9,-1.9 1.7,-2.2 3.4,-4.3 5.7,-5.6 1.2,-0.5 3.4,-0.9 4.8,0 0.8,0.8 0,2.5 1.4,2.8 1.5,0.3 3,-0.1 4,-1.2 0.7,-2 0.9,-4.2 0.6,-6.3 -0.5,-0.3 -0.3,0.3 -0.6,0.5 l -2.1,2.2 c 1.7,-2.9 2.3,-6.8 5.4,-8.8 l 0.3,0.2 c -0.5,2.9 0.6,5.9 -0.5,8.8 -0.86532,3.09717 -2.81185,5.36672 -5.3,6.9 -1.4,0.8 -2.9,1.1 -4.5,0.9 -0.8,-0.5 -0.6,-1.7 -0.9,-2.5 -0.5,-0.9 -1.8,-0.8 -2.8,-0.8 -1.38415,0.30053 -2.13821,0.53269 -3,1.5 -0.1,0.4 0.2,0.9 0.6,1 1.1,0.3 2.3,0.3 3.4,0.1 v 0.5 c -1.1,1.1 -2,2.9 -3.7,2.6 -1.6,0.1 -2.6,1.4 -4.3,1.5 -1.3,0.4 -2.6,0.7 -4,0.8 l -0.5,-0.3 c -0.3,0.3 -1.1,0.2 -1.5,0.2 -0.8,-0.6 -2.3,-0.6 -3,-2 -0.1,-1.2 1.1,-2.5 -0.1,-3.3 -2.78269,0.0324 -6.8363,1.4823 -11.2,1.7 -5.14983,0.0622 -9.40494,-0.17481 -14.64064,-1.8984 -2.79916,-1.14339 -6.24688,-2.63097 -8.65936,-3.9016 -2.21265,-1.43586 -4.59129,-2.76697 -6.3,-4.7 -0.6,-0.9 -1.7,-1.7 -2.5,-2.9 -0.6,-1.2 -0.9,-2.6 -0.8,-4 -0.5,-1.2 0.1,-2.8 0.8,-4.2 0.3,-1.5 1.6,-2.8 1.1,-4.5 -2.3,-0.5 -3.6,2 -5,2.6 -1.7,1.7 -3.3,4 -4.8,5.3 -0.9,1.1 -1.9,2 -3.1,2.8 -0.8,0.1 -1.5,-0.3 -1.9,-0.9 -1.6,-4.3 2.5,-8.2 5,-10.8 1.2,-1.2 2.6,-2.3 4,-3.3 z"
           class="st1"
           id="path1351"
           fill="#231f20"
           sodipodi:nodetypes="ccccccccccccccccccccccccccccccccccccccccccccccccccccccccccc" />
      </g>
      <g
         id="g1357">
        <path
           d="m 232.5,242.1 c 1.1,0.1 1.4,0.9 2.2,1.3 v 0.1 c -0.33763,-0.0105 -0.6169,0.1483 -0.8,0.2 -2.72489,-0.40683 -5.02671,-0.14807 -7.2,-0.5 -3.72239,-0.34071 -7.09518,-0.66723 -10.3,-0.9 h -0.9 c 1.4,-0.9 3.1,-0.8 4.6,-1.1 3.9,0.2 8.6,0.5 12.4,0.9"
           class="st1"
           id="path1359"
           fill="#231f20"
           sodipodi:nodetypes="ccccccccc" />
      </g>
      <g
         id="g1365">
        <path
           d="m 216.3,246.2 c -1.1,0.6 -2,1.6 -2.5,2.8 l -0.11285,0.26145 c -0.8,0.8 1.31285,1.93855 -0.38715,2.23855 h -0.2 c -0.3,0.2 -0.6,0.6 -1.3,0.5 -0.6,-0.6 -0.1,-1.4 0,-2.2 1.2,-1.6 2.7,-2.8 4.5,-3.6"
           class="st1"
           id="path1367"
           fill="#231f20"
           sodipodi:nodetypes="cccccccc" />
      </g>
      <g
         id="g1373">
        <path
           d="m 228.6,250.6 c 0.5,0.6 1.2,0.5 2,0.5 0.6,-0.3 0.8,-1.1 1.6,-0.9 0.2,0.5 -0.8,0.8 -0.5,1.2 1.1,0.5 2.4,0.2 3.1,-0.8 h 0.3 c -0.0797,0.49797 -0.62179,1.09415 -0.7,1.2 -1.1,1.4 -2.3,1.7 -4.2,1.7 -0.5,-0.8 -1.7,-0.5 -2.5,-0.6 -0.84146,-0.25015 -1.03792,-0.99991 -1.1,-1.9 0.5,-1 1.4,-1.7 2.5,-2 0.3,0.7 -0.5,0.9 -0.5,1.6"
           class="st1"
           id="path1375"
           fill="#231f20"
           sodipodi:nodetypes="cccccccccccc" />
      </g>
      <g
         id="g1381">
        <path
           d="M330 250.1c-.9.9-2.2 1.4-3.1 2.3-.5.2-.9.5-1.4.6-5.7 3.7-12.3 6.2-17.5 9.8l-.9.6c-.3-.3.2-.6.2-.9 4.8-5.1 11.1-7 17-10.5 1.8-.8 3.8-1.5 5.7-1.9"
           class="st1"
           id="path1383"
           fill="#231f20" />
      </g>
      <g
         id="g1389">
        <path
           d="m 271,250.7 v 0.3 c -1.3,0.9 -2.8,1.2 -4.3,0.8 -1.88873,-0.0326 -4.07558,0.6252 -5.8,0.2 v -0.2 c 3.3,-1.1 6.7,-1.1 10.1,-1.1"
           class="st1"
           id="path1391"
           fill="#231f20"
           sodipodi:nodetypes="cccccc" />
      </g>
      <g
         id="g1397">
        <path
           d="m 343,253.2 c 2.3,7 -0.5,13.8 -4.5,18.9 -2.5,3.1 -6.3,5.4 -10.1,7.3 -1.84748,0.73029 -3.68198,1.31321 -5.6,1.9 -3.2,0.9 -6.5,1.4 -9.8,1.7 -3.42064,0.014 -6.82673,0.008 -9.3,-1.2 -2,-1.5 -4,-2.6 -4.5,-5.6 -0.6,-1.4 -0.8,-2.9 -1.4,-4.3 0,-0.1 -0.3,-0.5 -0.6,-0.6 -1.4,0.3 -2.2,2 -2.3,3.1 -1.1,3.6 -0.1,8.2 -1.7,11.8 -0.5,0.5 -0.6,1.1 -1.5,1.1 -1.2,0 -2.3,-1.3 -2.8,-2.3 -0.9,-3.1 -0.5,-6.6 -0.3,-9.9 0.4,-1.9 1,-3.8 1.9,-5.5 h 0.1 c -0.9,3.5 -2,7.1 -1.4,10.8 -0.1,1.2 0.6,2.4 1.7,2.9 0.6,0.3 1.1,-0.1 1.4,-0.5 2.3,-5 0.6,-11.5 4.5,-15.2 0.5,0 0.8,-0.5 1.3,-0.2 2,2.5 1.1,6.2 3.4,8.5 2.6,2.9 6.8,2.8 10.5,3.3 3.7,-0.3 7.3,-0.9 10.8,-1.9 8.2,-2.2 16.4,-7 19.4,-15.3 0.5,-2 -0.1,-3.5 -0.8,-5.6 -0.3,-0.5 -0.8,0.2 -0.8,0.3 -0.5,1.9 -0.8,4 -1.4,5.9 l -0.2,0.2 c 0.6,-3.9 0.8,-8.1 2,-12 0.2,-0.1 0.3,-0.5 0.6,-0.1 0.8,0.8 1.2,1.6 1.4,2.5"
           class="st1"
           id="path1399"
           fill="#231f20"
           sodipodi:nodetypes="cccccccccccscccccccccccccccccccc" />
      </g>
      <g
         id="g1405">
        <path
           d="M259.9 253.8c.1.3.1.8-.1.9-.8.6-1.7 1.1-2.5 1.7-.6-.4-1.2-.8-1.7-1.4-.6-.2-1.1-.7-1.4-1.3.6-1 1.5-1.7 2.6-2 1.1.6 2.2 1.3 3.1 2.1"
           class="st1"
           id="path1407"
           fill="#231f20" />
      </g>
      <g
         id="g1413">
        <path
           d="m 280.5,252.4 c 1.9,6.4 2.3,13.3 0.5,19.4 -0.13052,0.19237 -0.2,0.5 -0.3,0.8 -2.2,4.6 -4.2,11 -9.1,13.3 -0.9,0.7 -1.9,1.1 -2.9,1.2 -3.1,0.8 -5.6,-0.6 -8,-2.2 -1.35404,-0.53298 -2.38066,-1.0387 -3.7,-1.7 -0.9,-0.6 -1.7,-1.2 -2.5,-1.9 v 0.1 l -0.1,-0.3 c 5.4,3.6 14.4,4.3 19.8,0.2 6,-4.6 7.3,-13.3 5.7,-20.8 0,-0.6 -0.1,-1.5 -0.8,-1.9 -1.5,3.7 -1.9,8.2 -3.3,11.8 -0.8,0.9 -0.9,2.3 -1.7,2.8 0.1,-2 1.7,-3.6 1.8,-5.4 1.1,-4.3 1.4,-8.7 2.8,-12.7 0.89717,-0.8898 1.07971,-2.51205 1.8,-2.7"
           class="st1"
           id="path1415"
           fill="#231f20"
           sodipodi:nodetypes="cccccccccccccccccc" />
      </g>
      <g
         id="g1421">
        <path
           d="m 395.2,255.5 c -0.6,0.8 -1.4,1.9 -2,2.8 -1,-0.2 -1.95364,-0.86818 -2.85364,-1.36818 0.48563,-1.5151 1.11922,-2.72482 2.05364,-3.03182 0.9,0.6 1.9,1.2 2.8,1.6"
           class="st1"
           id="path1423"
           fill="#231f20"
           sodipodi:nodetypes="ccccc" />
      </g>
      <g
         id="g1429">
        <path
           d="M297.4 254.7c-.6 1.3-.6 2.9-1.9 3.7-.8 1.1-2.2 1.4-3.3 2.3-.6.5-1.3.8-2 1.1-.1-.8 0-1.7.3-2.5.5-1.7 2.5-1.9 3.7-3 1.1-.5 1.9-1.6 2.8-2.2.2.2.4.3.4.6"
           class="st1"
           id="path1431"
           fill="#231f20" />
      </g>
      <g
         id="g1437">
        <path
           d="M369.5 258.5c0 .6-.5.6-.9.8-.6 0-1.1-.3-1.4-.8-.3-.6.3-1.2.8-1.7.9.1 1.2 1.1 1.5 1.7"
           class="st2"
           id="path1439"
           fill="#c49c5b"
           style="fill:#fbc565;fill-opacity:1" />
      </g>
      <g
         id="g1441">
        <path
           d="M328.5 257.8c.1 1.1-.1 2.2-.6 3.3-.2 0-.3 0-.3.2-.5 0-.8.6-1.4.9l-2.6 1.2c-.3-.1-1.1-.1-1.6-.6.2-1.3-.6-3.3.8-4 .6.5-.1 2.3 1.4 2 .5-.2.8-.2 1.1-.8.3-.6-.3-1.7.6-2.2.5.5 0 1.6.6 2 .3-.3.9-.3 1.1-.8.5-.9-.5-2.2.8-2.2z"
           class="st1"
           id="path1443"
           fill="#231f20" />
      </g>
      <g
         id="g1449">
        <path
           d="M234.2 275c-.9.9-2 1.6-3.1 2.2-1.4.3-3.4-.2-5.3-.3l-.1-.1c-.3.1-.9-.2-1.4-.2-.6-.2-1.3 0-1.6-.6.3-.9 1.4-1.7 2.2-2.3 3.3.5 6.2 1.4 9.3 1.3"
           class="st1"
           id="path1451"
           fill="#231f20" />
      </g>
      <g
         id="g1457">
        <path
           d="m 268.3,274.1 c -0.5,0.9 -1.6,2 -2,2.8 -1.5,0.5 -3.3,1.4 -5.3,1.2 -0.80951,-0.0776 -2.17817,0.15516 -3,0 -0.3,-0.9 0.6,-1.5 1.1,-2.2 l 0.8,-0.8 c 2.6,-0.3 5.6,0.3 8.1,-1.2 z"
           class="st1"
           id="path1459"
           fill="#231f20"
           sodipodi:nodetypes="cccccccc" />
      </g>
      <g
         id="g1465">
        <path
           d="M327.5 283.4c-.5 1.4-.9 2.9-2.2 3.7-2.3 1.2-4.8 2.1-7.3 2.8-.5.2-.3-.6-.3-.9.5-.9.6-2.3 1.7-2.8 2.8-.5 5.4-1.5 7.8-3.1z"
           class="st1"
           id="path1467"
           fill="#231f20" />
      </g>
      <g
         id="g1473">
        <path
           d="M254.5 168.5c-.5 1-1.2 1.9-2 2.6-.3-.1-.3.3-.6.3 0 .3-.5.2-.3.5l-.6.1c-.8-2.8 0-5.9 2.2-7.9 1.1 1.2 1.6 2.8 1.3 4.4"
           class="st2"
           id="path1475"
           fill="#c49c5b"
           style="fill:#fbc565;fill-opacity:1" />
      </g>
      <g
         id="g1481">
        <path
           d="M343.6 171.6l-.1.3c-1.6-.8-2.8-2.2-3.4-3.9-.2-1.4.3-2.9 1.4-3.9 2.3 1.5 2.6 5 2.1 7.5"
           class="st2"
           id="path1483"
           fill="#c49c5b"
           style="fill:#fbc565;fill-opacity:1" />
      </g>
      <g
         id="g1489">
        <path
           d="M338.1 176.4c-.3.8-.7 1.5-1.2 2.2-.5-1.6-1.7-3.4-.8-4.8l1.4-1.8c1 1.2 1.3 2.9.6 4.4"
           class="st2"
           id="path1491"
           fill="#c49c5b"
           style="fill:#fbc565;fill-opacity:1" />
      </g>
      <g
         id="g1497">
        <path
           d="M258.8 176.4c-.4.7-.7 1.4-.9 2.2-.5-.2-.9-1.2-1.4-2-.4-1-.4-2.2-.2-3.3l.8-1.2c1.1 1.2 2.3 2.6 1.7 4.3"
           class="st2"
           id="path1499"
           fill="#c49c5b"
           style="fill:#fbc565;fill-opacity:1" />
      </g>
      <g
         id="g1505">
        <path
           d="M344.9 175.5c.6 2-.3 4.3-1.1 6.4-1.3-.5-2.3-1.6-2.5-3 .1-1.5.3-3 .6-4.5 1.1.2 2 .6 3 1.1"
           class="st2"
           id="path1507"
           fill="#c49c5b"
           style="fill:#fbc565;fill-opacity:1" />
      </g>
      <g
         id="g1513">
        <path
           d="M253.1 177c.2 1.1.3 2.8-.6 3.7-.4.6-1 1.1-1.7 1.2-1-2-1.3-4.2-1.1-6.3.8-.6 2.2-.6 2.9-1.1.2.8.3 1.7.5 2.5"
           class="st2"
           id="path1515"
           fill="#c49c5b"
           style="fill:#fbc565;fill-opacity:1" />
      </g>
      <g
         id="g1521">
        <path
           d="M333 183.2c-.2.3-1.1.6-.6 1.3-.1.1-.3.1-.6 0-.3-1.3-1.4-2.3-.9-3.6 1.1-.4 2-1.2 2.5-2.3 1.2 1.2.4 3.2-.4 4.6"
           class="st2"
           id="path1523"
           fill="#c49c5b"
           style="fill:#fbc565;fill-opacity:1" />
      </g>
      <g
         id="g1529">
        <path
           d="M261.9 179.5c.2.6.9.9 1.4 1.2.2.3.6.3.6.8-.3 1.1-.5 2.6-1.5 3.3-.2-.2-.3-.5-.1-.8-1.1-1.3-2-3.1-1.3-4.8.1-.9.8-.3.9.3"
           class="st2"
           id="path1531"
           fill="#c49c5b"
           style="fill:#fbc565;fill-opacity:1" />
      </g>
      <g
         id="g1537">
        <path
           d="M338.5 183.2c.4 1.4.2 2.8-.6 4-1-.5-1.3-1.7-1.6-3 0-.9.6-1.5.8-2.3.6.3 1 .7 1.4 1.3"
           class="st2"
           id="path1539"
           fill="#c49c5b"
           style="fill:#fbc565;fill-opacity:1" />
      </g>
      <g
         id="g1545">
        <path
           d="M257.9 183.1c.8 1.1.1 2.3-.2 3.3-.3.4-.6.8-.9 1.1-.8-1.1-1.2-2.5-.9-3.9.3-.6.8-1 1.4-1.4l.5 1.1z"
           class="st2"
           id="path1547"
           fill="#c49c5b"
           style="fill:#fbc565;fill-opacity:1" />
      </g>
      <g
         id="g1553">
        <path
           d="M347.8 188c-.3.4-.5 1.2-.9 1.5-1.5-.8-3.9-.3-4.6-2.2-.1-.8-.5-1.2-.1-2 1.2 0 1.9.9 3 1.2l.6-1.5.9-1.1c.8 1.2 1.2 2.7 1.1 4.1"
           class="st2"
           id="path1555"
           fill="#c49c5b"
           style="fill:#fbc565;fill-opacity:1" />
      </g>
      <g
         id="g1561">
        <path
           d="M249.4 185.9c0 .3 0 .8.3.9.3.1.5-.6 1.1-.8.6 0 .9-.8 1.7-.5.2.8 0 1.7-.5 2.3-.9 1.2-3.1 1.2-4.3 1.9-1.7-1.7-.6-3.9.2-5.6.7.4 1 1.1 1.5 1.8"
           class="st2"
           id="path1563"
           fill="#c49c5b"
           style="fill:#fbc565;fill-opacity:1" />
      </g>
      <g
         id="g1569">
        <path
           d="M329 185.9c0 1.2-.2 2.4-.6 3.6l-.5.8c-1.1-1.3-1.4-3.1-.6-4.6.3-.5.5-1.3 1.1-1.4.3.5.7.9.6 1.6"
           class="st2"
           id="path1571"
           fill="#c49c5b"
           style="fill:#fbc565;fill-opacity:1" />
      </g>
      <g
         id="g1577">
        <path
           d="M267.8 186.6c-.2 1.2-.2 2.6-.9 3.7-.5.2-.3-.6-.6-.6l.1-.1c-.5-1.4-1.4-3.7-.1-5.1 1 .1.9 1.5 1.5 2.1"
           class="st2"
           id="path1579"
           fill="#c49c5b"
           style="fill:#fbc565;fill-opacity:1" />
      </g>
      <g
         id="g1585">
        <path
           d="M334.7 189.3c.5.8-.3 1.4-.1 1.9 0 .6-.1 1.1-.5 1.6-.8-.6-.9-1.4-1.6-2.3-.2-.9 0-1.9.6-2.6.6.1 1.4.7 1.6 1.4"
           class="st2"
           id="path1587"
           fill="#c49c5b"
           style="fill:#fbc565;fill-opacity:1" />
      </g>
      <g
         id="g1593">
        <path
           d="M262.2 189.6c0 1.3-1 1.9-1.1 3l-.6.3.1-.3c-.6 0-.5-.6-.6-.9.2-.8-.6-1.7 0-2.5.6-.5.8-1.1 1.4-1.2.5.2.5 1 .8 1.6"
           class="st2"
           id="path1595"
           fill="#c49c5b"
           style="fill:#fbc565;fill-opacity:1" />
      </g>
      <g
         id="g1601">
        <path
           d="M185.6 190.5c2 .6 4.4 1.1 6.2 1.9l10.2 4.5c.6.5 11.4 8.4 14.3 11-1.9.6-17 2.5-19.5 2.9-2 1.7-3.6 4.5-5.4 6.5-5.1 6-9.8 12.2-15.2 18.4-1.7-.8-3.1-2.2-4.6-2.9-.6-.3-.5-1.2 0-1.7 2.8-4.5 6-9.1 9.1-13.5.9-2.3 2.2-3.7 3.4-5.7 2.8-4 5.6-8.1 8-12.1.3-1.2 1.2-2.2.9-3.6-.1-.6.3-1.7-.5-1.9-.4.3-.4 1.2-.8 1.7-1.3 1.8-3.4 2.8-5.6 2.8-.8.2-5.4-3.9-5.3-6.3.1-1.6 1.1-1.9 2.2-2.5 1.1-.1 1.6.7 2.6.5"
           class="st2"
           id="path1603"
           fill="#c49c5b"
           style="fill:#fbc565;fill-opacity:1" />
      </g>
      <g
         id="g1609">
        <path
           d="M413.3 191.3c.9 1.2.3 3.1-.3 4.3-1.2 1.4-2.3 2.9-4.3 3.1-2.3.3-4.5-.8-5.7-2.6-.3-.5-.1-1.4-.8-1.7-.8-.1-.1.6-.5.9-.2 1.4.1 2.8 1 4 1.1 2.6 3.2 5.3 5 8 2.3 3.9 13.5 20.1 16.1 24.6-1.5 1.5-3.2 2.7-5.1 3.6-.8-.5-18.6-22.6-20-24.3-1.9-1.1-16.3-2.6-16.3-2.6l-3.9-.6c-.2-.1 5-4.8 7.1-6.7 7.7-5.5 16.5-9.3 25.7-11.3.6.5 1.5.3 2 1.3"
           class="st2"
           id="path1611"
           fill="#c49c5b"
           style="fill:#fbc565;fill-opacity:1" />
      </g>
      <g
         id="g1617">
        <path
           d="M339.9 191c-.2 1.2-1.7 1.2-2.6 2-.3-.7-.3-1.6 0-2.3.5-.2.8 0 .9-.5.5 0 1.4.2 1.7.8"
           class="st2"
           id="path1619"
           fill="#c49c5b"
           style="fill:#fbc565;fill-opacity:1" />
      </g>
      <g
         id="g1625">
        <path
           d="M257.4 191.3l-.2 1.7c-.8-.4-2.8-.8-2.5-2 .1-.4.8-.3 1.1-.6.5.1 1.5 0 1.6.9"
           class="st2"
           id="path1627"
           fill="#c49c5b"
           style="fill:#fbc565;fill-opacity:1" />
      </g>
      <g
         id="g1633">
        <path
           d="M331 193.4c.1 1.5-.7 2.8-2 3.6 0-1.6-.5-3.4 1.1-4.5.6 0 .7.6.9.9"
           class="st2"
           id="path1635"
           fill="#c49c5b"
           style="fill:#fbc565;fill-opacity:1" />
      </g>
      <g
         id="g1641">
        <path
           d="M350 193.8c-1.5 1.9-4.2 1.5-6.2 2.6-4.2 1.7-7.7 4.8-12.4 5.6-.9 0-1.2-1.1-1.4-1.7.6-.8 1.9-1.4 2.3-2.3 1.7 0 4-.3 5.3-1.7 1.4.2 3.4.6 4.3-.8.1-.4.9-1.2.9-2 .7-.2 1.4-.3 2.2-.3 1.6.1 3.2-.1 4.6-.6.3.3.4.7.4 1.2"
           class="st2"
           id="path1643"
           fill="#c49c5b"
           style="fill:#fbc565;fill-opacity:1" />
      </g>
      <g
         id="g1649">
        <path
           d="M265.6 194.1c.6.8-.3 1.9.2 2.5l-.2.5c-.6 0-1.1-.9-1.5-1.4-.3-.7-.5-1.4-.5-2.2.5-1.7 1.7-.1 2 .6"
           class="st2"
           id="path1651"
           fill="#c49c5b"
           style="fill:#fbc565;fill-opacity:1" />
      </g>
      <g
         id="g1657">
        <path
           d="M250.8 193.3c.2.2.6.2 1.1.2.3 1.2.5 2.9 2 3.1 1.1.2 2.2.1 3.2-.3 1.3 1.9 3.1 1.7 5.1 1.9.6.8 1.3 1.5 2.2 2 .3.6-.3 1.2-.5 1.7-1.4.3-2.8 0-4-.8l-.2.1c-.5-.4-1.1-.7-1.7-.8v-.1c-3.7-2.3-7.7-4.1-11.9-5.2-.7-.1-1.3-.6-1.6-1.2l.3-.9c2 .4 4 .5 6 .3"
           class="st2"
           id="path1659"
           fill="#c49c5b"
           style="fill:#fbc565;fill-opacity:1" />
      </g>
      <g
         id="g1665">
        <path
           d="m 179.6,199.3 c 1.90292,1.89403 5.39948,2.657 7,2.7 -0.6,1.2 -13.5,20.7 -19.4,29.4 -2.6,1.1 -5.6,-0.6 -7.6,-2.6 l -1.6,-2.5 c 0.5,-1.6 18.9,-28.3 19.4,-29.6"
           class="st2"
           id="path1667"
           fill="#c49c5b"
           style="fill:#fbc565;fill-opacity:1"
           sodipodi:nodetypes="cccccc" />
      </g>
      <g
         id="g1673">
        <path
           d="m 417.8,197.6 c 2.3,3.4 19.5,28.6 18.3,30 -1.7,2.5 -5,4.7 -8.5,4 -6,-8.8 -12.1,-18.3 -18.1,-27.2 -0.4,-0.8 -0.9,-1.5 -1.4,-2.2 1.3,-0.3 2.6,-0.2 3.6,-0.9 2.68224,-1.36707 5.61647,-5.18733 5.41647,-4.68733"
           class="st2"
           id="path1675"
           fill="#c49c5b"
           style="fill:#fbc565;fill-opacity:1"
           sodipodi:nodetypes="ccccccc" />
      </g>
      <g
         id="g1681">
        <path
           d="m 311.3,202.4 c 2.3,9.9 4.5,19.2 6.5,29.1 1.1,4.8 2.5,8.8 3.1,13.5 l -7,0.9 c -0.4,-0.6 -0.5,-1.3 -0.5,-2 -2.3,-12.9 -4.3,-26.3 -6.2,-39.3 1.1,-1.3 2.4,-2.6 3.7,-3.7"
           class="st2"
           id="path1683"
           fill="#c49c5b"
           style="fill:#fbc565;fill-opacity:1"
           sodipodi:nodetypes="ccccccc" />
      </g>
      <g
         id="g1689">
        <path
           d="m 287.5,204.9 c -2,12.8 -3.9,25.4 -6.2,38.1 l -0.6,3.1 c -2.4,0 -4.7,-0.4 -7,-1.1 1.4,-8.1 5.1,-23.8 5.1,-23.8 1.73591,-6.75511 3.65092,-14.2496 4.8,-20.1"
           class="st2"
           id="path1691"
           fill="#c49c5b"
           style="fill:#fbc565;fill-opacity:1"
           sodipodi:nodetypes="cccccc" />
      </g>
      <g
         id="g1697">
        <path
           d="M348.6 209.4c1.1 2.2 2.6 4 2.3 6.7-.8 1.4-2.3 2.3-3.9 2.3-1.7-.3-3.3-.8-4.2-2.3-.7-2.8-.9-5.7-.8-8.5.2-.5.4-1 .6-1.4.9-.8 2-1.3 3.3-1.2 1.9.8 1.9 2.9 2.7 4.4"
           class="st2"
           id="path1699"
           fill="#c49c5b"
           style="fill:#fbc565;fill-opacity:1" />
      </g>
      <g
         id="g1705">
        <path
           d="M251.5 206c.3.5.9 1.1.5 1.5.3 0 .6.2.6.5 0 2.6-.8 5.7-1.1 8.4-1 1.2-2.4 2-4 2.2-1.6-.3-3.4-.9-3.9-2.5-.3-3.9 2.6-5.4 3.3-8.8.2-1 .8-1.8 1.7-2.3 1.1.1 2.1.4 2.9 1"
           class="st2"
           id="path1707"
           fill="#c49c5b"
           style="fill:#fbc565;fill-opacity:1" />
      </g>
      <g
         id="g1713">
        <path
           d="m 304.5,207.2 c 1.8,12.7 4,25.7 5.7,38.9 -1.4,0.4 -2.8,0.5 -4.2,0.5 -1.9,-12.2 -2.95116,-24.65116 -4.45116,-36.85116 1.00777,-1.17663 1.99812,-1.74092 2.95116,-2.54884 z"
           class="st2"
           id="path1715"
           fill="#c49c5b"
           style="fill:#fbc565;fill-opacity:1"
           sodipodi:nodetypes="ccccc" />
      </g>
      <g
         id="g1721">
        <path
           d="M293 209.9c-1.4 11.8-2.8 24.9-4.3 36.9-1.4 0-2.8-.1-4.2-.3.2-4.6 1.2-9 1.7-13.6 1.5-8.7 2.5-16.6 4-25.4h.3z"
           class="st2"
           id="path1723"
           fill="#c49c5b"
           style="fill:#fbc565;fill-opacity:1" />
      </g>
      <g
         id="g1729">
        <path
           d="M217.2 211.6c-.3 1.4-4.2 8.5-4.8 10.2 0 0-7.9-4.8-11.3-7.7 3.4-1 14.7-2.4 16.1-2.5"
           class="st2"
           id="path1731"
           fill="#c49c5b"
           style="fill:#fbc565;fill-opacity:1" />
      </g>
      <g
         id="g1737">
        <path
           d="M384.7 212.6c3 .3 6 .8 9 1.6-3.7 2.6-7.4 5.4-11.1 7.7-1.9-3.4-3.7-6.8-5.3-10.4 0 .1 4.9 1 7.4 1.1"
           class="st2"
           id="path1739"
           fill="#c49c5b"
           style="fill:#fbc565;fill-opacity:1" />
      </g>
      <g
         id="g1745">
        <path
           d="m 299.4,213.3 c 1.1,10.7 2.2,22.1 3.2,33.3 -3.50366,0.51803 -7.84424,0.55743 -10.7,0.3 0.9,-11.5 2.3,-23.66453 3.6,-35.06453 0.86221,0.46453 1.08663,1.08895 1.88663,1.58895 0.56684,-0.61105 1.1779,-1.2 1.7779,-1.7 C 299.3,212.22674 299.2,212.8 299.4,213.3"
           class="st2"
           id="path1747"
           fill="#c49c5b"
           style="fill:#fbc565;fill-opacity:1"
           sodipodi:nodetypes="ccccccc" />
      </g>
      <g
         id="g1753">
        <path
           d="m 363,217.1 c 1.4,0.1 3.9,0.1 5,1.2 1.20004,0.37396 2.07611,1.02106 2.1,1.9 0,0.8 -0.4,1.5 -1.1,1.9 -4.8,1.4 -9.4,0.1 -13.8,-1.7 -0.5,-0.1 -0.9,-0.5 -0.9,-0.9 2.2,-1.5 4.8,-2.3 7.4,-2.2 z"
           class="st2"
           id="path1755"
           fill="#c49c5b"
           style="fill:#fbc565;fill-opacity:1"
           sodipodi:nodetypes="cccccccc" />
      </g>
      <g
         id="g1761">
        <path
           d="M236.1 217.6c1.6.5 3 1.2 4.3 2.2-2 1.6-4.9 2.3-7.7 2.8-2.6.3-5.3.3-7.6-.9-.3-.7-.4-1.6-.1-2.3.8-1.1 2-1.1 3.1-1.7 2.5-.9 5.3-.4 8-.1"
           class="st2"
           id="path1763"
           fill="#c49c5b"
           style="fill:#fbc565;fill-opacity:1" />
      </g>
      <g
         id="g1769">
        <path
           d="m 339.9,220.1 c 0.4,0.5 1.5,0.3 2,1.1 0.1,0.6 0.8,1.2 0.3,2 -1.7,2.2 -4.5,1.1 -6.8,1.9 -0.8,-0.1 -1.7,0.5 -2.6,-0.1 -0.5,-0.5 -1.5,-0.3 -1.5,-1.1 -0.3,-0.3 -0.3,-0.8 -0.5,-1.1 0.83221,-1.60889 2.59609,-2.04101 3.8,-2.9 1.99801,-0.43002 3.91393,-0.19602 3.91393,-0.19602"
           class="st2"
           id="path1771"
           fill="#c49c5b"
           style="fill:#fbc565;fill-opacity:1"
           sodipodi:nodetypes="ccccccccc" />
      </g>
      <g
         id="g1777">
        <path
           d="M263 221.8c.6.4.8 1.2.5 1.9-.3 1.1-1.5.9-2.3 1.4-2.5 0-5-.2-7.4-.6-.9-.6-1.6-1.1-1.6-1.9.2-.2 0-.5.2-.5.3-.6.8-1.7 1.9-1.7.3.2.5-.3.8-.5 2.5-.9 5.8.3 7.9 1.9"
           class="st2"
           id="path1779"
           fill="#c49c5b"
           style="fill:#fbc565;fill-opacity:1" />
      </g>
      <g
         id="g1785">
        <path
           d="M354 226.9c.3 1.4 1.4 2.6 1.4 4-1.3 1.4-3.2 2.2-5.1 2.2-1.1-1.4-1.3-3.4-2-5.1-.3-1.4-1.9-2.6-.8-4.2.6 0 .8-.3 1.1-.3 2.5.4 4.5 1 5.4 3.4"
           class="st2"
           id="path1787"
           fill="#c49c5b"
           style="fill:#fbc565;fill-opacity:1" />
      </g>
      <g
         id="g1793">
        <path
           d="M247 224.1c1.1 1.4-.6 2.5-.8 3.7-.5 1.8-1.2 3.6-2 5.3-2 .1-3.9-.7-5.1-2.3.2-1 .6-1.9 1.1-2.8.2-.7.4-1.3.8-1.9.8-1.7 3.2-2.3 4.8-2.5.3.2.9 0 1.2.5"
           class="st2"
           id="path1795"
           fill="#c49c5b"
           style="fill:#fbc565;fill-opacity:1" />
      </g>
      <g
         id="g1801">
        <path
           d="M221.8 225.8c.3.2.2.8 0 .9-.4 1-1.2 1.8-2.2 2.3-.1-1.3.1-2.5.5-3.7.8 0 1.1.6 1.7.5"
           class="st2"
           id="path1803"
           fill="#c49c5b"
           style="fill:#fbc565;fill-opacity:1" />
      </g>
      <g
         id="g1809">
        <path
           d="M374.9 227.8c0 .5.1 1.1-.2 1.5-.8-1.2-2.3-1.7-2.2-3.4l.3.3c0-.5 1.1-.6 1.5-.8.6.8.8 1.6.6 2.4"
           class="st2"
           id="path1811"
           fill="#c49c5b"
           style="fill:#fbc565;fill-opacity:1" />
      </g>
      <g
         id="g1817">
        <path
           d="M329.7 227.8c-1.1.6-2 2-2.9 2.8.3-1.5-.1-3.7 1.4-4.3.6.3 1.2.9 1.5 1.5"
           class="st2"
           id="path1819"
           fill="#c49c5b"
           style="fill:#fbc565;fill-opacity:1" />
      </g>
      <g
         id="g1825">
        <path
           d="M267.6 229.5c0 .3-.1.6-.3.8-.8-.9-1.6-1.8-2.6-2.5.5-.6 1-1.1 1.5-1.6 1.3.7 1.4 1.8 1.4 3.3"
           class="st2"
           id="path1827"
           fill="#c49c5b"
           style="fill:#fbc565;fill-opacity:1" />
      </g>
      <g
         id="g1833">
        <path
           d="M341.6 229.2c-3.2 4.8-6.8 9.1-10.2 13.8-1.3.5-2.6.8-4 .9 2.6-3.7 5.4-7.1 8.2-11v.1c.9-1.7 2.2-3.2 3.7-4.3.2-.1.3.2.3-.1.7.4 1.6 0 2 .6"
           class="st2"
           id="path1835"
           fill="#c49c5b"
           style="fill:#fbc565;fill-opacity:1" />
      </g>
      <g
         id="g1841">
        <path
           d="M256.3 229.7c.6.6 1.1 1.2 1.5 1.9 2.9 4 6.4 8.4 9.3 12.5-2.3-.5-4.9-.3-5.7-2.9-2.6-3.7-6-7.9-8.7-11.9.9-.2 1.8-.3 2.8-.3z"
           class="st2"
           id="path1843"
           fill="#c49c5b"
           style="fill:#fbc565;fill-opacity:1" />
      </g>
      <g
         id="g1849">
        <path
           d="M355.7 238.2c-.1.8.5 2.6-.6 2.9-.5-.8-1.5-1.7-1.2-2.9 0-.2.6-.3.8-.4.3.1.9-.1 1 .4"
           class="st2"
           id="path1851"
           fill="#c49c5b"
           style="fill:#fbc565;fill-opacity:1" />
      </g>
      <g
         id="g1857">
        <path
           d="M240.4 239.6c-.2.7-.7 1.3-1.2 1.7-.6-.8-.3-2.2-.3-3.3.5-.2 1.1-.2 1.6 0-.1.5-.4 1.1-.1 1.6"
           class="st2"
           id="path1859"
           fill="#c49c5b"
           style="fill:#fbc565;fill-opacity:1" />
      </g>
      <g
         id="g1865">
        <path
           d="M307.4 296.5c7.9 10.8 25.4 33.3 25.9 34.2-.1.8-.9.9-1.7 1.2-1.5.9-19.4-24-27.9-35.5 1.4.3 2.6-.3 3.7.1"
           class="st2"
           id="path1867"
           fill="#c49c5b"
           style="fill:#fdd07f;fill-opacity:1" />
      </g>
      <g
         id="g1873">
        <path
           d="M290.6 296.9c-2.3 3.2-21.1 27.3-26.6 35-.9 0-2.3 0-2.8-.8-.3-.5 0-.9.3-1.4 8.2-10.8 17.2-22.3 25.7-33.1 1.1 0 2.2.1 3.4.3"
           class="st2"
           id="path1875"
           fill="#c49c5b"
           style="fill:#fdd07f;fill-opacity:1" />
      </g>
      <g
         id="g1881">
        <path
           d="M292.8 189.9c1.3-1.8 3.7-2.6 5.9-1.8 1.2.6 2.3 1.4 3.2 2.3l-2.3 2c-1.2-2.2-2.7-1.4-2.7-1.4-.8 0-1.6.4-2.1 1z"
           class="st4"
           id="path1883"
           fill="#00adef" />
      </g>
      <g
         id="g1885">
        <path
           d="M284.7 181.6c1.6-1.3 3.9.4 3.9.4.8.5 1.5 1.2 2.1 2 1.6 1.2 3-1.1 3-1.1 1.1-1.4 2.9-2 4.6-1.6 2.3.7 2.5 1.7 2.5 1.7 2.7 2.5 4.3.1 4.3.1.7-1.3 2.1-2 3.6-1.8l2.1.4-2 2.7c-.8-.1-1.5.2-2.1.7-2.7 3.3-5.7 1.5-5.7 1.5l-1.1-.8c-1.5-1.7-2.9-1.4-2.9-1.4-.7.2-1.4.6-1.9 1.2-1.2 1.5-3.3 2.2-5.1 1.6-1.7-1-5.4-5.6-5.3-5.6"
           class="st4"
           id="path1887"
           fill="#00adef" />
      </g>
      <g
         id="g1889">
        <path
           d="m 281.1,177.4 c 1.2,-1.7 3.2,-2.7 5.2,-2.5 1.3,0 2.5,0.7 3.1,1.9 1.6,2.4 3.3,0.5 3.3,0.5 2.4,-3.1 4.5,-2.4 4.5,-2.4 3.4,0.3 4,2.2 4,2.2 0.9,0.9 2.3,0.9 3.2,0 0.2,-0.2 0.4,-0.4 0.5,-0.7 0.9,-1.6 2.8,-2.2 4.5,-1.7 1.7,0.6 3.2,1.7 4.4,3 l -2,2.5 c -1.7,-2.8 -3.5,-2.7 -3.5,-2.7 -0.9,0.1 -1.6,0.6 -2.1,1.3 -1.9,3.3 -4.6,1.8 -4.6,1.8 -1.3,-0.3 -2.3,-1.1 -2.9,-2.3 -2.6,-1.4 -3.5,0.3 -3.5,0.3 -2.11568,2.91105 -2.39728,2.10759 -4.1,2.2 -2.23176,0.12113 -2.94016,-1.70866 -4.5,-2.6 -1.5,-0.4 -3.1,0.2 -4,1.5 z"
           class="st4"
           id="path1891"
           fill="#00adef"
           sodipodi:nodetypes="ccccccscccccccccsccc" />
      </g>
      <g
         id="g1893">
        <path
           d="M267.6 158.7c.9-1 1.9-1.9 3-2.7 3-1.2 4.7 0 4.7 0 .8.5 1.6 1.2 2.2 1.9.5.7 1.5.8 2.1.3 0 0 .1 0 .1-.1.7-.6 1.3-1.2 1.9-1.9 1.4-.8 3-1 4.5-.5 1 .4 1.8 1 2.5 1.8.7.9 2.1 1.1 3 .3l.1-.1c.5-.6 1.1-1.2 1.5-1.8 1.4-.6 2.9-.8 4.4-.4 1.1.3 2 1 2.6 2 .7.8 1.9.9 2.7.2.1 0 .1-.1.2-.2 2.2-2.7 3.6-2.5 3.6-2.5 3-.1 3.7.7 3.7.7l.7.7c.6 1.2 2 1.6 3.1 1 .2-.1.4-.2.5-.4 2.4-2.5 4.1-2 4.1-2 2.7.1 3.3 1 3.3 1 2.1 2.1 2.1 1.5 2.1 1.5 1.5.4 2.6-1.3 2.6-1.3.9-1.2 1.2-.7 1.2-.7l-3 5.4c-.6.4-2.6-1-2.6-1-.7-.4-1.2-.9-1.6-1.6-1-.8-2.4-.7-3.4.1-2 3.1-4.8 2.3-4.8 2.3l-.5-.1c-.8-.2-1.5-.6-2-1.2-1.6-1.7-2.7-1.2-2.7-1.2-1.1.2-2 .9-2.6 1.8l-.5.6c-1.1.9-2.6 1-3.9.4-1.5-.7-1.8-1.4-1.8-1.4l-.5-.6c-1-.7-2.4-.8-3.5-.2-2.1 2.8-4.3 2.7-4.3 2.7-1.3.1-2.5-.5-3.2-1.6l-.6-.8c-.7-.7-1.8-1-2.7-.5-1.1 0-1.8 1.5-1.8 1.5l-.5.6c-1.3.9-2.9 1-4.4.4-.9-.3-1.5-1-1.9-1.8-2.6-2.1-5.2 1.6-5.2 1.6l-.5.5z"
           class="st4"
           id="path1895"
           fill="#00adef" />
      </g>
      <g
         id="g1897">
        <path
           d="M270.7 163c1-.6 2.2-.8 3.4-.7 1.3.4 2.5 1.2 3.3 2.3 1.7 1.5 2.9.2 2.9.2 2.1-2.7 3.4-2.6 3.4-2.6 1.7-.7 3.6.6 3.6.6l1 .9c1.9 2.1 3.1 1.1 3.1 1.1.6-.5 1.2-1.1 1.7-1.8.9-.8 2.2-1.3 3.4-1.2 1.3.1 2.5.7 3.4 1.7 1.5 1.9 2.8 1.1 2.8 1.1.8-.7 1.5-1.4 2.1-2.3l.8-.5c2.6-1 4-.1 4-.1 1 .7 1.9 1.4 2.8 2.3 1.8 1.2 3.6-1.8 3.6-1.8 1.1-1.1 2.8-1.5 4.2-1 1.3.4 2.5 1.1 3.5 2.1l-1.6 2.9c-1.5-2.5-3.1-2-3.1-2-.9 0-1.7.5-2 1.3-1.4 2-4.1 2.5-6.1 1.1-.1-.1-.2-.1-.3-.2l-.7-.9c-2.3-1.9-4-.4-4-.4-1.9 3-4.3 2.8-4.3 2.8-1.3-.1-2.4-.8-3.1-1.9-.9-1.1-2.4-1.4-3.6-.7-.7.2-2 2.1-2 2.1-2.8 1.8-4.8.2-4.8.2l-.8-1c-1.5-1.7-2.6-1.3-2.6-1.3-1 .1-1.8.7-2.3 1.5-.9 1.4-2.5 2.2-4.2 2-1-.4-1.8-1.1-2.4-2-.9-.7-1.9-1-3-1.1z"
           class="st4"
           id="path1899"
           fill="#00adef" />
      </g>
      <g
         id="g1901">
        <path
           d="M274.2 169.1c1-.8 2.4.7 2.4.7 1.8 2.3 3 1.8 3 1.8 1.4-.1 2.2-1.8 2.2-1.8 1.3-1.3 3.2-1.7 4.9-1 1 .3 1.9 1 2.5 1.8 1.8 1.8 3.7-.3 3.7-.3.9-1.4 2.6-2.2 4.2-2 1.5 0 2.9.8 3.6 2.1.8.9 2.2 1 3.1.2.1-.1.2-.2.3-.4 2.2-2.4 3.4-2.1 3.4-2.1l1.4-.1c1.1.1 2.2.6 2.9 1.5.8 1.1 2.4 1.4 3.5.6l.3-.3c1-1.6 3-2.4 4.9-2l.5.2-1.8 2.8c-1.3-.3-1.8 1.2-1.8 1.2-1.3 1.7-3.7 2.2-5.6 1.2-2.4-3.1-4.4-2-4.4-2-1 .1-2.5 2.1-2.5 2.1l-.6.4c-1.5.9-3.4.7-4.5-.6-2-2.7-3.6-1.7-3.6-1.7-1.2.5-2.2 1.3-2.9 2.3l-.6.4c-1.4.7-3.1.6-4.3-.4-1.7-2.3-2.7-2.2-2.7-2.2-2.3.1-2.5.6-2.5.6-1 1.9-3 2.8-5.1 2.4z"
           class="st4"
           id="path1903"
           fill="#00adef" />
      </g>
      <g
         id="g1905">
        <path
           d="M114.16 57.342C50.26 131.242 49.8 173.5 49.8 173.5l-.5 6.3C47.8 267.5 115 287.2 115 287.2l11 3c50.7 11 83-12.5 83-12.5l-5.28.352C140.92 297.152 97.8 245.1 97.8 245.1L95 241c-32.7-59.1 12-115.8 12-115.8l7.8-11.5 10.443-13.902c-2.5-6.2-5.195-12.546-6.795-19.046-1.3-6-2.328-11.851-2.928-16.151-.6-4.3.257-8.08-.82-7.801"
           class="st5"
           id="path1907"
           fill="#ea282c" />
      </g>
      <g
         id="g1913">
        <path
           d="M470.995 100.255c1.8-4.3 3.627-8.75 5.612-13.65.5-1.984.827-2.971 1.227-4.571 1.273-5.666 2.046-10.507 2.766-15.834.3-2.4.727-4.866.96-7.386l6.04 6.486C509.2 89 535 136.5 535 136.5l1.8 4.2c24.8 54-3.9 101.1-3.9 101.1l-2.6 4.9c-59.2 84-142.368 30.957-142.368 30.957 2.626-.063 5.17 0 7.685.175 45 14.8 81.583-11.832 81.583-11.832l7.7-5.8c23.8-18.1 31-55 27.5-78.6-1.6-11-5-21.6-10.1-31.4l-4.8-9.1c-10-19.3-25.33-39.109-25.33-39.109"
           class="st5"
           id="path1915"
           fill="#ea282c" />
      </g>
      <circle
         id="circle5084"
         r="3.9"
         cy="123"
         cx="302.7"
         class="st6"
         fill="#ed1c24" />
      <circle
         id="circle5086"
         r="3.9"
         cy="133.6"
         cx="290.8"
         class="st6"
         fill="#ed1c24" />
      <circle
         id="circle5088"
         r="3.9"
         cy="134.3"
         cx="300.2"
         class="st6"
         fill="#ed1c24" />
      <circle
         id="circle5090"
         r="3.9"
         cy="133.8"
         cx="320.1"
         class="st6"
         fill="#ed1c24" />
      <ellipse
         id="ellipse5094"
         class="st0"
         fill="#fff"
         style="fill:#ed1c24;fill-opacity:1;stroke-width:0.789954"
         ry="2.6412923"
         rx="2.5607743"
         cy="143.45465"
         cx="291.63794" />
      <ellipse
         id="ellipse2"
         class="st0"
         fill="#fff"
         style="fill:#ed1c24;fill-opacity:1;stroke-width:0.789954"
         ry="2.6412923"
         rx="2.5607743"
         cy="143.51619"
         cx="307.7619" />
      <path
         style="fill:#fbc565;fill-opacity:1;stroke:none;stroke-width:0.915743;stroke-linejoin:round"
         d="m 361.74136,263.42062 c -2.46991,-3.10878 -1.9172,2.71797 0,0 z"
         id="path62401"
         sodipodi:nodetypes="cc" />
    </g>
  </g>
</svg>
