<?xml version="1.0" encoding="utf-8"?>
<!-- Generator: Adobe Illustrator 16.0.0, SVG Export Plug-In . SVG Version: 6.00 Build 0)  -->
<!DOCTYPE svg PUBLIC "-//W3C//DTD SVG 1.1//EN" "http://www.w3.org/Graphics/SVG/1.1/DTD/svg11.dtd">
<svg version="1.1" id="Layer_1" xmlns="http://www.w3.org/2000/svg" xmlns:xlink="http://www.w3.org/1999/xlink" x="0px" y="0px"
	 width="600px" height="600px" viewBox="0 0 600 600" enable-background="new 0 0 600 600" xml:space="preserve">
<polygon points="250.266,437.43 220.847,553 369.845,553 341.715,434.516 "/>
<polygon fill="#FFFFFF" points="255.234,443.379 229.058,546 361.635,546 336.603,440.678 "/>
<path d="M255.013,431.956c0,0-15.994,34.658-42.745,40.449c0,0-21.512,17.927-22.614,21.787c0,0-0.826,6.896-6.066,9.101
	c0,0,1.102,7.17,6.066,7.17c4.964,0,7.446,6.343,6.067,9.652c0,0,3.586,8.549,1.655,10.204c0,0-41.09,8.826-35.299-26.198
	c0,0,1.102-0.828,7.997-5.241c0,0,5.241-14.063,11.859-19.579c0,0,4.97-19.858,12.137-27.027c0,0,2.238-52.567,24.182-69.13
	C218.251,383.144,277.902,376.064,255.013,431.956z"/>
<path fill="#FFFFFF" d="M254.333,409.303c0,0-5.129,44.347-43.453,55.932c0,0-19.846,22.614-25.914,27.854
	c0,0,1.655,7.444-5.791,8.824c0,0-0.553,9.652,9.651,10.756c0,0,4.689,3.587,1.931,6.344c0,0,3.867,9.33,3.313,11.835
	c0,0-34.454,5.23-32.534-21.229c0,0,6.331-4.395,11.571-9.635c0,0,5.793-14.618,11.308-18.479c0,0,7.168-19.579,13.512-26.475
	c0,0,5.276-53.329,24.287-66.515C222.213,388.517,256.112,381.952,254.333,409.303z"/>
<path d="M221.924,415.009c0,0-18.526,23.335-5.123,31.61C216.802,446.619,189.524,443.795,221.924,415.009z"/>
<path fill="#FFFFFF" d="M156.967,172.304c0,0-108.312-31.982-92.93-140.088c0,0-11.518,10.071-12.033,29.959
	c0,0-11.62,2.699-8.543,32.083c0,0-13.59,16.014-8.975,30.596c0,0-5.565,10.072-0.427,27.409c0,0-13.934,17.214-2.138,35.477
	c0,0-8.545,14.478-0.853,30.391c0,0-7.646,10.964,1.068,22.947c0,0-8.975,7.904,1.283,21.672c0,0,3.229,17.873,9.896,24.434
	c0,0-1.821,10.643,4.843,17.61c0,0,1.994,16.329,9.686,20.918c0,0,3.704,8.717,11.395,13.315c0,0,0.37,16.972,12.675,19.973
	c0,0-1.154,10.925,13.46,12.151c0,0,5.342,13.313,14.953,13.161c0,0,5.043,5.459,25.425,9.529c0,0,18.99,27.605,95.478-15.614
	L156.967,172.304z"/>
<path d="M27.22,218.573c0,0-8.271,11.695,1.104,24.657c0,0-8.275,6.343,2.757,21.235c0,0-0.553,16.144,6.619,23.24
	c0,0-1.653,9.674,5.517,17.21c0,0,0,16.36,8.273,21.325c0,0,6.619,10.459,14.892,15.433c0,0-1.655,15.031,11.583,18.276
	c0,0,0.137,12.869,15.856,14.193c0,0,3.723,11.58,14.065,11.417c0,0,4.137,6.753,26.061,11.154c0,0,17.872,27.573,100.15-19.175
	l-75.33-208.078c0,0-108.933-30.195-92.386-147.126c0,0-15.994,18.198-16.547,39.709c0,0-13.79,2.072-10.48,33.854
	c0,0-13.237,16.782-8.273,32.555c0,0-6.64,7.5-1.113,26.252c0,0-14.886,13.444-2.198,33.197
	C27.77,187.902,18.947,201.361,27.22,218.573z M34.667,188.897c-11.42-17.777,2.068-34.535,2.068-34.535
	c-4.974-16.877,0.414-26.682,0.414-26.682c-4.466-14.195,8.687-29.784,8.687-29.784c-2.978-28.604,8.273-31.232,8.273-31.232
	c0.498-19.36,7.446-29.164,7.446-29.164c-14.892,105.237,94.173,136.371,94.173,136.371l71.896,200.458
	c-74.052,42.074-92.436,15.2-92.436,15.2c-19.732-3.962-24.613-9.275-24.613-9.275c-9.308,0.147-14.479-12.813-14.479-12.813
	c-14.147-1.192-13.031-11.828-13.031-11.828c-11.912-2.92-10.342-16.411-10.342-16.411c-7.446-4.477-15.577-18.239-15.577-18.239
	c-7.446-4.468-6.761-18.117-6.761-18.117c-6.452-6.783-7.264-20.499-7.264-20.499c-6.454-6.387-7.008-20.43-7.008-20.43
	c-9.928-13.403-1.241-21.097-1.241-21.097c-8.437-11.665-1.034-22.338-1.034-22.338C26.393,202.99,34.667,188.897,34.667,188.897z"
	/>
<path fill="#FFFFFF" d="M236.744,225.72l-23.579,72.289c0,0-13.237,13.91-16.96,2.25c0,0-9.721,1.99-9.721-5.662
	c0,0-8.687,4.757-9.721-5.378c0,0-7.239,4.551-5.999-6.825c0,0-9.514-0.621-4.136-9.308c0,0-15.099-0.85-7.033-7.768
	c0,0-14.892-6.09-4.55-12.709c0,0-14.479-2.068-1.034-11.376c0,0-11.79-6.826-2.482-11.169c0,0-10.962-4.55-1.241-10.342
	c0,0-8.273-9.928,0.414-13.237c0,0-6.619-11.027,3.723-16.579c0,0-6.412-15.48,3.516-18.169c0,0,33.921,5.378,46.331,34.542
	C204.271,206.277,209.028,226.34,236.744,225.72z"/>
<path d="M147.184,231.925c0,0-8.687,5.235,2.068,11.305c0,0-13.237,10.586,0.828,10.603c0,0-5.378,10.358,6.205,11.6
	c0,0-6.205,8.958,6.619,9.236c0,0-4.964,11.861,6.619,8.965c0,0-4.55,12.845,7.859,7.457c0,0-6.619,13.227,7.033,4.54
	c0,0-1.655,13.393,10.342,4.628c0,0,2.482,18.218,19.856-1.892l25.861-75.5c0,0-25.861,4.102-36.203-19.066
	c0,0-6.205-24.41-45.503-34.338c0,0-19.029,1.228-8.273,19.436c0,0-12.792,6.218-3.293,14.902c0,0-9.944,7.213,0.812,14.774
	C148.012,218.573,133.947,224.065,147.184,231.925z M155.044,218.573c-9.679-6.805,0.827-12.295,0.827-12.295
	c-8.548-7.816,1.862-15.377,1.862-15.377c-9.679-16.387,2.482-16.889,2.482-16.889c35.369,8.935,40.953,35.789,40.953,35.789
	c9.308,20.852,32.266,17.368,32.266,17.368l-21.184,65.226c-15.636,18.099-15.012,1.168-15.012,1.168
	c-10.796,7.888-9.721-3.723-9.721-3.723c-12.286,7.818-7.653-4.137-7.653-4.137c-11.169,4.85-5.584-6.205-5.584-6.205
	c-10.423,2.606-5.378-8.728-5.378-8.728c-11.541-0.25-6.205-7.405-6.205-7.405c-10.426-1.117-3.309-12.392-3.309-12.392
	c-12.659-0.015-2.482-11.188-2.482-11.188c-9.681-5.462,1.241-9.928,1.241-9.928C146.232,222.783,155.044,218.573,155.044,218.573z"
	/>
<path d="M225.575,262.258c0,0-25.854-21.013-31.646-52.458c0,0-1.448-18.142-15.926-21.897c0,0,10.962,9.787,11.376,26.284
	c0,0,1.918,24.811,32.509,55.382L225.575,262.258z"/>
<path d="M134.924,181.437c0,0-60.476-37.468-78.348-69.183c0,0,4.038,26.359,76.972,75.537L134.924,181.437z"/>
<path d="M133.869,189.84c0,0-62.354-34.25-81.861-64.987c0,0,5.41,26.113,80.82,71.404L133.869,189.84z"/>
<path d="M133.257,198.288c0,0-64.063-30.942-85.149-60.615c0,0,6.767,25.794,84.445,67.076L133.257,198.288z"/>
<path d="M133.089,206.753c0,0-65.597-27.544-88.21-56.073c0,0,8.112,25.402,87.84,62.563L133.089,206.753z"/>
<path d="M133.36,215.217c0,0-66.947-24.074-91.022-51.38c0,0,9.431,24.942,90.995,57.881L133.36,215.217z"/>
<path d="M134.078,223.656c0,0-68.118-20.537-93.588-46.546c0,0,10.72,24.415,93.9,53.038L134.078,223.656z"/>
<path d="M135.235,232.045c0,0-69.099-16.943-95.898-41.583c0,0,11.986,23.818,96.548,48.05L135.235,232.045z"/>
<path d="M136.826,240.362c0,0-69.887-13.303-97.941-36.507c0,0,13.216,23.158,98.93,42.932L136.826,240.362z"/>
<path d="M138.853,248.584c0,0-70.488-9.627-99.718-31.33c0,0,14.412,22.435,101.043,37.695L138.853,248.584z"/>
<path d="M141.307,256.689c0,0-70.897-5.924-101.223-26.069c0,0,15.569,21.648,102.879,32.355L141.307,256.689z"/>
<path d="M144.182,264.655c0,0-71.107-2.204-102.446-20.736c0,0,16.679,20.805,104.427,26.928L144.182,264.655z"/>
<path d="M147.47,272.459c0,0-71.127,1.52-103.391-15.346c0,0,17.744,19.905,105.694,21.424L147.47,272.459z"/>
<path d="M151.163,280.079c0,0-70.947,5.242-104.054-9.913c0,0,18.762,18.949,106.671,15.865L151.163,280.079z"/>
<path d="M155.249,287.499c0,0-70.576,8.947-104.43-4.456c0,0,19.725,17.94,107.355,10.26L155.249,287.499z"/>
<path d="M159.719,294.693c0,0-70.014,12.627-104.522,1.015c0,0,20.638,16.884,107.746,4.629L159.719,294.693z"/>
<path d="M164.555,301.644c0,0-69.254,16.274-104.322,6.482c0,0,21.495,15.78,107.84-1.017L164.555,301.644z"/>
<path d="M169.752,308.331c0,0-68.309,19.877-103.842,11.935c0,0,22.291,14.631,107.641-6.659L169.752,308.331z"/>
<path d="M175.293,314.738c0,0-67.176,23.424-103.077,17.351c0,0,23.025,13.448,107.145-12.282L175.293,314.738z"/>
<path d="M182.222,321.426c0,0-65.857,26.91-102.027,22.725c0,0,23.698,12.221,106.356-17.875L182.222,321.426z"/>
<path d="M189.49,327.744c0,0-64.355,30.319-100.695,28.031c0,0,24.302,10.965,105.274-23.416L189.49,327.744z"/>
<path d="M197.082,333.673c0,0-62.681,33.646-99.09,33.263c0,0,24.843,9.677,103.905-28.894L197.082,333.673z"/>
<path d="M341.675,430.766l-44.636,3.295l-44.636-3.295c0,0-17.62,71.534,44.636,111.441
	C359.293,502.3,341.675,430.766,341.675,430.766z"/>
<path fill="#FFFFFF" d="M298.832,463.579c0,0,3.171,7.997,12.686,10.342c0,0,8.456-2.239,4.779-16.839L298.832,463.579z"/>
<path fill="#FFFFFF" d="M317.224,456.41c0,0,2.593,7.307,12.578,10.202c0,0,5.986-3.739,2.952-18.209L317.224,456.41z"/>
<path fill="#FFFFFF" d="M311.655,476.816c0,0,8.294,7.721,11.18,7.998c0,0,6.772-4.549,6.967-15.167c0,0-4.937-0.278-8.095-3.035
	C321.707,466.612,318.964,474.748,311.655,476.816z"/>
<path fill="#FFFFFF" d="M309.501,478.601c0,0-0.501,7.456-5.501,10.075v4.688c0,0,3.983,6.068,7.707,8.964
	c0,0,5.293-4.001,7.293-9.24v-6.342C319,486.745,313.573,482.728,309.501,478.601z"/>
<path fill="#FFFFFF" d="M307.105,524.87c0,0,10.756-7.926,12.411-13.028c0,0-3.988-5.334-3.22-10.481c0,0-4.365,3.586-6.985,4.413
	c0,0-4.036,8.295-5.653,9.929C303.658,515.702,305.727,523.421,307.105,524.87z"/>
<path fill="#FFFFFF" d="M320.729,510.324c0,0,7.501-11.857,9.073-17.926c0,0-3.667-4.138-3.667-6.757c0,0-2.098,2.483-4.428,1.793
	c0,0,0.276,8.686-3.846,12.271C317.861,499.706,318.631,506.738,320.729,510.324z"/>
<path fill="#FFFFFF" d="M331.844,470.336c0,0-0.057,7.307-4.33,14.479c0,0,1.666,3.766,3.723,5.24c0,0,3.811-12.822,3.974-17.512
	C335.21,472.543,332.728,471.438,331.844,470.336z"/>
<path fill="#FFFFFF" d="M334.408,448.403c0,0,1.664,9.677-1.931,18.485c0,0,2.619,2.897,3.86,2.759c0,0,3.309-15.582,1.104-23.028
	L334.408,448.403z"/>
<path fill="#FFFFFF" d="M295.039,463.579c0,0-3.17,7.997-12.685,10.342c0,0-8.456-2.239-4.78-16.839L295.039,463.579z"/>
<path fill="#FFFFFF" d="M276.648,456.41c0,0-2.593,7.307-12.578,10.202c0,0-5.987-3.739-2.952-18.209L276.648,456.41z"/>
<path fill="#FFFFFF" d="M282.215,476.816c0,0-8.293,7.721-11.179,7.998c0,0-6.772-4.549-6.966-15.167c0,0,4.937-0.278,8.094-3.035
	C272.164,466.612,274.908,474.748,282.215,476.816z"/>
<path fill="#FFFFFF" d="M297.039,466.889c-4.964,5.929-10.067,8.824-10.067,8.824c0.139,10.479,10.067,14.342,10.067,14.342
	s9.928-3.862,10.066-14.342C307.105,475.713,301.313,472.817,297.039,466.889z"/>
<path fill="#FFFFFF" d="M285,478.601c0,0,0,7.456,5,10.075v4.688c0,0-3.483,6.068-7.207,8.964c0,0-5.793-4.001-6.793-9.24v-6.342
	C276,486.745,280.927,482.728,285,478.601z"/>
<path fill="#FFFFFF" d="M301.176,490.326c0,0-2.068,2.348-4.137,3.451c-1.655-1.104-4.24-3.451-4.24-3.451
	c-0.964,8.131-5.878,12.001-5.878,12.001c2.621,11.858,10.119,12.547,10.119,12.547s7.446-0.688,10.066-12.547
	C307.105,502.327,302.141,498.457,301.176,490.326z"/>
<path fill="#FFFFFF" d="M302.072,516.666c0,0-2.551,2.068-5.033,1.518c-3.31,0.551-5.085-1.518-5.085-1.518
	c0.483,2.344-3.154,8.964-3.154,8.964c2.345,6.895,8.239,7.446,8.239,7.446s5.792-0.552,8.137-7.446
	C305.176,525.63,301.59,519.01,302.072,516.666z"/>
<path fill="#FFFFFF" d="M286.765,524.87c0,0-10.755-7.926-12.41-13.028c0,0,3.988-5.334,3.219-10.481c0,0,4.366,3.586,6.985,4.413
	c0,0,4.037,8.295,5.654,9.929C290.213,515.702,288.145,523.421,286.765,524.87z"/>
<path fill="#FFFFFF" d="M273.143,510.324c0,0-7.501-11.857-9.073-17.926c0,0,3.667-4.138,3.667-6.757c0,0,2.098,2.483,4.428,1.793
	c0,0-0.276,8.686,3.846,12.271C276.01,499.706,275.241,506.738,273.143,510.324z"/>
<path fill="#FFFFFF" d="M262.027,470.336c0,0,0.057,7.307,4.331,14.479c0,0-1.666,3.766-3.723,5.24c0,0-3.811-12.822-3.974-17.512
	C258.662,472.543,261.144,471.438,262.027,470.336z"/>
<path fill="#FFFFFF" d="M259.463,448.403c0,0-1.664,9.677,1.931,18.485c0,0-2.619,2.897-3.86,2.759c0,0-3.31-15.582-1.104-23.028
	L259.463,448.403z"/>
<path d="M343.923,431.956c0,0,15.994,34.658,42.745,40.449c0,0,21.513,17.927,22.614,21.787c0,0,0.826,6.896,6.066,9.101
	c0,0-1.103,7.17-6.066,7.17s-7.446,6.343-6.067,9.652c0,0-3.586,8.549-1.655,10.204c0,0,41.091,8.826,35.3-26.198
	c0,0-1.103-0.828-7.997-5.241c0,0-5.24-14.063-11.859-19.579c0,0-4.971-19.858-12.137-27.027c0,0-2.238-52.567-24.182-69.13
	C380.685,383.144,321.033,376.064,343.923,431.956z"/>
<path fill="#FFFFFF" d="M344.603,409.303c0,0,5.129,44.347,43.453,55.932c0,0,19.847,22.614,25.914,27.854
	c0,0-1.654,7.444,5.792,8.824c0,0,0.553,9.652-9.652,10.756c0,0-4.689,3.587-1.931,6.344c0,0-3.867,9.33-3.313,11.835
	c0,0,34.454,5.23,32.534-21.229c0,0-6.331-4.395-11.571-9.635c0,0-5.793-14.618-11.308-18.479c0,0-7.169-19.579-13.513-26.475
	c0,0-5.275-53.329-24.287-66.515C376.722,388.517,342.824,381.952,344.603,409.303z"/>
<path d="M377.012,415.009c0,0,18.525,23.335,5.122,31.61C382.134,446.619,409.411,443.795,377.012,415.009z"/>
<path fill="#FFFFFF" d="M441.969,172.304c0,0,108.312-31.982,92.93-140.088c0,0,11.519,10.071,12.034,29.959
	c0,0,11.619,2.699,8.543,32.083c0,0,13.59,16.014,8.975,30.596c0,0,5.565,10.072,0.427,27.409c0,0,13.934,17.214,2.138,35.477
	c0,0,8.545,14.478,0.854,30.391c0,0,7.646,10.964-1.068,22.947c0,0,8.975,7.904-1.283,21.672c0,0-3.229,17.873-9.896,24.434
	c0,0,1.821,10.643-4.843,17.61c0,0-1.994,16.329-9.686,20.918c0,0-3.704,8.717-11.396,13.315c0,0-0.37,16.972-12.675,19.973
	c0,0,1.153,10.925-13.461,12.151c0,0-5.342,13.313-14.953,13.161c0,0-5.043,5.459-25.425,9.529c0,0-18.99,27.605-95.479-15.614
	L441.969,172.304z"/>
<path d="M571.166,187.902c12.688-19.753-2.197-33.197-2.197-33.197c5.525-18.752-1.114-26.252-1.114-26.252
	c4.965-15.773-8.272-32.555-8.272-32.555c3.309-31.782-10.481-33.854-10.481-33.854c-0.553-21.511-16.547-39.709-16.547-39.709
	c16.547,116.931-92.385,147.126-92.385,147.126l-75.33,208.078c82.278,46.748,100.149,19.175,100.149,19.175
	c21.925-4.401,26.062-11.154,26.062-11.154c10.342,0.163,14.064-11.417,14.064-11.417c15.72-1.324,15.857-14.193,15.857-14.193
	c13.237-3.245,11.582-18.276,11.582-18.276c8.273-4.974,14.893-15.433,14.893-15.433c8.273-4.965,8.273-21.325,8.273-21.325
	c7.17-7.537,5.517-17.21,5.517-17.21c7.171-7.096,6.618-23.24,6.618-23.24c11.032-14.892,2.757-21.235,2.757-21.235
	c9.376-12.962,1.104-24.657,1.104-24.657C579.988,201.361,571.166,187.902,571.166,187.902z M565.097,218.48
	c0,0,7.402,10.673-1.034,22.338c0,0,8.687,7.694-1.241,21.097c0,0-0.554,14.043-7.008,20.43c0,0-0.812,13.716-7.264,20.499
	c0,0,0.686,13.649-6.761,18.117c0,0-8.131,13.763-15.577,18.239c0,0,1.57,13.491-10.342,16.411c0,0,1.116,10.636-13.03,11.828
	c0,0-5.171,12.961-14.479,12.813c0,0-4.882,5.313-24.613,9.275c0,0-18.385,26.874-92.436-15.2l71.896-200.458
	c0,0,109.064-31.134,94.173-136.371c0,0,6.948,9.804,7.446,29.164c0,0,11.251,2.628,8.272,31.232c0,0,13.154,15.589,8.688,29.784
	c0,0,5.388,9.805,0.414,26.682c0,0,13.487,16.758,2.068,34.535C564.27,188.897,572.543,202.99,565.097,218.48z"/>
<path fill="#FFFFFF" d="M362.192,225.72l23.579,72.289c0,0,13.237,13.91,16.96,2.25c0,0,9.722,1.99,9.722-5.662
	c0,0,8.687,4.757,9.721-5.378c0,0,7.239,4.551,5.998-6.825c0,0,9.515-0.621,4.137-9.308c0,0,15.1-0.85,7.032-7.768
	c0,0,14.893-6.09,4.551-12.709c0,0,14.479-2.068,1.034-11.376c0,0,11.789-6.826,2.482-11.169c0,0,10.962-4.55,1.24-10.342
	c0,0,8.273-9.928-0.413-13.237c0,0,6.618-11.027-3.724-16.579c0,0,6.412-15.48-3.516-18.169c0,0-33.921,5.378-46.331,34.542
	C394.665,206.277,389.908,226.34,362.192,225.72z"/>
<path d="M450.924,218.573c10.756-7.561,0.812-14.774,0.812-14.774c9.498-8.684-3.293-14.902-3.293-14.902
	c10.755-18.208-8.273-19.436-8.273-19.436c-39.299,9.928-45.504,34.338-45.504,34.338c-10.342,23.168-36.202,19.066-36.202,19.066
	l25.86,75.5c17.374,20.11,19.856,1.892,19.856,1.892c11.996,8.765,10.342-4.628,10.342-4.628c13.65,8.687,7.032-4.54,7.032-4.54
	c12.41,5.388,7.859-7.457,7.859-7.457c11.583,2.896,6.619-8.965,6.619-8.965c12.823-0.278,6.618-9.236,6.618-9.236
	c11.583-1.241,6.205-11.6,6.205-11.6c14.064-0.017,0.827-10.603,0.827-10.603c10.756-6.069,2.068-11.305,2.068-11.305
	C464.988,224.065,450.924,218.573,450.924,218.573z M440.789,229.856c0,0,10.922,4.466,1.241,9.928c0,0,10.177,11.172-2.482,11.188
	c0,0,7.116,11.275-3.31,12.392c0,0,5.336,7.154-6.205,7.405c0,0,5.045,11.334-5.377,8.728c0,0,5.584,11.055-5.585,6.205
	c0,0,4.633,11.955-7.652,4.137c0,0,1.074,11.611-9.722,3.723c0,0,0.624,16.931-15.012-1.168l-21.185-65.226
	c0,0,22.959,3.484,32.267-17.368c0,0,5.584-26.854,40.953-35.789c0,0,12.161,0.502,2.482,16.889c0,0,10.409,7.561,1.861,15.377
	c0,0,10.506,5.491,0.827,12.295C443.892,218.573,452.703,222.783,440.789,229.856z"/>
<path d="M373.361,262.258c0,0,25.854-21.013,31.646-52.458c0,0,1.447-18.142,15.926-21.897c0,0-10.962,9.787-11.376,26.284
	c0,0-1.918,24.811-32.508,55.382L373.361,262.258z"/>
<path d="M345.636,213.838c-13.017-17.272-50.565-22.279-50.565-22.279s-37.549,5.007-50.565,22.279c0,0-28.036,2.754-34.544,22.279
	h85.109h85.109C373.673,216.592,345.636,213.838,345.636,213.838z"/>
<path fill="#FFFFFF" d="M285.77,192.555c0,0-30.626,12.483-37.76,24.58c0,0-20.151-0.168-32.917,18.982h26.284
	c0,0,6.132-21.528,12.14,0h93.121c0,0,7.134-18.774,18.023,0h10.513c0,0-1.002-12.806-26.534-18.982
	C348.64,217.135,322.027,181.911,285.77,192.555z"/>
<path fill="#FFFFFF" d="M284.056,101.96c0,0-7.677,10.18-3.171,18.024c0,0-11.682,5.004-14.018,20.69
	c0,0-28.202-3.001-32.708,12.853c0,0,20.045-6.989,30.204,5.324l0.835,1.686c0,0-15.021,1.639-15.854,6.324
	c0,0,2.168,7.025,22.029,5.523c0,0,14.184-1.671,14.018,4.505c0,0-7.374,4.831-3.671,9.345c0,0,2.169,1.337-0.835,4.341l0.667,3.168
	c0,0,11.183,10.682,28.372,2.504c0,0,16.688,28.705,58.741,14.018c0,0,14.183-9.677,0-17.187c0,0,15.353-23.189,4.507-34.875
	c0,0,3.836-32.211-13.186-40.722c0,0-11.793-35.878-43.723-24.7c0,0-11.013-4.103-13.684-2.934c0,0-2.905,4.672,0.425,9.679
	l0.659,2.919C303.664,102.445,293.234,95.631,284.056,101.96z"/>
<path d="M277.715,133.817c0,0,6.509,5.175,12.016,0c0,0,6.841-6.841,10.679,8.347c0,0,3.17,3.837,2.503-0.837
	c0,0-2.169-12.013-10.847-11.179c0,0-6.175,0.833-6.675,4.17c0,0-4.339,2.002-5.34-2.335
	C280.051,131.983,276.047,131.314,277.715,133.817z"/>
<path d="M374.673,154.512c6.008-21.528-11.014-38.049-11.014-38.049c-8.511-34.044-48.503-26.535-48.503-26.535
	c-17.962-20.025-13.578,9.512-13.578,9.512c-25.223-7.488-24.385,12.319-22.887,21.09c-11.785,3.951-12.659,18.962-12.659,18.962
	c-36.045-5.006-35.545,18.023-35.545,18.023c16.021-12.516,32.042,2.401,32.042,2.401c-11.515-0.602-17.522,6.61-17.522,6.61
	c8.511,10.513,27.536,6.508,27.536,6.508c14.018,0,11.014,4.506,11.014,4.506c-8.01,3.004-2.503,10.013-2.503,10.013
	c-4.005,0-0.385,6.964-0.385,6.964c12.51,7.659,21.435,6.384,27.067,3.485c21.631,29.88,53.923,15.834,53.923,15.834
	c21.526-0.751,11.515-25.283,11.515-25.283C386.188,175.039,374.673,154.512,374.673,154.512z M373.202,177.542
	c-4.587,15.277-4.521-1.001-4.521-1.001c3.02-15.02-6.024-12.103-6.024-12.103c-6.469-4.458,4.018-6.172,4.018-6.172
	C382.211,162.022,373.202,177.542,373.202,177.542z M358.548,156.56c-1.659,0-3.004-1.457-3.004-3.254
	c0-1.797,1.345-3.253,3.004-3.253c1.658,0,3.003,1.457,3.003,3.253C361.551,155.103,360.206,156.56,358.548,156.56z
	 M371.181,148.829c0,1.797-1.346,3.254-3.004,3.254c-1.657,0-3.004-1.458-3.004-3.254s1.347-3.254,3.004-3.254
	C369.835,145.575,371.181,147.032,371.181,148.829z M369.563,136.336c0,1.797-1.347,3.254-3.005,3.254
	c-1.659,0-3.004-1.458-3.004-3.254c0-1.797,1.345-3.254,3.004-3.254C368.216,133.082,369.563,134.539,369.563,136.336z
	 M363.554,123.222c1.658,0,3.004,1.457,3.004,3.254c0,1.797-1.346,3.253-3.004,3.253c-1.659,0-3.004-1.457-3.004-3.253
	C360.55,124.679,361.895,123.222,363.554,123.222z M360.55,142.747c0.149,8.511-5.006,0-5.006,0l-3.399-13.017
	C358.508,131.633,360.55,142.747,360.55,142.747z M291.82,100.443c13.271,0.25,9.758,5.256,9.758,5.256
	c0.276,8.735-6.508,1.752-6.508,1.752c-12.016-11.765-4.256,8.01-4.256,8.01c-1.251,8.511-8.761,1.251-8.761,1.251v-1.001
	C279.801,100.443,291.82,100.443,291.82,100.443z M307.836,112.208c-5.506-5.007,4.506-4.006,4.506-4.006
	c9.765,7.26-4.255,16.522-4.255,16.522c-3.004-2.503-11.765-8.011-11.765-8.011c0.25-2.253,3.755-3.755,3.755-3.755
	c5.757-1.251,4.446,3.464,4.446,3.464C315.727,118.134,307.836,112.208,307.836,112.208z M315.798,146.529
	c0,1.798-1.346,3.254-3.004,3.254s-3.004-1.457-3.004-3.254c0-1.797,1.346-3.253,3.004-3.253S315.798,144.732,315.798,146.529z
	 M312.794,133.082c0-1.797,1.346-3.254,3.004-3.254s3.003,1.458,3.003,3.254s-1.345,3.254-3.003,3.254
	S312.794,134.879,312.794,133.082z M251.264,166.528c10.763-6.509,18.774-4.255,18.774-4.255
	C261.526,169.031,251.264,166.528,251.264,166.528z M283.305,181.046c4.756,3.004,21.778,4.444,21.778,4.444l-0.56,2.726
	c-8.321,4.664-21.219-1.662-21.219-1.662C280.301,183.55,283.305,181.046,283.305,181.046z M309.79,193.86
	c-11.063,9.311-26.485,0-26.485,0c-3.004-1.954,0-3.931,0-3.931c13.769,5.881,26.485,0,26.485,0
	C313.746,189.802,309.79,193.86,309.79,193.86z M313.594,180.295c-11.515,5.757-26.034-3.505-26.034-3.505
	c0-5.006-8.761-6.257-8.761-6.257c-9.512,2.002-22.278,0-22.278,0c10.514-1.752,21.027-6.259,21.027-6.259
	c4.756-3.754,1.251-5.757,1.251-5.757c-1.797-1.388-4.153-2.479-6.827-3.34l0.014-0.002c-17.932-6.745-30.291-5.219-34.929-4.202
	c8.562-11.032,31.73-8.977,31.73-8.977c-1.001-2.003,0-4.255,0-4.255h4.756v-8.261c0.751-3.504,5.256-5.256,5.256-5.256
	c19.776-8.261,29.288,9.012,29.288,9.012c4.507,10.263-1.753,11.014-1.753,11.014c2.254,7.009-5.006,11.515-5.006,11.515
	c-9.762,12.767,12.266,20.276,12.266,20.276V180.295z M313.594,171.385c-4.836,0-8.762-4.247-8.762-9.491
	c0-5.243,3.926-9.49,8.762-9.49c4.835,0,8.763,4.248,8.763,9.49C322.356,167.138,318.429,171.385,313.594,171.385z M321.805,146.099
	c-1.658,0-3.004-1.457-3.004-3.254c0-1.797,1.346-3.254,3.004-3.254c1.659,0,3.004,1.457,3.004,3.254
	C324.809,144.643,323.464,146.099,321.805,146.099z M336.375,173.537c6.258,1.251,8.01,1.251,11.265-6.556
	c0.038-0.09,0.074-0.18,0.109-0.266c2.928-7.361-6.055,0.266-6.055,0.266c-13.452,7.713-15.052-3.458-15.052-3.458
	c-0.215-8.761,10.982,0.915,10.982,0.915c5.257,0.914,2.004-5.921,2.004-5.921c-14.519-2.252,1.787-10.514,1.787-10.514
	c2.041-3.754-7.795,0-7.795,0c-9.763-1.251,7.009-6.007,7.009-6.007c2.503-3.004-1.752-3.254-1.752-3.254
	c-12.768,6.508-15.02-4.255-15.02-4.255c-6.509-3.754,1.503-4.255,1.503-4.255c6.006-6.258-13.77-4.255-13.77-4.255
	c10.515-1.752,8.511-20.777,8.511-20.777c-6.509,0.25-13.518-4.755-13.518-4.755c-15.27-16.771,11.767,0,11.767,0
	c18.023,16.271,16.02,0,16.02,0c-2.002-7.76-5.257,0-5.257,0c0.944,6.571-5.006-1.251-5.006-1.251c8.01-14.77,14.018,0,14.018,0
	c0,6.758,4.507,12.265,4.507,12.265c22.779,7.51,1.251,13.268,1.251,13.268c21.278,32.792,1.752,61.83,1.752,61.83
	C330.367,186.303,336.375,173.537,336.375,173.537z M362.908,197.818c-3.754,24.781-20.776,2.252-20.776,2.252
	c11.265-12.767,13.017-33.089,13.017-33.089c23.53,7.963,3.755,11.062,3.755,11.062C366.385,182.76,362.908,197.818,362.908,197.818
	z M364.16,207.33c4.006-4.255,2.515-14.018,2.515-14.018C382.711,206.829,364.16,207.33,364.16,207.33z"/>
<circle cx="313.928" cy="162.855" r="4.004"/>
<path d="M331.118,135.155c0,0,8.01-9.846,4.337-20.025c0,0-6.008-8.013-4.337,1.666
	C331.118,116.795,332.952,120.302,331.118,135.155z"/>
<path d="M276.88,141.327c0,0,4.672,10.514,19.191,10.181C296.071,151.508,292.901,134.486,276.88,141.327z M282.387,142.668
	c6.842-2.336,9.512,5.508,9.512,5.508C283.221,148.176,282.387,142.668,282.387,142.668z"/>
<path d="M319.935,190.684c-3.735,0-6.792,2.784-7.286,6.387c-3.468,0.606-6.106,3.614-6.106,7.255c0,0.049,0.014,0.094,0.014,0.145
	c-2.914,0.57-5.216,2.847-5.811,5.753c-0.792-0.289-1.635-0.473-2.527-0.473c-0.324,0-0.632,0.054-0.943,0.094
	c-0.831-3.168-3.688-5.519-7.117-5.519c-0.367,0-0.719,0.057-1.072,0.107c-0.5-3.592-3.553-6.365-7.282-6.365
	c-0.039,0-0.075,0.01-0.114,0.011c0.057-0.374,0.114-0.748,0.114-1.139c0-4.079-3.306-7.384-7.385-7.384
	c-4.078,0-7.384,3.305-7.384,7.384c0,4.08,3.306,7.385,7.384,7.385c0.04,0,0.076-0.011,0.115-0.011
	c-0.057,0.373-0.115,0.747-0.115,1.138c0,4.079,3.306,7.384,7.385,7.384c0.367,0,0.719-0.056,1.072-0.107
	c0.499,3.592,3.553,6.366,7.282,6.366c0.323,0,0.631-0.055,0.942-0.094c0.831,3.168,3.688,5.518,7.118,5.518
	c3.569,0,6.548-2.53,7.235-5.898c0.791,0.289,1.636,0.474,2.527,0.474c4.078,0,7.386-3.306,7.386-7.385
	c0-0.049-0.015-0.094-0.015-0.145c3.074-0.599,5.433-3.11,5.863-6.242c3.464-0.607,6.104-3.615,6.104-7.255
	C327.319,193.988,324.015,190.684,319.935,190.684z"/>
<circle fill="#FFFFFF" cx="275.42" cy="196.941" r="4.386"/>
<circle fill="#FFFFFF" cx="282.772" cy="205.453" r="4.387"/>
<circle fill="#FFFFFF" cx="299.457" cy="215.841" r="4.386"/>
<circle fill="#FFFFFF" cx="308.908" cy="211.455" r="4.387"/>
<circle fill="#FFFFFF" cx="290.157" cy="211.455" r="4.387"/>
<path d="M323.139,174.794c0,0-8.706,51.065-33.95,70.09h36.586c0,0,10.428-45.308,8.469-64.583L323.139,174.794z"/>
<path fill="#FFFFFF" d="M324.609,181.797c0,0-2.128,35.307-29.477,63.087h23.719c0,0,9.364-29.321,13.267-61.334L324.609,181.797z"
	/>
<path fill="#FFFFFF" d="M300,463.579v-69.496c0,0-31.184-16.083-34.618-58.083h-61.554l-1.003,29.377
	C202.825,365.377,213,438.217,300,463.579z"/>
<rect x="292" y="235" fill="#FFFFFF" width="99" height="101"/>
<path d="M295,463.579v-69.496c0,0,31.367-16.083,34.802-58.083h61.554l0.911,29.377C392.267,365.377,383,438.217,295,463.579z"/>
<rect x="203" y="235" width="94" height="101"/>
<path d="M326.823,320h44.676c0,0,2.896-2.878-2.068-3.498c0,0-9.514,0.939-14.685-8.16c0,0-0.207-12.872,1.241-18.663
	c0,0-15.513-9.228-16.754,1.941c0,0,1.034,23.679-11.169,23.885L326.823,320z"/>
<path stroke="#FFFFFF" stroke-miterlimit="10" d="M324.962,255.504c0,0-15.513,10.342-14.271,23.579c0,0-5.106,7.446-0.071,13.444
	c0,0,2.76,11.789,2.967,1.861c0,0,2.481-9.514,4.344-1.861c0,0,1.861,9.515,3.723,0.414c0,0,2.896-10.342,5.171,0.414
	c0,0,0.62,7.239,1.861-0.207c0,0,3.724-5.792,4.551,0.621c0,0,1.241,8.273,3.723-0.207c0,0,2.896-3.723,4.964,0.827
	c0,0,2.466,7.824,3.517-0.207c0,0,4.344-5.792,6.412,0.827c0,0,2.442,5.974,3.393-0.632c0,0,3.847-6.4,6.328-0.815
	c0,0,5.585,10.548,4.964-1.448c0,0,3.517-5.378,4.551-1.655c0,0,0.646,9.308,1.254-0.207c0,0,4.33-4.55,4.744,0.621
	c0,0,0.827,9.101,1.861,0.207c0,0,6.205-27.509-23.165-38.265C355.78,252.815,337.785,247.23,324.962,255.504z"/>
<ellipse fill="#FFFFFF" cx="347.406" cy="298.008" rx="2.175" ry="2.379"/>
<ellipse fill="#FFFFFF" cx="347.406" cy="306.27" rx="2.175" ry="3.425"/>
<ellipse fill="#FFFFFF" cx="341.9" cy="309.488" rx="2.047" ry="2.274"/>
<path fill="#FFFFFF" d="M322.894,260.468c0,0-10.549,11.376-9.308,17.788c0,0-7.652,14.685,9.308,1.448c0,0,5.998-4.137-4.137-4.137
	c0,0-2.266-4.191,5.899-2.716c0,0,8.992-7.418,5.27,3.958c0,0-9.308,11.583,4.137,5.584c0,0,4.551-4.757,4.551,1.034
	c0,0,0.781,8.894,3.286,1.034c0,0,13.674,3.309,10.571-5.378c0,0,0.414-12.475,10.962-4.996c0,0,8.48,3.341,4.551-3.277
	c0,0,5.541-4.442-1.241-10.342c0,0-33.714,3.103-5.378,5.792c0,0,7.653,1.655,1.448,2.689c0,0-19.884-5.375-16.34,8.894
	c0,0-15.765,2.482-4.573-7.033c0,0,7.63-2.482,0-7.032c0,0,7.055,0.414,6.435-3.31c0,0,19.349-7.026-0.928-6.619
	c0,0-19.549,0.414-18.722,6.205c0,0,0.621,3.93,7.239,0.828c0,0,2.068,7.446-9.101,4.137
	C326.823,265.019,327.692,254.437,322.894,260.468z"/>
<path stroke="#FFFFFF" stroke-miterlimit="10" d="M223.682,286.066c0,0,14.616-23.254,34.472-2.57c0,0,13.789-2.29,11.307-12.728
	c0,0-6.068-21.194,6.067-23.952c0,0-5.24,9.653,0,17.926c0,0,8.274,20.133-8.824,25.372c0,0,4.963,3.816,5.515,8.251
	c0,0-8.273-3.839-13.237-2.736c0,0-0.827,12.548-4.412,13.858c0,0-1.379,21.168-14.617,18.96c0,0-12.686,0.275-9.928-15.444
	c0,0-3.585-5.171-4.413-14.996c0,0-7.17-0.723-8.825,3.689c0,0-1.654-3.309,0-8.273c0,0-13.237-6.9-9.376-18.756
	c0,0,6.067-22.336,4.688-27.852c0,0,6.968,13.452,3.033,27.852C215.133,274.668,211.548,284.5,223.682,286.066z"/>
<path d="M297.039,232H199v131.885c14,82.734,98,101.35,98,101.35s84-18.615,98-101.35V232H297.039z M390,362.218
	c-14,79.334-93.001,97.183-93.001,97.183S218,441.552,204,362.218V237h93.039H390V362.218z"/>
<rect x="203" y="333" width="188" height="5"/>
<path fill="none" stroke="#000000" stroke-miterlimit="10" d="M218.995,364.945c0,0,28.404,71.601,73.081,83.458"/>
<path d="M270.513,437.638c0,0-6.706-16.437-6.291-22.723C264.222,414.915,279.836,421.909,270.513,437.638z"/>
<path d="M260.584,431.02c0,0-6.706-16.438-6.291-22.723C254.294,408.297,269.908,415.29,260.584,431.02z"/>
<path d="M250.656,419.437c0,0-6.706-16.437-6.291-22.723C244.366,396.714,259.98,403.707,250.656,419.437z"/>
<path d="M236.915,399.501c0,0-0.954-17.728,1.5-23.53C238.415,375.971,250.876,387.693,236.915,399.501z"/>
<path d="M230.296,387.918c0,0-0.954-17.728,1.5-23.53C231.796,364.388,244.257,376.111,230.296,387.918z"/>
<path d="M223.677,376.336c0,0-0.953-17.729,1.5-23.531C225.177,352.805,237.639,364.528,223.677,376.336z"/>
<path d="M226.179,380.629c0,0-10.847-14.058-16.492-16.854C209.687,363.775,207.894,380.791,226.179,380.629z"/>
<path d="M230.296,387.918c0,0-14.005-5.907-19.277-5.692C211.02,382.226,217.325,395.316,230.296,387.918z"/>
<path d="M237.292,398.084c0,0-16.464-6.647-22.747-6.207C214.544,391.877,221.596,407.466,237.292,398.084z"/>
<path d="M242.255,408.012c0,0-16.464-6.647-22.747-6.206C219.508,401.806,226.56,417.394,242.255,408.012z"/>
<path d="M252.184,419.595c0,0-16.464-6.647-22.747-6.206C229.437,413.389,236.488,428.977,252.184,419.595z"/>
<path d="M262.111,431.178c0,0-16.464-6.648-22.747-6.207C239.365,424.971,246.417,440.56,262.111,431.178z"/>
<path d="M272.618,439.536c0,0-15.348-4.107-20.879-3.029C251.739,436.507,259.702,449.581,272.618,439.536z"/>
<path d="M219.298,367.347c0,0-9.681-11.332-3.062-24.019C216.236,343.328,224.3,346.735,219.298,367.347z"/>
<path fill="#FFFFFF" d="M214.208,262.258c0,0-8.958,15.492-1.513,23.947c0,0,5.275,5.954,9.935,5.126L220.187,296h7.356
	c0,0-1.751,8.507,5.881,14.293c0,0,0.337,20.113,4.812,1.77c0,0,4.951-8.565-2.182-15.46c0,0,5.363-2.005-5.849-7.797
	c0,0-1.042-2.463-10.019-1.088c0,0-7.26-0.911-7.536-9.184C212.65,278.532,216.317,262.537,214.208,262.258z"/>
<path fill="#FFFFFF" d="M263.934,286.066c0,0,8.915-5.88,9.565-11.398C273.5,274.668,277.16,287.263,263.934,286.066z"/>
<path fill="#FFFFFF" d="M247.106,309.488c0,0-1.246,10.461-4.2,10.434C242.907,319.922,252.053,325.833,247.106,309.488z"/>
<ellipse transform="matrix(-0.6767 0.7362 -0.7362 -0.6767 643.8966 323.2485)" fill="#FFFFFF" cx="250.984" cy="302.983" rx="3.309" ry="1.778"/>
<path d="M231.679,300.265c0,0-0.902,4.516,4.375,6.004C236.054,306.27,235.859,300.017,231.679,300.265z"/>
<path d="M464.011,181.437c0,0,60.477-37.468,78.349-69.183c0,0-4.038,26.359-76.972,75.537L464.011,181.437z"/>
<path d="M465.066,189.84c0,0,62.354-34.25,81.861-64.987c0,0-5.41,26.113-80.821,71.404L465.066,189.84z"/>
<path d="M465.679,198.288c0,0,64.063-30.942,85.149-60.615c0,0-6.768,25.794-84.445,67.076L465.679,198.288z"/>
<path d="M465.847,206.753c0,0,65.598-27.544,88.21-56.073c0,0-8.111,25.402-87.84,62.563L465.847,206.753z"/>
<path d="M465.575,215.217c0,0,66.946-24.074,91.021-51.38c0,0-9.43,24.942-90.994,57.881L465.575,215.217z"/>
<path d="M464.857,223.656c0,0,68.118-20.537,93.588-46.546c0,0-10.72,24.415-93.899,53.038L464.857,223.656z"/>
<path d="M463.701,232.045c0,0,69.099-16.943,95.898-41.583c0,0-11.987,23.818-96.549,48.05L463.701,232.045z"/>
<path d="M462.109,240.362c0,0,69.887-13.303,97.94-36.507c0,0-13.216,23.158-98.93,42.932L462.109,240.362z"/>
<path d="M460.083,248.584c0,0,70.488-9.627,99.718-31.33c0,0-14.412,22.435-101.043,37.695L460.083,248.584z"/>
<path d="M457.628,256.689c0,0,70.897-5.924,101.224-26.069c0,0-15.569,21.648-102.88,32.355L457.628,256.689z"/>
<path d="M454.754,264.655c0,0,71.107-2.204,102.445-20.736c0,0-16.679,20.805-104.427,26.928L454.754,264.655z"/>
<path d="M451.465,272.459c0,0,71.127,1.52,103.392-15.346c0,0-17.744,19.905-105.694,21.424L451.465,272.459z"/>
<path d="M447.772,280.079c0,0,70.948,5.242,104.055-9.913c0,0-18.763,18.949-106.672,15.865L447.772,280.079z"/>
<path d="M443.687,287.499c0,0,70.575,8.947,104.431-4.456c0,0-19.726,17.94-107.355,10.26L443.687,287.499z"/>
<path d="M439.217,294.693c0,0,70.014,12.627,104.522,1.015c0,0-20.638,16.884-107.746,4.629L439.217,294.693z"/>
<path d="M434.381,301.644c0,0,69.254,16.274,104.321,6.482c0,0-21.494,15.78-107.84-1.017L434.381,301.644z"/>
<path d="M429.184,308.331c0,0,68.309,19.877,103.842,11.935c0,0-22.291,14.631-107.641-6.659L429.184,308.331z"/>
<path d="M423.643,314.738c0,0,67.176,23.424,103.076,17.351c0,0-23.024,13.448-107.145-12.282L423.643,314.738z"/>
<path d="M416.714,321.426c0,0,65.857,26.91,102.027,22.725c0,0-23.698,12.221-106.356-17.875L416.714,321.426z"/>
<path d="M409.445,327.744c0,0,64.354,30.319,100.694,28.031c0,0-24.301,10.965-105.273-23.416L409.445,327.744z"/>
<path d="M401.854,333.673c0,0,62.68,33.646,99.09,33.263c0,0-24.843,9.677-103.905-28.894L401.854,333.673z"/>
<path d="M400.825,246.855c0,0-35.615,5.087-12.95,11.563c0,0-19.603,12.488,3.844,15.264c0,0-20.354,9.713,5.015,13.414
	c0,0-11.173,5.551,4.092,6.013C400.825,293.109,433.202,269.058,400.825,246.855z"/>
<path fill="#FFFFFF" d="M398.745,250.325c0,0-20.121,2.312-3.238,8.789c0,0-22.658,9.25,2.201,13.412c0,0-23.478,11.332,3.35,12.489
	c0,0-7.865,6.706,0,6.244C401.058,291.259,420.715,266.051,398.745,250.325z"/>
<path d="M191.063,246.855c0,0,35.614,5.087,12.95,11.563c0,0,19.602,12.488-3.844,15.264c0,0,20.354,9.713-5.014,13.414
	c0,0,11.172,5.551-4.091,6.013C191.063,293.109,158.685,269.058,191.063,246.855z"/>
<path fill="#FFFFFF" d="M193.142,250.325c0,0,20.121,2.312,3.238,8.789c0,0,22.658,9.25-2.201,13.412c0,0,23.478,11.332-3.35,12.489
	c0,0,7.865,6.706,0,6.244C190.83,291.259,171.172,266.051,193.142,250.325z"/>
<path d="M453.716,510.377c0,0,21.333,24.798,32.82,0c0,0,36.103-58.641,49.888-63.666c0,0-37.086-1.676-46.605,5.025
	c0,0,4.922-32.169,13.129-39.205c0,0-49.231,22.115-56.78,82.769C446.167,495.3,449.776,509.372,453.716,510.377z"/>
<path fill="#FFFFFF" d="M454.049,508.062c0,0,17.413,20.241,26.79,0c0,0,29.469-50.308,40.721-54.41c0,0-30.211,2.725-37.98,8.196
	c0,0-2.032-23.701,4.665-29.443c0,0-32.038,13.971-38.201,63.481C450.043,495.886,450.83,507.241,454.049,508.062z"/>
<path d="M130.434,513.133c0,0-21.333,24.797-32.821,0c0,0-36.102-58.641-49.887-63.667c0,0,37.087-1.675,46.605,5.026
	c0,0-4.923-32.168-13.127-39.205c0,0,49.23,22.115,56.779,82.768C137.983,498.055,134.373,512.127,130.434,513.133z"/>
<path fill="#FFFFFF" d="M128.839,508.861c0,0-16.9,19.645-26,0c0,0-25.117-47.798-36.036-51.779c0,0,25.836,1.617,33.375,6.926
	c0,0,1.969-23.969-4.532-29.544c0,0,31.099,14.529,37.08,62.581C132.725,497.045,131.961,508.065,128.839,508.861z"/>
<path fill="#FFFFFF" d="M485.225,485.916c0,0-44.327,92.709-186.814,94.496c0,0-133.296,0.447-186.684-79.528
	c0,0,13.565-20.998,45.511-18.765c0,0,49.011,67.465,161.039,58.081c0,0,70.867-0.336,126.03-61.656
	C444.307,478.544,471.876,472.736,485.225,485.916z"/>
<path d="M442.44,475.72c-26.856,37.343-80.898,62.858-143.201,62.858c-61.805,0-115.479-25.107-142.551-61.963
	c-37.085,0.751-51.16,24.429-51.163,24.431c36.961,49.167,107.381,82.388,188.189,82.388c88.295,0,164.188-39.659,197.58-96.446
	C479.256,470.019,452.4,473.668,442.44,475.72z M294.186,577.957c-62.13,0-137.075-28.433-165.574-60.497l-11.634-14.12
	c0,0,7.331-17.765,37.635-18.096c31.442,36.209,86.232,58.564,144.545,58.564c65.903,0,118.134-29.917,145.151-61.691
	c8.963-1.564,27.674-5.321,38.508,7.595C447.979,539.834,386.248,577.957,294.186,577.957z"/>
<ellipse transform="matrix(0.9633 -0.2685 0.2685 0.9633 -89.2258 79.9236)" cx="247.635" cy="366.224" rx="4.247" ry="3.907"/>
<path stroke="#FFFFFF" stroke-miterlimit="10" d="M241.536,366.708c0,0,10.656,15.683,10.535-2.936l-1.773,2.726l-2.647-1.494
	l-1.199,2.97L241.536,366.708z"/>
<ellipse transform="matrix(0.9037 -0.4281 0.4281 0.9037 -135.9315 143.7813)" cx="251.746" cy="374.148" rx="5.412" ry="4.978"/>
<path stroke="#FFFFFF" stroke-miterlimit="10" d="M244.191,376.075c0,0,16.776,17.388,12.594-5.967l-1.638,3.807l-3.647-1.304
	l-0.863,3.989L244.191,376.075z"/>
<ellipse transform="matrix(0.873 -0.4876 0.4876 0.873 -154.5511 174.3993)" cx="257.667" cy="384.022" rx="6.014" ry="5.53"/>
<path stroke="#FFFFFF" stroke-miterlimit="10" d="M249.434,386.721c0,0,19.891,18.03,13.518-7.551l-1.533,4.341l-4.139-1.172
	l-0.662,4.485L249.434,386.721z"/>
<ellipse transform="matrix(0.8106 -0.5856 0.5856 0.8106 -181.1098 229.6758)" cx="264.544" cy="394.85" rx="6.683" ry="6.146"/>
<path stroke="#FFFFFF" stroke-miterlimit="10" d="M255.806,398.887c0,0,24.272,17.339,13.948-10.074l-1.134,4.988l-4.718-0.76
	l-0.153,5.036L255.806,398.887z"/>
<ellipse transform="matrix(0.7158 -0.6983 0.6983 0.7158 -206.0128 306.476)" cx="273.512" cy="406.333" rx="7.426" ry="6.829"/>
<path stroke="#FFFFFF" stroke-miterlimit="10" d="M264.567,412.197c0,0,29.507,15.094,13.685-13.349l-0.432,5.668l-5.311-0.065
	l0.655,5.56L264.567,412.197z"/>
<ellipse transform="matrix(0.7134 -0.7008 0.7008 0.7134 -210.5321 318.6301)" cx="284.245" cy="416.681" rx="8.229" ry="7.567"/>
<path stroke="#FFFFFF" stroke-miterlimit="10" d="M274.355,423.215c0,0,32.757,16.614,15.114-14.848l-0.457,6.284l-5.886-0.053
	l0.749,6.159L274.355,423.215z"/>
<g>
	<path fill="#FFFFFF" d="M309.492,413.121c-1.564,2.214-1.037,5.283,1.179,6.847c2.218,1.566,5.284,1.039,6.848-1.176
		c1.567-2.218,1.038-5.282-1.18-6.85C314.124,410.376,311.058,410.904,309.492,413.121z M315.914,417.657
		c-0.939,1.33-2.778,1.646-4.109,0.706c-1.33-0.94-1.646-2.779-0.707-4.107c0.939-1.33,2.779-1.648,4.109-0.709
		C316.536,414.487,316.854,416.326,315.914,417.657z"/>
	<path fill="#FFFFFF" d="M306.702,430.361c-1.565,2.216-1.038,5.281,1.178,6.847c2.218,1.567,5.283,1.039,6.85-1.177
		c1.564-2.218,1.038-5.282-1.18-6.848C311.333,427.618,308.268,428.145,306.702,430.361z M313.124,434.897
		c-0.939,1.33-2.778,1.646-4.109,0.706c-1.33-0.94-1.647-2.779-0.707-4.109c0.938-1.328,2.777-1.645,4.108-0.706
		C313.747,431.729,314.063,433.567,313.124,434.897z"/>
	<path fill="#FFFFFF" d="M315.743,397.583c-1.565,2.217-1.037,5.282,1.18,6.847c2.219,1.567,5.284,1.041,6.848-1.177
		c1.566-2.217,1.039-5.28-1.178-6.848C320.376,394.84,317.309,395.366,315.743,397.583z M322.166,402.12
		c-0.94,1.329-2.779,1.646-4.11,0.705c-1.328-0.938-1.646-2.778-0.706-4.107c0.938-1.328,2.779-1.646,4.108-0.706
		C322.788,398.95,323.105,400.791,322.166,402.12z"/>
	<path fill="#FFFFFF" d="M325.043,382.588c-1.564,2.217-1.038,5.282,1.179,6.847c2.218,1.567,5.283,1.039,6.849-1.177
		c1.565-2.217,1.037-5.282-1.18-6.849C329.674,379.842,326.61,380.371,325.043,382.588z M331.464,387.125
		c-0.938,1.328-2.777,1.645-4.109,0.705c-1.329-0.939-1.646-2.78-0.706-4.108c0.939-1.329,2.778-1.646,4.107-0.706
		C332.088,383.955,332.404,385.794,331.464,387.125z"/>
	<path fill="#FFFFFF" d="M336.512,368.182c-1.565,2.216-1.037,5.281,1.18,6.847c2.218,1.567,5.282,1.039,6.849-1.176
		c1.565-2.218,1.037-5.283-1.18-6.851C341.144,365.438,338.078,365.965,336.512,368.182z M342.936,372.718
		c-0.94,1.328-2.781,1.646-4.111,0.706c-1.33-0.938-1.645-2.779-0.706-4.109c0.94-1.33,2.778-1.645,4.107-0.706
		C343.556,369.549,343.874,371.388,342.936,372.718z"/>
	<path fill="#FFFFFF" d="M349.188,356.924c-1.566,2.216-1.039,5.282,1.178,6.849c2.219,1.565,5.282,1.037,6.848-1.18
		c1.566-2.214,1.039-5.279-1.178-6.847C353.818,354.18,350.751,354.709,349.188,356.924z M355.607,361.46
		c-0.938,1.33-2.778,1.646-4.107,0.706c-1.33-0.938-1.647-2.777-0.707-4.107c0.938-1.33,2.778-1.646,4.108-0.708
		C356.23,358.291,356.548,360.13,355.607,361.46z"/>
	<path fill="#FFFFFF" d="M363.541,346.952c-1.565,2.217-1.04,5.281,1.177,6.849c2.219,1.565,5.284,1.037,6.85-1.179
		c1.565-2.215,1.039-5.283-1.178-6.85C368.171,344.207,365.105,344.735,363.541,346.952z M369.961,351.488
		c-0.938,1.33-2.777,1.646-4.107,0.706c-1.33-0.938-1.646-2.779-0.708-4.107c0.939-1.33,2.779-1.646,4.107-0.708
		C370.585,348.319,370.901,350.16,369.961,351.488z"/>
	<path fill="#FFFFFF" d="M310.863,410.248l7.793,3.704l4.013-8.443l-7.794-3.703L310.863,410.248z M320.443,406.841l-2.16,4.545
		l-4.545-2.158l2.161-4.548L320.443,406.841z"/>
	<path fill="#FFFFFF" d="M306.3,428.101l8.493,1.527l1.653-9.201l-8.493-1.525L306.3,428.101z M314.649,422.297l-0.892,4.952
		l-4.953-0.889l0.89-4.954L314.649,422.297z"/>
	<path fill="#FFFFFF" d="M317.506,394.636l7.244,4.685l5.077-7.847l-7.244-4.687L317.506,394.636z M327.448,392.503l-2.735,4.227
		l-4.224-2.733l2.733-4.226L327.448,392.503z"/>
	<path fill="#FFFFFF" d="M306.703,440.252l7.245,4.687l5.077-7.849l-7.244-4.686L306.703,440.252z M316.646,438.121l-2.733,4.226
		l-4.228-2.734l2.734-4.226L316.646,438.121z"/>
	<path fill="#FFFFFF" d="M340.537,365.477l6.096,6.106l6.615-6.603l-6.096-6.107L340.537,365.477z M343.59,365.48l3.56-3.557
		l3.557,3.562l-3.563,3.557L343.59,365.48z"/>
	<path fill="#FFFFFF" d="M354.455,353.416l4.833,7.146l7.743-5.237l-4.834-7.146L354.455,353.416z M357.451,353.993l4.169-2.818
		l2.819,4.167l-4.169,2.821L357.451,353.993z"/>
	<path fill="#FFFFFF" d="M327.937,379.207l6.839,5.263l5.699-7.408l-6.839-5.264L327.937,379.207z M330.962,378.814l3.068-3.991
		l3.988,3.07l-3.067,3.989L330.962,378.814z"/>
	<path fill="#FFFFFF" d="M368.455,352.17l6.839,5.262l5.699-7.409l-6.839-5.262L368.455,352.17z M371.48,351.774l3.068-3.988
		l3.989,3.07l-3.068,3.986L371.48,351.774z"/>
	<path fill="#FFFFFF" d="M336.894,426.461c-2.217-1.566-5.284-1.039-6.849,1.178c-1.563,2.216-1.037,5.281,1.18,6.849
		c2.218,1.565,5.282,1.037,6.847-1.179C339.638,431.092,339.11,428.025,336.894,426.461z M335.759,428.065
		c1.332,0.94,1.646,2.779,0.708,4.109c-0.94,1.33-2.779,1.646-4.107,0.708c-1.332-0.941-1.648-2.78-0.709-4.111
		C332.589,427.441,334.43,427.125,335.759,428.065z"/>
	<path fill="#FFFFFF" d="M321.578,434.854c-2.217-1.565-5.284-1.04-6.849,1.178c-1.566,2.216-1.037,5.281,1.18,6.847
		c2.216,1.566,5.281,1.039,6.849-1.176C324.322,439.484,323.795,436.418,321.578,434.854z M320.443,436.458
		c1.33,0.94,1.646,2.779,0.708,4.109c-0.94,1.328-2.779,1.646-4.109,0.708c-1.331-0.94-1.646-2.781-0.708-4.111
		C317.273,435.835,319.112,435.518,320.443,436.458z"/>
	<path fill="#FFFFFF" d="M349.447,415.374c-2.217-1.565-5.284-1.037-6.848,1.178c-1.566,2.216-1.038,5.282,1.18,6.849
		c2.217,1.565,5.282,1.039,6.848-1.177C352.191,420.007,351.664,416.939,349.447,415.374z M348.313,416.98
		c1.329,0.938,1.645,2.777,0.707,4.109c-0.94,1.33-2.779,1.646-4.109,0.706c-1.329-0.939-1.646-2.779-0.707-4.109
		C345.143,416.356,346.983,416.04,348.313,416.98z"/>
	<path fill="#FFFFFF" d="M360.473,401.597c-2.217-1.565-5.284-1.037-6.849,1.18c-1.565,2.216-1.039,5.282,1.179,6.849
		c2.217,1.564,5.282,1.037,6.847-1.18C363.217,406.229,362.689,403.164,360.473,401.597z M359.338,403.203
		c1.329,0.938,1.646,2.777,0.706,4.109c-0.938,1.328-2.779,1.645-4.107,0.706c-1.331-0.94-1.646-2.779-0.707-4.107
		C356.168,402.581,358.007,402.263,359.338,403.203z"/>
	<path fill="#FFFFFF" d="M370.217,385.973c-2.218-1.567-5.284-1.039-6.851,1.177c-1.565,2.217-1.037,5.282,1.182,6.848
		c2.216,1.566,5.281,1.041,6.847-1.176C372.962,390.604,372.434,387.539,370.217,385.973z M369.08,387.577
		c1.332,0.939,1.648,2.779,0.71,4.109c-0.939,1.33-2.779,1.646-4.109,0.706c-1.331-0.938-1.646-2.779-0.708-4.109
		C365.912,386.954,367.752,386.639,369.08,387.577z"/>
	<path fill="#FFFFFF" d="M376.59,370.265c-2.218-1.565-5.284-1.037-6.849,1.178c-1.565,2.216-1.039,5.281,1.178,6.849
		c2.218,1.565,5.283,1.037,6.851-1.178C379.333,374.896,378.807,371.831,376.59,370.265z M375.453,371.869
		c1.332,0.94,1.648,2.779,0.71,4.107c-0.939,1.33-2.779,1.648-4.109,0.71c-1.331-0.94-1.646-2.781-0.708-4.111
		C372.285,371.247,374.124,370.931,375.453,371.869z"/>
	<path fill="#FFFFFF" d="M381.19,353.403c-2.218-1.566-5.284-1.038-6.851,1.178c-1.563,2.215-1.037,5.282,1.182,6.85
		c2.217,1.565,5.28,1.036,6.847-1.18C383.934,358.036,383.407,354.969,381.19,353.403z M380.056,355.009
		c1.328,0.939,1.646,2.778,0.706,4.108c-0.938,1.329-2.777,1.646-4.109,0.707c-1.328-0.94-1.646-2.779-0.708-4.109
		C376.884,354.386,378.725,354.068,380.056,355.009z"/>
	<path fill="#FFFFFF" d="M346.937,424.454l-6.096-6.108l-6.615,6.603l6.095,6.108L346.937,424.454z M343.886,424.449l-3.562,3.555
		l-3.557-3.56l3.563-3.557L343.886,424.449z"/>
	<path fill="#FFFFFF" d="M333.138,436.691l-4.275-7.493l-8.118,4.633l4.275,7.494L333.138,436.691z M330.194,435.888l-4.37,2.495
		l-2.494-4.371l4.37-2.496L330.194,435.888z"/>
	<path fill="#FFFFFF" d="M358.514,412.168l-6.838-5.261l-5.697,7.408l6.836,5.262L358.514,412.168z M355.491,412.563l-3.07,3.989
		l-3.988-3.068l3.067-3.989L355.491,412.563z"/>
	<path fill="#FFFFFF" d="M376.609,379.681l-7.792-3.704l-4.011,8.443l7.792,3.704L376.609,379.681z M367.031,383.089l2.159-4.546
		l4.546,2.159l-2.161,4.547L367.031,383.089z"/>
	<path fill="#FFFFFF" d="M381.66,361.927l-8.351-2.167l-2.349,9.049l8.353,2.166L381.66,361.927z M372.896,367.08l1.266-4.872
		l4.872,1.266l-1.266,4.871L372.896,367.08z"/>
	<path fill="#FFFFFF" d="M368.946,396.741l-7.245-4.687l-5.077,7.849l7.245,4.687L368.946,396.741z M359.002,398.873l2.736-4.226
		l4.226,2.733l-2.733,4.226L359.002,398.873z"/>
</g>
<path stroke="#FFFFFF" stroke-miterlimit="10" d="M330.5,303.5h-71v59.145c0,0,5.302,32.156,34.673,39.14
	c0,0,28.327-2.323,36.327-39.14V303.5z"/>
<polygon fill="#FFFFFF" points="296.212,358.241 314.011,370.625 307.731,349.872 325.01,336.771 303.332,336.329 296.212,315.847 
	289.092,336.329 267.413,336.771 284.693,349.872 278.413,370.625 "/>
<g>
	<path d="M152.697,511.398c-1.221,1.306-2.558,1.896-4.011,1.767c-1.33-0.113-2.683-0.813-4.06-2.1
		c-0.153-0.142-0.497-0.501-1.032-1.074c-0.534-0.577-0.979-1.029-1.335-1.362c-0.575-0.538-1.067-0.921-1.476-1.15
		c-0.258-0.143-0.317-0.321-0.174-0.545c0.125-0.198,0.389-0.237,0.791-0.116c0.468,0.135,0.81,0.18,1.026,0.141
		c0.305-0.044,0.641-0.262,1.008-0.656l8.896-9.525c0.6-0.644,0.657-1.331,0.169-2.065c-0.24-0.363-0.285-0.628-0.132-0.79
		c0.188-0.203,0.345-0.286,0.468-0.247c0.082,0.026,0.208,0.15,0.38,0.373c0.209,0.275,0.596,0.673,1.161,1.201
		c0.31,0.289,0.823,0.748,1.539,1.38c0.716,0.628,1.159,1.024,1.328,1.183c1.049,0.979,1.655,1.987,1.816,3.025
		c0.185,1.16-0.208,2.259-1.176,3.295c-1.289,1.381-2.883,1.687-4.781,0.914c-0.216-0.089-0.254-0.034-0.116,0.158
		C154.563,507.437,154.466,509.502,152.697,511.398z M150.744,510.011c1.049-1.123,1.526-2.263,1.431-3.416
		c-0.081-0.989-0.553-1.884-1.416-2.688c-0.503-0.469-0.946-0.816-1.332-1.036l-4.694,5.026c-0.607,0.651-0.349,1.5,0.774,2.547
		C147.227,512.052,148.973,511.907,150.744,510.011z M156.004,502.698c0.827-0.887,1.241-1.701,1.238-2.446
		c-0.002-0.743-0.416-1.499-1.239-2.271c-0.654-0.61-1.115-0.822-1.381-0.642c-0.062,0.044-0.134,0.11-0.216,0.197l-4.116,4.41
		l0.745,0.695c0.936,0.874,1.794,1.321,2.575,1.339C154.39,503.999,155.188,503.573,156.004,502.698z"/>
	<path d="M167.33,529.298c-0.148,0.19-0.258,0.291-0.332,0.304c-0.074,0.013-0.194-0.062-0.359-0.227
		c-1.097-1.053-2.276-2.021-3.538-2.9c-0.248-0.171-0.387-0.304-0.414-0.402c-0.027-0.097,0.028-0.232,0.166-0.408
		c0.181-0.234,0.454-0.251,0.817-0.049c0.573,0.316,1.086,0.188,1.536-0.388l3.359-4.308c0.244-0.313,0.378-0.547,0.399-0.702
		c0.022-0.151-0.079-0.316-0.305-0.492l-6.455-5.035c-0.268-0.209-0.465-0.298-0.592-0.269c-0.127,0.032-0.321,0.215-0.583,0.551
		l-3.392,4.349c-0.325,0.417-0.201,1.042,0.373,1.878c0.248,0.37,0.305,0.643,0.168,0.819c-0.143,0.183-0.258,0.274-0.347,0.274
		c-0.089,0.002-0.253-0.104-0.491-0.313c-1.16-1.009-2.384-1.918-3.675-2.725c-0.199-0.119-0.302-0.216-0.307-0.292
		c-0.004-0.076,0.066-0.207,0.214-0.396c0.148-0.188,0.364-0.198,0.649-0.022c0.653,0.392,1.256,0.232,1.808-0.474l8.204-10.521
		c0.53-0.678,0.525-1.369-0.014-2.07c-0.191-0.255-0.298-0.418-0.317-0.486c-0.021-0.069,0.018-0.165,0.115-0.289
		c0.074-0.096,0.134-0.16,0.181-0.194c0.145-0.109,0.37-0.028,0.676,0.244c1.459,1.305,2.701,2.272,3.725,2.905
		c0.182,0.118,0.282,0.22,0.299,0.306c0.018,0.084-0.044,0.215-0.187,0.399c-0.108,0.139-0.328,0.137-0.66-0.002
		c-0.583-0.257-0.953-0.385-1.107-0.388c-0.303-0.003-0.627,0.222-0.975,0.666l-2.888,3.702c-0.399,0.514-0.391,0.931,0.023,1.252
		l6.354,4.956c0.25,0.195,0.431,0.282,0.542,0.267c0.16-0.029,0.388-0.234,0.685-0.612l2.939-3.771
		c0.308-0.396,0.427-0.724,0.359-0.988c-0.035-0.157-0.222-0.444-0.563-0.861c-0.278-0.346-0.348-0.606-0.211-0.782
		c0.153-0.197,0.281-0.298,0.382-0.301c0.1-0.005,0.267,0.106,0.5,0.338c0.613,0.605,1.292,1.165,2.038,1.678
		c0.529,0.364,1.063,0.729,1.603,1.09c0.17,0.135,0.264,0.236,0.282,0.308c0.016,0.072-0.052,0.205-0.205,0.405
		c-0.149,0.189-0.368,0.2-0.658,0.032c-0.738-0.435-1.369-0.316-1.893,0.355l-8.417,10.793c-0.279,0.358-0.379,0.703-0.296,1.037
		c0.067,0.265,0.285,0.64,0.65,1.125C167.404,528.933,167.449,529.145,167.33,529.298z"/>
	<path d="M186.221,520.676c-0.128,0.193-0.407,0.235-0.836,0.129c-0.963-0.24-1.592-0.138-1.891,0.311l-7.491,11.253
		c-0.481,0.728-0.418,1.404,0.193,2.032c0.302,0.311,0.378,0.579,0.229,0.804c-0.128,0.192-0.238,0.292-0.33,0.297
		c-0.092,0.007-0.268-0.089-0.528-0.284c-1.639-1.214-2.951-2.086-3.932-2.617c-0.253-0.135-0.356-0.281-0.307-0.437
		c0.022-0.063,0.07-0.148,0.142-0.257c0.102-0.154,0.324-0.175,0.665-0.059c0.637,0.214,1.017,0.316,1.142,0.311
		c0.309-0.018,0.622-0.266,0.94-0.743l7.552-11.349c0.426-0.64,0.328-1.271-0.294-1.897c-0.26-0.262-0.337-0.475-0.229-0.637
		c0.149-0.225,0.265-0.344,0.346-0.361c0.082-0.02,0.204,0.042,0.369,0.186c1.145,0.997,2.45,1.844,3.915,2.54
		c0.276,0.128,0.431,0.215,0.467,0.261C186.42,520.264,186.38,520.437,186.221,520.676z"/>
	<path d="M204.754,531.475c-0.114,0.202-0.388,0.267-0.824,0.192c-0.961-0.183-1.681,0.151-2.157,1l-4.898,8.708
		c-1.03,1.832-1.841,3.32-2.432,4.467c-0.227,0.436-0.448,0.63-0.661,0.586c-0.354-0.084-0.502-0.415-0.447-1.002
		c0.095-0.956-0.161-3.587-0.768-7.894c-0.512-3.594-1.057-6.987-1.635-10.182c-0.019-0.104-0.068-0.16-0.147-0.16
		c-0.089,0-0.176,0.074-0.258,0.22l-5.585,9.932c-0.599,1.066-0.508,1.952,0.273,2.656c0.32,0.298,0.417,0.56,0.289,0.784
		c-0.173,0.307-0.459,0.331-0.864,0.072c-1.556-0.98-2.801-1.682-3.734-2.101c-0.303-0.139-0.369-0.361-0.197-0.667
		c0.096-0.17,0.309-0.209,0.639-0.121c0.6,0.148,1.057,0.146,1.374-0.007c0.315-0.151,0.641-0.526,0.977-1.123l6.029-10.72
		c0.263-0.469,0.384-0.873,0.364-1.214c-0.028-0.313-0.195-0.716-0.503-1.208c-0.225-0.372-0.276-0.65-0.154-0.837
		c0.143-0.206,0.342-0.206,0.597,0.003c0.792,0.637,1.531,1.094,2.215,1.373c0.353,0.145,0.565,0.463,0.637,0.949l2.375,15.57
		c0.028,0.218,0.063,0.338,0.103,0.36c0.054,0.031,0.143-0.064,0.265-0.281l4.924-8.757c0.577-1.024,0.47-1.882-0.321-2.57
		c-0.278-0.242-0.374-0.444-0.283-0.606c0.191-0.339,0.42-0.407,0.687-0.203c1.021,0.766,2.262,1.441,3.722,2.027
		c0.252,0.101,0.406,0.182,0.46,0.244C204.906,531.072,204.886,531.242,204.754,531.475z"/>
	<path d="M223.742,539.911c-0.093,0.212-0.359,0.304-0.801,0.271c-0.975-0.081-1.657,0.323-2.046,1.215l-3.994,9.157
		c-0.841,1.927-1.498,3.49-1.97,4.689c-0.182,0.454-0.382,0.672-0.599,0.648c-0.359-0.047-0.541-0.362-0.545-0.95
		c-0.002-0.962-0.523-3.552-1.561-7.776c-0.872-3.522-1.755-6.845-2.652-9.963c-0.03-0.105-0.084-0.154-0.163-0.147
		c-0.089,0.01-0.167,0.092-0.234,0.246l-4.556,10.441c-0.489,1.123-0.31,1.994,0.54,2.618c0.348,0.262,0.47,0.512,0.368,0.75
		c-0.141,0.322-0.426,0.374-0.853,0.158c-1.646-0.818-2.956-1.39-3.927-1.713c-0.316-0.105-0.403-0.322-0.262-0.645
		c0.077-0.178,0.285-0.238,0.623-0.184c0.611,0.086,1.066,0.036,1.365-0.146c0.297-0.183,0.585-0.588,0.859-1.219l4.917-11.269
		c0.215-0.493,0.294-0.907,0.239-1.246c-0.059-0.309-0.266-0.691-0.622-1.149c-0.262-0.346-0.341-0.618-0.237-0.817
		c0.121-0.22,0.319-0.239,0.594-0.058c0.854,0.554,1.634,0.936,2.343,1.142c0.365,0.11,0.608,0.401,0.729,0.88l3.933,15.254
		c0.05,0.211,0.096,0.329,0.138,0.347c0.057,0.026,0.135-0.077,0.236-0.305l4.017-9.209c0.469-1.08,0.276-1.92-0.579-2.526
		c-0.303-0.215-0.417-0.403-0.343-0.575c0.155-0.356,0.375-0.447,0.661-0.272c1.095,0.659,2.397,1.208,3.908,1.645
		c0.261,0.074,0.423,0.139,0.482,0.195C223.853,539.494,223.851,539.664,223.742,539.911z"/>
	<path d="M233.394,558.478c-0.555,0.975-1.043,1.984-1.465,3.025c-0.063,0.163-0.311,0.16-0.74-0.015
		c-1.119-0.452-2.564-0.975-4.334-1.569c-1.948-0.649-3.639-1.168-5.073-1.551c-0.321-0.089-0.427-0.296-0.318-0.621
		c0.077-0.228,0.278-0.307,0.605-0.235c0.459,0.085,0.775,0.077,0.947-0.021c0.211-0.123,0.414-0.467,0.601-1.029l4.064-12.135
		c0.273-0.816,0.384-1.353,0.331-1.609c-0.052-0.259-0.326-0.587-0.817-0.986c-0.263-0.215-0.301-0.465-0.114-0.755
		c0.092-0.154,0.182-0.228,0.269-0.218c0.082-0.003,0.27,0.081,0.564,0.247c0.439,0.246,1.647,0.698,3.624,1.36
		c1.968,0.658,3.681,1.174,5.136,1.544c0.487,0.124,0.712,0.243,0.674,0.358c-0.015,0.044-0.036,0.084-0.066,0.123
		c-0.442,0.81-0.839,1.775-1.19,2.898c-0.084,0.276-0.236,0.375-0.455,0.303c-0.206-0.07-0.309-0.234-0.31-0.5
		c0.001-0.682-0.04-1.161-0.12-1.432c-0.122-0.412-0.388-0.735-0.797-0.971c-0.325-0.197-1.549-0.649-3.672-1.36
		c-0.241-0.081-0.411-0.084-0.509-0.01c-0.055,0.038-0.117,0.166-0.188,0.376l-1.845,5.509c-0.073,0.22-0.004,0.365,0.208,0.435
		c0.679,0.207,1.664,0.476,2.956,0.8c0.229,0.049,0.433-0.025,0.611-0.222c0.14-0.146,0.347-0.484,0.619-1.008
		c0.192-0.355,0.411-0.434,0.654-0.234c0.231,0.134,0.292,0.306,0.181,0.514c-0.605,1.127-1.192,2.658-1.759,4.599
		c-0.064,0.214-0.227,0.3-0.491,0.261c-0.232-0.039-0.311-0.225-0.238-0.564c0.152-0.699,0.208-1.176,0.167-1.432
		c-0.042-0.252-0.213-0.452-0.513-0.603c-0.57-0.289-1.463-0.637-2.678-1.042c-0.131-0.045-0.219-0.007-0.26,0.116l-1.923,5.746
		c-0.273,0.816-0.045,1.448,0.683,1.898c0.183,0.11,0.86,0.36,2.032,0.753c1.822,0.611,3.217,0.227,4.182-1.148
		c0.231-0.325,0.45-0.382,0.658-0.176C233.493,558.046,233.53,558.238,233.394,558.478z"/>
	<path d="M251.589,566.295c-0.053,0.217-0.111,0.347-0.173,0.389c-0.063,0.042-0.19,0.033-0.383-0.024
		c-1.915-0.579-3.47-0.915-4.663-1.012c-0.289-0.024-0.433-0.134-0.43-0.335c0.009-0.226,0.212-0.391,0.611-0.492
		c0.237-0.055,0.394-0.242,0.472-0.556c0.077-0.315,0.034-0.65-0.133-1.006c-0.729-1.556-2.008-4.11-3.841-7.664l-1.572,6.353
		c-0.126,0.512,0.219,1.027,1.038,1.545c0.363,0.234,0.519,0.457,0.465,0.672c-0.056,0.225-0.124,0.357-0.205,0.395
		c-0.082,0.037-0.258,0.013-0.531-0.074c-1.309-0.401-2.783-0.728-4.422-0.979c-0.313-0.05-0.428-0.244-0.343-0.587
		c0.057-0.234,0.245-0.329,0.562-0.291c0.728,0.076,1.2-0.318,1.413-1.181l3.204-12.946c0.207-0.838-0.056-1.461-0.79-1.873
		c-0.256-0.15-0.411-0.252-0.46-0.306c-0.049-0.058-0.055-0.16-0.017-0.313c0.053-0.217,0.12-0.344,0.203-0.386
		c0.082-0.041,0.278-0.015,0.588,0.082c1.85,0.59,3.344,0.962,4.485,1.108c0.331,0.044,0.453,0.242,0.366,0.593
		c-0.043,0.17-0.236,0.261-0.581,0.271c-0.615,0.011-0.99,0.05-1.127,0.122c-0.262,0.126-0.459,0.458-0.594,0.999l-1.459,5.894
		c2.639-1.599,4.78-2.939,6.424-4.021c0.481-0.311,0.768-0.646,0.855-1.005c0.09-0.359-0.05-0.683-0.416-0.962
		c-0.216-0.16-0.329-0.249-0.339-0.271c-0.093-0.108-0.1-0.254-0.024-0.435c0.074-0.204,0.15-0.312,0.226-0.331
		c0.086-0.026,0.259,0.025,0.521,0.156c1.409,0.542,2.739,0.888,3.989,1.046c0.191,0.027,0.308,0.072,0.35,0.129
		c0.041,0.059,0.051,0.194,0.029,0.409c-0.014,0.188-0.064,0.307-0.147,0.355c-0.084,0.052-0.269,0.09-0.553,0.114
		c-0.769,0.086-1.819,0.522-3.151,1.311c-0.987,0.575-3.064,1.826-6.237,3.752c1.965,3.817,3.521,6.755,4.665,8.813
		c0.5,0.906,1.076,1.564,1.73,1.973C251.502,565.927,251.633,566.116,251.589,566.295z"/>
	<path d="M271.582,569.797c-0.084,0.239-0.156,0.377-0.215,0.414c-0.053,0.03-0.158,0.003-0.318-0.074
		c-1.053-0.409-2.644-0.683-4.769-0.826c-0.403-0.025-0.606-0.15-0.61-0.375c0.001-0.263,0.158-0.441,0.47-0.533
		c0.885-0.276,1.355-0.586,1.41-0.936c0.02-0.136,0.006-0.341-0.044-0.61c-0.315-1.707-0.58-3.085-0.801-4.132
		c-0.547-0.047-1.504-0.177-2.869-0.388c-1.129-0.177-2.085-0.362-2.866-0.558c-0.391,0.744-0.934,1.785-1.634,3.121
		c-0.157,0.303-0.254,0.582-0.294,0.841c-0.08,0.511,0.094,0.923,0.522,1.233c0.66,0.478,0.968,0.811,0.923,1.001
		c-0.063,0.309-0.322,0.395-0.778,0.259c-1.406-0.404-2.742-0.556-4.008-0.454c-0.333,0.032-0.492-0.132-0.473-0.496
		c0.006-0.24,0.294-0.46,0.863-0.652c0.608-0.196,1.187-0.777,1.734-1.74c2.088-3.641,3.445-6.037,4.069-7.188
		c1.505-2.756,2.62-5.025,3.341-6.807c0.105-0.274,0.446-0.493,1.028-0.657c0.138-0.034,0.261,0.257,0.369,0.874
		c0.909,5.014,1.965,10.39,3.168,16.126c0.195,0.912,0.659,1.571,1.392,1.975C271.524,569.389,271.655,569.582,271.582,569.797z
		 M266.492,561.595c-0.29-1.451-0.747-3.702-1.365-6.749c-0.039-0.165-0.094-0.254-0.17-0.266c-0.077-0.012-0.153,0.057-0.23,0.202
		l-3.168,5.991c0.805,0.201,1.714,0.379,2.728,0.537C264.913,561.407,265.647,561.503,266.492,561.595z"/>
	<path d="M298.56,557.767c-0.014,0.165-0.036,0.278-0.065,0.338c-0.03,0.058-0.111,0.099-0.242,0.123
		c-0.288,0.064-0.473-0.073-0.554-0.409c-0.288-1.242-0.652-2.074-1.093-2.5c-0.613-0.586-1.709-0.908-3.291-0.963
		c-0.64-0.022-0.995,0.049-1.062,0.212c-0.025,0.057-0.04,0.134-0.044,0.235l-0.486,13.846c-0.02,0.593,0.081,1.012,0.305,1.255
		c0.222,0.244,0.673,0.476,1.354,0.693c0.29,0.086,0.455,0.143,0.493,0.172c0.104,0.085,0.136,0.263,0.096,0.529
		c-0.03,0.214-0.12,0.327-0.267,0.338c-0.017,0.01-0.174-0.01-0.473-0.057c-2.031-0.284-3.713-0.354-5.045-0.205
		c-0.318,0.036-0.522,0.027-0.612-0.021c-0.077-0.049-0.123-0.164-0.141-0.34c-0.051-0.299,0.091-0.491,0.427-0.582
		c0.67-0.181,1.126-0.41,1.367-0.689c0.274-0.313,0.423-0.834,0.448-1.555l0.474-13.457c0.009-0.269-0.125-0.432-0.4-0.486
		c-0.031-0.01-0.259-0.022-0.683-0.039c-1.465-0.05-2.556,0.217-3.272,0.804c-0.541,0.436-1.038,1.252-1.487,2.451
		c-0.146,0.375-0.332,0.492-0.558,0.356c-0.261-0.085-0.351-0.26-0.27-0.524c0.304-0.989,0.487-2.396,0.553-4.223
		c0.006-0.212,0.245-0.292,0.715-0.237c1.661,0.188,3.502,0.316,5.524,0.388c3.827,0.134,6.31,0.129,7.45-0.017
		c0.436-0.058,0.668,0.032,0.697,0.275C298.591,554.718,298.639,556.146,298.56,557.767z"/>
	<path d="M318.688,552.833c0.01,0.187-0.155,0.338-0.496,0.459c-0.591,0.2-0.964,0.39-1.116,0.564
		c-0.203,0.244-0.286,0.682-0.25,1.311l0.447,7.948c0.146,2.544-0.296,4.534-1.318,5.976c-1.054,1.488-2.654,2.293-4.805,2.414
		c-4.548,0.257-6.966-2.182-7.256-7.313l-0.471-8.323c-0.051-0.879-0.509-1.387-1.375-1.522c-0.297-0.048-0.479-0.1-0.547-0.151
		c-0.069-0.051-0.107-0.16-0.117-0.327c-0.016-0.285,0.033-0.457,0.145-0.507c0.053-0.032,0.234-0.047,0.543-0.047
		c2.082,0.013,3.664-0.076,4.751-0.269c0.23-0.042,0.372-0.034,0.425,0.018c0.054,0.052,0.088,0.209,0.102,0.469
		c0.012,0.194-0.146,0.346-0.471,0.457c-0.64,0.204-1.006,0.345-1.103,0.424c-0.236,0.2-0.338,0.585-0.306,1.158l0.453,8.019
		c0.134,2.359,0.641,4.065,1.52,5.119c0.879,1.057,2.223,1.532,4.035,1.429c3.104-0.177,4.536-2.409,4.297-6.701l-0.454-7.991
		c-0.035-0.627-0.196-1.076-0.482-1.349c-0.229-0.229-0.616-0.382-1.162-0.463c-0.43-0.069-0.65-0.228-0.664-0.478
		c-0.018-0.286,0.034-0.458,0.154-0.51c0.046-0.022,0.228-0.037,0.545-0.045c2.146-0.02,3.623-0.104,4.426-0.25
		c0.308-0.056,0.48,0.01,0.522,0.193C318.671,552.608,318.681,552.706,318.688,552.833z"/>
	<path d="M339.128,549.594c0.036,0.23-0.142,0.45-0.531,0.661c-0.864,0.454-1.224,1.161-1.074,2.123l1.541,9.87
		c0.326,2.077,0.609,3.75,0.854,5.014c0.091,0.483,0.041,0.771-0.158,0.869c-0.326,0.153-0.649-0.018-0.969-0.512
		c-0.518-0.809-2.347-2.715-5.489-5.723c-2.626-2.506-5.153-4.834-7.584-6.986c-0.081-0.073-0.153-0.083-0.217-0.036
		c-0.069,0.057-0.09,0.168-0.063,0.333l1.757,11.258c0.188,1.207,0.808,1.848,1.857,1.918c0.436,0.034,0.673,0.182,0.713,0.435
		c0.055,0.35-0.156,0.547-0.633,0.594c-1.83,0.19-3.242,0.412-4.234,0.661c-0.323,0.079-0.511-0.057-0.567-0.402
		c-0.028-0.194,0.113-0.357,0.427-0.49c0.563-0.257,0.921-0.543,1.076-0.857c0.152-0.314,0.177-0.811,0.071-1.487l-1.896-12.149
		c-0.085-0.53-0.239-0.925-0.468-1.18c-0.215-0.229-0.596-0.441-1.141-0.637c-0.407-0.152-0.62-0.34-0.64-0.561
		c-0.015-0.251,0.141-0.375,0.47-0.37c1.019,0.011,1.881-0.088,2.592-0.291c0.365-0.105,0.728,0.013,1.086,0.349l11.502,10.764
		c0.157,0.153,0.258,0.227,0.303,0.218c0.062-0.008,0.074-0.137,0.035-0.383l-1.551-9.926c-0.183-1.164-0.797-1.77-1.843-1.821
		c-0.369-0.02-0.57-0.118-0.599-0.301c-0.059-0.385,0.079-0.58,0.411-0.587c1.277-0.028,2.67-0.265,4.181-0.707
		c0.262-0.079,0.432-0.11,0.513-0.094C338.997,549.185,339.086,549.33,339.128,549.594z"/>
	<path d="M360.759,554.155c0.076,0.286-0.055,0.507-0.392,0.661c-0.468,0.218-0.739,0.354-0.814,0.412
		c-0.232,0.203-0.302,0.497-0.201,0.884l1.091,4.209c0.137,0.53-0.293,1.244-1.287,2.145c-1.119,1.007-2.486,1.72-4.101,2.136
		c-2.347,0.609-4.519,0.275-6.514-0.996c-2.024-1.295-3.382-3.272-4.072-5.936c-0.703-2.718-0.469-5.19,0.7-7.417
		c1.134-2.149,2.814-3.513,5.041-4.09c1.71-0.442,3.229-0.572,4.552-0.388c0.977,0.131,1.527,0.37,1.658,0.719
		c0.251,0.662,0.55,1.663,0.896,2.998c0.077,0.295-0.036,0.492-0.338,0.59c-0.354,0.111-0.607,0.047-0.755-0.191
		c-0.76-1.231-1.583-2.044-2.479-2.438c-0.896-0.396-1.994-0.425-3.295-0.089c-1.794,0.464-3.025,1.488-3.69,3.069
		c-0.684,1.64-0.695,3.737-0.034,6.294c0.64,2.467,1.75,4.296,3.337,5.492c1.538,1.173,3.219,1.521,5.043,1.049
		c0.935-0.241,1.752-0.668,2.455-1.28c0.669-0.585,0.954-1.074,0.852-1.469l-0.725-2.799c-0.171-0.664-0.408-1.115-0.707-1.351
		c-0.266-0.22-0.712-0.359-1.342-0.415c-0.464-0.042-0.714-0.173-0.746-0.395c-0.031-0.241-0.018-0.397,0.038-0.472
		c0.059-0.07,0.238-0.123,0.542-0.152c1.651-0.18,3.202-0.561,4.653-1.147c0.079-0.03,0.147-0.052,0.199-0.065
		C360.527,553.67,360.671,553.813,360.759,554.155z"/>
	<path d="M380.101,547.288c0.103,0.277-0.01,0.51-0.328,0.694c-0.445,0.262-0.702,0.424-0.771,0.488
		c-0.213,0.223-0.252,0.525-0.114,0.899l1.484,4.085c0.188,0.516-0.173,1.268-1.076,2.256c-1.018,1.109-2.309,1.949-3.878,2.52
		c-2.276,0.829-4.471,0.704-6.576-0.373c-2.142-1.094-3.683-2.933-4.622-5.519c-0.96-2.639-0.963-5.121-0.011-7.449
		c0.924-2.248,2.467-3.765,4.628-4.552c1.661-0.603,3.16-0.878,4.495-0.819c0.982,0.035,1.556,0.222,1.718,0.556
		c0.314,0.637,0.706,1.602,1.178,2.899c0.105,0.287,0.012,0.494-0.281,0.62c-0.341,0.144-0.596,0.105-0.769-0.119
		c-0.871-1.154-1.771-1.883-2.7-2.19c-0.93-0.309-2.026-0.232-3.289,0.227c-1.738,0.634-2.866,1.768-3.382,3.403
		c-0.525,1.7-0.334,3.789,0.568,6.271c0.871,2.393,2.153,4.109,3.845,5.149c1.645,1.021,3.352,1.207,5.121,0.564
		c0.906-0.33,1.68-0.833,2.321-1.51c0.613-0.646,0.847-1.162,0.706-1.545l-0.985-2.716c-0.234-0.645-0.512-1.07-0.834-1.278
		c-0.286-0.192-0.743-0.286-1.373-0.284c-0.467,0.003-0.729-0.105-0.782-0.322c-0.054-0.235-0.057-0.394-0.007-0.472
		c0.051-0.076,0.225-0.144,0.525-0.205c1.627-0.334,3.135-0.863,4.523-1.585c0.075-0.037,0.141-0.068,0.19-0.084
		C379.823,546.825,379.979,546.955,380.101,547.288z"/>
	<path d="M401.499,546.158c0.065,0.245,0.082,0.4,0.053,0.465c-0.024,0.056-0.128,0.094-0.304,0.113
		c-1.101,0.257-2.571,0.923-4.411,1.998c-0.345,0.205-0.584,0.215-0.715,0.032c-0.146-0.219-0.116-0.454,0.089-0.703
		c0.579-0.726,0.796-1.248,0.642-1.567c-0.058-0.125-0.184-0.284-0.38-0.479c-1.218-1.238-2.212-2.227-2.982-2.969
		c-0.479,0.267-1.343,0.697-2.592,1.288c-1.032,0.488-1.928,0.873-2.685,1.149c0.096,0.835,0.231,2,0.401,3.498
		c0.04,0.341,0.118,0.627,0.228,0.861c0.223,0.47,0.598,0.711,1.128,0.727c0.814,0.026,1.256,0.128,1.325,0.311
		c0.121,0.291-0.047,0.509-0.498,0.651c-1.391,0.454-2.582,1.079-3.569,1.876c-0.259,0.215-0.481,0.167-0.672-0.144
		c-0.13-0.205-0.017-0.548,0.347-1.024c0.394-0.506,0.547-1.311,0.458-2.416c-0.317-4.186-0.542-6.929-0.671-8.231
		c-0.301-3.127-0.654-5.63-1.057-7.509c-0.068-0.286,0.094-0.659,0.481-1.121c0.094-0.105,0.358,0.065,0.793,0.517
		c3.57,3.639,7.463,7.494,11.68,11.563c0.674,0.645,1.428,0.931,2.261,0.852C401.223,545.853,401.438,545.941,401.499,546.158z
		 M392.683,542.231c-1.056-1.036-2.697-2.644-4.923-4.818c-0.122-0.116-0.22-0.158-0.289-0.123
		c-0.071,0.032-0.095,0.133-0.077,0.298l0.745,6.734c0.777-0.286,1.63-0.649,2.558-1.089
		C391.269,542.964,391.931,542.627,392.683,542.231z"/>
	<path d="M413.72,535.49c0.365,1.158,0.807,2.188,1.325,3.086c0.089,0.152-0.089,0.34-0.532,0.564
		c-1.092,0.543-2.419,1.265-3.977,2.163c-1.658,0.957-3.112,1.851-4.362,2.68c-0.187,0.127-0.315,0.178-0.394,0.151
		c-0.077-0.024-0.173-0.132-0.282-0.324c-0.12-0.21-0.047-0.414,0.223-0.611c0.609-0.457,0.693-1.068,0.254-1.83l-6.408-11.109
		c-0.323-0.563-0.627-0.94-0.913-1.143c-0.337-0.233-0.776-0.313-1.311-0.236c-0.327,0.037-0.545-0.076-0.654-0.346
		c-0.083-0.189-0.098-0.316-0.049-0.388c0.047-0.071,0.223-0.168,0.528-0.289c1.049-0.435,2.207-1.115,3.475-2.038
		c0.228-0.161,0.36-0.25,0.397-0.26c0.148-0.054,0.287,0.01,0.418,0.192c0.147,0.203,0.188,0.378,0.128,0.521
		c-0.022,0.055-0.131,0.182-0.328,0.379c-0.395,0.399-0.604,0.715-0.63,0.949c-0.024,0.234,0.114,0.617,0.42,1.146l6.213,10.774
		c0.388,0.674,0.844,1.023,1.362,1.051c0.521,0.025,1.276-0.247,2.273-0.822c0.948-0.548,1.569-1.1,1.856-1.657
		c0.29-0.559,0.346-1.323,0.163-2.299c-0.075-0.383,0.024-0.587,0.306-0.611C413.473,535.125,413.639,535.229,413.72,535.49z"/>
	<path d="M419.855,513.849c0.132,0.19,0.074,0.465-0.183,0.827c-0.569,0.812-0.696,1.437-0.388,1.874l7.814,11.033
		c0.501,0.712,1.156,0.896,1.963,0.55c0.399-0.168,0.677-0.144,0.832,0.076c0.134,0.188,0.188,0.326,0.16,0.415
		s-0.18,0.218-0.456,0.39c-1.721,1.096-3.005,2.005-3.854,2.73c-0.217,0.186-0.391,0.229-0.519,0.13
		c-0.051-0.046-0.111-0.12-0.188-0.225c-0.108-0.154-0.047-0.367,0.184-0.642c0.427-0.519,0.661-0.839,0.7-0.957
		c0.096-0.292-0.024-0.676-0.357-1.143l-7.877-11.125c-0.443-0.627-1.07-0.763-1.878-0.409c-0.338,0.15-0.563,0.147-0.676-0.013
		c-0.156-0.218-0.228-0.368-0.215-0.452c0.014-0.083,0.116-0.175,0.309-0.278c1.34-0.711,2.599-1.624,3.776-2.742
		c0.219-0.212,0.354-0.324,0.411-0.341C419.543,513.514,419.688,513.614,419.855,513.849z"/>
	<path d="M445.548,515.833c0.141,0.173,0.208,0.295,0.203,0.371c-0.001,0.074-0.085,0.172-0.247,0.291
		c-1.614,1.183-2.817,2.221-3.611,3.119c-0.193,0.215-0.368,0.263-0.525,0.141c-0.179-0.143-0.188-0.404-0.027-0.784
		c0.096-0.222,0.044-0.461-0.161-0.711c-0.204-0.252-0.5-0.419-0.884-0.499c-1.681-0.353-4.492-0.866-8.434-1.54l4.13,5.075
		c0.333,0.41,0.953,0.444,1.858,0.101c0.405-0.15,0.679-0.14,0.819,0.035c0.146,0.178,0.21,0.312,0.189,0.399
		c-0.019,0.087-0.145,0.213-0.377,0.38c-1.106,0.805-2.254,1.783-3.441,2.942c-0.229,0.222-0.454,0.195-0.674-0.078
		c-0.154-0.188-0.12-0.396,0.104-0.623c0.497-0.535,0.467-1.15-0.096-1.839l-8.417-10.349c-0.543-0.667-1.201-0.832-1.969-0.493
		c-0.276,0.115-0.449,0.177-0.523,0.185c-0.076,0.007-0.161-0.054-0.26-0.175c-0.141-0.173-0.204-0.302-0.188-0.394
		c0.015-0.091,0.156-0.229,0.418-0.421c1.586-1.123,2.779-2.096,3.586-2.916c0.231-0.238,0.464-0.217,0.691,0.063
		c0.112,0.138,0.066,0.346-0.131,0.627c-0.361,0.498-0.556,0.821-0.581,0.973c-0.057,0.288,0.09,0.646,0.44,1.075l3.833,4.712
		c0.309-3.07,0.523-5.588,0.646-7.551c0.044-0.572-0.052-1.002-0.286-1.29c-0.232-0.286-0.572-0.368-1.02-0.244
		c-0.257,0.078-0.396,0.113-0.42,0.106c-0.141,0.012-0.262-0.07-0.36-0.24c-0.118-0.182-0.162-0.308-0.129-0.38
		c0.028-0.084,0.176-0.192,0.439-0.321c1.277-0.804,2.354-1.653,3.231-2.559c0.138-0.137,0.242-0.203,0.313-0.201
		c0.071,0.001,0.188,0.075,0.344,0.221c0.141,0.125,0.207,0.236,0.197,0.333c-0.01,0.099-0.09,0.269-0.242,0.511
		c-0.393,0.667-0.676,1.768-0.849,3.306c-0.132,1.133-0.381,3.547-0.751,7.239c4.232,0.725,7.514,1.248,9.848,1.571
		c1.024,0.146,1.896,0.08,2.617-0.196C445.2,515.679,445.43,515.688,445.548,515.833z"/>
	<path d="M460.379,501.973c0.142,0.212,0.208,0.354,0.201,0.426c-0.006,0.057-0.09,0.127-0.252,0.205
		c-0.958,0.596-2.135,1.699-3.529,3.313c-0.263,0.307-0.484,0.391-0.667,0.26c-0.207-0.158-0.257-0.391-0.142-0.696
		c0.313-0.871,0.349-1.435,0.104-1.688c-0.099-0.099-0.27-0.208-0.519-0.331c-1.552-0.777-2.812-1.394-3.778-1.847
		c-0.368,0.408-1.049,1.094-2.041,2.055c-0.817,0.797-1.543,1.448-2.17,1.954c0.362,0.759,0.864,1.819,1.511,3.183
		c0.147,0.309,0.313,0.555,0.493,0.742c0.362,0.371,0.795,0.479,1.301,0.325c0.779-0.241,1.229-0.285,1.354-0.136
		c0.208,0.235,0.121,0.496-0.262,0.776c-1.17,0.88-2.095,1.855-2.775,2.929c-0.173,0.286-0.4,0.312-0.68,0.08
		c-0.19-0.151-0.192-0.512-0.002-1.082c0.21-0.606,0.093-1.416-0.348-2.434c-1.649-3.86-2.746-6.385-3.288-7.577
		c-1.294-2.86-2.437-5.116-3.424-6.764c-0.155-0.249-0.126-0.655,0.094-1.216c0.057-0.132,0.362-0.055,0.918,0.229
		c4.554,2.295,9.481,4.689,14.787,7.182c0.845,0.393,1.649,0.418,2.414,0.074C460.02,501.774,460.251,501.787,460.379,501.973z
		 M450.766,501.103c-1.332-0.644-3.403-1.634-6.212-2.974c-0.153-0.071-0.26-0.079-0.313-0.025
		c-0.055,0.055-0.047,0.156,0.023,0.307l2.876,6.136c0.645-0.522,1.335-1.142,2.071-1.856
		C449.665,502.248,450.184,501.72,450.766,501.103z"/>
</g>
</svg>
