<svg xmlns:rdf="http://www.w3.org/1999/02/22-rdf-syntax-ns#" xmlns="http://www.w3.org/2000/svg" height="500" width="500">
 <path fill="#060e81" d="m228.9 25.75c-7.9 0.14-17.2 3.23-26.8 12.06-1.6-0.56-7.1-2.31-15.1-1.92-9.3 0.45-20.9 4.22-29.5 16.76l-1.2 1.69 1.6 1.29s17.6 13.67 35.8 43.59c18.1 29.88 36.7 75.88 38.3 140.3v2.2h36.3l0.1-2.2c1.8-64.8 20.2-110.8 38.1-140.6 17.9-29.74 35.1-43.19 35.1-43.19l1.5-1.1-0.8-1.6s-3.3-6.62-10.6-11.68c-7.1-4.9-18.4-8.24-33.7-3.09-1.3-1.49-5.5-6.09-13.2-9.52-8.6-3.88-21.1-5.06-34.8 4.16-1.6-1.33-6-4.71-13.6-6.39-2.3-0.51-4.8-0.79-7.5-0.74zm42.1 4.31c4.5-0.01 8.6 1.11 12 2.66 7.2 3.22 11.3 7.87 12 8.77-2.4 5.19-37.8 81.71-38.3 195.8h-4.5v-200.6c6.1-4.29 11.8-6.19 16.9-6.57 0.6-0.05 1.3-0.07 1.9-0.07zm-42.1 0.03c2.4-0.02 4.6 0.23 6.6 0.67 7.2 1.59 11.4 5.07 12.3 5.84v200.7h-4.5c-0.4-114.7-36.3-191.6-38.5-196.1 9.1-8.38 17.3-11.04 24.1-11.11zm84.2 9.88c1.3-0.01 2.6 0.07 3.8 0.23 5.1 0.66 9.1 2.54 12.3 4.74 5.1 3.47 7.3 6.99 8.3 8.61-3.6 3.02-18.7 16.47-34.7 43.16-18.1 29.99-36.5 76.09-38.7 140.6h-3c0.5-115.1 37-192 38.3-194.8 5.1-1.72 9.7-2.5 13.7-2.53zm-123.5 0.25c5.5 0.04 9.3 1.13 10.8 1.62 0.5 0.98 38.1 78.96 38.5 195.5h-2.7c-1.9-64-20.5-110.2-38.8-140.4-15.9-26.22-31-39.78-35.1-43.23 7.7-9.99 17-13.01 24.9-13.39 0.8-0.04 1.7-0.06 2.4-0.06zm-46.8 11.88s-0.5 0.27-0.6 0.32v32.27s-8.9-7.68-22.7-7.68c-8.6 0-18 3.8-24.79 9.76-9.65 9.1-19.73 20.03-29.1 33.13-0.23 0.4-0.47 0.7-0.7 1.1-6.84 10.3-12.63 20.5-17.12 28.5-1.27 2.6-2.49 5.2-3.68 7.9h26.63v37.6h-10.02v-21.3h-23.11c-5.07 14.4-8.88 30.2-10.93 47.6h5.92 23.46 14.68v25.1h-16.84-26.51-2.35c-0.02 1.2-0.04 2.5-0.04 3.7 0 62.8 22.26 108.5 49.5 141.6-11.38-32.3-20.68-85.2-20.68-119h29.46v129.6c9.04 9.7 18.12 17.8 26.32 24.3v-39.1-5.7-109.1-26.3h-13.79v-25.1h21.29v-26.3h-21.29v-32.6h21.29v-26.3h-21.29v-5c0-8.1 20.79-27.6 27.59-27.6 2.5 0 3.7 1.2 3.7 1.2v277.1 22.2 35.2c5.4 0 15.7-2.5 15.7-2.5 47.4-14.7 81.5-100.1 81.5-186.6 0-144.5-81.5-198-81.5-198zm214.9 0s-54.4 35.79-74.3 127.8h26.1c11-45.3 30.1-73.7 40.7-86.79v114.4h-71.4c-1.6 13.2-2.5 27.4-2.5 42.6 0 145 81.4 198 81.4 198s42.5-19.6 76.5-66.4h-37.9c-20.1 22.6-38.6 33.9-38.6 33.9s-17.3-15.7-32.8-48.9h119.2c15.9-26.2 28.3-59.3 30.9-100.3h-173.7v-32.6h173.7c-8.5-130.7-117.3-181.7-117.3-181.7zm-204.2 44.96c16.3 21.64 45.7 71.94 45.7 154.3 0 82-29.4 131.2-45.7 152.2v-306.5zm223 2.12c20.9 18.42 53.3 54.32 65.4 108.3h-65.4v-108.3zm-144.5 159.1v2.2c-1.6 64.4-20.2 110.4-38.3 140.3-18.2 29.9-35.8 43.6-35.8 43.6l-1.6 1.3 1.2 1.6c8.6 12.6 20.2 16.4 29.5 16.8 8 0.4 13.5-1.4 15.1-1.9 9.6 8.8 18.9 11.9 26.8 12.1 2.7 0 5.2-0.3 7.5-0.8 7.6-1.7 12-5.1 13.6-6.4 13.7 9.2 26.2 8.1 34.8 4.2 7.7-3.4 11.9-8 13.2-9.5 15.3 5.1 26.6 1.8 33.7-3.1 7.3-5.1 10.6-11.7 10.6-11.7l0.8-1.6-1.5-1.1s-17.2-13.5-35.1-43.2c-17.9-29.8-36.3-75.8-38.1-140.6l-0.1-2.2h-36.3zm4.2 4.4h2.7c-0.4 116.5-38 194.5-38.5 195.5-1.8 0.5-6.4 1.9-13.2 1.5-7.9-0.4-17.2-3.4-24.9-13.4 4.1-3.4 19.2-17 35.1-43.2 18.3-30.2 36.9-76.4 38.8-140.4zm7.1 0h4.5v200.7c-0.9 0.8-5.1 4.3-12.3 5.8-2 0.5-4.2 0.7-6.6 0.7-6.8-0.1-15-2.7-24.1-11.1 2.2-4.5 38.1-81.4 38.5-196.1zm8.9 0h4.5c0.5 114.1 35.9 190.6 38.3 195.8-0.7 0.9-4.8 5.6-12 8.8-3.9 1.8-8.6 3-13.9 2.6-5.1-0.4-10.8-2.3-16.9-6.6v-200.6zm8.9 0h3c2.2 64.5 20.6 110.6 38.7 140.6 16 26.7 31.1 40.1 34.7 43.1-1 1.7-3.2 5.2-8.3 8.7-3.2 2.2-7.2 4-12.3 4.7-4.8 0.6-10.7 0-17.5-2.3-1.3-2.8-37.8-79.7-38.3-194.8zm42.9 30h138.3c-3.8 17.9-10 33.7-17.3 47.7h-110.4c-4.5-13.9-8.3-29.7-10.6-47.7z"/>
</svg>
