<svg xmlns="http://www.w3.org/2000/svg" width="600" height="700.7254"><path d="m 2.63509,11.850458 c -0.49843,31.45146 -0.46828,62.906228 0,94.355332 0.45369,30.29599 1.96502,53.94501 15.54158,72.43179 16.35378,22.27026 43.59735,38.34433 78.64399,54.13576 35.04569,-15.7905 62.29115,-31.8655 78.64398,-54.13576 13.57656,-18.48631 15.0879,-42.1344 15.54111,-72.43179 0.46874,-31.449104 0.20373,-62.770063 0.10644,-94.355332 z" fill="#0039a5" stroke="#000" stroke-width="2.5" transform="matrix(3.1331155,0,0,3.1346208,-3.2035657,-33.228416)"/><g fill="#f7d618"><path d="m -143.2661,60.433373 8.16996,24.537956 25.86165,0.187446 -20.81234,15.352745 7.81342,24.6538 -21.03269,-15.04944 -21.03268,15.04944 7.81341,-24.6538 -20.81232,-15.352745 25.86164,-0.187446 z" transform="matrix(3.1331155,0,0,3.1346208,-3.2035657,-33.228416) translate(240,6)"/><path d="m 97.470574,77.596424 7.959626,23.906246 25.19586,0.18262 -20.27654,14.9575 7.61227,24.01911 -20.491217,-14.66201 -20.491215,14.66201 7.612264,-24.01911 -20.27653,-14.9575 25.195852,-0.18262 z" transform="matrix(3.1331155,0,0,3.1346208,-3.2035657,-33.228416) translate(240,6) matrix(0.62622444,0,0,0.62622444,-262.42352,-36.177245)"/><path d="m 97.470574,77.596424 7.959626,23.906246 25.19586,0.18262 -20.27654,14.9575 7.61227,24.01911 -20.491217,-14.66201 -20.491215,14.66201 7.612264,-24.01911 -20.27653,-14.9575 25.195852,-0.18262 z" transform="matrix(3.1331155,0,0,3.1346208,-3.2035657,-33.228416) translate(240,6) matrix(0.62622444,0,0,0.62622444,-204.21786,103.98117)"/><path d="m 97.470574,77.596424 7.959626,23.906246 25.19586,0.18262 -20.27654,14.9575 7.61227,24.01911 -20.491217,-14.66201 -20.491215,14.66201 7.612264,-24.01911 -20.27653,-14.9575 25.195852,-0.18262 z" transform="matrix(3.1331155,0,0,3.1346208,-3.2035657,-33.228416) translate(240,6) matrix(0.62622444,0,0,0.62622444,-146.0122,60.937597)"/><path d="m 97.470574,77.596424 7.959626,23.906246 25.19586,0.18262 -20.27654,14.9575 7.61227,24.01911 -20.491217,-14.66201 -20.491215,14.66201 7.612264,-24.01911 -20.27653,-14.9575 25.195852,-0.18262 z" transform="matrix(3.1331155,0,0,3.1346208,-3.2035657,-33.228416) translate(240,6) matrix(0.62622444,0,0,0.62622444,-262.42352,60.937597)"/><path d="m 97.470574,77.596424 7.959626,23.906246 25.19586,0.18262 -20.27654,14.9575 7.61227,24.01911 -20.491217,-14.66201 -20.491215,14.66201 7.612264,-24.01911 -20.27653,-14.9575 25.195852,-0.18262 z" transform="matrix(3.1331155,0,0,3.1346208,-3.2035657,-33.228416) translate(240,6) matrix(0.62622444,0,0,0.62622444,-146.0122,-36.177245)"/><path d="m 97.470574,77.596424 7.959626,23.906246 25.19586,0.18262 -20.27654,14.9575 7.61227,24.01911 -20.491217,-14.66201 -20.491215,14.66201 7.612264,-24.01911 -20.27653,-14.9575 25.195852,-0.18262 z" transform="matrix(3.1331155,0,0,3.1346208,-3.2035657,-33.228416) translate(240,6) matrix(0.62622444,0,0,0.62622444,-204.21786,-36.177245)"/></g></svg>