<?xml version="1.0" encoding="UTF-8"?>
<svg width="171.82" height="208" version="1.0" xmlns="http://www.w3.org/2000/svg" xmlns:cc="http://creativecommons.org/ns#" xmlns:dc="http://purl.org/dc/elements/1.1/" xmlns:rdf="http://www.w3.org/1999/02/22-rdf-syntax-ns#">
<g fill-rule="evenodd">
<path d="m147.16 3.6348-141.32 96.254c-7.8634 6.3233-9.8246 54.398 27.463 75.457l129.36-84.867c-8.1341-14.618-28.061-41.176 3.6871-62.047-6.3992-7.024-12.798-14.938-19.198-24.797z" fill="#fff"/>
<path d="m162.36 90.791-129.36 85.082 35.824 15.922 17.663 14.927c2.4695-4.3634 9.5136-9.7433 17.912-15.424 53.742-20.719 80.411-47.913 57.965-100.51z" fill="#d81c22"/>
<path d="m24.376 4.3099-18.388 24.653s15.437 7.3404 16.974 25.057c0.8588 9.9014-17.58 46.072-17.58 46.072l135.79-92.346c-5.8184 1.879-8.4368 4.6307-19.601 5.0518 0.59872-4.8464 0.55188-9.4058-3.6373-12.124-21.097 9.5766-41.881 8.8005-62.44 0.60621-5.2543 1.9164-5.0054 6.8344-4.4455 11.922-12.203-1.3078-18.393-5.622-26.673-8.8911z" fill="#d81c22"/>
</g>
<g fill="none">
<g stroke="#000">
<path d="m57.385 1.68c-4.5127-1.2555-9.7308 4.4218-6.6106 11.283-12.307-0.5227-18.028-5.6502-26.399-9.4529-6.2816 9.9726-12.563 18.81-18.845 25.256 0 0 17.334 13.502 17.64 23.52 0.74406 24.37-33.46 51.599-18.282 90.38 14.472 36.977 54.212 43.293 63.062 48.926 14.964 9.5255 17.239 15.323 17.961 15.413 0.42537 0.0527 3.8275-7.0107 17.961-15.413 7.1296-4.2386 48.589-11.948 63.062-48.926 15.178-38.781-19.026-66.01-18.282-90.38 0.30586-10.018 17.64-23.52 17.64-23.52-6.2816-6.4451-12.563-15.283-18.845-25.256-8.3714 3.8027-14.092 8.9302-26.399 9.4529 3.1202-6.8609-0.23988-13.877-6.0044-11.485-21.46 8.9047-36.401 6.1162-57.658 0.20207z" stroke-width="2"/>
<path d="m55.17 7.64c3.8573-1.0329 7.5482 5.8614-3.4496 5.8378" stroke-width="1px"/>
<path d="m116.65 7.64c-3.8574-1.0329-7.5482 5.8614 3.4496 5.8378" stroke-width="1px"/>
</g>
<path d="m32.868 175.51 129.46-85.145"/>
<path d="m5.4664 100.2 141.77-96.419"/>
</g>
<path d="m84.748 47.209h0.0833c0.7 2.0132 1.7417 3.8187 3.125 5.4167 0.87749 1.0179 1.9192 1.8096 3.125 2.375 1.5917 0.3215 3.175 0.68267 4.75 1.0833 0.83416 0.26433 1.64 0.59767 2.4167 1 0.91167 0.55058 1.8 1.1339 2.6667 1.75 1.4442 1.1111 2.8892 2.2222 4.3333 3.3333 0.325 0.25442 0.25584 0.35167-0.20833 0.29167-1.5967-0.1705-3.1942-0.19833-4.7917-0.08333-0.0133 0.11442 8e-4 0.22558 0.0417 0.33333 2.5525 2.3839 5.4558 4.2312 8.7083 5.5417-1.5308 0.07517-3.0583 0.04742-4.5833-0.08333-0.53333-0.11775-1.0608-0.25667-1.5833-0.41667-1.2492-0.79142-2.61-1.0969-4.0833-0.91667-0.78583 0.17-1.0775 0.62833-0.875 1.375 0.27084 0.32683 0.59 0.59067 0.95834 0.79167 0.74916 0.3465 1.4708 0.73542 2.1667 1.1667 1.6775 1.1488 3.2333 2.4544 4.6667 3.9167 2.8558 2.2902 5.9117 4.2902 9.1667 6 0.59 0.34308 1.1042 0.77358 1.5417 1.2917 0.065 0.16108 0.0233 0.28608-0.125 0.375-0.28417 0.08567-0.57584 0.12733-0.875 0.125-2.1008-0.22008-4.1983-0.484-6.2917-0.79167-0.5-0.05558-1-0.05558-1.5 0-0.60334 0.22008-0.78418 0.62292-0.54167 1.2083 0.4 0.35975 0.85833 0.62367 1.375 0.79167 2.9525 0.67933 5.8692 1.4849 8.75 2.4167 0.7425 0.23742 1.4233 0.58467 2.0417 1.0417 0.05 0.34067-0.1025 0.549-0.45834 0.625-0.715 0.17475-1.4375 0.31367-2.1667 0.41667-1.9408 0.16192-3.885 0.273-5.8333 0.33333-0.77833 0.11117-1.5558 0.22225-2.3333 0.33333-0.53417 0.09367-0.99251 0.32975-1.375 0.70833-0.0517 0.56108 0.2125 0.88058 0.79167 0.95833 0.77416 0.09584 1.5517 0.15133 2.3333 0.16667 1.3567 0.17833 2.5783 0.67833 3.6667 1.5 0.69166 0.775 1.4142 1.525 2.1667 2.25 2.315 2.0317 4.6758 4.0042 7.0833 5.9167-0.74334 0.17333-1.4933 0.3125-2.25 0.41667-0.91334 0.11166-1.775-0.055-2.5833-0.5-1.0558-0.55583-2.1108-1.1108-3.1667-1.6667-0.33-0.15333-0.67751-0.22333-1.0417-0.20833-0.91833 0.20167-1.7658 0.57667-2.5417 1.125-0.6875 0.43167-0.84 1.0017-0.45833 1.7083 0.68083 0.7075 1.445 1.305 2.2917 1.7917 1.8475 1.0492 3.7092 2.0767 5.5833 3.0833 1.8133 1.0358 3.5358 2.2025 5.1667 3.5 0.75499 0.615 1.3525 1.3517 1.7917 2.2083 0.115 0.78416-0.20417 1.2983-0.95833 1.5416-0.86917 0.0808-1.675-0.11333-2.4167-0.58332-1.8875-1.3333-3.8325-2.5833-5.8333-3.75-1.02-0.655-2.1308-1.0433-3.3333-1.1667-3.1392-0.0308-6.2783-0.0308-9.4167 0-0.71-0.0617-1.405-0.20083-2.0833-0.41666-1.2958-0.63417-2.6008-1.245-3.9167-1.8333-0.54333-0.18417-1.0983-0.24-1.6667-0.16666-1.3 0.66833-2.0083 1.7375-2.125 3.2083-0.0558 1.7225-0.0558 3.4442 0 5.1667 0.01 2.3367 0.76 4.3925 2.25 6.1667 1.8833 1.8567 3.8417 3.62 5.875 5.2917 0.86 0.7625 1.61 1.6092 2.25 2.5417h-2.25c-0.385-0.22168-0.74583-0.48502-1.0833-0.79168-0.88917-0.94416-1.7775-1.8892-2.6667-2.8333-0.8425-0.52333-1.7592-0.82914-2.75-0.91666-1-0.11083-2-0.22251-3-0.33334-0.5875-0.0667-1.1708-0.0525-1.75 0.0417-0.0933 0.3075-0.0792 0.61251 0.0417 0.91667 0.33916 0.53416 0.64416 1.09 0.91667 1.6667 0.1 0.26914 0.14166 0.54666 0.125 0.83333-0.41 0.0176-0.77084-0.10749-1.0833-0.37501-1.325-1.2975-2.7692-2.4367-4.3333-3.4167-0.69417-0.54-1.0408-1.2483-1.0417-2.125-0.315-0.65-0.82916-0.88666-1.5417-0.70834-0.7375 0.24168-1.4875 0.42168-2.25 0.54168-0.66084-0.0492-1.2717-0.2575-1.8333-0.62502-1.225-0.31-2.3642-0.11584-3.4167 0.58334-0.9375 0.65917-1.8258 1.3817-2.6667 2.1667-2.3608 1.685-5 2.5184-7.9167 2.5-1.86 0.37584-3.3317 1.3342-4.4167 2.875h-1c-0.0133-0.14168 8e-4 -0.28083 0.0417-0.41667 0.85584-1.4667 2.0367-2.5917 3.5417-3.375 2.0208-0.40416 3.8542-1.21 5.5-2.4167 1.6567-1.5242 3.0875-3.2325 4.2917-5.125 0.8125-1.2083 1.4233-2.5142 1.8333-3.9167 0.27833-1.1958 0.13917-2.335-0.41667-3.4167-0.99-1.3492-2.3092-2.1825-3.9583-2.5-0.51 0.0717-1.01 0.19667-1.5 0.375-3.6092 1.6658-7.2758 3.1933-11 4.5833-1.6092 0.44584-3.2475 0.68167-4.9167 0.70834-1.0958 0.095-2.1233-0.11334-3.0833-0.625-0.37167-0.365-0.53833-0.79584-0.5-1.2917 1.255-0.51584 2.5325-0.97417 3.8333-1.375 3.125-0.8125 6.125-1.9517 9-3.4167 0.84167-0.46917 1.5783-1.0667 2.2083-1.7917 0.465-0.66917 0.3675-1.2392-0.29167-1.7083-1.6258-0.78917-3.2092-0.70583-4.75 0.25-0.51333 0.38167-1.0408 0.7425-1.5833 1.0833-2.8092 1.4733-5.7533 2.5842-8.8333 3.3333-1.7757 0.46-3.1368-0.0817-4.0833-1.625 0.747-0.0192 1.497-0.0333 2.25-0.0417 0.23967-0.0367 0.46192-0.12 0.66667-0.25 0.4875-0.34083 0.95916-0.70167 1.4167-1.0833 2.1725-2.3417 4.5892-4.3692 7.25-6.0833 1.4158-0.73583 2.805-1.5133 4.1667-2.3333 0.3875-0.30333 0.67917-0.67833 0.875-1.125 0.0917-1.0025-0.18583-1.8917-0.83333-2.6667-0.38084-0.54475-0.89417-0.75308-1.5417-0.625-0.98667 0.61833-1.9583 1.2567-2.9167 1.9167-0.72166 0.4025-1.4717 0.73583-2.25 1-1.1317 0.01835-2.1317-0.34333-3-1.0833-0.13833-0.12-0.19333-0.27333-0.16666-0.45833 0.14166 0.01333 0.28083-8e-4 0.41666-0.04167 0.38917-0.2775 0.7775-0.55583 1.1667-0.83333 1.3283-1.1614 2.6058-2.3837 3.8333-3.6667 0.89834-0.84208 1.9258-1.481 3.0833-1.9167 1.0142-0.14633 1.9583-0.47967 2.8333-1 1.0833-0.9605 2.0417-2.0299 2.875-3.2083 0.45667-0.56367 0.62333-1.2026 0.5-1.9167-0.2325-0.63092-0.51-1.2421-0.83333-1.8333-0.18834-0.38267-0.49417-0.60492-0.91667-0.66667-1.0092 0.3085-2.0225 0.60017-3.0417 0.875-0.935 0.19525-1.88 0.25084-2.8333 0.16667-0.65-0.09192-0.85833-0.43917-0.625-1.0417 0.35-0.37784 0.725-0.72508 1.125-1.0417 1.3883-0.99992 2.8325-1.9166 4.3333-2.75 1.2517-0.54567 2.4458-1.1846 3.5833-1.9167 0.5225-0.42025 0.84249-0.96192 0.95833-1.625 0.79667-1.3228 1.9492-2.17 3.4583-2.5417 1.9742 0.11583 2.3908-0.63417 1.25-2.25-0.28166-0.16333-0.5875-0.23275-0.91666-0.20833-0.63334 0.12917-1.2717 0.17084-1.9167 0.125-0.1175-0.03067-0.20084-0.10008-0.25-0.20833 0.17083-0.37917 0.42083-0.69858 0.75-0.95833 0.87083-0.70383 1.7875-1.3427 2.75-1.9167 1.955-0.76158 3.6633-1.8866 5.125-3.375 0.18917-0.21833 0.245-0.46833 0.16667-0.75-0.11667-0.05133-0.24167-0.07908-0.375-0.08333-1.1975 0.34808-2.3925 0.70925-3.5833 1.0833-0.085-0.04183-0.0992-0.09733-0.0417-0.16667 1.6683-2.0571 3.5983-3.821 5.7917-5.2917 1.8467-1.5262 3.2633-3.3734 4.25-5.5417zm-9.25 15.167c0.51917-0.04675 1.0192 0.02267 1.5 0.20833 0.11667 0.0885 0.2 0.19958 0.25 0.33333-0.49417 0.86917-1.1883 1.5219-2.0833 1.9583-0.16084-0.0075-0.2575-0.09083-0.29167-0.25-0.0558-0.5-0.0558-1 0-1.5 0.0767-0.36783 0.285-0.61783 0.625-0.75zm9.4167 1.6668c0.5675-0.11342 0.97 0.08108 1.2083 0.58333 0.0883 0.51867 0.0325 1.0187-0.16666 1.5-0.51584 0.45017-1.1125 0.74183-1.7917 0.875-0.875 0.24192-1.7642 0.353-2.6667 0.33333-0.22333-0.28217-0.2925-0.60158-0.20833-0.95833 0.34083-0.553 0.79917-0.9835 1.375-1.2917 0.7375-0.39692 1.4875-0.74408 2.25-1.0417zm3.8332-0.33327c0.73-0.09542 1.2992 0.15458 1.7083 0.75 0.0558 0.27775 0.0558 0.55558 0 0.83333-0.13166 0.12842-0.28416 0.22567-0.45833 0.29167-0.67333 0.07509-1.34 0.04734-2-0.08333-0.0692-0.06942-0.13917-0.13892-0.20833-0.20833-0.17834-0.83433 0.14083-1.3621 0.95833-1.5833zm4.9167 0.33327c0.30667-0.01376 0.61251 8.3e-5 0.91667 0.04167 0.14917 0.06542 0.27417 0.16258 0.375 0.29167 0.105 1.7007-0.68667 2.4646-2.375 2.2917-0.14916-0.06542-0.27416-0.16258-0.375-0.29167-0.2875-1.2894 0.19833-2.0673 1.4583-2.3333zm15.083 30.333c0.45333-0.0016 0.87 0.12333 1.25 0.375 0.37083 0.23167 0.71833 0.49584 1.0417 0.79167 0.12166 0.23916 0.14916 0.48916 0.0833 0.75-0.53167 0.7825-1.1567 1.4908-1.875 2.125-0.1425 0.12833-0.30917 0.19833-0.5 0.20833-0.6325-0.13-1.2717-0.2275-1.9167-0.29167-0.38834-0.07583-0.75-0.215-1.0833-0.41666-0.205-0.14917-0.34333-0.34333-0.41666-0.58333 0.0925-0.255 0.21749-0.49083 0.375-0.70833 0.88166-0.94583 1.895-1.6958 3.0417-2.25zm-7.4167-1.5001c0.83583-0.10833 1.6142 0.04417 2.3333 0.45833 0.285 0.39917 0.32667 0.83 0.125 1.2917-1.2358 1.6875-2.8608 2.2292-4.875 1.625-0.42083-0.19917-0.79583-0.46333-1.125-0.79167-0.11416-0.18333-0.1425-0.3775-0.0833-0.58333 1.0383-0.98417 2.2467-1.6508 3.625-2zm-0.24987-13.083c1.0408-0.16716 1.7775 0.22175 2.2083 1.1667 0.0192 1.582-0.745 2.1793-2.2917 1.7917-0.50667-0.25742-0.9375-0.60467-1.2917-1.0417 0.0883-0.89725 0.54667-1.5362 1.375-1.9167zm-15.5-7.6665c0.385-0.04225 0.74584 0.02717 1.0833 0.20833 0.3525 0.44775 0.29666 0.8505-0.16667 1.2083-0.505 0.4475-1.0883 0.65583-1.75 0.625-0.74083-0.22375-1.4633-0.48758-2.1667-0.79167 0.96834-0.51258 1.9683-0.92925 3-1.25zm-18.5 15.833c1.2383-0.07092 2.46 0.02632 3.6667 0.29167 1.235 0.41217 1.3183 0.9955 0.25 1.75-1.8725 1.235-3.9283 1.9017-6.1667 2-0.44917-0.30084-0.76834-0.70334-0.95834-1.2083-0.26666-0.60442-0.51666-1.2155-0.75-1.8333-0.065-0.12033-0.0508-0.23142 0.0417-0.33333 0.46083-0.16167 0.9325-0.28667 1.4167-0.375 0.845-0.10608 1.6783-0.20325 2.5-0.29167zm23-16.083c0.6775 0.0027 1.0108 0.34992 1 1.0417 0.0317 1.0497-0.46833 1.6607-1.5 1.8333-1.3608 0.30759-1.68-0.123-0.95833-1.2917 0.37333-0.63925 0.85916-1.167 1.4583-1.5833zm4.9166 1.5c0.95583-0.06767 1.845 0.14067 2.6667 0.625 0.355 0.22358 0.52167 0.543 0.5 0.95833 0.0367 0.67942-0.1575 1.2767-0.58333 1.7917-0.53917 0.19725-1.0942 0.25284-1.6667 0.16667-0.705-0.161-1.3992-0.35542-2.0833-0.58333-1.1233-0.33383-1.3033-0.95883-0.54167-1.875 0.45583-0.55592 1.0258-0.91708 1.7083-1.0833zm-18.417 10.167c1.1033 0.11442 1.9508 0.64216 2.5417 1.5833 0.0608 0.6325-0.23084 0.86858-0.875 0.70833-0.80417-0.33125-1.4292-0.87292-1.875-1.625-0.0817-0.27292-0.0125-0.49508 0.20833-0.66667zm-3.25-9.7501c0.75083-0.01384 1.5008 0 2.25 0.04167 0.66167 0.08875 0.8425 0.436 0.54166 1.0417-0.53166 0.7825-1.1567 1.4908-1.875 2.125-0.4975 0.44475-0.90083 0.37534-1.2083-0.20833-0.35083-0.59333-0.55917-1.2322-0.625-1.9167-2e-3 -0.20542 0.04-0.39984 0.125-0.58333 0.23667-0.22192 0.50083-0.38858 0.79167-0.5zm10 23.5c0.99834 0.03417 1.9708 0.215 2.9167 0.54167 0.17083 0.0575 0.31 0.15417 0.41667 0.29166-0.6825 1.1683-1.4467 2.2792-2.2917 3.3333-0.475-1.2592-0.85-2.5508-1.125-3.875 0.0125-0.105 0.04-0.20167 0.0833-0.29167zm6.5833-11.5c0.30417 0.01016 0.54 0.149 0.70834 0.41667 0.40833 0.67834 0.4775 1.3867 0.20833 2.125-0.52917 0.10334-0.87583-0.105-1.0417-0.625-0.31583-0.67567-0.27416-1.3145 0.125-1.9167zm-21.833-11.083c1.0208-0.2075 1.8408 0.09808 2.4583 0.91667 0.47917 0.76408 0.9375 1.5418 1.375 2.3333-0.87083 0.46033-1.7875 0.752-2.75 0.875-0.11083-0.05558-0.2225-0.11108-0.33333-0.16667-0.80084-0.78217-1.4258-1.685-1.875-2.7083-0.0658-0.26117-0.0383-0.51117 0.0833-0.75 0.32-0.24 0.6675-0.40667 1.0417-0.5zm18.333 9.0834c0.41 0.03325 0.73 0.22775 0.95833 0.58333 0.47 0.63417 0.83084 1.3286 1.0833 2.0833 0.0558 0.36108 0.0558 0.72225 0 1.0833-0.21917 0.436-0.56667 0.58875-1.0417 0.45833-2.2842-0.93367-2.6175-2.3365-1-4.2083zm-13.25 12.75c1.5225-0.13083 2.3975 0.56417 2.625 2.0833 0.1025 0.88083 0.0192 1.7425-0.25 2.5833-0.31167 0.37917-0.65917 0.42084-1.0417 0.125-0.2875-0.31083-0.52416-0.65833-0.70833-1.0417-0.41083-1.1417-0.68833-2.3083-0.83333-3.5 0.0867-0.0725 0.15666-0.15583 0.20833-0.25zm9.4167-14.083c0.69917-0.13833 1.0608 0.1395 1.0833 0.83333-0.0475 0.46642-0.17251 0.91083-0.375 1.3333-0.43167 0.56892-0.82084 0.54117-1.1667-0.08333-0.22917-0.51958-0.25667-1.0474-0.0833-1.5833 0.15916-0.19633 0.33999-0.363 0.54166-0.5zm-4.0001 15.75c0.80667-0.07 1.4592 0.20833 1.9583 0.83333 0.19917 0.48167 0.255 0.98167 0.16667 1.5-0.13667 0.49333-0.42834 0.61833-0.875 0.375-0.62834-0.715-1.0725-1.5342-1.3333-2.4583 0.0158-0.09 0.0433-0.17333 0.0833-0.25zm0.41673-31.447c0.5325-0.05417 0.81083 0.182 0.83334 0.70833-0.18417 1.1009-0.74001 1.962-1.6667 2.5833-0.68 0.42316-1.4017 0.7565-2.1667 1-0.30583 0.05558-0.61083 0.05558-0.91666 0-0.16667-0.23675-0.20834-0.50059-0.125-0.79167 0.96416-1.6252 2.3117-2.7918 4.0417-3.5z" clip-rule="evenodd" fill="#019e3f" fill-rule="evenodd" image-rendering="optimizeQuality" shape-rendering="geometricPrecision" stroke-width=".26667"/>
</svg>