<?xml version="1.0" encoding="UTF-8" standalone="no"?>
<!-- Created with Inkscape (http://www.inkscape.org/) -->
<svg id="svg2" xmlns:rdf="http://www.w3.org/1999/02/22-rdf-syntax-ns#" xmlns="http://www.w3.org/2000/svg" fill-rule="evenodd" xml:space="preserve" height="400pt" width="320pt" version="1.1" clip-rule="evenodd" xmlns:cc="http://creativecommons.org/ns#" viewBox="0 0 210 297" xmlns:dc="http://purl.org/dc/elements/1.1/"><metadata id="metadata19"><rdf:RDF><cc:Work rdf:about=""><dc:format>image/svg+xml</dc:format><dc:type rdf:resource="http://purl.org/dc/dcmitype/StillImage"/><dc:title/></cc:Work></rdf:RDF></metadata><defs id="defs4"><style id="style6" type="text/css"/><style id="style6-4" type="text/css"/></defs><g id="Layer_x0020_1" transform="matrix(2.0988 0 0 2.0988 -115.37 -163.17)"><path id="path919" fill="#cd1228" d="m51.031 77.179c-4.318 57.291-11.47 109.8 53.969 141.5 65.438-31.703 58.286-84.213 53.968-141.5z"/><path id="path3412" fill="#fff" d="m169.59 19.156c4.747 23.753 9.1875 48.437 9.1875 72.656v3.125h-5.7812c-24.332 0-49.135-4.4319-73-9.1562 7.0638 23.176 7.0638 37.354 0 60.531 23.865-4.7258 48.668-9.1562 73-9.1562h5.7812v48.844h-26.78c-24.333 0-49.135-4.4308-73-9.1562 7.0638 23.177 7.0638 37.324 0 60.5 23.865-4.7244 48.667-9.1562 73-9.1562h26.781v173.28h42.406v-173.28h26.812c24.331 0 49.135 4.4319 73 9.1562-7.0638-23.176-7.0638-37.323 0-60.5-23.87 4.72-48.67 9.15-73 9.15h-26.812v-48.844h5.8125c24.333 0 49.135 4.4304 73 9.1562-7.0638-23.178-7.0638-37.356 0-60.531-23.865 4.7244-48.667 9.1562-73 9.1562h-5.8125v-3.125c0-24.219 4.4717-48.903 9.2188-72.656-23.284 7.0299-37.528 7.0299-60.812 0z" transform="matrix(.28302 0 0 .28302 48.395 77.745)"/><path id="path15884" d="m200 295.12c-28.298 0-52.282 18.613-60.281 44.188-9.0136-9.2563-21.642-15.031-35.625-15.031-27.405 0-49.687 22.097-49.688 49.375 0 2.1884 0.15822 4.3548 0.4375 6.4688 30.397 44.78 76.45 84.57 145.15 117.85 68.7-33.28 114.75-73.07 145.16-117.85 0.27928-2.1139 0.4375-4.2803 0.4375-6.4688 0-27.278-22.282-49.375-49.688-49.375-13.983 0-26.611 5.775-35.625 15.031-8-25.57-31.98-44.19-60.28-44.19z" transform="matrix(.28302 0 0 .28302 48.395 77.745)" fill="#0037a5"/><g id="g58" fill-rule="evenodd" clip-rule="evenodd" transform="matrix(.47646 0 0 .47646 262.14 77.175)"/></g></svg>
