<?xml version="1.0" encoding="UTF-8" standalone="no"?>
<svg
   width="750"
   height="1080"
   viewBox="0 0 750 1080"
   version="1.1"
   id="svg125"
   xmlns="http://www.w3.org/2000/svg"
   xmlns:svg="http://www.w3.org/2000/svg"
   xmlns:rdf="http://www.w3.org/1999/02/22-rdf-syntax-ns#"
   xmlns:cc="http://creativecommons.org/ns#"
   xmlns:dc="http://purl.org/dc/elements/1.1/">
  <metadata
     id="metadata129">
    <rdf:RDF>
      <cc:Work
         rdf:about="">
        <dc:format>image/svg+xml</dc:format>
        <dc:type
           rdf:resource="http://purl.org/dc/dcmitype/StillImage" />
      </cc:Work>
    </rdf:RDF>
  </metadata>
  <defs
     id="defs6" />
  <path
     id="Tracé_20"
     data-name="Tracé 20"
     d="m 725.28935,536.6239 c 0,285.81718 -156.88831,517.9101 -350.28625,517.9101 -193.39797,0 -350.289347,-232.09292 -350.289347,-517.9101 0,-284.74455 156.888297,-517.910141 350.286257,-517.910141 192.33765,1.075717 350.28934,233.165591 350.28934,517.910141 z"
     fill="#ffffff"
     style="stroke-width:3.08229" />
  <path
     id="path1741"
     data-name="Tracé 26"
     d="m 396.49432,684.90647 c 0,0 1.07571,-21.48969 15.04155,-25.7895 8.62053,-2.36859 17.85456,-0.36126 24.71376,5.37243 0,0 -7.52076,-20.41705 5.37243,-30.0862 12.89319,-9.66912 21.48969,-5.3724 22.5654,-5.3724 -1.07571,-1.07574 -10.74486,-13.96893 -7.52079,-27.93783 3.22407,-15.04155 22.56543,-17.193 22.56543,-17.193 0,0 -19.34442,-6.42963 -19.34442,-22.56231 0,-15.04155 13.9689,-24.71376 15.04155,-25.78947 -1.07574,0 -18.26562,4.29669 -24.71376,-11.82057 -3.94632,-9.95073 -2.74053,-21.20646 3.22407,-30.09543 -1.07574,1.07571 -15.04155,10.74486 -26.86212,0 -8.5965,-8.5965 -10.74483,-20.41704 -9.66912,-25.78947 -3.22407,3.22407 -10.74486,10.74483 -19.34133,9.66912 -17.193,-1.07571 -22.56543,-19.34133 -22.56543,-19.34133 0,0 -5.3724,18.26562 -22.5654,19.34133 -8.5965,1.07571 -16.11726,-6.44505 -19.34133,-9.66912 1.07571,5.37243 -1.07265,17.19297 -9.66912,25.78947 -11.82057,10.74486 -25.78641,1.07571 -26.86213,0 5.96458,8.88897 7.1704,20.1447 3.22407,30.09543 -6.44814,16.11726 -23.63804,11.82057 -24.71376,11.82057 1.07264,1.07571 15.04155,10.74792 15.04155,25.78947 0,16.13268 -19.34442,22.56231 -19.34442,22.56231 0,0 19.34134,2.15145 22.56541,17.193 3.22407,13.9689 -6.44506,26.86209 -7.52078,27.93783 1.07572,0 9.67221,-4.29672 22.56542,5.3724 12.89319,9.66915 5.37243,30.0862 5.37243,30.0862 6.8592,-5.73369 16.09323,-7.74102 24.71376,-5.37243 13.96581,4.29981 15.04155,25.7895 15.04155,25.7895 0,0 10.74483,-16.11729 21.49275,-16.11729 10.74795,0 21.49278,16.11729 21.49278,16.11729 z"
     fill="#ffce15"
     style="fill:#ffce15;fill-opacity:1;stroke-width:3.08229" />
  <path
     id="Tracé_21"
     data-name="Tracé 21"
     d="M 375.00001,518.35828"
     fill="none"
     stroke="#000000"
     stroke-miterlimit="10"
     stroke-width="2.91276" />
  <g
     id="Groupe_26"
     data-name="Groupe 26"
     transform="scale(3.0822847,3.0673801)">
    <path
       id="Tracé_23"
       data-name="Tracé 23"
       d="M 165.963,14.1 C 99.031,14.1 44.3,92.885 44.3,190.146 c 0,97.261 54.382,176.046 121.663,176.046 67.281,0 121.663,-78.785 121.663,-176.046 C 287.626,92.885 232.9,14.1 165.963,14.1 Z m 0,344.074 c -62.749,0 -113.645,-75.3 -113.645,-168.028 0,-92.38 50.9,-168.028 113.645,-168.028 62.745,0 113.645,75.3 113.645,168.028 0,92.728 -51.244,168.028 -113.645,168.028 z"
       transform="translate(-44.3,-14.1)"
       fill="#156c52" />
  </g>
  <g
     id="Groupe_27"
     data-name="Groupe 27"
     transform="matrix(3.0822847,0,0,3.0822847,315.90337,533.39983)">
    <path
       id="Tracé_27"
       data-name="Tracé 27"
       d="m 93.222,72.069 c 0,-4.88 -3.137,-7.669 -8.367,-7.669 H 73.7 v 24.054 h 5.229 v -8.367 h 4.183 l 4.188,8.367 h 5.926 L 88.69,79.041 c 2.91662,-1.027754 4.776704,-3.889295 4.532,-6.972 z M 78.929,69.281 h 5.926 c 2.092,0 3.137,1.046 3.137,2.789 0,1.743 -1.046,2.789 -3.137,2.789 h -5.926 z"
       transform="translate(-73.7,-64.051)" />
    <path
       id="path1754"
       data-name="Tracé 28"
       d="m 21.265,0.349 v 5.229 h 6.972 v 18.825 h 5.228 V 5.578 h 6.623 V 0.349 Z" />
  </g>
  <g
     id="g1579"
     transform="matrix(3.0822847,0,0,3.0822847,0,-6.0000001)">
    <path
       id="Tracé_63"
       data-name="Tracé 63"
       d="M 53.335998,239.492"
       fill="#cf3339" />
    <path
       id="Tracé_64"
       data-name="Tracé 64"
       d="m 117.479,307.818 c -0.7,-1.394 -0.349,-1.394 -0.349,-2.789 a 7.246,7.246 0 0 1 0,-2.789 c 0.7,-1.394 -0.7,-3.486 -1.743,-4.183 0,0 -3.835,-2.44 -5.578,-3.486 -2.092,-1.046 -3.486,-2.44 -3.486,-3.835 0,-1.395 1.394,-3.137 1.394,-5.229 0,-2.092 -1.046,-2.789 -0.7,-3.835 0,-1.046 1.743,-3.137 2.789,-4.183 1.046,-1.046 1.394,-5.229 -1.046,-9.412 -1.046,-1.394 -6.275,-7.321 -6.275,-7.321 a 91.732,91.732 0 0 1 -5.578002,-8.018 10.5,10.5 0 0 1 -1.394,-4.88 c 0.349,-2.092 1.046,-3.486 2.44,-3.137 a 2.936,2.936 0 0 1 2.440002,2.44 c 0.349,0.7 0.7,1.046 -0.349,2.789 -1.049002,1.743 0.7,4.532 0.7,4.532 a 1.524,1.524 0 0 1 1.046,-1.394 c 0,0 -0.349,1.394 1.743,4.183 0,0 -0.7,-2.092 0.349,-2.44 0.7,-0.349 1.743,3.486 3.486,5.578 1.743,2.092 5.926,1.743 5.926,1.743 0,0 -2.789,-1.394 -3.835,-9.761 -0.7,-5.229 -3.835,-4.88 -5.926,-4.88 v 0 c -1.046,-0.349 -1.743,-2.092 -2.44,-3.137 -0.7,-1.394 -2.092002,-2.789 -3.486002,-2.789 a 3.572,3.572 0 0 0 -3.486,2.092 c -1.046,1.743 -1.046,2.789 -1.046,5.578 a 16.343,16.343 0 0 0 2.092,7.321 86.412,86.412 0 0 0 5.578002,7.321 c 0,0 4.532,5.229 5.578,7.321 1.046,2.092 0.7,3.835 0,4.532 -1.046,0.7 -4.183,0.349 -4.88,0 -0.7,-0.7 -3.137002,-3.835 -3.137002,-3.835 0,0 -6.275,-6.972 -6.972,-8.715 -0.697,-1.743 -0.7,-6.624 0,-10.11 a 32,32 0 0 0 -0.349,-12.2 c 1.394,0.349 1.743,2.789 1.743,2.789 a 4.465,4.465 0 0 0 0,-4.532 c 2.092,1.743 3.486,0.7 3.486,0.7 -3.137,-3.137 -2.092,-11.155 -2.092,-11.155 0,0 1.394,1.743 2.092,6.275 3.138,-13.254 -3.485,-14.993 -3.485,-14.993 2.789,0.349 5.578,3.486 5.578,3.486 -2.44,-11.155 -8.018,-11.853 -13.247,-10.807 1.743,-2.092 7.321,-2.092 7.321,-2.092 0,0 -6.624,-2.092 -10.458,-1.046 0.7,-1.743 3.486,-3.137 3.486,-3.137 -4.532,0.7 -6.275,1.394 -8.715,3.835 a 5.391,5.391 0 0 1 1.046,-2.789 c 0,0 -3.835,1.046 -5.229,3.486 -1.394,2.44 -0.349,4.183 1.394,4.881 a 7.908,7.908 0 0 0 -1.394,-0.349 7.652,7.652 0 0 0 -4.182,1.739 21.3,21.3 0 0 1 -4.88,2.44 2.656,2.656 0 0 0 0,2.789 c 0.349,0.349 0.349,0.349 0.349,1.046 0,0.349 0.349,3.137 1.743,3.486 l 1.394,0.7 c 0,0 -0.7,-1.394 1.743,-1.743 2.443,-0.349 5.578,1.394 2.092,3.486 -1.046,0.7 -2.789,1.394 -3.835,0.349 a 1.08,1.08 0 0 1 -0.349,-0.7 c 0,0 -0.7,0 -1.046,1.046 -0.346,1.046 -0.349,3.137 1.046,3.486 1.395,0.349 4.88,-0.7 6.275,-1.394 1.743,-0.7 3.486,-2.092 3.486,-4.183 0,0 1.743,1.743 -1.743,4.532 -3.486,2.44 -11.155,2.44 -11.155,9.064 a 7.034,7.034 0 0 1 4.183,-3.835 c 0,0 -4.532,2.789 -3.835,7.321 a 8.464,8.464 0 0 1 5.926,-4.88 c 0,0 -5.926,3.835 -5.229,14.99 v 0.349 c -1.394,-3.137 -0.7,-7.669 -0.7,-7.669 -1.743,0 -2.789,-2.092 -3.486,-3.486 -1.046,-4.532 -1.394,-4.88 -3.137,-5.926 a 10.581,10.581 0 0 0 -3.835,-1.046 1.909,1.909 0 0 0 -1.743,1.394 c 0,0.349 1.394,-0.349 2.44,0.7 a 4.388,4.388 0 0 0 -2.789,0.349 c -0.349,0.349 0,2.092 0,2.092 0.349,0.349 1.743,-0.349 2.44,0 a 8.868,8.868 0 0 0 -2.44,0.7 c -0.349,0.7 0,1.743 0,2.092 0.7,0.7 3.486,-0.349 3.835,4.183 0,0.349 0.349,1.046 0.349,1.394 a 2.439,2.439 0 0 0 2.44,1.046 c 0.349,0.7 2.44,3.486 3.486,5.229 a 34.6,34.6 0 0 1 -5.229,1.046 c -1.046,0 -2.789,-1.394 -2.789,-1.394 l -3.835,-2.092 c 0,0 0,1.743 -1.046,1.394 -0.7,0 -0.7,-2.092 -0.7,-2.092 0,0 -2.092,0.7 -2.092,2.092 -1.046,0 -1.394,2.44 -0.7,3.486 -2.44,3.137 3.137,4.183 3.137,4.183 0,0 3.835,1.394 4.88,1.743 1.045,0.349 3.137,1.394 4.532,1.394 a 18.939,18.939 0 0 0 3.835,-0.7 c 0,0 2.44,-0.349 3.835,-0.7 0,0 3.137,0 6.972,-7.669 0,0 -0.7,6.624 -5.578,8.715 a 18.827,18.827 0 0 0 2.789,2.789 24.762,24.762 0 0 0 4.532,4.183 c 1.743,1.394 6.275,3.137 7.321,4.532 a 10.045,10.045 0 0 1 1.394,3.835 0.683,0.683 0 0 1 0.7,-0.7 c 0.7,0 1.394,2.44 1.394,2.44 0,0 0.7,-2.44 1.046,-1.743 a 5.326,5.326 0 0 1 1.394,3.486 4.823,4.823 0 0 1 -0.7,2.44 l -4.183,4.88 c -2.789,2.789 -3.486,3.137 -4.183,4.532 a 12.231,12.231 0 0 0 -1.743,2.789 c -0.349,1.394 -0.349,2.789 0.7,5.926 0.7,2.44 -0.349,6.972 -2.092,6.972 -4.532,0 -4.532,-1.046 -5.926,0.349 a 13.774,13.774 0 0 0 -2.789,4.183 2.1,2.1 0 0 0 1.743,1.394 c 0.349,0 0,-2.44 1.394,-3.137 a 5.018,5.018 0 0 0 -0.7,3.137 1.408,1.408 0 0 0 1.743,1.046 c 0,-0.349 0,-2.092 0.7,-2.44 v 2.44 a 1.492,1.492 0 0 0 2.092,0.349 c 1.046,-0.7 1.743,-2.789 5.578,-2.092 2.092,0.349 2.44,0 2.44,-1.046 0,-1.394 1.046,-3.486 1.743,-5.578 a 1.868,1.868 0 0 1 1.394,-1.046 1.08,1.08 0 0 1 0.349,0.7 2.722,2.722 0 0 0 0,-1.743 1.08,1.08 0 0 1 0.7,0.349 c 0,0 0,-1.046 -0.7,-1.394 -0.349,-0.7 -1.046,-2.44 -0.7,-3.486 0.7,-1.743 4.183,-4.88 9.761,-4.88 -2.44,-2.44 -2.789,-3.835 -3.137,-6.624 a 21.846,21.846 0 0 1 0,-7.321 c 0,0 0.349,5.578 1.394,7.321 4.183,9.412 16.733002,11.853 16.733002,11.853 a 12.509,12.509 0 0 1 0,3.835 c -1.046,3.486 -1.394,4.88 -1.394,4.88 a 34.669,34.669 0 0 1 -5.926,-1.046 c -1.743002,-0.349 -3.486002,4.532 -3.486002,4.88 a 2.722,2.722 0 0 0 1.394,1.394 c 0.349,0 0.349,-2.092 1.743002,-2.789 0,0 -1.394002,1.743 -1.046,2.789 a 1.392,1.392 0 0 0 1.394,0.7 c 0.349,0 0,-1.743 0.7,-2.44 0,0 -0.349,2.092 0.349,2.44 1.046,0.7 1.046,0.349 1.743,0 a 21.1,21.1 0 0 1 5.229,-0.7 c 1.394,0 1.743,-3.137 3.486,-5.926 1.743,-2.789 2.092,-4.88 2.789,-4.88 0.697,0 1.046,1.743 0,2.44 0.697,-0.002 2.445,-1.047 1.747,-2.442 z m -44.970002,-87.5 c -0.7,0.7 -3.835,0.349 -3.486,-1.046 0.349,-1.395 2.44,-1.743 3.486,-1.046 1.046,1.048 0,1.748 0,2.092 z"
       fill="#d21b33" />
    <path
       id="Tracé_65"
       d="m 61.005859,206.375 -2.439453,3.48633 1.044922,2.09179 -3.833984,17.77735 -1.046875,-13.24609 c -0.293648,-0.55523 -0.528014,-1.13984 -0.699219,-1.74415 -0.349,-0.349 -1.395141,-0.69865 -1.744141,-0.34765 -0.349,0.351 6.1e-4,1.39319 0.34961,1.74219 0.465414,0.59377 1.062516,1.07118 1.74414,1.39453 0,0 -8.015093,12.89872 -6.621093,34.51172 v 0.69921 c 0,0.349 0.348218,2.0918 0.699218,2.0918 1.046,0.349 1.046875,-1.04458 1.046875,-1.39258 v -2.0957 c -0.597747,-11.0261 1.062473,-22.05812 4.878907,-32.41992 l 0.701172,14.64062 -0.701172,3.83594 h 0.349609 l 0.347656,-1.74414 v 1.74414 c 0.349,0 0.700875,0.34766 1.046875,0.34766 l -0.349609,-5.92578 4.183594,-19.52149 1.742187,-1.74219 z m -8.714843,38.74155 -2.091797,9.01626 0.349609,0.34961 2.196678,-9.24957 z m 2.789062,5.27671 0.34961,6.97071 h 1.044921 l -0.347656,-6.27149 c -0.349,0 -0.700875,-0.34822 -1.046875,-0.69922 z m -6.27539,13.2461 c 2.439999,13.944 7.669921,19.42705 7.669921,19.42705 l -1.394531,2.09179 c -0.7,1.046 -0.700609,1.39514 -0.349609,1.74414 0.351,0.349 1.04714,-8.7e-4 1.74414,-1.04687 0.417349,-0.6215 0.658942,-1.34426 0.699219,-2.0918 l -0.699219,-17.33525 c 0,-0.348 -0.348265,-0.34961 -0.697265,-0.34961 l 0.699218,15.94267 c -2.680824,-5.90868 -4.669927,-11.31563 -5.927734,-17.68095 -0.7,-0.349 -1.395141,-0.35017 -1.74414,-0.70117 z" />
    <path
       id="Tracé_69"
       data-name="Tracé 69"
       d="M 53.336998,239.492 Z" />
  </g>
  <g
     id="g1719"
     transform="matrix(3.0822847,0,0,3.0822847,250.71646,-6.0000001)">
    <path
       id="path1701"
       data-name="Tracé 63"
       d="M 108.64989,239.492"
       fill="#cf3339" />
    <path
       id="path1703"
       data-name="Tracé 64"
       d="m 44.50689,307.818 c 0.7,-1.394 0.349,-1.394 0.349,-2.789 a 7.246,7.246 0 0 0 0,-2.789 c -0.7,-1.394 0.7,-3.486 1.743,-4.183 0,0 3.835,-2.44 5.578,-3.486 2.092,-1.046 3.486,-2.44 3.486,-3.835 0,-1.395 -1.394,-3.137 -1.394,-5.229 0,-2.092 1.046,-2.789 0.7,-3.835 0,-1.046 -1.743,-3.137 -2.789,-4.183 -1.046,-1.046 -1.394,-5.229 1.046,-9.412 1.046,-1.394 6.275,-7.321 6.275,-7.321 a 91.732,91.732 0 0 0 5.578002,-8.018 10.5,10.5 0 0 0 1.394,-4.88 c -0.349,-2.092 -1.046,-3.486 -2.44,-3.137 a 2.936,2.936 0 0 0 -2.440002,2.44 c -0.349,0.7 -0.7,1.046 0.349,2.789 1.049002,1.743 -0.7,4.532 -0.7,4.532 a 1.524,1.524 0 0 0 -1.046,-1.394 c 0,0 0.349,1.394 -1.743,4.183 0,0 0.7,-2.092 -0.349,-2.44 -0.7,-0.349 -1.743,3.486 -3.486,5.578 -1.743,2.092 -5.926,1.743 -5.926,1.743 0,0 2.789,-1.394 3.835,-9.761 0.7,-5.229 3.835,-4.88 5.926,-4.88 v 0 c 1.046,-0.349 1.743,-2.092 2.44,-3.137 0.7,-1.394 2.092002,-2.789 3.486002,-2.789 a 3.572,3.572 0 0 1 3.486,2.092 c 1.046,1.743 1.046,2.789 1.046,5.578 a 16.343,16.343 0 0 1 -2.092,7.321 86.412,86.412 0 0 1 -5.578002,7.321 c 0,0 -4.532,5.229 -5.578,7.321 -1.046,2.092 -0.7,3.835 0,4.532 1.046,0.7 4.183,0.349 4.88,0 0.7,-0.7 3.137002,-3.835 3.137002,-3.835 0,0 6.275,-6.972 6.972,-8.715 0.697,-1.743 0.7,-6.624 0,-10.11 a 32,32 0 0 1 0.349,-12.2 c -1.394,0.349 -1.743,2.789 -1.743,2.789 a 4.465,4.465 0 0 1 0,-4.532 c -2.092,1.743 -3.486,0.7 -3.486,0.7 3.137,-3.137 2.092,-11.155 2.092,-11.155 0,0 -1.394,1.743 -2.092,6.275 -3.138,-13.254 3.485,-14.993 3.485,-14.993 -2.789,0.349 -5.578,3.486 -5.578,3.486 2.44,-11.155 8.018,-11.853 13.247,-10.807 -1.743,-2.092 -7.321,-2.092 -7.321,-2.092 0,0 6.624,-2.092 10.458,-1.046 -0.7,-1.743 -3.486,-3.137 -3.486,-3.137 4.532,0.7 6.275,1.394 8.715,3.835 a 5.391,5.391 0 0 0 -1.046,-2.789 c 0,0 3.835,1.046 5.229,3.486 1.394,2.44 0.349,4.183 -1.394,4.881 a 7.908,7.908 0 0 1 1.394,-0.349 7.652,7.652 0 0 1 4.182,1.739 21.3,21.3 0 0 0 4.88,2.44 2.656,2.656 0 0 1 0,2.789 c -0.349,0.349 -0.349,0.349 -0.349,1.046 0,0.349 -0.349,3.137 -1.743,3.486 l -1.394,0.7 c 0,0 0.7,-1.394 -1.743,-1.743 -2.443,-0.349 -5.578,1.394 -2.092,3.486 1.046,0.7 2.789,1.394 3.835,0.349 a 1.08,1.08 0 0 0 0.349,-0.7 c 0,0 0.7,0 1.046,1.046 0.346,1.046 0.349,3.137 -1.046,3.486 -1.395,0.349 -4.88,-0.7 -6.275,-1.394 -1.743,-0.7 -3.486,-2.092 -3.486,-4.183 0,0 -1.743,1.743 1.743,4.532 3.486,2.44 11.155,2.44 11.155,9.064 a 7.034,7.034 0 0 0 -4.183,-3.835 c 0,0 4.532,2.789 3.835,7.321 a 8.464,8.464 0 0 0 -5.926,-4.88 c 0,0 5.926,3.835 5.229,14.99 v 0.349 c 1.394,-3.137 0.7,-7.669 0.7,-7.669 1.743,0 2.788998,-2.092 3.485998,-3.486 1.046,-4.532 1.394,-4.88 3.137,-5.926 a 10.581,10.581 0 0 1 3.835,-1.046 1.909,1.909 0 0 1 1.743,1.394 c 0,0.349 -1.394,-0.349 -2.44,0.7 a 4.388,4.388 0 0 1 2.789,0.349 c 0.349,0.349 0,2.092 0,2.092 -0.349,0.349 -1.743,-0.349 -2.44,0 a 8.868,8.868 0 0 1 2.44,0.7 c 0.349,0.7 0,1.743 0,2.092 -0.7,0.7 -3.486,-0.349 -3.835,4.183 0,0.349 -0.349,1.046 -0.349,1.394 a 2.439,2.439 0 0 1 -2.44,1.046 c -0.349,0.7 -2.44,3.486 -3.486,5.229 a 34.6,34.6 0 0 0 5.229,1.046 c 1.046,0 2.789,-1.394 2.789,-1.394 l 3.835,-2.092 c 0,0 0,1.743 1.046,1.394 0.7,0 0.7,-2.092 0.7,-2.092 0,0 2.092,0.7 2.092,2.092 1.046,0 1.394,2.44 0.7,3.486 2.44,3.137 -3.137,4.183 -3.137,4.183 0,0 -3.835,1.394 -4.88,1.743 -1.045,0.349 -3.137,1.394 -4.532,1.394 a 18.939,18.939 0 0 1 -3.835,-0.7 c 0,0 -2.439998,-0.349 -3.834998,-0.7 0,0 -3.137,0 -6.972,-7.669 0,0 0.7,6.624 5.578,8.715 a 18.827,18.827 0 0 1 -2.789,2.789 24.762,24.762 0 0 1 -4.532,4.183 c -1.743,1.394 -6.275,3.137 -7.321,4.532 a 10.045,10.045 0 0 0 -1.394,3.835 0.683,0.683 0 0 0 -0.7,-0.7 c -0.7,0 -1.394,2.44 -1.394,2.44 0,0 -0.7,-2.44 -1.046,-1.743 a 5.326,5.326 0 0 0 -1.394,3.486 4.823,4.823 0 0 0 0.7,2.44 l 4.183,4.88 c 2.789,2.789 3.486,3.137 4.183,4.532 a 12.231,12.231 0 0 1 1.743,2.789 c 0.349,1.394 0.349,2.789 -0.7,5.926 -0.7,2.44 0.349,6.972 2.092,6.972 4.532,0 4.532,-1.046 5.926,0.349 a 13.774,13.774 0 0 1 2.789,4.183 2.1,2.1 0 0 1 -1.743,1.394 c -0.349,0 0,-2.44 -1.394,-3.137 a 5.018,5.018 0 0 1 0.7,3.137 1.408,1.408 0 0 1 -1.743,1.046 c 0,-0.349 0,-2.092 -0.7,-2.44 v 2.44 a 1.492,1.492 0 0 1 -2.092,0.349 c -1.046,-0.7 -1.743,-2.789 -5.578,-2.092 -2.092,0.349 -2.44,0 -2.44,-1.046 0,-1.394 -1.046,-3.486 -1.743,-5.578 a 1.868,1.868 0 0 0 -1.394,-1.046 1.08,1.08 0 0 0 -0.349,0.7 2.722,2.722 0 0 1 0,-1.743 1.08,1.08 0 0 0 -0.7,0.349 c 0,0 0,-1.046 0.7,-1.394 0.349,-0.7 1.046,-2.44 0.7,-3.486 -0.7,-1.743 -4.183,-4.88 -9.761,-4.88 2.44,-2.44 2.789,-3.835 3.137,-6.624 a 21.846,21.846 0 0 0 0,-7.321 c 0,0 -0.349,5.578 -1.394,7.321 -4.183,9.412 -16.733002,11.853 -16.733002,11.853 a 12.509,12.509 0 0 0 0,3.835 c 1.046,3.486 1.394,4.88 1.394,4.88 a 34.669,34.669 0 0 0 5.926,-1.046 c 1.743002,-0.349 3.486002,4.532 3.486002,4.88 a 2.722,2.722 0 0 1 -1.394,1.394 c -0.349,0 -0.349,-2.092 -1.743002,-2.789 0,0 1.394002,1.743 1.046,2.789 a 1.392,1.392 0 0 1 -1.394,0.7 c -0.349,0 0,-1.743 -0.7,-2.44 0,0 0.349,2.092 -0.349,2.44 -1.046,0.7 -1.046,0.349 -1.743,0 a 21.1,21.1 0 0 0 -5.229,-0.7 c -1.394,0 -1.743,-3.137 -3.486,-5.926 -1.743,-2.789 -2.092,-4.88 -2.789,-4.88 -0.697,0 -1.046,1.743 0,2.44 -0.697,-0.002 -2.445,-1.047 -1.747,-2.442 z m 44.970002,-87.5 c 0.7,0.7 3.835,0.349 3.486,-1.046 -0.349,-1.395 -2.44,-1.743 -3.486,-1.046 -1.046,1.048 0,1.748 0,2.092 z"
       fill="#d21b33" />
    <path
       id="path1705"
       d="m 100.98003,206.375 2.43945,3.48633 -1.04492,2.09179 3.83399,17.77735 1.04687,-13.24609 c 0.29365,-0.55523 0.52802,-1.13984 0.69922,-1.74415 0.349,-0.349 1.39514,-0.69865 1.74414,-0.34765 0.349,0.351 -6.1e-4,1.39319 -0.34961,1.74219 -0.46541,0.59377 -1.06251,1.07118 -1.74414,1.39453 0,0 8.01509,12.89872 6.62109,34.51172 v 0.69921 c 0,0.349 -0.34821,2.0918 -0.69921,2.0918 -1.046,0.349 -1.04688,-1.04458 -1.04688,-1.39258 v -2.0957 c 0.59775,-11.0261 -1.06247,-22.05812 -4.87891,-32.41992 l -0.70117,14.64062 0.70117,3.83594 h -0.3496 l -0.34766,-1.74414 v 1.74414 c -0.349,0 -0.70088,0.34766 -1.04688,0.34766 l 0.34961,-5.92578 -4.18359,-19.52149 -1.74219,-1.74219 z m 8.71484,38.74155 2.0918,9.01626 -0.34961,0.34961 -2.19668,-9.24957 z m -2.78906,5.27671 -0.34961,6.97071 h -1.04492 l 0.34766,-6.27149 c 0.349,0 0.70087,-0.34822 1.04687,-0.69922 z m 6.27539,13.2461 c -2.44,13.944 -7.66992,19.42705 -7.66992,19.42705 l 1.39453,2.09179 c 0.7,1.046 0.70061,1.39514 0.34961,1.74414 -0.351,0.349 -1.04714,-8.7e-4 -1.74414,-1.04687 -0.41735,-0.6215 -0.65894,-1.34426 -0.69922,-2.0918 l 0.69922,-17.33525 c 0,-0.348 0.34827,-0.34961 0.69727,-0.34961 l -0.69922,15.94267 c 2.68082,-5.90868 4.66993,-11.31563 5.92773,-17.68095 0.7,-0.349 1.39514,-0.35017 1.74414,-0.70117 z" />
    <path
       id="path1707"
       data-name="Tracé 69"
       d="M 108.64889,239.492 Z" />
  </g>
  <g
     id="g1792"
     transform="matrix(3.0822847,0,0,3.0822847,0,-6.0000001)">
    <g
       id="Groupe_31"
       data-name="Groupe 31"
       transform="translate(28.236998,91.297)">
      <path
         id="Tracé_49"
         data-name="Tracé 49"
         d="m 69.735,66.124 v 0 c 2.590883,-0.979805 5.278686,-1.681087 8.018,-2.092 H 78.1 c 1.394,-0.349 2.44,-0.349 3.835,-0.7 H 90.3 c 0.49125,-0.05122 0.984834,0.07236 1.394,0.349 v 0 L 87.862,40.327 c -7.321,-0.349 -14.989,1.743 -22.31,4.532 1.046,6.972 2.788,13.944 4.183,21.265 z"
         transform="translate(-18.838,-40.289)"
         fill="#d21b33" />
      <path
         id="Tracé_50"
         data-name="Tracé 50"
         d="M 75.767,53.253 81,56.39 c -1.046,-1.743 -1.743,-3.835 -2.789,-5.578 a 41.778,41.778 0 0 0 3.835,-4.183 29.989,29.989 0 0 0 -5.578,0.349 41.618,41.618 0 0 1 -2.793,-5.578 38.413,38.413 0 0 0 -0.7,6.275 c -1.743,0.349 -3.835,1.046 -5.578,1.394 a 35.182,35.182 0 0 1 5.229,2.44 34.346,34.346 0 0 0 -0.7,5.926 49.684,49.684 0 0 0 3.835,-4.183"
         transform="translate(-15.109,-37.527)"
         fill="#ffffff" />
      <path
         id="Tracé_51"
         data-name="Tracé 51"
         d="M 100.508,48.572 C 100.159,46.132 99.462,43.692 99.114,41.6 83.426,47.526 68.087,56.59 52.4,52.058 c 0.349,2.789 1.046,5.229 1.394,8.018 a 38.611,38.611 0 0 0 6.624,0.7 c 13.247,0.346 26.494,-7.323 40.09,-12.204 z"
         transform="translate(-52.4,-37.03)"
         fill="#156c52" />
      <path
         id="Tracé_52"
         data-name="Tracé 52"
         d="m 77.9,59.636 c 7.669,-2.789 15.339,-6.275 23.008,-9.064 -0.349,-2.44 -1.046,-4.88 -1.394,-6.972 -13.247,4.88 -26.843,12.55 -40.09,12.2 A 47.633,47.633 0 0 1 52.8,55.1 c 0.349,2.789 1.046,5.229 1.394,8.018 7.67,1.05 15.688,-0.693 23.706,-3.482 z"
         transform="translate(-51.406,-32.058)"
         fill="#ffce15" />
      <path
         id="Tracé_53"
         data-name="Tracé 53"
         d="m 76.557,62.682 c 8.367,-2.789 16.384,-6.972 24.751,-9.761 -0.349,-2.44 -1.046,-4.88 -1.394,-7.321 -7.669,2.789 -15.339,6.275 -23.008,9.064 C 68.887,57.453 61.218,59.2 53.2,57.8 c 0.349,2.44 1.046,5.229 1.394,7.669 v 0 c 7.321,1.396 14.642,-0.347 21.963,-2.787 z"
         transform="translate(-50.411,-27.086)"
         fill="#156c52" />
      <path
         id="Tracé_54"
         data-name="Tracé 54"
         d="M 60.624,65.064 H 54 c 0.349,2.44 1.046,5.229 1.394,7.669 22.659,1.394 45.667,-21.265 68.327,-14.99 l -1.394,-8.018 C 101.759,45.193 81.191,62.972 60.624,65.064 Z"
         transform="translate(-48.422,-18.661)"
         fill="#156c52" />
      <path
         id="Tracé_55"
         data-name="Tracé 55"
         d="m 59.426,70.505 h 2.44 C 82.434,68.414 103,50.635 123.57,55.167 l -1.23566,-8.09717 C 114.77867,45.652212 107.1829,47.609018 100.213,49.592 v 0 c -8.367,2.789 -16.384,6.972 -24.751,9.761 -7.321,2.44 -14.641,4.183 -21.962,3.137 0.349,2.789 1.046,5.229 1.394,7.669 v 0 c 1.46658,0.448592 3.014318,0.566756 4.532,0.346 z"
         transform="translate(-49.665,-24.103)"
         fill="#ffce15" />
    </g>
    <path
       id="Tracé_24"
       data-name="Tracé 24"
       d="m 107.80317,153.038 -0.80352,0.23438 -10.499288,-66.46938 -1.901341,-2.789 1.394,-3.835 2.44,3.486 -1.046,2.789 z"
       fill="#ffce15" />
  </g>
  <path
     id="path1769"
     style="font-variation-settings:normal;opacity:1;vector-effect:none;fill:none;fill-opacity:1;stroke:#000000;stroke-width:3.08229;stroke-linecap:butt;stroke-linejoin:miter;stroke-miterlimit:4;stroke-dasharray:none;stroke-dashoffset:0;stroke-opacity:1;stop-color:#000000;stop-opacity:1"
     d="m 467.5837,110.8071 c 86.87325,25.3787 155.19072,112.11245 155.19072,112.11245 l -41.4963,50.95709 -45.14046,-6.4886 17.34318,-26.75912 M 423.0319,170.79476 455.7733,158.18278 470.46817,94.310474 c 0,0 -41.41257,-15.874821 -95.46663,-15.874821 -54.05406,0 -95.46662,15.874821 -95.46662,15.874821 l 14.69487,63.872306 32.74142,12.61198 m 128.51451,-13.18715 c 0,0 -34.02243,-13.60204 -80.48418,-13.60204 -46.46172,0 -80.48416,13.60204 -80.48416,13.60204 m 287.27047,114.25663 c 0,0 -59.23614,-80.20799 -159.10494,-100.5387 l 2.92164,-22.4885 M 282.41939,110.8071 C 195.54615,136.1858 127.22865,222.91955 127.22865,222.91955 l 41.49632,50.95709 45.14047,-6.4886 -17.34319,-26.75912 m -28.30701,31.23532 c 0,0 59.23613,-80.20799 159.10493,-100.5387 l -2.92164,-22.4885" />
  <g
     id="g1864"
     transform="matrix(3.0822847,0,0,3.0822847,0,-6.0000001)">
    <path
       id="path1794"
       data-name="Tracé 49"
       d="m 164.193,117.132 v 0 c -2.59088,-0.9798 -5.27869,-1.68109 -8.018,-2.092 h -0.347 c -1.394,-0.349 -2.44,-0.349 -3.835,-0.7 h -8.365 c -0.49125,-0.0512 -0.98483,0.0724 -1.394,0.349 v 0 l 3.832,-23.354 c 7.321,-0.349 14.989,1.743 22.31,4.532 -1.046,6.972 -2.788,13.944 -4.183,21.265 z"
       fill="#d21b33" />
    <path
       id="path1796"
       data-name="Tracé 50"
       d="m 154.432,107.023 -5.233,3.137 c 1.046,-1.743 1.743,-3.835 2.789,-5.578 a 41.778,41.778 0 0 1 -3.835,-4.183 29.989,29.989 0 0 1 5.578,0.349 41.618,41.618 0 0 0 2.793,-5.578 38.413,38.413 0 0 1 0.7,6.275 c 1.743,0.349 3.835,1.046 5.578,1.394 a 35.182,35.182 0 0 0 -5.229,2.44 34.346,34.346 0 0 1 0.7,5.926 49.684,49.684 0 0 1 -3.835,-4.183"
       fill="#ffffff" />
    <path
       id="path1798"
       data-name="Tracé 51"
       d="m 166.982,102.839 c 0.349,-2.44 1.046,-4.88 1.394,-6.972 15.688,5.926 31.027,14.99 46.714,10.458 -0.349,2.789 -1.046,5.229 -1.394,8.018 a 38.611,38.611 0 0 1 -6.624,0.7 c -13.247,0.346 -26.494,-7.323 -40.09,-12.204 z"
       fill="#156c52" />
    <path
       id="path1800"
       data-name="Tracé 52"
       d="m 188.596,118.875 c -7.669,-2.789 -15.339,-6.275 -23.008,-9.064 0.349,-2.44 1.046,-4.88 1.394,-6.972 13.247,4.88 26.843,12.55 40.09,12.2 a 47.633,47.633 0 0 0 6.624,-0.7 c -0.349,2.789 -1.046,5.229 -1.394,8.018 -7.67,1.05 -15.688,-0.693 -23.706,-3.482 z"
       fill="#ffce15" />
    <path
       id="path1802"
       data-name="Tracé 53"
       d="m 188.944,126.893 c -8.367,-2.789 -16.384,-6.972 -24.751,-9.761 0.349,-2.44 1.046,-4.88 1.394,-7.321 7.669,2.789 15.339,6.275 23.008,9.064 8.019,2.789 15.688,4.536 23.706,3.136 -0.349,2.44 -1.046,5.229 -1.394,7.669 v 0 c -7.321,1.396 -14.642,-0.347 -21.963,-2.787 z"
       fill="#156c52" />
    <path
       id="path1804"
       data-name="Tracé 54"
       d="m 202.888,137.7 h 6.624 c -0.349,2.44 -1.046,5.229 -1.394,7.669 -22.659,1.394 -45.667,-21.265 -68.327,-14.99 l 1.394,-8.018 c 20.568,-4.532 41.136,13.247 61.703,15.339 z"
       fill="#156c52" />
    <path
       id="path1806"
       data-name="Tracé 55"
       d="m 205.329,137.699 h -2.44 c -20.568,-2.091 -41.134,-19.87 -61.704,-15.338 l 1.23566,-8.09717 c 7.55567,-1.41762 15.15144,0.53919 22.12134,2.52217 v 0 c 8.367,2.789 16.384,6.972 24.751,9.761 7.321,2.44 14.641,4.183 21.962,3.137 -0.349,2.789 -1.046,5.229 -1.394,7.669 v 0 c -1.46658,0.44859 -3.01432,0.56676 -4.532,0.346 z"
       fill="#ffce15" />
    <path
       id="path1810"
       data-name="Tracé 24"
       d="m 135.52383,153.038 0.80352,0.23438 10.49929,-66.46938 1.90134,-2.789 -1.394,-3.835 -2.44,3.486 1.046,2.789 z"
       fill="#ffce15" />
  </g>
  <path
     d="m 166.78708,209.15932 -4.43218,4.30867 20.48387,21.07101 -3.52394,3.42575 -20.48387,-21.07101 -4.43218,4.30868 -3.17853,-3.26964 12.3883,-12.0431 z"
     id="path4194"
     style="font-size:50.6667px;font-family:'Highway Gothic Narrow';-inkscape-font-specification:'Highway Gothic Narrow';stroke-width:3.5" />
  <path
     d="m 204.58684,215.54165 -3.93028,3.1166 -13.44973,-9.70361 -3.65238,2.89624 9.91647,12.50541 -3.81117,3.02217 -21.09218,-26.5988 7.93994,-6.29617 q 3.13628,-2.487 6.58442,-2.0528 3.48785,0.40274 6.03779,3.61841 1.66849,2.10408 2.0762,4.81995 0.41593,2.64469 -0.82715,4.66505 z m -19.28332,-16.65246 q -1.19628,-1.50858 -2.84164,-1.62644 -1.64537,-0.11789 -3.19366,1.10991 l -3.93028,3.1166 5.19434,6.55045 3.93028,-3.11661 q 1.42918,-1.13331 1.66614,-2.87312 0.27665,-1.77129 -0.82518,-3.16079 z"
     id="path4196"
     style="font-size:50.6667px;font-family:'Highway Gothic Narrow';-inkscape-font-specification:'Highway Gothic Narrow';stroke-width:3.5" />
  <path
     d="m 224.34234,200.88259 -4.03891,2.80019 -7.23985,-6.263 -5.95428,4.12812 3.40913,8.91887 -3.99728,2.77133 -12.38799,-32.71862 3.91401,-2.7136 z m -14.95004,-6.71286 -7.61181,-6.62165 3.61454,9.39298 z"
     id="path4198"
     style="font-size:50.6667px;font-family:'Highway Gothic Narrow';-inkscape-font-specification:'Highway Gothic Narrow';stroke-width:3.5" />
  <path
     d="m 223.01851,161.55854 8.97678,33.81402 -3.68291,2.03003 -23.66404,-25.71837 4.25975,-2.34798 15.54472,16.65597 -5.73841,-22.06123 z"
     id="path4200"
     style="font-size:50.6667px;font-family:'Highway Gothic Narrow';-inkscape-font-specification:'Highway Gothic Narrow';stroke-width:3.5" />
  <path
     d="m 256.45089,180.45105 -4.20514,2.54375 -6.83659,-6.70088 -6.19934,3.75005 2.84818,9.11352 -4.16179,2.51752 -10.33043,-33.42533 4.0751,-2.46507 z m -14.5039,-7.62907 -7.18552,-7.08198 3.02373,9.5995 z"
     id="path4202"
     style="font-size:50.6667px;font-family:'Highway Gothic Narrow';-inkscape-font-specification:'Highway Gothic Narrow';stroke-width:3.5" />
  <path
     d="m 264.34095,175.74358 -4.27194,2.10558 -15.00788,-30.44896 4.27194,-2.10558 z"
     id="path4204"
     style="font-size:50.6667px;font-family:'Highway Gothic Narrow';-inkscape-font-specification:'Highway Gothic Narrow';stroke-width:3.5" />
  <path
     d="m 283.94837,168.31302 -16.25604,5.85216 -11.49836,-31.94001 4.57648,-1.64752 9.88516,27.45887 11.67956,-4.20463 z"
     id="path4206"
     style="font-size:50.6667px;font-family:'Highway Gothic Narrow';-inkscape-font-specification:'Highway Gothic Narrow';stroke-width:3.5" />
  <path
     d="m 324.73776,134.27399 -16.97374,3.22465 -6.33583,-33.35016 4.77854,-0.90782 5.44691,28.67118 12.19521,-2.31683 z"
     id="path4208"
     style="font-size:50.6667px;font-family:'Highway Gothic Narrow';-inkscape-font-specification:'Highway Gothic Narrow';stroke-width:3.5" />
  <path
     d="m 333.89891,131.62208 -4.73157,0.54336 -3.87288,-33.72502 4.73157,-0.543364 z"
     id="path4210"
     style="font-size:50.6667px;font-family:'Highway Gothic Narrow';-inkscape-font-specification:'Highway Gothic Narrow';stroke-width:3.5" />
  <path
     d="m 357.00937,119.74114 q 0.40486,4.64399 -1.9796,7.32172 -2.38451,2.67773 -6.36803,3.06872 l -9.68148,0.95025 -3.31597,-33.784327 9.68147,-0.950251 q 3.98352,-0.390987 6.60094,1.897617 2.61245,2.238181 2.9629,6.327511 0.55528,5.13832 -2.89807,7.81914 4.3832,1.60619 4.99784,7.34962 z m -6.83965,-14.70354 q -0.24347,-1.96159 -1.47156,-3.0629 -1.18264,-1.15668 -2.69538,-1.0082 l -5.09285,0.49987 0.90571,9.22766 5.09285,-0.49988 q 1.56315,-0.15342 2.53887,-1.62376 0.97075,-1.52077 0.72236,-3.53279 z m 2.15513,15.21425 q -0.21282,-2.16826 -1.67728,-3.60274 -1.46445,-1.43447 -3.5368,-1.28197 l -4.84074,0.47513 1.03438,10.53868 4.89117,-0.48007 q 1.90623,-0.28892 3.12415,-1.88486 1.21794,-1.59593 1.00512,-3.76417 z"
     id="path4212"
     style="font-size:50.6667px;font-family:'Highway Gothic Narrow';-inkscape-font-specification:'Highway Gothic Narrow';stroke-width:3.5" />
  <path
     d="M 379.64453,129.01887 H 362.3672 V 95.072206 h 15.96 v 4.762667 h -11.096 v 8.562667 h 7.04267 v 4.66133 h -7.04267 v 11.19734 h 12.41333 z"
     id="path4214"
     style="font-size:50.6667px;font-family:'Highway Gothic Narrow';-inkscape-font-specification:'Highway Gothic Narrow';stroke-width:3.5" />
  <path
     d="m 403.68333,130.43172 -4.99406,-0.46864 -2.99848,-16.3115 -4.64094,-0.43551 -1.49113,15.89019 -4.84273,-0.45444 3.17163,-33.798178 10.089,0.946753 q 3.98516,0.373967 6.17457,3.072996 2.23986,2.703759 1.85642,6.789809 -0.25089,2.67359 -1.83539,4.91669 -1.52933,2.1974 -3.82465,2.79623 z m -2.40335,-25.36483 q 0.17988,-1.91691 -0.92666,-3.14031 -1.10654,-1.2234 -3.07389,-1.40802 l -4.99406,-0.46864 -0.78107,8.32343 4.99405,0.46864 q 1.81603,0.17042 3.19077,-0.92192 1.42517,-1.0876 1.59086,-2.85318 z"
     id="path4216"
     style="font-size:50.6667px;font-family:'Highway Gothic Narrow';-inkscape-font-specification:'Highway Gothic Narrow';stroke-width:3.5" />
  <path
     d="m 427.2175,104.60916 -6.11512,-0.90239 -4.29003,29.07184 -4.86202,-0.71747 4.29003,-29.07184 -6.1151,-0.90238 0.66569,-4.511148 17.09224,2.522238 z"
     id="path4218"
     style="font-size:50.6667px;font-family:'Highway Gothic Narrow';-inkscape-font-specification:'Highway Gothic Narrow';stroke-width:3.5" />
  <path
     d="m 438.98099,101.8213 -2.81388,-0.65009 3.83675,-4.677734 5.47967,1.265959 z m 1.73415,36.38549 -16.83393,-3.88912 7.64138,-33.07545 15.5504,3.59258 -1.07208,4.64044 -10.81123,-2.4977 -1.92745,8.34292 6.86193,1.5853 -1.04927,4.5417 -6.86192,-1.5853 -2.52051,10.90996 12.09476,2.79423 z"
     id="path4220"
     style="font-size:50.6667px;font-family:'Highway Gothic Narrow';-inkscape-font-specification:'Highway Gothic Narrow';stroke-width:3.5" />
  <path
     d="m 495.04833,151.49855 q 0.79538,-1.75336 0.14847,-3.27081 -0.64691,-1.51744 -2.44642,-2.33375 l -4.56798,-2.07215 -3.45359,7.6133 4.56798,2.07215 q 1.66108,0.75351 3.31694,0.16939 1.70202,-0.56318 2.4346,-2.17813 z m -8.0839,6.29178 -4.24498,-1.92564 -6.59323,14.53448 -4.42955,-2.00936 14.02368,-30.91461 9.22823,4.18617 q 3.64516,1.65354 4.83433,4.91914 1.23531,3.28653 -0.46009,7.02397 -1.5532,3.30122 -4.81021,4.71683 -3.2109,1.43652 -7.54818,-0.53098 z"
     id="path4222"
     style="font-size:50.6667px;font-family:'Highway Gothic Narrow';-inkscape-font-specification:'Highway Gothic Narrow';stroke-width:3.5" />
  <path
     d="m 507.34661,187.10206 -4.3301,-2.32468 2.28765,-9.29556 -6.38355,-3.42711 -6.39456,7.0907 -4.28546,-2.30071 23.51201,-25.90667 4.19618,2.25279 z m -0.81639,-16.36763 2.43803,-9.78989 -6.72349,7.48917 z"
     id="path4224"
     style="font-size:50.6667px;font-family:'Highway Gothic Narrow';-inkscape-font-specification:'Highway Gothic Narrow';stroke-width:3.5" />
  <path
     d="m 537.37812,170.22575 -5.31895,-3.14925 -14.97181,25.28678 -4.229,-2.50391 14.97182,-25.28678 -5.31894,-3.14924 2.32321,-3.9238 14.86688,8.80239 z"
     id="path4226"
     style="font-size:50.6667px;font-family:'Highway Gothic Narrow';-inkscape-font-specification:'Highway Gothic Narrow';stroke-width:3.5" />
  <path
     d="m 539.80732,207.87762 -4.10062,-2.8888 5.50526,-15.64443 -3.81068,-2.68455 -9.19166,13.04742 -3.97636,-2.80127 19.55051,-27.75164 8.28408,5.83597 q 3.2722,2.30521 3.83057,5.73543 0.59979,3.45942 -1.76378,6.81447 -1.54653,2.19528 -4.03634,3.35418 -2.4192,1.14666 -4.70858,0.52547 z m 10.52134,-23.20457 q 1.10883,-1.57397 0.7567,-3.18554 -0.35213,-1.61157 -1.96752,-2.74958 l -4.10062,-2.88881 -4.81468,6.83436 4.10062,2.88881 q 1.49113,1.05047 3.22696,0.78588 1.77725,-0.23541 2.79854,-1.68512 z"
     id="path4228"
     style="font-size:50.6667px;font-family:'Highway Gothic Narrow';-inkscape-font-specification:'Highway Gothic Narrow';stroke-width:3.5" />
  <path
     d="m 546.40149,212.77446 -3.70633,-2.99101 21.31888,-26.41743 3.70633,2.99101 z"
     id="path4230"
     style="font-size:50.6667px;font-family:'Highway Gothic Narrow';-inkscape-font-specification:'Highway Gothic Narrow';stroke-width:3.5" />
  <path
     d="m 561.75332,227.7256 -12.64621,-11.77198 23.1297,-24.84738 11.68199,10.87441 -3.24506,3.48605 -8.12176,-7.56031 -5.83421,6.26748 5.1549,4.79855 -3.17601,3.41188 -5.15491,-4.79855 -7.62936,8.19593 9.08599,8.45788 z"
     id="path4232"
     style="font-size:50.6667px;font-family:'Highway Gothic Narrow';-inkscape-font-specification:'Highway Gothic Narrow';stroke-width:3.5" />
</svg>
