<?xml version="1.0" encoding="UTF-8" standalone="no"?>
<!-- Creator: CorelDRAW -->

<svg
   xmlns:dc="http://purl.org/dc/elements/1.1/"
   xmlns:cc="http://creativecommons.org/ns#"
   xmlns:rdf="http://www.w3.org/1999/02/22-rdf-syntax-ns#"
   xmlns:svg="http://www.w3.org/2000/svg"
   xmlns="http://www.w3.org/2000/svg"
   xmlns:sodipodi="http://sodipodi.sourceforge.net/DTD/sodipodi-0.dtd"
   xmlns:inkscape="http://www.inkscape.org/namespaces/inkscape"
   xml:space="preserve"
   width="2300px"
   height="2712px"
   shape-rendering="geometricPrecision"
   text-rendering="geometricPrecision"
   image-rendering="optimizeQuality"
   fill-rule="evenodd"
   clip-rule="evenodd"
   viewBox="0 0 2335.24 2754.38"
   id="svg3148"
   version="1.1"
   inkscape:version="0.48.2 r9819"
   sodipodi:docname="Coat_of_arms_of_Freistadt.svg"><metadata
   id="metadata3166"><rdf:RDF><cc:Work
       rdf:about=""><dc:format>image/svg+xml</dc:format><dc:type
         rdf:resource="http://purl.org/dc/dcmitype/StillImage" /></cc:Work></rdf:RDF></metadata><defs
   id="defs3164" /><sodipodi:namedview
   pagecolor="#ffffff"
   bordercolor="#666666"
   borderopacity="1"
   objecttolerance="10"
   gridtolerance="10"
   guidetolerance="10"
   inkscape:pageopacity="0"
   inkscape:pageshadow="2"
   inkscape:window-width="1366"
   inkscape:window-height="706"
   id="namedview3162"
   showgrid="false"
   inkscape:zoom="0.087020649"
   inkscape:cx="-717.37288"
   inkscape:cy="1356"
   inkscape:window-x="-8"
   inkscape:window-y="-8"
   inkscape:window-maximized="1"
   inkscape:current-layer="Ebene_x0020_1" />
 <g
   id="Ebene_x0020_1">
  <metadata
   id="CorelCorpID_0Corel-Layer" />
  <path
   fill="#2B2C2A"
   d="M1131.58 2754.23c93.8412,1.30373 187.719,-5.52197 281.912,-24.3631 174.078,-34.4248 336.473,-108.149 456.971,-192.926 120.488,-80.865 248.467,-217.603 316.364,-334.854 0.314239,-1.30373 1.26775,-2.25724 1.26775,-2.25724 85.118,-137.08 146.163,-331.941 147.143,-504.75l0 -1694.09 -2335.24 -0.989493 1.30373 1541.16c0,108.464 -6.18643,214.68 15.5764,323.154 7.49136,40.9182 17.8601,81.5307 31.5019,122.133 57.8344,167.89 127.979,280.618 244.574,405.009 123.437,124.715 236.767,199.078 386.825,264.367 92.5734,39.6229 197.81,69.5068 295.555,84.1381 52.3112,7.13155 104.246,11.6736 156.244,14.2727z"
   id="path3152" />
  <path
   style="fill:#008000"
   d="M 2269.9062 30.40625 L 32.34375 32 L 32.09375 1287.0625 L 2269.9062 1287.0625 L 2269.9062 30.40625 z "
   transform="matrix(1.0156268,0,0,1.0156268,-0.35087021,0)"
   id="path3154" />
  <rect
   x="32.2251"
   y="777.9"
   width="2272.81"
   height="948.063"
   id="rect3156"
   stroke-width="0.913932"
   stroke="#1F1A17"
   fill="white" />
  <line
   fill="none"
   stroke="#1F1A17"
   stroke-width="16.9245"
   x1="32.2251"
   y1="777.9"
   x2="2305.03"
   y2="777.9"
   id="line3158" />
  <line
   fill="none"
   stroke="#1F1A17"
   stroke-width="16.9245"
   x1="2305.03"
   y1="1725.96"
   x2="32.2251"
   y2="1725.96"
   id="line3160" />
 <path
   d="M 930.8125 31.375 L 32.34375 32 L 32 1688.5312 C 33.275409 1736.8243 39.976571 1784.454 48.9375 1832.4375 C 68.780713 1938.9235 111.29768 2046.373 159.28125 2129.5 C 223.87584 2248.4797 345.39209 2380.5723 465 2465 C 583.97972 2549.4378 742.57385 2623.6022 914 2656.8438 C 919.60455 2657.933 925.21241 2658.9698 930.8125 2659.9688 L 930.8125 31.375 z "
   id="path3981"
   transform="matrix(1.0156268,0,0,1.0156268,-0.35087021,0)"
   style="fill:#f02c2d;fill-opacity:1" /><path
   style="fill:#f02c2d;fill-opacity:1;stroke:#000000;stroke-opacity:1;stroke-width:10.00000043;stroke-miterlimit:4;stroke-dasharray:none"
   transform="matrix(1.0156268,0,0,1.0156268,-0.35087021,0)"
   id="path3984"
   d="m 914,2656.8438 c 5.60455,1.0892 11.21241,2.126 16.8125,3.125 l 0,-2628.5938"
   inkscape:connector-curvature="0"
   sodipodi:nodetypes="ccc" /></g>
</svg>