<svg id="svg" xmlns="http://www.w3.org/2000/svg" xmlns:xlink="http://www.w3.org/1999/xlink" width="400" height="533.3333333333334" viewBox="0, 0, 400,533.3333333333334"><g id="svgg"><path id="path0" d="M197.952 67.667 C 198.923 71.167,199.076 71.028,195.444 69.949 C 194.770 69.749,194.667 70.042,194.667 72.149 L 194.667 74.580 196.713 73.964 L 198.759 73.348 198.491 74.452 C 198.343 75.059,198.101 76.056,197.952 76.667 C 197.690 77.744,197.751 77.778,200.000 77.778 C 202.249 77.778,202.310 77.744,202.048 76.667 C 201.899 76.056,201.660 75.070,201.515 74.476 L 201.253 73.396 203.293 74.010 L 205.333 74.624 205.333 72.232 L 205.333 69.840 203.892 70.253 C 201.779 70.859,201.241 70.777,201.504 69.889 C 202.487 66.580,202.528 66.667,199.996 66.667 C 197.802 66.667,197.689 66.722,197.952 67.667 M197.299 81.299 C 194.650 83.948,196.332 88.000,200.081 88.000 C 203.352 88.000,204.968 84.939,203.350 81.810 C 202.172 79.532,199.308 79.290,197.299 81.299 M197.333 90.977 C 193.174 93.118,193.288 99.062,197.846 117.778 C 199.723 125.486,199.940 125.796,200.943 122.211 C 204.482 109.562,206.371 97.253,205.265 94.042 C 204.153 90.817,200.435 89.379,197.333 90.977 M185.451 93.130 C 177.666 95.226,173.878 99.743,174.326 106.394 C 174.751 112.700,181.255 128.334,183.249 127.844 C 184.186 127.613,191.132 126.406,194.111 125.956 C 194.945 125.830,195.556 125.476,195.556 125.118 C 195.556 122.694,191.093 100.208,189.534 94.778 C 188.800 92.223,188.807 92.226,185.451 93.130 M210.896 92.878 C 210.086 94.189,204.108 125.145,204.575 125.612 C 204.707 125.744,206.281 126.033,208.074 126.255 C 209.867 126.477,212.709 126.968,214.389 127.347 C 218.044 128.171,217.383 128.755,220.580 121.875 C 227.998 105.914,227.525 99.186,218.668 94.667 C 215.703 93.155,211.345 92.151,210.896 92.878 M299.765 96.141 C 297.313 97.408,294.113 98.942,292.654 99.549 L 290.000 100.654 294.222 101.188 C 299.431 101.847,301.303 102.501,306.667 105.538 C 312.113 108.621,315.608 109.650,322.547 110.213 C 327.247 110.595,331.808 111.365,334.556 112.240 C 335.590 112.569,335.118 112.017,333.383 110.869 C 332.433 110.240,329.764 109.258,327.453 108.685 C 321.562 107.226,320.441 106.534,314.620 100.756 C 306.764 92.958,306.240 92.795,299.765 96.141 M91.721 94.928 C 90.957 95.305,88.142 97.878,85.467 100.646 C 80.042 106.259,78.718 107.096,73.050 108.494 C 66.690 110.064,62.027 112.871,67.677 111.730 C 69.199 111.422,73.244 110.853,76.667 110.466 C 84.686 109.558,86.535 108.997,93.778 105.278 C 99.730 102.221,101.390 101.706,107.301 101.083 L 109.935 100.805 103.173 97.514 C 95.974 94.009,94.334 93.639,91.721 94.928 M140.889 103.082 C 140.889 104.300,140.747 104.444,139.556 104.444 C 138.363 104.444,138.222 104.589,138.222 105.813 C 138.222 107.117,138.289 107.167,139.621 106.875 C 140.994 106.573,141.015 106.593,140.743 107.950 C 140.475 109.291,140.516 109.333,142.046 109.333 C 143.582 109.333,143.618 109.295,143.323 107.955 C 143.026 106.603,143.047 106.582,144.399 106.879 C 145.708 107.166,145.778 107.113,145.778 105.813 C 145.778 104.585,145.639 104.444,144.428 104.444 C 143.220 104.444,143.091 104.315,143.205 103.222 C 143.314 102.181,143.152 101.979,142.111 101.859 C 141.013 101.733,140.889 101.857,140.889 103.082 M256.840 102.111 C 256.813 102.294,256.831 102.923,256.880 103.508 C 256.961 104.471,256.840 104.546,255.596 104.297 C 254.267 104.031,254.222 104.073,254.222 105.602 C 254.222 107.135,254.263 107.173,255.591 106.881 C 256.750 106.627,256.946 106.706,256.873 107.401 C 256.700 109.046,256.891 109.395,257.889 109.253 C 258.614 109.150,258.929 108.764,259.033 107.849 C 259.158 106.758,259.324 106.624,260.256 106.858 C 260.971 107.037,261.335 106.938,261.339 106.564 C 261.343 106.254,261.466 105.550,261.613 105.001 C 261.859 104.084,261.766 104.025,260.496 104.279 C 259.182 104.541,259.111 104.484,259.111 103.167 C 259.111 101.881,257.017 100.908,256.840 102.111 M103.845 103.434 C 102.636 103.615,102.591 103.705,102.835 105.478 C 103.808 112.558,103.792 112.735,101.551 119.340 C 96.811 133.309,98.927 139.772,110.047 145.279 C 113.366 146.923,121.778 148.995,121.778 148.169 C 121.778 148.107,120.028 146.924,117.889 145.541 C 106.558 138.213,105.363 134.346,110.618 122.022 C 117.493 105.898,115.936 101.625,103.845 103.434 M289.111 103.524 C 283.808 104.804,283.634 109.054,288.453 119.574 C 294.780 133.387,293.752 137.809,282.444 145.434 L 278.444 148.132 280.932 147.883 C 286.204 147.355,292.919 144.240,296.755 140.542 C 301.691 135.784,302.137 130.208,298.449 119.340 C 296.210 112.740,296.191 112.537,297.162 105.509 L 297.414 103.685 295.707 103.403 C 293.582 103.052,290.860 103.102,289.111 103.524 M30.960 113.346 C 20.988 122.460,21.940 142.564,33.043 157.323 C 39.262 165.589,61.463 187.130,62.595 185.997 C 62.685 185.908,62.342 184.572,61.834 183.028 C 61.327 181.485,60.629 178.994,60.284 177.493 C 59.685 174.884,59.435 174.540,54.575 169.640 C 46.863 161.863,42.846 155.430,40.865 147.684 C 38.984 140.329,39.491 140.375,44.568 148.020 C 51.620 158.641,59.632 169.136,60.129 168.405 C 60.198 168.304,60.817 166.447,61.506 164.277 L 62.758 160.332 61.300 158.277 C 51.630 144.658,41.682 127.484,35.534 113.796 C 34.127 110.665,33.916 110.644,30.960 113.346 M140.089 111.644 C 139.328 112.405,139.429 114.922,140.254 115.746 C 141.746 117.238,144.889 115.903,144.889 113.778 C 144.889 111.753,141.491 110.243,140.089 111.644 M256.111 111.405 C 255.396 111.694,255.379 115.201,256.089 115.911 C 257.464 117.286,260.444 115.856,260.444 113.821 C 260.444 111.760,258.256 110.540,256.111 111.405 M363.555 115.444 C 357.705 128.525,349.097 143.499,339.669 156.994 L 337.267 160.433 338.010 162.994 C 338.418 164.403,339.037 166.239,339.385 167.075 L 340.017 168.594 341.382 167.297 C 343.345 165.430,347.912 159.215,354.253 149.778 C 360.379 140.661,360.971 140.406,359.136 147.673 C 357.153 155.527,353.040 162.069,345.248 169.763 L 340.052 174.894 339.571 177.900 C 339.307 179.554,338.688 181.929,338.195 183.180 C 337.702 184.430,337.357 185.628,337.428 185.841 C 338.099 187.851,357.089 169.625,366.436 158.000 C 378.307 143.236,379.168 120.763,368.180 112.449 C 365.742 110.604,365.711 110.624,363.555 115.444 M69.111 113.736 C 61.721 115.907,61.421 117.426,66.879 125.027 C 69.585 128.794,69.517 131.389,66.585 136.250 C 65.255 138.455,64.686 139.935,64.550 141.544 L 64.361 143.778 65.616 142.067 C 66.781 140.479,72.980 135.556,73.814 135.556 C 74.017 135.556,73.874 136.406,73.497 137.444 C 71.764 142.212,72.856 148.410,75.938 151.301 C 77.724 152.977,77.908 152.716,77.366 149.279 C 76.850 146.001,77.088 144.735,79.156 139.778 C 81.589 133.942,81.389 130.117,78.326 123.966 C 77.039 121.381,75.763 118.081,75.490 116.633 C 75.218 115.185,74.928 113.750,74.845 113.444 C 74.638 112.680,72.302 112.798,69.111 113.736 M325.374 113.894 C 325.139 114.511,324.805 115.788,324.632 116.730 C 324.459 117.673,323.527 120.144,322.560 122.222 C 318.442 131.074,318.146 133.972,320.774 139.706 C 322.375 143.196,322.437 143.513,322.411 148.079 L 322.385 152.825 323.526 151.933 C 325.351 150.506,327.042 147.653,327.373 145.443 C 327.643 143.642,327.424 141.741,326.367 136.722 L 326.097 135.444 329.437 137.697 C 331.273 138.937,333.378 140.769,334.113 141.770 L 335.451 143.588 335.742 142.427 C 336.041 141.238,335.301 139.414,332.440 134.283 C 330.335 130.506,330.677 128.329,334.154 123.372 C 335.948 120.815,336.881 118.513,336.886 116.632 C 336.892 114.518,326.111 111.954,325.374 113.894 M139.522 119.370 C 137.658 121.357,139.163 134.867,141.766 139.519 C 142.636 141.073,145.773 128.023,145.776 122.838 C 145.779 118.541,142.175 116.543,139.522 119.370 M255.313 119.313 C 253.574 121.052,253.911 125.283,256.695 136.667 C 257.732 140.905,257.971 140.986,259.043 137.457 C 262.003 127.712,262.471 121.389,260.397 119.162 C 259.157 117.831,256.723 117.903,255.313 119.313 M131.038 120.399 C 123.800 123.259,123.134 127.276,128.024 138.570 L 129.927 142.966 134.367 142.154 C 136.809 141.707,138.873 141.275,138.954 141.194 C 139.036 141.112,138.146 136.260,136.976 130.412 C 134.587 118.462,134.844 118.896,131.038 120.399 M147.422 129.412 C 144.576 142.936,144.427 141.421,148.667 142.062 C 154.429 142.934,153.991 143.108,155.792 139.222 C 161.251 127.448,159.772 121.335,151.088 119.774 L 149.510 119.490 147.422 129.412 M247.111 120.288 C 242.760 121.791,240.889 124.180,240.889 128.233 C 240.889 132.499,244.925 142.667,246.617 142.666 C 247.477 142.665,254.755 141.403,254.891 141.232 C 254.981 141.118,251.420 122.688,250.896 120.556 C 250.608 119.386,249.874 119.335,247.111 120.288 M262.968 130.241 C 261.791 136.162,260.991 141.152,261.192 141.332 C 261.581 141.682,269.744 142.858,269.980 142.599 C 270.429 142.107,274.226 133.265,274.627 131.778 C 276.280 125.646,273.108 120.756,266.823 119.751 L 265.108 119.477 262.968 130.241 M193.634 129.373 C 176.738 130.767,179.407 136.069,197.333 136.720 C 218.773 137.499,225.673 131.140,205.333 129.347 C 199.748 128.855,199.928 128.854,193.634 129.373 M179.111 137.370 C 176.522 139.591,169.667 143.472,163.213 146.371 L 157.111 149.111 159.596 149.242 C 167.644 149.667,178.835 146.138,187.996 140.285 C 190.797 138.496,190.979 138.702,185.047 136.936 C 181.084 135.756,180.985 135.763,179.111 137.370 M214.000 137.224 C 209.660 138.605,209.851 138.437,211.110 139.777 C 214.874 143.783,229.143 148.708,238.222 149.134 C 243.336 149.374,243.376 149.504,237.556 146.939 C 233.116 144.983,227.997 142.129,223.036 138.845 C 218.166 135.621,218.724 135.721,214.000 137.224 M133.944 144.485 C 129.038 145.647,130.096 148.149,135.717 148.675 C 147.496 149.779,156.935 147.642,151.667 145.063 C 149.732 144.117,137.224 143.709,133.944 144.485 M250.000 144.618 C 245.477 145.721,245.424 147.245,249.865 148.488 C 256.870 150.448,273.963 147.682,268.534 145.467 C 264.990 144.021,254.430 143.537,250.000 144.618 M178.117 150.003 C 167.450 151.797,148.907 151.998,134.024 150.481 C 126.311 149.695,126.788 149.539,127.757 152.538 C 130.859 162.131,143.795 176.889,149.103 176.889 C 149.274 176.889,148.495 175.189,147.371 173.111 C 145.068 168.851,145.225 168.624,148.802 171.049 C 151.491 172.870,154.807 174.667,155.483 174.667 C 155.707 174.667,155.440 173.417,154.890 171.889 C 153.019 166.687,152.985 166.862,155.495 168.757 C 162.461 174.017,164.045 174.022,161.807 168.778 C 160.286 165.212,160.257 165.226,163.717 167.834 C 168.237 171.241,169.129 171.434,168.476 168.864 C 167.341 164.404,167.235 164.487,170.344 167.396 C 176.014 172.700,185.216 174.633,190.846 171.702 L 192.581 170.799 190.180 170.487 C 184.555 169.757,177.290 166.975,174.018 164.300 L 172.703 163.224 174.462 162.319 C 177.172 160.926,180.064 158.685,179.768 158.207 C 179.623 157.971,177.765 157.775,175.640 157.771 C 170.134 157.761,170.030 157.386,174.911 155.147 C 178.791 153.367,181.778 151.025,181.778 149.762 C 181.778 149.526,181.728 149.354,181.667 149.379 C 181.606 149.404,180.008 149.685,178.117 150.003 M218.222 149.990 C 218.222 151.105,221.606 153.591,225.458 155.305 C 230.112 157.376,229.888 157.761,224.028 157.771 L 219.834 157.778 221.139 159.159 C 221.857 159.918,223.504 161.142,224.798 161.879 C 227.014 163.140,227.109 163.266,226.428 164.018 C 224.523 166.124,217.754 168.874,211.223 170.196 L 207.367 170.977 210.017 171.970 C 216.515 174.405,224.130 172.647,229.634 167.442 C 232.103 165.107,232.268 165.189,231.529 168.392 C 231.282 169.463,231.175 170.435,231.292 170.551 C 231.574 170.833,236.131 168.206,237.811 166.793 C 239.688 165.213,239.779 165.671,238.234 168.937 C 235.810 174.061,237.213 174.123,243.774 169.183 C 247.039 166.724,246.987 166.666,245.346 170.929 C 244.606 172.851,244.000 174.478,244.000 174.544 C 244.000 175.038,248.948 172.605,251.328 170.942 C 252.943 169.813,254.350 168.889,254.455 168.889 C 254.811 168.889,253.765 171.206,252.214 173.852 C 250.312 177.098,250.311 177.050,252.277 176.228 C 260.279 172.885,270.757 160.004,272.659 151.174 L 272.981 149.682 270.824 149.960 C 253.963 152.132,228.915 152.160,220.556 150.016 C 218.665 149.531,218.222 149.526,218.222 149.990 M273.306 155.002 C 272.334 158.001,270.314 161.601,267.527 165.300 C 264.202 169.713,264.280 169.934,268.148 167.038 C 273.574 162.974,277.252 157.451,276.041 155.187 C 274.998 153.239,273.901 153.165,273.306 155.002 M124.059 154.977 C 122.863 157.885,126.091 162.798,132.222 167.404 C 135.091 169.560,135.416 169.627,133.946 167.761 C 131.798 165.033,128.861 160.074,127.508 156.889 C 126.100 153.574,124.908 152.913,124.059 154.977 M5.778 157.676 C 5.778 169.987,19.086 183.487,44.394 196.849 C 53.548 201.682,53.146 201.559,52.986 199.483 C 52.871 197.992,52.974 197.830,54.208 197.559 C 56.193 197.123,56.148 197.079,48.250 191.827 C 38.098 185.076,29.119 176.955,30.395 175.679 C 31.873 174.201,44.257 182.101,56.637 192.419 C 59.309 194.646,61.909 196.551,62.415 196.652 C 64.798 197.128,68.000 197.327,68.000 196.999 C 68.000 196.281,61.460 189.308,56.000 184.203 C 36.040 165.541,21.169 156.889,9.054 156.889 C 6.216 156.889,5.778 156.994,5.778 157.676 M143.556 157.556 C 150.701 157.955,152.361 158.686,147.656 159.361 C 146.501 159.527,144.119 160.320,142.363 161.122 C 139.421 162.467,139.121 162.523,138.532 161.846 C 136.788 159.843,136.210 156.636,137.667 157.049 C 138.094 157.171,140.744 157.398,143.556 157.556 M263.111 158.029 C 263.111 161.588,261.253 162.863,258.264 161.355 C 256.877 160.654,254.495 159.836,252.971 159.536 C 248.138 158.585,249.179 157.960,256.613 157.349 C 263.483 156.784,263.111 156.745,263.111 158.029 M388.444 157.185 C 376.327 159.093,367.128 164.053,352.638 176.489 C 346.169 182.041,335.255 192.723,333.370 195.349 L 331.859 197.453 334.485 197.128 C 338.162 196.672,339.353 196.072,342.802 192.941 C 352.694 183.958,369.778 173.138,369.778 175.855 C 369.778 178.386,360.265 186.564,349.222 193.528 C 343.839 196.922,343.974 196.771,345.776 197.399 C 347.026 197.835,347.091 197.971,346.830 199.599 L 346.553 201.334 348.289 200.721 C 355.396 198.214,374.677 186.211,381.203 180.231 C 388.118 173.896,394.222 163.285,394.222 157.603 C 394.222 156.891,391.543 156.697,388.444 157.185 M114.993 158.706 C 106.484 160.711,103.915 169.506,109.967 175.912 L 111.862 177.917 114.487 176.300 C 120.232 172.761,125.571 172.379,132.145 175.038 C 135.597 176.434,138.094 176.721,141.015 176.059 C 142.150 175.801,141.787 175.503,136.630 172.453 C 130.311 168.717,125.981 164.853,123.542 160.777 L 122.015 158.222 119.341 158.267 C 117.870 158.291,115.914 158.489,114.993 158.706 M277.793 158.778 C 277.538 159.083,276.507 160.594,275.501 162.134 C 273.106 165.805,267.204 170.494,259.500 174.848 L 258.000 175.695 259.111 176.026 C 261.501 176.736,264.290 176.403,268.667 174.884 C 275.701 172.443,280.420 172.868,285.761 176.425 L 287.744 177.746 289.093 176.891 C 293.847 173.882,294.439 165.021,290.154 161.028 C 287.518 158.571,279.227 157.061,277.793 158.778 M65.378 161.572 C 60.999 166.560,61.267 176.669,66.041 186.564 C 68.779 192.241,80.170 203.935,86.619 207.690 L 87.995 208.492 86.715 205.019 C 84.498 199.009,84.149 198.390,81.969 196.619 C 76.707 192.342,72.822 186.117,71.808 180.333 C 71.370 177.840,72.031 178.248,75.521 182.623 C 78.469 186.321,83.654 191.556,84.367 191.556 C 84.668 191.556,87.556 186.602,87.556 186.086 C 87.556 185.951,85.435 183.576,82.843 180.809 C 76.869 174.432,72.854 169.283,69.807 164.091 C 67.058 159.408,67.205 159.491,65.378 161.572 M331.869 161.444 C 331.283 162.239,330.051 164.151,329.131 165.694 C 326.166 170.666,322.211 175.660,317.186 180.774 L 312.278 185.771 313.570 188.476 C 314.281 189.963,315.004 191.267,315.176 191.373 C 315.677 191.683,319.070 188.543,323.774 183.416 C 328.765 177.978,328.723 177.992,327.791 182.013 C 326.665 186.868,324.749 189.928,319.727 194.889 C 315.821 198.749,315.160 199.618,314.706 201.499 C 314.418 202.690,313.688 204.640,313.084 205.832 C 311.763 208.438,312.052 208.504,315.269 206.333 C 334.350 193.456,342.729 174.306,334.811 161.667 C 333.536 159.631,333.224 159.608,331.869 161.444 M118.222 168.000 C 119.271 169.959,116.526 171.705,115.100 169.987 C 114.669 169.467,114.654 169.049,115.036 168.209 C 115.662 166.835,117.533 166.713,118.222 168.000 M284.900 167.791 C 285.771 168.840,284.776 170.667,283.333 170.667 C 282.087 170.667,281.019 169.016,281.483 167.806 C 281.829 166.905,284.156 166.895,284.900 167.791 M171.852 172.296 C 171.689 172.459,171.556 172.959,171.556 173.407 C 171.556 174.411,171.704 174.419,168.697 173.268 C 163.802 171.395,164.867 174.020,171.530 180.249 C 177.362 185.702,177.251 185.716,177.302 179.543 C 177.338 175.192,176.904 174.257,174.211 172.883 C 172.263 171.890,172.260 171.889,171.852 172.296 M225.483 172.986 C 222.801 174.333,222.376 175.530,222.594 181.111 C 222.746 185.016,222.977 184.988,228.153 180.443 C 232.331 176.774,234.222 174.434,234.222 172.933 C 234.222 172.291,234.065 172.308,231.452 173.222 C 229.237 173.998,229.228 173.997,228.561 173.000 C 227.764 171.809,227.822 171.810,225.483 172.986 M158.396 174.889 C 158.545 175.500,158.788 176.500,158.937 177.111 C 159.086 177.722,159.024 178.222,158.799 178.222 C 158.575 178.222,157.115 177.722,155.556 177.111 C 151.884 175.672,151.735 175.699,152.853 177.594 C 154.774 180.851,161.821 188.000,163.109 188.000 C 163.760 188.000,164.444 184.029,164.444 180.254 L 164.444 176.457 161.790 175.118 C 158.530 173.472,158.043 173.439,158.396 174.889 M239.111 174.520 C 236.088 175.821,235.552 176.681,235.582 180.189 C 235.610 183.525,236.116 187.376,236.589 187.848 C 237.413 188.672,244.204 182.254,246.742 178.254 C 248.340 175.735,248.320 175.728,244.241 177.298 C 240.842 178.607,240.806 178.611,241.029 177.644 C 242.027 173.310,242.005 173.274,239.111 174.520 M179.309 180.556 C 178.494 191.203,179.143 194.035,182.996 196.653 L 184.627 197.761 185.705 196.770 C 190.399 192.453,189.163 183.674,183.066 178.029 C 179.613 174.833,179.754 174.738,179.309 180.556 M216.623 178.406 C 210.663 184.365,209.679 192.519,214.394 196.863 L 215.571 197.947 217.573 195.983 C 221.330 192.296,221.947 189.727,220.618 183.302 C 220.224 181.398,219.995 178.877,220.108 177.698 C 220.375 174.919,220.043 174.986,216.623 178.406 M137.516 178.254 C 132.646 179.425,128.523 183.564,127.547 188.261 C 126.873 191.509,127.021 191.557,130.068 189.075 C 134.847 185.182,140.752 183.008,148.150 182.417 L 151.632 182.139 150.594 181.009 C 148.288 178.500,142.001 177.175,137.516 178.254 M253.778 178.461 C 248.755 180.020,247.570 182.563,251.831 182.635 C 258.435 182.748,263.848 184.642,269.161 188.698 C 272.942 191.585,273.082 191.610,272.717 189.326 C 271.404 181.115,262.213 175.842,253.778 178.461 M126.000 179.877 C 125.511 179.997,122.781 180.874,119.933 181.825 C 113.318 184.036,110.564 184.122,106.435 182.250 C 103.157 180.764,102.835 181.094,104.849 183.874 C 107.473 187.496,113.852 189.159,120.161 187.865 C 124.521 186.971,125.060 186.612,127.903 182.716 L 130.208 179.556 128.549 179.607 C 127.636 179.635,126.489 179.757,126.000 179.877 M270.222 179.828 C 270.223 181.266,275.039 186.482,277.111 187.286 C 283.206 189.654,292.382 187.814,295.271 183.646 C 297.020 181.122,296.753 180.867,293.667 182.117 C 288.955 184.024,286.009 183.959,280.072 181.817 C 275.139 180.037,270.222 179.044,270.222 179.828 M166.925 180.386 C 166.171 181.607,166.117 189.820,166.852 191.742 C 167.545 193.558,172.293 198.667,173.288 198.667 C 175.509 198.667,176.798 190.818,175.140 187.392 C 173.725 184.471,167.619 179.263,166.925 180.386 M228.251 183.667 C 223.134 188.678,222.520 191.250,225.179 196.556 C 226.441 199.072,226.468 199.077,228.886 197.163 C 232.958 193.941,234.078 191.083,233.617 185.087 C 233.135 178.821,233.186 178.835,228.251 183.667 M154.227 185.418 C 154.241 189.262,156.542 194.529,159.780 198.131 C 162.319 200.955,162.533 200.974,162.917 198.413 C 163.621 193.719,161.728 189.401,157.618 186.322 C 154.175 183.742,154.222 183.755,154.227 185.418 M242.889 185.703 C 238.544 188.624,236.425 193.230,237.115 198.252 L 237.417 200.445 238.743 199.667 C 241.542 198.024,244.825 191.517,245.583 186.111 C 245.939 183.572,246.037 183.587,242.889 185.703 M89.449 186.863 C 82.268 195.021,87.670 209.578,101.192 218.507 C 106.705 222.147,107.039 222.613,103.533 221.772 C 99.525 220.811,95.258 221.371,91.785 223.313 L 88.788 224.989 89.090 227.266 C 89.706 231.910,92.360 235.037,98.222 238.026 L 100.667 239.272 99.333 239.593 C 98.600 239.770,96.860 240.121,95.467 240.374 C 82.239 242.770,84.134 255.756,97.711 255.749 L 101.867 255.747 100.378 257.031 C 94.868 261.781,94.222 262.906,94.222 267.757 L 94.222 271.156 95.889 271.874 C 100.068 273.672,105.158 272.924,108.879 269.966 C 111.215 268.108,111.468 268.395,110.239 271.512 C 108.095 276.953,110.202 284.889,113.791 284.889 C 117.473 284.889,121.031 282.489,123.911 278.063 L 125.976 274.889 126.277 278.128 C 127.538 291.680,138.394 292.287,141.172 278.961 C 141.999 274.998,141.921 275.039,143.222 277.881 C 145.281 282.380,149.162 285.467,153.508 286.062 L 155.556 286.343 155.556 269.616 L 155.556 252.889 154.283 252.889 C 153.301 252.889,152.730 253.292,151.788 254.653 C 145.568 263.628,127.034 264.146,118.689 255.579 C 113.129 249.870,113.047 241.414,118.448 230.660 C 124.237 219.134,122.704 214.394,110.099 204.833 C 99.946 197.132,97.278 194.358,94.017 188.111 C 92.045 184.335,91.746 184.253,89.449 186.863 M306.568 187.006 C 304.758 192.100,300.916 196.272,290.656 204.283 C 276.852 215.061,275.751 218.247,281.544 230.667 C 288.134 244.798,286.269 254.382,275.966 259.320 C 266.334 263.936,252.611 261.618,248.200 254.631 C 247.321 253.239,246.833 252.889,245.772 252.889 L 244.444 252.889 244.444 269.731 L 244.444 286.572 246.328 286.149 C 251.282 285.036,254.230 282.784,256.408 278.450 C 258.133 275.017,258.441 275.118,259.111 279.333 C 261.164 292.260,272.295 291.346,273.697 278.137 L 274.041 274.889 275.354 277.111 C 278.275 282.056,282.398 284.889,286.673 284.889 C 289.811 284.889,291.740 276.533,289.761 271.512 C 288.534 268.401,288.749 268.185,291.280 269.984 C 295.633 273.080,300.924 273.787,304.393 271.737 C 307.825 269.710,305.767 261.753,300.828 257.954 L 298.000 255.778 302.222 255.497 C 309.852 254.989,313.778 252.525,313.778 248.246 C 313.778 244.883,308.231 240.619,303.220 240.131 C 299.164 239.735,299.023 239.392,302.252 237.769 C 307.669 235.046,309.692 232.752,310.718 228.167 C 311.851 223.103,305.280 220.194,296.558 221.899 C 292.614 222.670,292.790 222.346,298.065 219.122 C 312.006 210.603,317.949 194.736,310.236 186.627 C 308.088 184.370,307.482 184.432,306.568 187.006 M190.420 193.291 C 186.006 199.960,186.137 206.553,190.805 212.756 C 192.561 215.089,192.728 215.092,195.007 212.836 C 199.793 208.097,199.101 200.914,193.134 193.415 L 191.608 191.496 190.420 193.291 M206.024 194.481 C 200.674 201.767,200.440 207.707,205.282 213.333 C 206.885 215.195,207.381 215.023,209.884 211.737 C 213.601 206.858,213.890 202.351,210.892 196.002 C 208.454 190.837,208.653 190.900,206.024 194.481 M6.276 192.501 C 2.129 193.190,-0.155 194.433,0.487 195.652 C 8.246 210.403,30.735 219.344,64.556 221.125 C 71.062 221.467,71.455 221.212,67.889 218.960 C 64.755 216.981,62.417 216.111,57.534 215.107 C 43.292 212.176,31.849 208.000,27.111 204.003 L 25.556 202.691 27.111 202.680 C 31.975 202.648,40.667 204.813,48.889 208.103 C 51.944 209.326,55.494 210.692,56.777 211.139 L 59.110 211.952 58.000 210.317 C 57.389 209.418,56.889 208.436,56.889 208.135 C 56.889 201.456,20.337 190.166,6.276 192.501 M380.889 192.266 C 374.704 193.417,372.151 194.054,367.458 195.619 C 353.316 200.335,345.293 204.130,343.968 206.732 C 343.426 207.796,342.512 209.286,341.936 210.042 C 340.381 212.084,340.501 212.087,345.444 210.126 C 357.422 205.373,368.028 202.470,372.360 202.756 L 374.368 202.889 371.740 204.721 C 365.889 208.800,359.306 211.271,347.111 213.965 C 337.678 216.049,335.923 216.631,332.556 218.788 C 329.044 221.038,329.075 221.333,332.824 221.333 C 349.012 221.333,374.282 215.824,384.625 210.040 C 391.480 206.206,401.391 195.910,399.779 194.297 C 398.730 193.249,384.076 191.673,380.889 192.266 M165.168 195.672 C 163.918 200.335,165.136 209.711,167.421 213.013 L 168.583 214.692 169.685 213.679 C 174.536 209.224,173.011 200.073,166.665 195.554 L 165.434 194.678 165.168 195.672 M231.918 196.778 C 226.938 201.910,226.131 208.822,229.965 213.501 C 231.265 215.088,231.505 214.940,233.256 211.466 C 235.380 207.253,235.850 202.715,234.846 196.111 C 234.559 194.226,234.347 194.274,231.918 196.778 M177.179 196.317 C 174.106 202.281,174.552 209.281,178.275 213.510 C 180.454 215.985,180.789 215.846,183.108 211.494 C 186.243 205.612,184.799 200.050,179.079 195.977 L 177.817 195.079 177.179 196.317 M219.360 197.420 C 213.698 203.823,213.704 207.775,219.387 215.493 C 219.765 216.006,222.237 213.491,223.334 211.477 C 225.758 207.028,225.300 198.682,222.486 196.039 L 221.446 195.062 219.360 197.420 M334.365 199.155 C 326.771 200.423,315.255 207.251,305.176 216.463 C 302.196 219.186,302.177 219.268,304.385 219.930 C 307.227 220.781,308.213 220.565,310.737 218.538 C 316.541 213.878,320.876 211.235,325.097 209.783 C 333.381 206.932,326.337 213.905,316.000 218.786 C 309.674 221.774,309.726 221.710,311.853 223.901 L 313.616 225.718 317.273 224.221 C 328.405 219.664,336.465 214.087,340.382 208.230 C 342.356 205.279,344.732 200.139,344.315 199.722 C 343.461 198.868,337.962 198.554,334.365 199.155 M56.090 199.490 C 55.632 199.781,55.713 200.392,56.490 202.483 C 59.752 211.265,66.967 217.287,82.329 224.047 L 86.362 225.822 88.070 224.154 C 90.306 221.970,90.555 222.301,84.333 219.191 C 78.534 216.293,73.472 212.744,71.593 210.260 L 70.444 208.742 72.444 209.051 C 75.521 209.526,81.942 212.935,87.188 216.879 C 92.298 220.719,93.203 221.011,96.167 219.772 L 97.775 219.100 95.442 216.995 C 87.055 209.425,73.907 201.077,68.357 199.797 C 65.217 199.074,57.069 198.870,56.090 199.490 M198.490 211.678 C 193.300 218.483,193.045 224.750,197.669 231.858 C 200.195 235.740,199.850 235.683,201.862 232.552 C 207.083 224.424,207.105 220.387,201.970 212.650 C 200.081 209.805,199.948 209.768,198.490 211.678 M184.917 212.909 C 180.325 219.211,180.137 224.502,184.244 231.846 L 185.920 234.843 187.636 232.910 C 193.551 226.244,193.630 219.341,187.866 212.673 L 186.359 210.930 184.917 212.909 M211.003 214.384 C 206.090 221.892,206.491 226.085,212.858 233.778 L 213.778 234.889 214.698 233.778 C 219.264 228.264,219.781 219.990,215.920 214.208 C 213.585 210.711,213.401 210.717,211.003 214.384 M172.224 213.834 C 167.871 218.653,167.561 222.526,170.831 231.215 L 172.292 235.096 173.410 233.882 C 180.073 226.641,180.736 221.311,175.871 214.112 C 174.145 211.559,174.271 211.568,172.224 213.834 M224.129 214.104 C 219.507 220.970,219.754 225.365,225.142 232.111 C 227.715 235.333,227.596 235.364,229.338 231.000 C 231.987 224.362,231.698 218.635,228.500 214.403 C 226.369 211.584,225.849 211.548,224.129 214.104 M373.111 218.479 C 366.535 219.393,364.206 219.772,358.000 220.939 C 347.460 222.920,344.380 223.941,346.709 224.680 C 347.229 224.845,348.404 225.658,349.322 226.487 L 350.990 227.994 356.022 227.330 C 361.138 226.656,369.357 226.523,371.778 227.077 L 373.111 227.381 371.556 228.365 C 368.252 230.453,361.064 232.009,350.889 232.839 L 346.000 233.237 341.690 236.063 C 339.320 237.617,337.370 239.039,337.357 239.222 C 337.287 240.207,361.473 239.342,372.208 237.976 C 381.772 236.759,391.193 232.758,396.311 227.739 C 399.983 224.139,399.948 223.993,394.955 222.082 C 387.117 219.082,378.728 217.699,373.111 218.479 M11.787 219.543 C 7.784 220.413,1.285 223.284,0.984 224.316 C 0.710 225.252,6.383 230.367,9.938 232.391 C 18.614 237.328,27.797 238.909,50.778 239.423 C 63.206 239.701,64.313 239.539,60.778 237.956 C 59.739 237.491,58.174 236.469,57.300 235.685 C 55.095 233.706,54.261 233.466,46.796 232.657 C 36.843 231.577,27.111 229.044,27.111 227.532 C 27.111 225.908,39.159 226.068,47.600 227.804 C 48.477 227.984,49.202 227.668,50.610 226.492 C 51.630 225.640,52.860 224.817,53.343 224.663 C 61.357 222.120,22.158 217.291,11.787 219.543 M62.889 223.842 C 62.400 223.971,59.856 224.782,57.236 225.644 L 52.473 227.210 53.090 228.383 C 56.719 235.282,67.867 239.643,83.567 240.303 C 96.276 240.837,98.558 236.533,86.111 235.505 C 76.866 234.741,67.732 232.179,68.696 230.620 C 69.329 229.594,77.529 230.460,83.520 232.185 C 86.557 233.059,89.133 233.682,89.245 233.570 C 89.559 233.255,87.547 228.546,86.852 227.969 C 84.218 225.783,66.849 222.792,62.889 223.842 M324.171 224.640 C 314.961 226.554,312.681 227.744,311.301 231.356 C 310.295 233.989,310.248 233.977,315.593 232.476 C 323.351 230.298,330.895 229.525,331.227 230.875 C 331.615 232.446,324.707 234.400,315.492 235.324 C 302.482 236.630,303.035 240.578,316.222 240.541 C 327.278 240.510,339.127 236.735,344.454 231.546 C 347.981 228.111,348.025 227.752,345.077 226.448 C 337.896 223.272,332.853 222.836,324.171 224.640 M191.442 230.778 C 188.130 234.299,186.260 241.186,188.444 241.814 C 190.536 242.416,199.111 242.283,199.111 241.649 C 199.111 238.904,194.537 229.333,193.225 229.333 C 192.992 229.333,192.190 229.983,191.442 230.778 M204.802 232.111 C 202.455 235.314,201.517 237.361,201.088 240.218 L 200.784 242.249 206.725 242.124 L 212.667 242.000 212.541 239.556 C 212.393 236.673,210.910 233.403,208.660 231.000 C 206.749 228.959,207.210 228.826,204.802 232.111 M177.227 232.111 C 175.040 234.473,172.000 239.872,172.000 241.393 C 172.000 242.166,172.458 242.222,178.717 242.222 L 185.434 242.222 185.122 240.137 C 184.543 236.279,181.263 229.778,179.894 229.778 C 179.615 229.778,178.415 230.828,177.227 232.111 M219.027 230.965 C 217.422 232.652,215.189 237.528,214.834 240.121 L 214.546 242.222 221.273 242.222 C 227.509 242.222,228.000 242.163,228.000 241.404 C 228.000 239.805,225.173 234.964,222.716 232.356 L 220.222 229.708 219.027 230.965 M230.500 233.389 C 230.149 235.145,230.142 238.600,230.487 240.322 L 230.751 241.643 237.217 241.922 C 244.869 242.253,243.889 241.613,244.259 246.519 L 244.564 250.566 246.393 250.333 C 253.408 249.438,257.746 245.296,257.768 239.471 C 257.781 236.110,257.414 236.010,253.133 238.211 C 245.415 242.179,237.829 240.650,233.069 234.165 C 231.205 231.626,230.873 231.525,230.500 233.389 M166.000 235.264 C 160.237 241.315,153.194 242.083,145.638 237.483 C 142.555 235.607,142.440 235.679,142.461 239.481 C 142.495 245.649,147.253 250.222,153.635 250.222 L 155.556 250.222 155.556 246.222 L 155.556 242.222 162.196 242.222 C 166.562 242.222,168.940 242.054,169.140 241.731 C 169.992 240.353,169.855 232.427,168.980 232.454 C 168.808 232.460,167.467 233.724,166.000 235.264 M30.222 241.590 C 18.866 242.921,12.419 245.068,8.256 248.906 C 5.859 251.115,5.961 251.403,10.082 254.060 C 19.160 259.913,31.627 261.182,50.444 258.169 C 57.984 256.962,57.875 257.071,54.278 254.327 L 51.242 252.012 45.723 252.292 C 38.958 252.634,32.000 251.576,32.000 250.205 C 32.000 249.035,44.744 247.380,50.444 247.809 L 54.000 248.077 58.222 245.261 L 62.444 242.444 59.111 242.157 C 54.866 241.792,32.284 241.348,30.222 241.590 M348.222 241.567 C 347.733 241.659,345.183 241.862,342.556 242.020 C 337.370 242.332,337.042 242.502,339.222 243.740 C 340.017 244.191,341.740 245.284,343.052 246.168 L 345.437 247.775 353.052 247.827 C 361.374 247.884,367.556 248.907,367.556 250.228 C 367.556 251.501,363.614 252.185,356.161 252.206 L 348.544 252.228 346.072 253.931 C 341.579 257.025,341.732 257.172,350.729 258.429 C 362.698 260.100,372.690 260.094,379.401 258.411 C 387.132 256.472,395.248 251.462,393.206 249.888 C 389.658 247.155,381.735 243.502,376.949 242.393 C 374.192 241.753,350.828 241.082,348.222 241.567 M73.111 242.730 C 64.862 243.778,54.667 248.589,54.667 251.435 C 54.667 253.068,61.095 256.170,66.392 257.091 C 72.630 258.177,83.568 257.600,87.886 255.959 L 89.042 255.519 86.906 253.350 L 84.769 251.181 79.138 251.432 C 73.728 251.672,70.222 251.206,70.222 250.246 C 70.222 249.630,75.527 248.380,79.904 247.966 C 82.233 247.746,84.175 247.513,84.219 247.449 C 84.726 246.724,87.037 243.201,87.284 242.778 C 87.671 242.114,78.211 242.082,73.111 242.730 M312.797 242.452 C 311.743 243.538,315.796 247.496,318.222 247.749 C 323.855 248.336,326.545 248.821,328.222 249.551 L 330.000 250.325 328.444 250.995 C 327.213 251.526,325.674 251.616,321.055 251.428 L 315.222 251.190 313.082 253.363 C 310.477 256.007,310.262 255.794,316.631 256.883 C 328.352 258.887,338.668 257.233,344.000 252.496 L 345.556 251.114 343.479 249.182 C 341.114 246.983,336.148 244.389,332.222 243.301 C 329.404 242.521,313.410 241.822,312.797 242.452 M185.333 247.892 C 185.333 248.118,185.631 249.285,185.995 250.485 C 186.359 251.685,186.660 254.367,186.664 256.444 C 186.674 261.501,187.174 263.053,189.490 265.224 C 192.020 267.596,192.875 271.776,191.970 277.352 C 191.280 281.597,191.625 282.626,194.594 285.183 C 197.225 287.450,199.120 291.163,200.701 297.146 C 201.341 299.571,202.246 302.179,202.711 302.941 C 203.176 303.705,203.556 305.141,203.556 306.138 C 203.556 307.396,203.807 308.127,204.378 308.530 C 205.834 309.558,206.835 312.073,206.863 314.772 C 206.879 316.321,207.098 317.403,207.421 317.527 C 208.070 317.777,209.504 320.444,208.989 320.444 C 208.787 320.444,208.369 320.194,208.059 319.889 C 207.605 319.442,207.523 319.593,207.636 320.667 C 207.753 321.763,207.600 322.025,206.778 322.142 C 205.880 322.270,205.778 322.097,205.778 320.461 C 205.778 318.482,204.752 315.556,204.059 315.556 C 203.822 315.556,203.312 315.434,202.925 315.286 C 202.464 315.109,202.222 315.262,202.222 315.730 C 202.222 316.148,201.853 316.444,201.333 316.444 C 200.106 316.444,200.219 316.951,201.778 318.444 C 204.675 321.220,203.424 322.099,197.973 321.118 C 190.264 319.730,185.927 320.648,182.550 324.386 C 175.575 332.106,187.578 342.211,197.363 336.856 C 203.260 333.629,201.296 327.111,194.426 327.111 C 191.426 327.111,190.870 327.553,191.370 329.542 C 191.705 330.879,190.852 331.400,190.231 330.238 C 188.610 327.211,191.867 325.189,196.706 326.217 C 204.298 327.832,204.137 336.858,196.444 340.884 L 194.889 341.698 196.119 342.010 C 203.707 343.937,212.392 340.533,217.688 333.556 C 218.385 332.638,218.779 332.404,218.952 332.805 C 219.148 333.260,219.388 333.220,220.046 332.625 C 220.853 331.894,220.889 331.912,220.889 333.042 C 220.889 334.863,221.566 334.447,222.583 332.000 C 223.396 330.044,223.663 329.778,224.818 329.778 C 227.929 329.778,232.771 321.446,231.306 318.614 C 230.454 316.967,229.968 317.000,228.884 318.778 C 228.400 319.572,227.984 320.122,227.961 320.000 C 227.938 319.878,227.820 319.078,227.700 318.222 C 227.394 316.049,227.247 316.054,226.291 318.270 C 225.245 320.694,223.556 322.418,223.556 321.062 C 223.556 320.593,223.956 319.462,224.445 318.549 C 225.762 316.092,223.544 316.575,221.277 319.239 L 220.109 320.611 219.411 319.260 C 219.026 318.517,218.421 316.103,218.066 313.895 C 217.710 311.687,217.199 309.469,216.930 308.965 C 216.348 307.877,215.400 299.278,215.793 298.643 C 215.943 298.400,217.370 297.610,218.964 296.887 C 220.559 296.164,222.551 294.969,223.392 294.231 C 226.463 291.534,229.637 294.122,229.186 298.954 C 228.861 302.435,230.914 305.642,232.275 303.780 C 233.948 301.492,232.445 296.496,228.814 292.279 L 226.949 290.113 224.474 290.377 C 223.114 290.523,221.150 290.773,220.111 290.935 L 218.222 291.228 218.219 288.836 C 218.217 287.521,217.818 285.144,217.333 283.556 C 215.653 278.052,217.197 271.061,218.995 276.033 C 219.298 276.871,219.441 278.331,219.314 279.278 C 219.158 280.437,219.315 281.356,219.791 282.082 C 223.072 287.089,229.146 272.054,226.000 266.713 C 222.214 260.286,208.552 263.059,204.458 271.085 C 202.784 274.367,202.384 279.181,203.742 279.702 C 205.681 280.446,209.582 289.112,210.067 293.750 L 210.330 296.261 208.498 297.087 C 206.616 297.936,206.353 298.562,206.947 300.778 C 207.121 301.426,207.555 301.778,208.182 301.778 C 209.114 301.778,210.708 304.060,213.085 308.794 C 214.952 312.516,216.969 322.547,216.104 323.810 C 214.691 325.874,212.003 324.878,211.989 322.285 C 211.973 319.145,211.273 316.762,210.076 315.778 C 208.394 314.395,208.219 313.920,198.297 283.912 C 190.745 261.069,188.986 255.299,189.192 254.030 C 189.402 252.740,189.261 252.306,188.412 251.618 C 187.842 251.157,187.153 250.116,186.880 249.306 C 186.421 247.943,185.333 246.949,185.333 247.892 M198.579 253.761 C 196.998 255.342,196.833 255.715,196.958 257.427 L 197.097 259.333 194.326 259.466 C 192.530 259.551,191.559 259.786,191.566 260.132 C 191.585 261.097,207.332 308.664,207.670 308.778 C 207.852 308.839,208.930 308.889,210.067 308.889 L 212.133 308.889 210.359 307.603 C 206.591 304.874,205.617 302.458,204.886 294.026 C 204.551 290.161,204.052 287.628,203.050 284.711 C 201.238 279.433,201.364 275.613,203.511 270.749 C 205.147 267.043,205.100 266.115,203.122 263.127 L 201.827 261.172 203.166 259.648 C 207.853 254.309,203.552 248.788,198.579 253.761 M305.466 257.376 C 303.343 257.997,303.370 258.372,305.695 260.546 C 307.235 261.987,308.672 262.813,310.910 263.544 C 316.547 265.386,324.104 270.215,321.333 270.205 C 319.226 270.197,316.478 269.333,312.205 267.336 C 309.847 266.235,307.836 265.333,307.737 265.333 C 307.637 265.333,307.556 266.733,307.556 268.444 C 307.556 270.612,307.722 271.556,308.103 271.556 C 308.404 271.556,310.976 272.665,313.820 274.020 C 320.880 277.386,328.204 278.149,333.752 276.096 C 334.968 275.647,332.983 271.269,330.186 268.235 C 324.958 262.563,310.080 256.027,305.466 257.376 M85.333 259.056 C 74.551 263.336,69.505 267.209,66.241 273.710 C 65.064 276.054,64.891 275.873,69.085 276.676 C 75.620 277.926,79.870 277.210,87.393 273.592 L 92.444 271.164 92.444 268.219 C 92.444 264.790,92.598 264.815,87.444 267.397 C 84.497 268.874,80.222 270.222,78.490 270.222 C 75.802 270.222,82.383 265.958,88.362 263.825 C 93.833 261.873,97.913 258.276,95.415 257.606 C 92.858 256.920,89.494 257.404,85.333 259.056 M54.517 259.568 C 36.921 262.346,21.918 269.212,18.243 276.168 C 17.477 277.618,17.583 277.721,21.333 279.150 C 31.072 282.861,41.148 281.833,57.778 275.433 C 63.423 273.260,64.153 272.810,65.406 270.732 C 65.943 269.840,66.982 268.337,67.715 267.392 L 69.047 265.672 67.524 266.002 C 66.686 266.184,63.500 267.098,60.444 268.033 C 51.654 270.724,45.039 271.838,41.786 271.172 L 40.274 270.863 42.402 269.454 C 45.983 267.082,50.907 265.658,63.556 263.339 C 68.322 262.465,73.222 261.406,74.444 260.986 L 76.667 260.222 72.000 259.948 C 60.236 259.258,56.934 259.187,54.517 259.568 M333.333 259.571 C 331.744 259.750,328.844 259.923,326.889 259.955 C 320.909 260.054,325.041 261.616,335.241 263.112 C 344.448 264.462,349.745 265.914,355.108 268.554 C 364.040 272.951,354.913 272.639,339.339 268.015 C 335.187 266.782,331.653 265.824,331.484 265.887 C 331.218 265.985,333.344 269.117,335.871 272.351 C 337.187 274.035,352.885 279.442,360.752 280.921 C 365.548 281.823,371.507 281.266,377.222 279.382 C 382.751 277.559,382.846 277.439,380.893 274.743 C 374.281 265.615,349.602 257.743,333.333 259.571 M181.929 261.328 C 180.178 262.203,178.207 263.758,176.277 265.786 L 173.313 268.900 175.091 271.306 C 177.259 274.241,177.206 274.207,180.101 274.493 C 183.669 274.844,184.273 275.026,185.632 276.152 C 191.367 280.902,193.842 271.463,188.407 265.567 C 187.447 264.524,186.395 262.907,186.072 261.972 C 185.308 259.766,185.115 259.736,181.929 261.328 M90.485 275.641 C 86.437 280.144,82.932 288.572,83.899 291.476 C 84.439 293.095,92.037 291.258,96.360 288.464 C 99.062 286.718,106.603 279.340,107.191 277.868 C 107.671 276.666,107.602 273.333,107.097 273.333 C 105.614 273.333,103.027 275.120,99.183 278.798 C 95.589 282.237,92.000 284.705,92.000 283.737 C 92.000 282.837,94.307 279.380,96.303 277.286 L 98.718 274.755 96.359 273.979 C 95.061 273.553,93.776 273.122,93.502 273.021 C 93.229 272.921,91.871 274.100,90.485 275.641 M304.333 273.689 C 301.227 274.551,301.223 274.601,304.021 277.663 C 305.935 279.757,308.000 282.925,308.000 283.768 C 308.000 284.684,302.831 281.143,300.222 278.440 C 295.895 273.957,292.442 272.232,292.447 274.556 C 292.461 281.481,305.671 292.000,314.353 292.000 L 316.100 292.000 315.928 288.955 C 315.716 285.193,313.685 280.831,310.000 276.222 C 307.091 272.585,307.558 272.794,304.333 273.689 M337.505 276.525 C 337.348 276.780,336.145 277.463,334.832 278.044 C 331.879 279.350,331.865 279.251,335.222 280.943 C 340.789 283.750,347.149 288.889,345.057 288.889 C 342.350 288.889,336.932 286.533,329.475 282.114 C 325.808 279.941,316.513 277.116,315.702 277.928 C 314.788 278.842,333.863 292.927,340.222 296.035 C 349.419 300.529,365.452 302.227,364.959 298.656 C 364.350 294.237,356.474 285.843,348.943 281.586 C 343.974 278.777,337.802 276.046,337.505 276.525 M55.778 279.240 C 43.596 285.575,35.634 293.010,35.009 298.635 C 34.574 302.545,50.552 300.589,60.444 295.521 C 68.471 291.409,85.352 278.981,84.317 277.946 C 83.452 277.081,74.661 279.775,70.667 282.130 C 61.934 287.277,52.976 290.597,54.784 288.015 C 55.820 286.535,59.482 283.910,63.766 281.575 C 67.295 279.651,68.378 278.667,66.964 278.667 C 66.639 278.667,65.389 278.168,64.186 277.557 C 61.387 276.137,61.969 276.021,55.778 279.240 M274.187 283.193 C 273.228 285.246,273.126 285.995,273.247 290.082 C 273.407 295.437,273.333 295.521,271.554 291.997 L 270.206 289.327 267.992 290.449 C 265.393 291.765,265.482 291.438,266.938 294.348 C 269.250 298.969,274.670 304.600,276.008 303.773 C 278.728 302.092,279.375 291.506,277.170 284.778 C 275.676 280.222,275.595 280.178,274.187 283.193 M290.646 283.370 C 289.202 285.893,289.192 285.953,289.731 288.564 C 290.438 291.989,290.297 292.037,287.865 289.190 C 286.226 287.272,285.276 286.603,283.024 285.786 C 281.483 285.226,279.964 284.670,279.648 284.551 C 277.932 283.905,283.413 293.113,286.512 296.083 C 288.674 298.156,293.201 300.889,294.471 300.889 C 296.656 300.889,296.644 292.313,294.449 286.032 C 292.466 280.355,292.398 280.307,290.646 283.370 M106.905 282.357 C 103.854 287.013,102.881 300.889,105.605 300.889 C 106.811 300.889,110.737 298.620,112.765 296.751 C 115.584 294.152,120.444 286.659,120.444 284.911 C 120.444 284.064,114.485 286.580,113.435 287.870 C 109.719 292.441,109.409 292.482,110.242 288.293 C 111.052 284.213,108.576 279.807,106.905 282.357 M123.418 283.000 C 120.896 288.858,121.262 304.000,123.926 304.000 C 125.735 304.000,130.330 299.505,132.557 295.556 C 134.514 292.087,134.509 291.720,132.485 290.688 C 130.102 289.472,129.933 289.509,128.930 291.474 C 127.048 295.164,126.632 294.830,126.757 289.731 C 126.920 283.117,125.018 279.283,123.418 283.000 M257.064 283.000 C 257.666 286.446,257.935 293.927,257.446 293.625 C 256.762 293.203,255.584 289.510,255.264 286.785 C 254.947 284.087,254.838 284.046,252.161 285.615 C 249.879 286.953,249.818 287.875,251.682 292.889 C 253.266 297.149,257.478 302.667,259.147 302.667 C 260.266 302.667,262.529 296.658,262.947 292.577 L 263.240 289.720 261.443 287.860 C 260.455 286.837,259.122 284.950,258.482 283.667 C 257.109 280.913,256.663 280.703,257.064 283.000 M141.603 283.566 C 141.210 284.550,140.063 286.249,139.056 287.341 C 136.681 289.919,136.392 291.973,137.764 296.521 C 138.785 299.901,140.211 302.667,140.935 302.667 C 143.462 302.667,149.778 291.829,149.778 287.494 C 149.778 286.768,146.523 284.444,145.506 284.444 C 145.277 284.444,144.851 285.940,144.561 287.767 C 144.270 289.595,143.615 291.845,143.106 292.767 L 142.180 294.444 142.430 289.468 C 142.567 286.730,142.802 283.880,142.951 283.134 C 143.346 281.161,142.451 281.448,141.603 283.566 M174.361 282.702 C 170.366 283.886,169.639 288.214,172.651 292.874 C 174.308 295.437,174.682 297.843,173.789 300.193 C 173.250 301.610,173.857 301.688,175.867 300.462 C 178.104 299.099,178.843 297.239,178.425 294.028 C 178.232 292.546,178.058 290.333,178.037 289.111 L 178.000 286.889 180.092 286.648 C 182.546 286.366,183.031 286.012,182.382 284.979 C 181.193 283.087,177.040 281.909,174.361 282.702 M79.938 285.168 C 68.674 293.363,59.959 305.640,58.895 314.810 L 58.595 317.399 60.742 317.101 C 70.996 315.682,79.098 309.691,88.805 296.350 L 90.759 293.664 87.713 293.987 C 83.620 294.421,82.554 294.948,78.731 298.421 C 75.716 301.161,73.514 302.551,73.001 302.038 C 72.654 301.691,75.919 296.616,78.536 293.435 C 79.889 291.790,81.171 290.044,81.386 289.556 C 81.827 288.547,83.103 283.111,82.898 283.111 C 82.825 283.111,81.492 284.037,79.938 285.168 M189.775 284.230 C 187.445 290.357,188.852 297.329,192.418 297.336 C 193.288 297.338,195.361 297.468,197.025 297.625 L 200.050 297.911 199.761 296.622 C 198.303 290.137,190.983 281.053,189.775 284.230 M317.675 285.889 C 318.650 290.167,319.003 290.851,322.009 294.267 C 324.779 297.414,327.430 301.607,326.953 302.084 C 326.469 302.568,322.521 299.858,320.041 297.340 C 317.414 294.671,317.540 294.723,311.889 293.961 C 309.257 293.607,309.247 293.872,311.759 297.214 C 320.964 309.459,328.880 315.422,337.853 316.867 C 341.144 317.397,341.450 317.145,341.075 314.222 C 339.920 305.230,333.402 296.093,320.691 285.648 C 316.873 282.510,316.905 282.507,317.675 285.889 M185.262 285.283 C 181.601 287.605,180.356 292.426,182.057 297.693 C 182.944 300.442,182.780 301.132,180.237 305.333 C 177.627 309.647,176.971 311.916,176.397 318.608 C 175.862 324.857,175.956 325.121,178.699 325.049 C 181.056 324.987,181.117 324.866,180.037 322.425 C 177.643 317.014,179.789 311.150,185.083 308.637 C 188.147 307.183,191.475 304.320,192.750 302.042 C 193.199 301.239,193.373 301.232,196.943 301.885 C 201.313 302.685,201.072 302.775,200.473 300.552 L 200.000 298.793 194.561 298.474 C 191.387 298.289,188.996 297.951,188.817 297.662 C 188.009 296.354,187.469 289.938,187.951 287.363 C 188.708 283.316,188.553 283.196,185.262 285.283 M98.599 289.490 C 94.027 292.565,93.778 292.818,90.470 297.740 C 84.721 306.293,82.075 313.916,82.316 321.225 L 82.444 325.111 84.331 325.027 C 89.847 324.782,98.841 316.015,103.939 305.917 C 104.866 304.080,104.867 304.053,104.004 303.779 C 103.450 303.603,102.948 302.821,102.632 301.640 C 101.457 297.254,101.438 297.247,99.671 300.594 C 98.096 303.577,92.792 309.802,92.262 309.290 C 91.536 308.589,94.012 302.841,96.969 298.362 C 103.347 288.700,103.851 285.958,98.599 289.490 M297.853 288.740 C 298.511 291.131,299.720 293.391,302.772 297.933 C 304.226 300.096,305.725 302.596,306.102 303.488 C 306.988 305.580,307.994 309.333,307.668 309.333 C 306.699 309.333,304.043 306.419,301.534 302.600 C 298.594 298.128,297.804 297.637,297.785 300.271 C 297.781 300.787,297.253 301.983,296.611 302.928 L 295.445 304.647 296.678 306.879 C 302.468 317.353,307.344 322.316,314.211 324.722 C 317.755 325.964,317.762 325.955,317.771 320.404 C 317.788 310.007,310.786 296.239,302.447 290.275 C 297.355 286.633,297.265 286.603,297.853 288.740 M245.889 287.917 L 244.444 288.056 244.444 297.614 L 244.444 307.172 245.809 306.200 C 250.653 302.750,251.644 299.724,249.791 294.031 C 247.836 288.028,247.657 287.747,245.889 287.917 M150.516 292.911 C 148.233 299.801,148.286 300.053,152.992 304.811 L 155.333 307.178 155.454 298.157 C 155.592 287.805,155.627 288.000,153.641 288.000 L 152.143 288.000 150.516 292.911 M117.832 299.889 C 116.323 305.023,114.382 309.409,112.856 311.133 L 111.499 312.667 111.754 310.105 C 111.894 308.696,112.707 305.515,113.560 303.036 C 114.413 300.556,115.111 298.476,115.111 298.413 C 115.111 298.035,109.830 301.340,108.641 302.462 C 104.690 306.190,102.799 320.891,105.579 326.267 C 108.328 331.584,121.318 314.565,121.331 305.628 C 121.333 303.989,119.709 297.465,119.127 296.778 C 118.972 296.595,118.389 297.995,117.832 299.889 M134.497 297.222 C 134.371 297.650,133.774 300.226,133.170 302.946 C 131.724 309.464,128.270 316.092,129.037 310.879 C 129.609 306.986,129.848 303.556,129.546 303.556 C 128.758 303.556,123.940 306.832,123.452 307.700 C 121.855 310.540,123.101 322.373,125.304 325.294 L 126.111 326.364 127.716 325.372 C 132.227 322.583,136.604 314.882,137.797 307.633 C 138.522 303.226,135.520 293.753,134.497 297.222 M263.457 299.444 C 261.028 304.740,261.462 309.198,265.112 316.446 C 268.120 322.419,273.182 327.357,274.480 325.583 C 276.996 322.141,278.191 310.275,276.309 307.404 C 275.625 306.360,271.201 303.111,270.464 303.111 C 270.328 303.111,270.334 305.161,270.475 307.667 L 270.732 312.222 269.625 311.018 C 268.456 309.746,267.820 307.823,266.241 300.778 C 265.085 295.623,265.188 295.672,263.457 299.444 M279.563 300.810 C 278.232 305.616,278.282 307.054,279.933 311.305 C 283.085 319.422,289.808 327.556,293.366 327.556 C 294.921 327.556,296.424 318.460,295.606 314.000 C 294.410 307.480,292.837 303.520,290.911 302.182 C 289.921 301.494,288.270 300.322,287.241 299.577 C 284.789 297.801,284.747 297.829,285.811 300.529 C 286.927 303.360,288.437 309.539,288.441 311.291 C 288.449 314.588,285.123 309.021,282.694 301.671 C 280.883 296.193,280.845 296.182,279.563 300.810 M192.457 304.501 C 191.972 305.570,191.571 306.867,191.565 307.382 C 191.560 307.898,191.087 309.011,190.514 309.855 L 189.473 311.390 191.567 315.362 C 193.307 318.661,193.859 319.357,194.831 319.474 C 196.276 319.648,196.281 319.735,194.667 316.667 C 192.703 312.933,192.852 311.597,195.477 309.399 C 199.198 306.284,199.988 303.139,197.056 303.118 C 196.536 303.114,195.487 302.986,194.725 302.834 C 193.427 302.574,193.283 302.680,192.457 304.501 M40.656 305.667 C 40.760 306.339,40.954 308.151,41.086 309.695 C 41.224 311.316,41.609 312.783,41.996 313.171 C 43.000 314.175,42.811 314.667,41.418 314.667 C 39.200 314.667,38.458 313.758,39.097 311.822 C 39.777 309.760,39.899 309.857,36.196 309.515 C 31.982 309.126,31.306 309.810,31.702 314.059 C 32.028 317.552,32.004 317.515,33.498 316.834 C 35.368 315.982,36.889 316.899,36.889 318.879 C 36.889 320.600,36.636 320.751,35.309 319.822 C 34.520 319.269,27.117 318.068,26.752 318.433 C 25.516 319.669,28.724 323.636,32.642 325.716 L 35.283 327.119 36.807 325.670 C 37.645 324.874,38.688 323.650,39.124 322.951 L 39.917 321.680 40.296 324.062 C 40.734 326.813,41.321 326.994,41.997 324.586 C 42.790 321.759,44.000 322.056,44.000 325.079 C 44.000 327.986,44.905 328.355,47.595 326.542 C 50.669 324.470,50.443 321.556,47.208 321.556 C 44.176 321.556,44.499 320.488,47.885 319.324 C 49.666 318.711,50.220 317.251,48.778 316.973 C 48.314 316.884,48.000 317.095,48.000 317.497 C 48.000 318.549,47.228 318.774,45.537 318.216 L 43.980 317.702 45.428 316.727 C 49.540 313.956,48.399 307.572,43.385 305.295 C 40.865 304.150,40.430 304.209,40.656 305.667 M151.111 308.492 C 151.111 309.277,150.382 313.491,149.491 317.857 C 148.599 322.224,147.984 325.910,148.122 326.048 C 148.261 326.187,149.987 325.432,151.959 324.372 L 155.543 322.444 155.544 316.222 L 155.545 310.000 153.889 308.889 C 152.979 308.278,151.982 307.618,151.673 307.422 C 151.263 307.163,151.111 307.453,151.111 308.492 M246.106 308.738 L 244.444 309.920 244.444 316.002 C 244.444 321.233,244.553 322.183,245.223 322.789 C 245.830 323.339,251.685 326.222,252.194 326.222 C 252.255 326.222,251.654 323.332,250.857 319.799 C 250.060 316.267,249.268 312.067,249.097 310.466 C 248.746 307.184,248.494 307.039,246.106 308.738 M172.007 316.966 C 172.003 317.620,171.400 319.653,170.667 321.485 C 167.845 328.532,170.297 333.121,177.179 333.673 L 180.080 333.906 179.762 331.286 C 179.352 327.901,179.443 328.000,176.739 328.000 C 172.667 328.000,172.285 327.426,172.624 321.826 C 172.802 318.900,172.740 316.858,172.462 316.444 C 172.106 315.915,172.012 316.022,172.007 316.966 M149.778 327.825 C 146.722 329.144,143.172 330.560,141.889 330.971 C 139.048 331.880,139.049 331.876,141.667 333.869 C 144.877 336.314,147.238 337.113,151.212 337.099 C 155.667 337.083,155.608 337.171,155.459 330.788 L 155.333 325.427 149.778 327.825 M244.444 331.087 L 244.444 336.818 247.336 337.128 C 251.086 337.529,253.647 336.872,257.444 334.532 C 261.347 332.128,261.260 331.958,255.111 329.991 C 253.767 329.561,251.297 328.525,249.623 327.688 C 247.949 326.851,246.099 325.984,245.512 325.761 L 244.444 325.355 244.444 331.087 M51.644 329.422 C 50.468 330.598,51.964 332.334,72.525 353.667 C 89.072 370.834,89.701 371.345,91.552 369.116 C 93.418 366.867,93.235 366.654,72.218 346.639 C 52.140 327.517,52.907 328.159,51.644 329.422 M139.127 338.517 C 137.791 338.879,135.000 339.420,132.926 339.720 L 129.153 340.264 131.066 342.178 C 136.169 347.280,145.133 348.342,147.283 344.099 C 147.870 342.940,148.753 341.495,149.244 340.889 L 150.137 339.786 146.760 338.782 C 142.898 337.634,142.444 337.618,139.127 338.517 M253.222 338.814 C 249.158 339.930,249.274 339.498,252.038 343.242 C 254.536 346.626,255.765 347.308,258.667 346.922 C 261.927 346.489,271.379 341.454,270.529 340.604 C 270.307 340.381,257.718 337.779,257.111 337.830 C 256.867 337.851,255.117 338.294,253.222 338.814 M153.309 340.684 C 149.463 343.518,146.077 349.603,144.941 355.723 L 144.538 357.891 147.491 357.592 C 155.468 356.784,162.242 353.607,164.245 349.734 C 165.110 348.061,165.167 348.165,162.778 347.110 C 160.183 345.965,157.687 343.595,156.647 341.290 C 155.727 339.250,155.348 339.181,153.309 340.684 M242.955 341.982 C 241.616 344.545,239.896 346.111,237.333 347.098 C 235.101 347.959,234.957 348.190,235.724 349.674 C 237.625 353.350,244.985 356.851,252.334 357.575 L 255.453 357.883 255.027 355.537 C 253.964 349.687,250.789 343.819,247.209 341.085 C 244.600 339.093,244.448 339.125,242.955 341.982 M305.528 346.556 C 305.689 347.228,305.933 348.157,306.072 348.621 C 306.330 349.486,305.189 349.497,303.000 348.650 C 302.317 348.386,302.222 348.648,302.222 350.810 L 302.222 353.271 303.664 352.858 C 305.932 352.207,306.362 352.313,306.048 353.444 C 305.145 356.700,305.016 356.444,307.566 356.444 L 309.894 356.444 309.652 355.000 C 309.518 354.206,309.257 353.171,309.072 352.701 C 308.807 352.030,308.888 351.904,309.447 352.119 C 309.839 352.269,310.889 352.529,311.782 352.697 L 313.405 353.001 313.090 350.834 C 312.704 348.179,312.934 348.381,310.933 348.933 C 308.812 349.519,308.738 349.427,309.531 347.180 L 310.183 345.333 307.710 345.333 C 305.238 345.333,305.237 345.334,305.528 346.556 M130.672 350.131 C 127.789 353.139,124.988 357.512,125.674 357.936 C 126.908 358.699,134.334 359.631,137.244 359.389 C 141.349 359.047,142.114 358.631,142.460 356.550 C 142.612 355.636,143.121 353.700,143.590 352.247 C 144.721 348.749,144.786 348.889,142.040 348.889 C 140.717 348.889,138.367 348.491,136.817 348.006 C 135.268 347.520,133.903 347.120,133.783 347.117 C 133.664 347.114,132.264 348.470,130.672 350.131 M263.111 348.018 C 261.767 348.467,259.493 348.847,258.059 348.862 C 255.573 348.888,255.465 348.935,255.736 349.889 C 255.892 350.439,256.451 352.551,256.977 354.582 C 257.660 357.217,258.199 358.423,258.856 358.790 C 260.356 359.629,269.105 359.458,272.129 358.531 L 274.703 357.742 273.463 355.427 C 272.208 353.084,266.771 347.073,265.983 347.157 C 265.748 347.182,264.456 347.570,263.111 348.018 M167.898 348.874 C 165.182 351.010,164.978 357.964,167.474 363.299 C 169.220 367.029,169.282 367.011,171.800 362.111 C 174.301 357.244,175.848 354.861,178.651 351.556 C 179.792 350.211,180.873 348.861,181.055 348.556 C 181.685 347.497,169.266 347.797,167.898 348.874 M184.629 348.431 C 183.521 348.879,179.450 353.422,178.376 355.408 L 177.615 356.816 180.030 359.425 C 181.358 360.860,183.106 363.277,183.915 364.795 C 185.621 367.998,185.688 368.026,186.964 366.056 C 188.723 363.339,189.081 361.299,188.512 357.229 C 188.230 355.209,187.999 352.306,187.999 350.778 C 188.000 347.781,187.352 347.330,184.629 348.431 M211.841 352.333 C 211.688 354.717,211.440 357.779,211.289 359.139 C 210.990 361.833,212.144 365.411,213.793 366.903 C 214.577 367.612,214.675 367.537,215.863 365.322 C 216.550 364.043,218.281 361.518,219.711 359.710 C 222.688 355.947,222.734 356.358,218.829 351.901 C 214.067 346.466,212.210 346.581,211.841 352.333 M219.399 349.024 C 223.785 354.607,226.493 358.571,227.959 361.556 C 230.831 367.402,230.671 367.351,232.666 363.046 C 234.728 358.596,234.856 356.085,233.265 351.333 L 232.222 348.222 225.399 348.099 L 218.575 347.976 219.399 349.024 M190.341 352.778 C 190.807 360.277,197.599 375.380,200.132 374.552 C 204.156 373.238,212.921 348.889,209.370 348.889 C 207.636 348.889,203.985 351.911,201.842 355.121 L 200.078 357.763 197.483 354.471 C 194.983 351.299,192.071 348.889,190.738 348.889 C 190.212 348.889,190.142 349.579,190.341 352.778 M159.428 356.505 C 155.414 358.528,155.111 359.035,155.111 363.726 C 155.111 367.958,156.104 371.177,158.087 373.372 C 159.983 375.470,159.899 375.520,160.677 371.804 C 161.017 370.181,161.926 367.611,162.698 366.093 C 164.138 363.260,164.309 359.900,163.214 355.936 L 162.889 354.760 159.428 356.505 M236.735 356.129 C 235.794 361.587,235.793 361.575,238.054 368.485 C 240.516 376.006,240.347 375.820,242.134 373.000 C 246.831 365.587,246.217 359.347,240.506 356.476 L 236.981 354.703 236.735 356.129 M306.333 358.951 C 305.077 359.480,306.092 362.667,307.517 362.667 C 309.599 362.667,310.062 358.962,308.000 358.803 C 307.389 358.756,306.639 358.823,306.333 358.951 M147.556 359.729 L 143.333 360.222 142.308 363.778 C 141.291 367.308,141.011 375.385,141.876 376.247 C 142.826 377.194,150.688 373.096,152.797 370.556 C 153.526 369.677,153.032 359.076,152.267 359.173 C 151.998 359.208,149.878 359.458,147.556 359.729 M247.108 361.173 C 247.107 362.361,246.981 364.933,246.829 366.889 L 246.553 370.444 249.640 372.572 C 251.338 373.743,253.913 375.184,255.363 375.774 L 258.000 376.849 258.289 375.869 C 259.264 372.561,257.867 361.324,256.365 360.395 C 256.114 360.240,254.579 359.982,252.954 359.822 C 251.329 359.662,249.350 359.414,248.556 359.271 L 247.111 359.012 247.108 361.173 M300.731 360.035 C 295.318 362.231,291.471 366.288,289.630 371.742 C 288.683 374.547,288.170 374.376,296.422 374.001 L 303.556 373.677 303.556 366.394 C 303.556 362.388,303.406 359.122,303.222 359.135 C 303.039 359.149,301.918 359.554,300.731 360.035 M311.556 366.166 C 311.556 370.079,311.706 373.371,311.889 373.481 C 312.072 373.592,315.402 373.829,319.289 374.009 L 326.356 374.336 326.060 372.835 C 324.929 367.105,319.152 361.337,312.556 359.352 L 311.556 359.051 311.556 366.166 M132.667 361.744 C 130.085 362.010,129.761 362.200,122.530 367.678 C 118.422 370.790,114.443 373.656,113.689 374.046 L 112.319 374.755 114.159 376.437 C 115.589 377.744,116.000 378.440,116.000 379.552 C 116.000 380.892,116.080 380.966,117.222 380.686 C 121.933 379.532,137.815 371.247,138.594 369.537 C 138.850 368.976,139.281 367.251,139.552 365.703 C 139.824 364.155,140.149 362.539,140.275 362.111 C 140.526 361.258,138.379 361.155,132.667 361.744 M259.715 362.059 C 260.319 364.047,260.868 366.998,260.878 368.311 C 260.895 370.582,265.561 373.355,278.621 378.853 C 285.667 381.819,285.490 381.799,285.121 379.612 C 284.926 378.462,285.063 377.332,285.532 376.209 C 286.439 374.038,286.486 374.090,278.102 368.057 C 268.604 361.222,269.394 361.597,264.068 361.400 C 259.737 361.239,259.478 361.279,259.715 362.059 M306.556 364.480 C 304.504 365.675,306.451 369.035,308.556 367.932 C 309.639 367.364,309.584 365.054,308.474 364.460 C 307.451 363.913,307.531 363.912,306.556 364.480 M188.915 366.911 C 186.975 370.348,184.358 372.828,180.318 375.058 C 176.480 377.177,176.374 377.351,178.148 378.614 C 181.516 381.012,187.701 381.430,190.029 379.416 C 191.481 378.161,192.841 369.764,192.033 367.053 C 191.165 364.143,190.494 364.113,188.915 366.911 M208.229 366.207 C 207.647 367.498,207.516 368.479,207.739 369.874 C 207.906 370.921,208.222 373.278,208.442 375.111 C 208.661 376.944,208.852 378.490,208.865 378.547 C 209.208 380.007,215.971 381.202,218.585 380.263 C 223.562 378.476,223.984 377.351,220.333 375.607 C 216.501 373.776,214.178 371.651,211.753 367.761 C 209.353 363.910,209.279 363.878,208.229 366.207 M305.951 370.857 C 305.323 372.493,305.955 373.556,307.556 373.556 C 309.032 373.556,309.118 373.471,309.249 371.889 C 309.397 370.102,306.579 369.220,305.951 370.857 M94.904 372.682 L 93.308 374.278 94.274 375.998 L 95.241 377.718 98.620 377.637 C 100.479 377.592,102.900 377.713,104.000 377.905 L 106.000 378.255 103.459 375.873 C 102.061 374.562,99.924 372.949,98.709 372.288 L 96.500 371.086 94.904 372.682 M203.195 374.712 C 200.306 378.464,200.235 378.466,197.094 374.889 C 193.746 371.075,193.614 371.134,193.885 376.333 C 194.212 382.588,197.447 389.333,200.121 389.333 C 202.527 389.333,205.808 382.492,206.117 376.831 C 206.420 371.278,206.047 371.008,203.195 374.712 M306.224 376.440 C 305.005 378.720,306.999 380.731,308.929 379.168 C 309.826 378.442,309.853 378.278,309.280 377.079 C 308.506 375.459,306.926 375.129,306.224 376.440 M300.296 376.296 C 299.757 376.836,299.989 378.993,300.645 379.538 C 302.114 380.757,303.903 379.221,303.390 377.180 C 303.101 376.027,301.129 375.464,300.296 376.296 M312.265 376.580 C 310.819 377.638,311.503 379.311,313.448 379.471 C 315.382 379.631,315.970 378.819,315.179 377.083 C 314.634 375.887,313.484 375.689,312.265 376.580 M294.243 377.087 C 293.165 378.385,293.853 379.766,295.652 379.915 C 297.106 380.036,297.338 379.915,297.590 378.909 C 298.106 376.855,295.577 375.479,294.243 377.087 M317.795 377.301 C 316.875 379.019,318.736 380.915,320.444 380.000 C 321.336 379.523,321.567 378.459,321.064 377.147 C 320.673 376.130,318.364 376.238,317.795 377.301 M324.376 377.300 C 322.938 378.464,323.536 380.444,325.326 380.444 C 326.189 380.444,326.801 380.135,327.120 379.539 C 328.214 377.495,326.182 375.837,324.376 377.300 M287.902 377.660 C 287.467 379.323,288.320 380.513,289.840 380.362 C 292.786 380.069,292.651 377.232,289.680 376.977 C 288.467 376.872,288.068 377.026,287.902 377.660 M107.686 378.778 C 106.734 379.572,105.465 380.548,104.866 380.946 L 103.778 381.670 105.556 382.188 C 110.792 383.715,113.778 383.130,113.778 380.578 C 113.778 377.565,110.353 376.553,107.686 378.778 M96.333 379.545 C 94.023 381.368,94.993 384.000,97.976 384.000 C 99.245 384.000,104.005 379.857,103.415 379.267 C 102.524 378.376,97.569 378.570,96.333 379.545 M188.653 383.530 C 173.221 397.033,160.183 401.057,149.883 395.493 L 146.656 393.749 146.184 394.985 C 144.417 399.624,144.722 402.549,147.331 405.967 L 148.860 407.970 145.875 410.541 C 135.593 419.393,131.111 426.798,131.111 434.938 C 131.111 448.855,145.003 456.925,158.180 450.662 C 162.727 448.502,162.756 448.461,160.820 447.034 C 152.760 441.089,150.515 433.648,154.352 425.591 C 157.438 419.109,160.381 415.841,178.189 399.108 C 187.893 389.991,192.444 384.798,192.444 382.847 C 192.444 380.754,191.664 380.895,188.653 383.530 M207.836 381.645 C 205.851 383.631,209.004 387.201,231.556 408.503 C 235.833 412.544,240.295 417.033,241.471 418.480 C 249.905 428.858,249.415 439.688,240.227 446.017 L 237.763 447.714 238.925 448.927 C 247.940 458.336,267.499 450.698,268.726 437.289 C 269.585 427.900,259.940 411.631,252.024 409.119 C 251.184 408.852,251.245 408.625,253.122 405.066 C 255.386 400.774,255.627 398.735,254.234 395.667 C 253.207 393.403,253.568 393.434,250.405 395.338 C 240.860 401.086,229.804 398.151,214.184 385.722 C 209.560 382.042,208.269 381.213,207.836 381.645 M297.778 382.076 C 290.668 382.465,289.778 382.660,289.778 383.831 C 289.778 386.109,293.257 391.045,294.367 390.341 C 294.663 390.154,295.757 389.420,296.797 388.711 C 298.036 387.868,299.452 387.350,300.900 387.210 C 303.355 386.975,303.362 386.983,302.496 389.056 C 302.158 389.865,301.741 391.739,301.569 393.218 L 301.257 395.909 303.184 396.209 C 304.244 396.374,305.461 396.608,305.889 396.729 C 306.532 396.911,306.667 396.655,306.667 395.249 C 306.667 394.288,307.150 392.641,307.778 391.461 C 308.389 390.313,308.889 388.665,308.889 387.798 C 308.889 384.147,312.144 386.357,314.184 391.394 C 315.103 393.663,315.637 394.444,316.266 394.444 C 317.582 394.444,317.730 388.967,316.471 386.834 C 315.045 384.418,318.579 384.353,322.625 386.721 C 323.831 387.428,324.214 387.489,324.515 387.026 C 325.081 386.152,325.951 383.136,325.707 382.892 C 324.964 382.149,306.369 381.606,297.778 382.076 M100.613 384.194 C 96.941 385.792,96.632 390.222,100.192 390.222 C 102.202 390.222,103.611 389.167,104.202 387.220 C 104.369 386.669,105.010 385.619,105.626 384.886 L 106.746 383.556 104.373 383.573 C 103.068 383.583,101.376 383.862,100.613 384.194 M111.222 387.222 C 111.353 388.585,111.194 390.387,110.839 391.555 C 110.505 392.655,110.230 393.601,110.227 393.658 C 110.215 393.917,113.807 395.551,114.316 395.518 C 114.631 395.497,115.579 394.679,116.422 393.699 L 117.955 391.918 116.940 390.005 C 114.172 384.787,110.832 383.161,111.222 387.222 M106.452 387.257 C 103.011 390.554,104.008 393.768,107.979 392.179 C 109.765 391.464,109.778 391.442,109.778 389.099 C 109.778 384.758,109.323 384.506,106.452 387.257 M205.539 386.693 C 204.613 388.191,206.503 393.965,211.786 405.778 C 225.732 436.958,225.514 448.954,210.987 449.690 C 206.567 449.914,206.573 449.904,208.704 453.620 C 213.288 461.615,227.552 462.511,235.528 455.305 C 237.166 453.825,238.991 451.213,238.588 450.926 C 238.509 450.869,237.794 450.374,236.999 449.825 C 234.275 447.944,234.287 447.236,237.068 445.962 C 246.892 441.465,241.751 426.561,222.889 404.860 C 219.222 400.642,215.748 396.772,215.168 396.262 C 214.588 395.751,212.518 393.433,210.568 391.111 C 206.791 386.613,206.012 385.929,205.539 386.693 M192.071 388.068 C 191.421 388.839,188.389 392.200,185.333 395.537 C 167.567 414.938,161.644 423.589,158.915 434.120 C 157.212 440.692,158.141 443.724,162.493 445.801 L 165.431 447.203 163.391 449.275 L 161.350 451.347 162.156 452.674 C 168.614 463.293,189.241 462.279,192.423 451.186 L 192.827 449.778 189.390 449.778 C 175.886 449.778,174.330 436.752,185.032 413.294 C 194.306 392.968,197.454 381.686,192.071 388.068 M318.572 389.444 C 318.868 393.890,320.853 395.591,323.111 393.333 C 324.566 391.879,323.608 389.098,321.122 387.563 C 318.681 386.053,318.363 386.288,318.572 389.444 M298.889 389.182 C 296.612 390.380,295.111 392.062,295.111 393.416 C 295.111 395.090,296.621 396.586,297.912 396.191 C 299.543 395.691,299.945 395.128,300.218 392.964 C 300.361 391.823,300.566 390.339,300.673 389.667 C 300.895 388.265,300.721 388.218,298.889 389.182 M310.282 389.799 C 310.022 390.543,309.402 391.670,308.905 392.303 C 307.103 394.593,308.469 398.222,311.133 398.222 C 313.935 398.222,314.470 394.807,312.351 390.446 C 311.203 388.083,310.911 387.992,310.282 389.799 M196.265 392.111 C 196.104 393.150,194.373 400.129,192.418 407.620 C 186.618 429.845,185.038 437.980,185.438 443.572 C 185.794 448.548,186.720 449.135,192.444 448.014 C 193.544 447.799,194.573 447.758,194.730 447.922 C 195.312 448.534,193.877 452.452,192.037 455.276 C 189.817 458.684,189.761 458.280,192.951 461.883 C 198.163 467.768,200.792 467.939,206.119 462.737 C 210.028 458.921,210.252 458.282,208.475 456.039 C 206.703 453.801,205.355 450.803,205.343 449.070 L 205.333 447.696 207.444 448.044 C 211.098 448.645,213.651 448.527,213.952 447.741 C 215.904 442.657,211.928 421.227,203.712 392.541 L 203.040 390.194 201.555 391.112 L 200.070 392.029 198.590 391.127 C 196.622 389.927,196.603 389.935,196.265 392.111 M119.441 397.151 C 118.311 398.282,120.006 401.124,121.624 400.812 C 122.593 400.626,123.486 398.420,122.850 397.784 C 122.258 397.191,119.848 396.744,119.441 397.151 M150.489 417.000 C 144.502 426.224,142.623 434.406,145.026 440.778 C 145.914 443.132,145.448 443.171,143.409 440.914 C 139.518 436.608,140.371 428.688,145.566 420.874 C 147.210 418.400,151.999 413.333,152.693 413.333 C 152.790 413.333,151.798 414.983,150.489 417.000 M252.626 418.318 C 259.115 425.737,260.872 436.946,256.267 441.551 C 254.573 443.245,254.277 442.913,254.981 440.111 C 256.817 432.803,255.826 427.652,251.075 419.811 C 249.384 417.020,248.000 414.607,248.000 414.449 C 248.000 413.857,250.696 416.112,252.626 418.318 M201.151 423.029 C 202.833 433.325,202.026 455.111,199.964 455.111 C 199.004 455.111,198.107 450.188,197.899 443.778 C 197.701 437.650,197.952 433.734,199.408 420.286 C 199.769 416.948,200.293 417.772,201.151 423.029 " stroke="none" fill="#000000" fill-rule="evenodd"></path></g></svg>