<svg xmlns="http://www.w3.org/2000/svg" width="352" height="354" viewBox="0 0 176 177"><path fill="#fff" d="M175.1108 80.52225c0-35.065-20.718-65.29-50.58-79.104v7.919l-8.37 3.75c26.37 11.024 44.9 37.065 44.9 67.435 0 28.193-15.963 52.652-39.341 64.833l7.847 11.744c27.131-14.759 45.544-43.514 45.544-76.577"/><path fill="#134a9d" d="m122.5815 145.57545 7.178 10.741c27.623-15.25 44.758-44.238 44.758-75.794 0-33.298-19.357-63.875-49.393-78.167v7.367l-7.483 3.354c26.784 11.773 44.013 38.097 44.013 67.446 0 27.348-14.953 52.209-39.073 65.053m6.793 12.307-8.518-12.746.587-.306c24.07-12.545 39.022-37.186 39.022-64.308 0-29.322-17.481-55.576-44.534-66.886l-1.269-.53 9.273-4.154v-8.463l.844.39c30.938 14.31 50.927 45.572 50.927 79.643 0 32.171-17.571 61.712-45.855 77.099Z"/><path fill="#fff" d="M14.939 80.52225c0-30.349 18.504-56.375 44.846-67.413l-8.316-3.772v-7.919c-29.863 13.814-50.58 44.039-50.58 79.104 0 32.945 18.283 61.613 45.255 76.418l8.263-11.516c-23.447-12.163-39.468-36.658-39.468-64.902"/><path fill="#134a9d" d="M50.8745 2.35575c-30.035 14.292-49.391 44.869-49.391 78.167 0 31.422 17.031 60.355 44.486 75.642l7.555-10.534c-24.186-12.826-39.181-37.709-39.181-65.108 0-29.326 17.212-55.644 43.968-67.428l-7.437-3.373Zm-4.554 155.361-.463-.254c-28.104-15.426-45.564-44.908-45.564-76.94 0-34.071 19.989-65.333 50.926-79.643l.843-.391v8.466l9.21 4.177-1.258.527c-27.02 11.322-44.482 37.569-44.482 66.864 0 27.183 15.001 51.848 39.149 64.372l.609.315z"/><path fill="#fff" d="m54.332 145.45435-16.383-4.545s3.42 9.526 11.014 13.016z"/><path fill="#134a9d" d="M38.9648 141.79815c1.104 2.476 4.281 8.584 9.768 11.365l4.663-7.36zm10.234 12.879-.49-.224c-7.738-3.557-11.187-12.96-11.33-13.359l-.379-1.053 18.405 5.195Z"/><path fill="#fff" d="m122.1704 145.45435 16.382-4.545s-3.419 9.526-11.012 13.016z"/><path fill="#134a9d" d="m123.105 145.80295 4.663 7.36c5.486-2.781 8.663-8.889 9.769-11.365zm-2.008-.567 18.429-5.196-.404 1.054c-.144.399-3.591 9.802-11.33 13.359l-.489.224Z"/><path fill="#134a9d" d="M139.4351 140.04025c-4.221 3.399-9.909 6.948-14.77 9.445-.925.477-1.862.936-2.809 1.377-10.252 4.767-21.677 7.43-33.728 7.43-12.044 0-23.466-2.661-33.714-7.426-.946-.441-1.883-.899-2.809-1.375-4.883-2.508-10.493-6.057-14.728-9.474l-13.378 12.249c17.276 15.096 39.886 24.245 64.629 24.245 24.624 0 47.13-9.055 64.37-24.019z"/><path fill="#fff" d="M59.2085 155.97775c.055.077.011.175-.134.306-.079.066-.145.128-.196.179-.058.077-.107.156-.143.244l-4.818 10.969-2.325-1.02 2.285-5.209-1.163-.509-2.081 4.739-2.287-1.003 4.897-11.145 1.566.69c.512.221.806.375.883.463.051.058-.001.147-.152.258-.091.06-.159.115-.203.158-.075.082-.133.172-.174.269l-1.773 4.034 1.162.511 2.23-5.078 1.46.644c.545.238.865.406.966.5m-7.819-1.994-.791 1.48-3.965-2.114-2.693 5.047.558.296c.564.301 1.182.604 1.855.911.829.376 1.599.701 2.312.977l-.45 1.619c-.954-.335-2.031-.797-3.227-1.381-.782-.362-1.665-.814-2.654-1.336l-1.478-.791 4.289-8.037z"/><path fill="#fff" d="M70.3091 168.20435c.081.071.069.189-.039.35-.049.07-.082.129-.099.156-.036.079-.062.158-.073.242l-.194 1.171 10.026 1.65-.273 1.66-12.576-2.074.606-3.676 1.498.247c.621.102.995.192 1.124.274m10.597-7.295c.227.061.382.115.47.165.075.05.106.101.098.16-.008.045-.051.12-.127.228-.077.102-.132.188-.166.255-.053.109-.089.225-.111.353l-.537 3.263 2.189.359-.282 1.726-2.193-.362-.541 3.278-2.547-.417 1.544-9.374 1.188.197c.446.076.786.13 1.015.169m-10.495 3.711c-.315.113-.496.313-.542.604-.043.26.066.499.326.708.279.235.707.398 1.283.495.563.09 1.017.071 1.357-.06.325-.112.511-.3.554-.564.047-.287-.065-.538-.338-.747-.283-.214-.709-.367-1.27-.456-.588-.098-1.044-.09-1.37.02m4.667-.136c.671.514.954 1.089.851 1.719-.102.623-.557 1.077-1.36 1.371-.88.314-2.033.354-3.46.122-1.311-.218-2.309-.61-2.996-1.185-.632-.531-.896-1.108-.796-1.73.103-.618.539-1.073 1.307-1.359.833-.324 1.906-.377 3.217-.16 1.425.233 2.503.641 3.237 1.222m2.36-2.064-.233 1.425-10.354-1.71.235-1.42zm-2.262-2.294-.237 1.426-5.174-.855.235-1.424Z"/><path fill="#fff" d="M97.4058 169.16335c.099.045.121.16.065.345-.031.111-.049.188-.055.237-.009.094-.009.188.006.282l.21 1.472 10.838-1.539.237 1.663-13.398 1.903-.578-4.07 1.503-.215c.634-.09 1.024-.117 1.172-.078m9.48-9.897c.099.02.112.125.042.309-.02.098-.036.169-.052.222-.012.094-.011.187.002.278l1.213 8.54-2.557.364-1.335-9.404 1.536-.217c.635-.091 1.018-.124 1.151-.092m-11.093 7.101 3.41-.483-.451-3.177-3.409.486Zm5.259-5.683.924 6.501-8.505 1.208-.922-6.499Z"/><path fill="#fff" d="m133.2085 154.51685-6.448 3.136.93 1.916 4.878-2.37 2.086 4.294-2.33 1.132-1.359-2.798-9.77 4.745-.724-1.494 4.91-2.385-.935-1.919-6.342 3.077-.731-1.505 10.713-5.207c-.085-.335-.208-.728-.363-1.184-.126-.394-.252-.736-.382-1.022l-9.42 4.577-.741-1.523 11.954-5.812c.315.651.595 1.303.84 1.967.245.696.429 1.299.55 1.813l1.951-.946z"/><path fill="#a49461" d="M151.2134 70.25665c3.402-2.523 4.986-7.033 3.607-11.278-1.35-4.158-5.172-6.962-9.533-7.004-.068-.706-.213-1.408-.434-2.091-1.328-4.085-5.157-6.829-9.529-6.829-.424 0-.846.025-1.266.078-.048-.186-.102-.37-.162-.555-1.328-4.082-5.157-6.828-9.529-6.828-1.083 0-2.157.172-3.195.51-.298.097-.598.21-.894.34.081-.517.123-1.034.123-1.536 0-5.596-4.461-10.148-9.944-10.148-.193 0-.386.005-.576.015-.9-4.656-4.933-8.179-9.756-8.179-.719 0-1.432.079-2.125.231-1.35-4.008-5.147-6.903-9.605-6.903-4.465 0-8.264 2.9-9.613 6.918-.71-.163-1.443-.246-2.183-.246-4.824 0-8.856 3.523-9.755 8.179-.193-.01-.385-.015-.579-.015-5.482 0-9.941 4.552-9.941 10.148 0 .642.06 1.285.179 1.915-.549-.291-1.11-.538-1.671-.719-1.037-.338-2.114-.51-3.196-.51-4.373 0-8.201 2.746-9.528 6.828-.06.185-.113.369-.163.555-.42-.053-.842-.078-1.265-.078-4.372 0-8.201 2.744-9.528 6.829-.223.683-.369 1.385-.435 2.091-4.36.042-8.183 2.846-9.536 7.004-.836 2.574-.619 5.321.609 7.732.726 1.422 1.751 2.628 2.998 3.549-.373.627-.679 1.296-.907 1.998-1.491 4.588.614 9.511 4.765 11.807-.07.178-.134.359-.195.544-1.693 5.213 1.258 10.866 6.579 12.597.385.124.774.226 1.17.305-.333.343-.637.703-.905 1.073-1.587 2.18-2.25 4.84-1.867 7.483.385 2.669 1.786 5.002 3.943 6.57.159.114.318.223.479.326-2.01 4.295-.817 9.518 3.084 12.352.583.421 1.203.778 1.856 1.061-1.263 4.037.106 8.61 3.713 11.232 1.744 1.266 3.801 1.936 5.952 1.936 2.131 0 4.188-.678 5.887-1.886.481.551 1.024 1.049 1.625 1.485 1.684 1.223 3.677 1.87 5.765 1.87 2.578 0 5.058-1.005 6.934-2.754.15.122.3.24.459.355 1.682 1.223 3.675 1.867 5.763 1.867 3.237 0 6.319-1.583 8.245-4.233.328-.452.617-.93.868-1.424.252.494.542.972.868 1.424 1.927 2.65 5.01 4.233 8.248 4.233 2.087 0 4.079-.644 5.762-1.868.158-.114.31-.232.457-.354 1.878 1.749 4.356 2.754 6.935 2.754 2.088 0 4.082-.647 5.764-1.87.601-.436 1.147-.936 1.626-1.485 1.7 1.208 3.758 1.886 5.889 1.886 2.15 0 4.207-.67 5.951-1.936 3.608-2.622 4.977-7.195 3.713-11.232.651-.283 1.274-.64 1.855-1.061 2.16-1.569 3.561-3.902 3.947-6.57.288-1.989-.018-3.985-.862-5.782.163-.104.32-.212.476-.326 2.159-1.568 3.561-3.901 3.945-6.57.383-2.643-.28-5.303-1.866-7.483-.269-.37-.575-.73-.906-1.073.396-.079.786-.181 1.17-.305 5.321-1.731 8.273-7.384 6.58-12.597-.062-.185-.127-.368-.195-.544 4.151-2.296 6.254-7.219 4.763-11.807-.229-.705-.533-1.375-.908-2.001"/><path fill="#a49461" d="M60.1997 39.61845c.004.016.006.024.008.031-.003-.013-.008-.031-.008-.031"/><path fill="#dbb852" d="M110.1489 27.36595c-1.059 0-2.065.23-2.978.643.059-.382.088-.77.088-1.169 0-4.203-3.316-7.611-7.407-7.611-1.516 0-2.928.472-4.1 1.276.003-.108.006-.218.006-.325 0-4.197-3.401-7.599-7.596-7.599s-7.598 3.402-7.598 7.599c0 .124.004.247.011.371-1.188-.832-2.624-1.322-4.168-1.322-4.091 0-7.406 3.408-7.406 7.611 0 .399.028.787.086 1.169-.912-.413-1.918-.643-2.978-.643-4.089 0-7.407 3.408-7.407 7.611 0 1.711.573 3.372 1.498 4.641 0 0 6.714 8.057 14.885 7.798l26.593.091c6.868.216 12.333-5.13 13.689-6.741 1.247-1.362 2.189-3.77 2.189-5.789 0-4.203-3.315-7.611-7.407-7.611"/><path fill="#a49461" d="M60.208 39.64965c.006.016.009.027 0 0"/><path fill="#a49461" d="m88.0366 31.91335 8.109 15.48h-16.032Z"/><path fill="#a49461" d="M40.6323 94.53445c.015.002.025.002.032.002-.014 0-.032-.002-.032-.002"/><path fill="#dbb852" d="M44.4136 43.24095c-.327 1.006-.42 2.034-.309 3.03-.344-.173-.707-.322-1.085-.444-3.995-1.298-8.26.803-9.524 4.692-.469 1.444-.457 2.931-.056 4.295-.1-.038-.202-.074-.306-.108-3.99-1.297-8.277.887-9.573 4.877-1.298 3.99.888 8.278 4.878 9.575.118.037.237.071.355.105-1.157.871-2.066 2.084-2.544 3.556-1.263 3.889.953 8.094 4.948 9.393.379.124.758.217 1.138.278-.673.742-1.203 1.627-1.53 2.634-1.265 3.89.951 8.1 4.949 9.401 1.626.527 3.384.498 4.878.009 0 0 10.344-3.472 12.624-11.325l8.304-25.262c2.329-6.467-1.675-13.742-2.789-15.528-.912-1.608-2.91-3.248-4.829-3.871-3.999-1.299-8.265.803-9.529 4.693"/><path fill="#a49461" d="M40.6646 94.53635c.017 0 .028.001 0 0"/><path fill="#a49461" d="m41.9063 65.67605 17.227-2.928-4.954 15.247Z"/><path fill="#a49461" d="M86.3989 129.70725c.006-.014.011-.023.011-.029-.004.01-.011.029-.011.029"/><path fill="#dbb852" d="M38.7866 110.26005c.857.623 1.808 1.029 2.787 1.231-.271.275-.525.572-.759.894-2.468 3.399-1.789 8.104 1.521 10.508 1.228.893 2.645 1.34 4.068 1.38-.069.085-.135.171-.2.258-2.465 3.396-1.712 8.147 1.682 10.613 3.394 2.467 8.146 1.714 10.612-1.681.073-.101.143-.202.211-.307.471 1.373 1.345 2.611 2.595 3.52 3.311 2.404 7.994 1.597 10.463-1.804.234-.32.44-.653.618-.995.494.869 1.175 1.647 2.03 2.269 3.31 2.405 7.997 1.597 10.468-1.804 1.004-1.382 1.518-3.062 1.516-4.635 0 0-.31-11.418-7.07-16.01l-21.46-15.706c-5.431-4.215-13.383-2.147-15.428-1.639-1.808.369-3.986 1.764-5.172 3.397-2.469 3.401-1.791 8.106 1.518 10.511"/><path fill="#a49461" d="M86.4097 129.67795c.007-.017.01-.027 0 0"/><path fill="#a49461" d="m59.3481 119.57835 2.54-17.289 12.97 9.424Z"/><path fill="#a49461" d="M134.9087 94.53445c-.015.002-.023.002-.032.002.014 0 .032-.002.032-.002"/><path fill="#dbb852" d="M131.687 43.24095c.328 1.006.421 2.034.312 3.03.343-.173.705-.322 1.083-.444 3.996-1.298 8.259.803 9.526 4.692.469 1.444.457 2.931.055 4.295.099-.038.202-.074.306-.108 3.99-1.297 8.277.887 9.574 4.877 1.296 3.99-.887 8.278-4.878 9.575-.118.037-.239.071-.358.105 1.159.871 2.067 2.084 2.545 3.556 1.264 3.889-.951 8.094-4.948 9.393-.378.124-.756.217-1.138.278.674.742 1.203 1.627 1.53 2.634 1.267 3.89-.952 8.1-4.949 9.401-1.626.527-3.384.498-4.877.009 0 0-10.332-3.355-12.611-11.206l-8.305-25.262c-2.329-6.468 1.665-13.861 2.777-15.647.91-1.608 2.91-3.248 4.831-3.871 3.996-1.299 8.262.803 9.525 4.693"/><path fill="#a49461" d="M134.8765 94.53635c-.016 0-.026.001 0 0"/><path fill="#a49461" d="m134.1958 65.67605-17.228-2.928 4.955 15.247z"/><path fill="#a49461" d="M89.1401 129.70725c-.003-.014-.007-.023-.01-.029.005.01.01.029.01.029"/><path fill="#dbb852" d="M137.3159 110.26005c-.855.623-1.807 1.029-2.787 1.231.27.275.524.572.757.894 2.47 3.399 1.79 8.104-1.521 10.508-1.225.893-2.644 1.34-4.066 1.38.067.085.134.171.198.258 2.467 3.396 1.714 8.147-1.68 10.613-3.395 2.467-8.146 1.714-10.613-1.681-.073-.101-.144-.202-.211-.307-.472 1.373-1.345 2.611-2.595 3.52-3.309 2.404-7.996 1.597-10.463-1.804-.233-.32-.439-.653-.618-.995-.494.869-1.174 1.647-2.03 2.269-3.31 2.405-7.995 1.597-10.465-1.804-1.006-1.382-1.52-3.062-1.518-4.635 0 0 .621-11.28 7.383-15.875l21.46-15.702c5.429-4.217 13.071-2.286 15.114-1.778 1.809.369 3.985 1.764 5.173 3.397 2.47 3.401 1.791 8.106-1.518 10.511"/><path fill="#a49461" d="M89.1304 129.67795c-.006-.017-.009-.027 0 0"/><path fill="#a49461" d="m116.7524 119.57835-2.537-17.289-12.972 9.424Z"/><path fill="#a49461" d="M88.0005 46.01005c-18.907 0-34.287 15.379-34.287 34.285 0 18.909 15.38 34.291 34.287 34.291 18.905 0 34.284-15.382 34.284-34.291 0-18.906-15.379-34.285-34.284-34.285m0 71.367c-5.006 0-9.861-.981-14.433-2.915-4.415-1.866-8.38-4.541-11.785-7.945-3.404-3.404-6.078-7.369-7.945-11.786-1.934-4.575-2.914-9.431-2.914-14.436 0-5.005.98-9.861 2.914-14.432 1.867-4.415 4.541-8.38 7.945-11.785 3.405-3.404 7.37-6.078 11.785-7.945 4.572-1.933 9.427-2.914 14.433-2.914 5.004 0 9.859.981 14.432 2.914 4.416 1.867 8.38 4.541 11.785 7.945 3.404 3.405 6.077 7.37 7.946 11.785 1.933 4.571 2.911 9.427 2.911 14.432 0 5.005-.978 9.861-2.911 14.436-1.869 4.417-4.542 8.382-7.946 11.786-3.405 3.404-7.369 6.079-11.785 7.945-4.573 1.934-9.428 2.915-14.432 2.915"/><path fill="#fff" d="M123.1743 80.29515c0 19.432-15.747 35.181-35.174 35.181-19.426 0-35.176-15.749-35.176-35.181 0-19.426 15.75-35.175 35.176-35.175 19.427 0 35.174 15.749 35.174 35.175"/><path fill="#d0303c" d="M88.0005 47.82595c-11.161 0-21.007 5.631-26.852 14.207l.011.014c-1.846 2.635-2.93 5.843-2.93 9.303 0 8.966 7.27 16.234 16.235 16.234 5.626 0 10.624-2.943 13.537-7.288v-.001c2.923-4.273 7.802-7 13.371-7 8.967 0 16.233 7.268 16.233 16.235 0 3.049-.838 5.904-2.3 8.343l.002.001c3.266-5.071 5.162-11.103 5.162-17.579 0-17.932-14.536-32.469-32.469-32.469"/><path fill="#134a9d" d="M117.606 89.53005c0-8.967-7.267-16.235-16.233-16.235-5.57 0-10.446 2.731-13.371 7.003v-.002c-2.914 4.345-7.912 7.288-13.537 7.288-8.966 0-16.235-7.268-16.235-16.234 0-3.46 1.084-6.668 2.93-9.303l-.012-.014c-3.545 5.203-5.618 11.49-5.618 18.262 0 17.937 14.537 32.475 32.471 32.475 11.456 0 21.527-5.933 27.306-14.896l-.002-.001c1.462-2.439 2.301-5.294 2.301-8.343"/></svg>